<svg width="22" height="22" viewBox="0 0 22 22" fill="none" xmlns="http://www.w3.org/2000/svg">
<path d="M1.29248 10.3496C1.28987 8.1383 2.0962 6.00238 3.55949 4.34444C5.02279 2.68651 7.04199 1.62107 9.23652 1.34894C11.431 1.07681 13.6493 1.61679 15.4732 2.8671C17.2972 4.11741 18.6008 5.9917 19.1384 8.13669C19.7544 8.43175 20.2798 8.8821 20.6654 9.43857C20.5185 7.78158 19.9745 6.18439 19.0794 4.78224C18.1843 3.38009 16.9645 2.21427 15.5233 1.38351C14.0821 0.552741 12.4619 0.0814908 10.8 0.00965804C9.13806 -0.0621748 7.48328 0.267526 5.97578 0.970842C4.46827 1.67416 3.15245 2.73038 2.13971 4.05007C1.12697 5.36976 0.447154 6.91405 0.157812 8.55219C-0.13153 10.1903 -0.0218728 11.8741 0.477499 13.4608C0.976871 15.0476 1.85125 16.4907 3.0266 17.6679C3.14864 17.7857 3.31209 17.851 3.48174 17.8495C3.6514 17.848 3.81369 17.78 3.93366 17.66C4.05363 17.54 4.12168 17.3777 4.12316 17.2081C4.12463 17.0384 4.05941 16.875 3.94154 16.7529C3.10001 15.9127 2.43277 14.9144 1.97816 13.8156C1.52356 12.7167 1.29053 11.5388 1.29248 10.3496ZM16.3521 7.92446C15.7878 6.53368 14.7578 5.38221 13.4382 4.66707C12.1186 3.95193 10.5916 3.71755 9.11827 4.00405C7.64497 4.29054 6.31701 5.0801 5.3616 6.23764C4.40619 7.39517 3.88271 8.84874 3.88072 10.3496C3.88072 12.1329 4.60284 13.7493 5.77013 14.9192C5.892 15.0372 6.05536 15.1027 6.22502 15.1014C6.39469 15.1002 6.55708 15.0324 6.67723 14.9126C6.79737 14.7928 6.86565 14.6306 6.86736 14.4609C6.86907 14.2913 6.80407 14.1277 6.68637 14.0055C6.14253 13.4593 5.72755 12.7985 5.47172 12.0714C5.21589 11.3443 5.12566 10.5692 5.20764 9.80276C5.28961 9.03633 5.54172 8.29788 5.94554 7.64133C6.34937 6.98477 6.89472 6.42669 7.54178 6.00782C8.18884 5.58896 8.92128 5.31988 9.68561 5.22024C10.4499 5.1206 11.2269 5.19292 11.9597 5.4319C12.6925 5.67089 13.3627 6.07051 13.9214 6.6016C14.48 7.13269 14.913 7.78183 15.1887 8.50163C15.5412 8.24507 15.9346 8.04993 16.3521 7.92446ZM7.76307 10.3496C7.76307 9.66319 8.03576 9.00486 8.52115 8.51947C9.00654 8.03409 9.66486 7.7614 10.3513 7.7614C11.0377 7.7614 11.6961 8.03409 12.1815 8.51947C12.6669 9.00486 12.9395 9.66319 12.9395 10.3496C12.9395 11.0361 12.6669 11.6944 12.1815 12.1798C11.6961 12.6652 11.0377 12.9379 10.3513 12.9379C9.66486 12.9379 9.00654 12.6652 8.52115 12.1798C8.03576 11.6944 7.76307 11.0361 7.76307 10.3496ZM10.3513 9.05551C10.0081 9.05551 9.67892 9.19186 9.43623 9.43455C9.19353 9.67725 9.05719 10.0064 9.05719 10.3496C9.05719 10.6929 9.19353 11.022 9.43623 11.2647C9.67892 11.5074 10.0081 11.6437 10.3513 11.6437C10.6945 11.6437 11.0237 11.5074 11.2664 11.2647C11.5091 11.022 11.6454 10.6929 11.6454 10.3496C11.6454 10.0064 11.5091 9.67725 11.2664 9.43455C11.0237 9.19186 10.6945 9.05551 10.3513 9.05551Z" fill="#2C3FE1"/>
<path d="M19.3007 14.7714C19.7861 14.286 20.0588 13.6277 20.0588 12.9413C20.0588 12.2548 19.7861 11.5965 19.3007 11.1111C18.8153 10.6257 18.157 10.353 17.4706 10.353C16.7841 10.353 16.1258 10.6257 15.6404 11.1111C15.155 11.5965 14.8823 12.2548 14.8823 12.9413C14.8823 13.6277 15.155 14.286 15.6404 14.7714C16.1258 15.2568 16.7841 15.5295 17.4706 15.5295C18.157 15.5295 18.8153 15.2568 19.3007 14.7714Z" fill="#2C3FE1"/>
<path d="M17.4706 22.0001C20.7059 22.0001 22 20.376 22 18.7648C22 18.25 21.7955 17.7562 21.4314 17.3922C21.0674 17.0281 20.5736 16.8236 20.0588 16.8236H14.8823C14.3675 16.8236 13.8738 17.0281 13.5097 17.3922C13.1457 17.7562 12.9412 18.25 12.9412 18.7648C12.9412 20.3824 14.2353 22.0001 17.4706 22.0001Z" fill="#2C3FE1"/>
</svg>
