<svg width="21" height="21" viewBox="0 0 21 21" fill="none" xmlns="http://www.w3.org/2000/svg">
<path d="M1.17499 9.40877C1.17261 7.39847 1.90563 5.45672 3.23591 3.9495C4.56618 2.44228 6.40182 1.4737 8.39684 1.22631C10.3919 0.978923 12.4085 1.46981 14.0666 2.60646C15.7247 3.74311 16.9098 5.44701 17.3985 7.397C17.9585 7.66524 18.4362 8.07465 18.7868 8.58054C18.6532 7.07417 18.1586 5.62218 17.3449 4.3475C16.5312 3.07281 15.4223 2.01298 14.1121 1.25774C12.8019 0.502493 11.329 0.0740827 9.81819 0.00878005C8.30733 -0.0565226 6.80298 0.243206 5.43253 0.882585C4.06207 1.52196 2.86586 2.48217 1.94519 3.68189C1.02452 4.88161 0.406504 6.28551 0.143465 7.77473C-0.119573 9.26395 -0.0198844 10.7946 0.43409 12.2371C0.888065 13.6797 1.68296 14.9916 2.75146 16.0617C2.8624 16.1689 3.01099 16.2282 3.16522 16.2268C3.31946 16.2255 3.46699 16.1636 3.57606 16.0546C3.68512 15.9455 3.74699 15.798 3.74833 15.6437C3.74967 15.4895 3.69038 15.3409 3.58322 15.23C2.81819 14.4661 2.21161 13.5586 1.79833 12.5596C1.38505 11.5607 1.17321 10.4899 1.17499 9.40877ZM14.8656 7.20406C14.3526 5.93972 13.4162 4.89293 12.2166 4.2428C11.017 3.59267 9.62871 3.3796 8.28934 3.64005C6.94998 3.9005 5.74274 4.61829 4.87418 5.67059C4.00563 6.72289 3.52974 8.04432 3.52793 9.40877C3.52793 11.03 4.1844 12.4994 5.24558 13.5629C5.35637 13.6702 5.50488 13.7297 5.65912 13.7286C5.81336 13.7275 5.96099 13.6658 6.07021 13.5569C6.17943 13.448 6.24151 13.3006 6.24306 13.1463C6.24461 12.9921 6.18552 12.8434 6.07852 12.7323C5.58412 12.2357 5.20687 11.635 4.97429 10.974C4.74172 10.313 4.6597 9.60837 4.73422 8.91162C4.80874 8.21486 5.03793 7.54354 5.40504 6.94667C5.77215 6.3498 6.26793 5.84246 6.85617 5.46167C7.4444 5.08088 8.11026 4.83626 8.80511 4.74568C9.49996 4.6551 10.2063 4.72084 10.8725 4.9381C11.5387 5.15536 12.1479 5.51866 12.6558 6.00147C13.1637 6.48427 13.5573 7.0744 13.8079 7.72877C14.1284 7.49553 14.486 7.31813 14.8656 7.20406ZM7.05734 9.40877C7.05734 8.78473 7.30524 8.18625 7.7465 7.74499C8.18777 7.30373 8.78625 7.05583 9.41029 7.05583C10.0343 7.05583 10.6328 7.30373 11.0741 7.74499C11.5153 8.18625 11.7632 8.78473 11.7632 9.40877C11.7632 10.0328 11.5153 10.6313 11.0741 11.0726C10.6328 11.5138 10.0343 11.7617 9.41029 11.7617C8.78625 11.7617 8.18777 11.5138 7.7465 11.0726C7.30524 10.6313 7.05734 10.0328 7.05734 9.40877ZM9.41029 8.2323C9.09827 8.2323 8.79903 8.35625 8.57839 8.57688C8.35776 8.79751 8.23381 9.09675 8.23381 9.40877C8.23381 9.72079 8.35776 10.02 8.57839 10.2407C8.79903 10.4613 9.09827 10.5852 9.41029 10.5852C9.72231 10.5852 10.0215 10.4613 10.2422 10.2407C10.4628 10.02 10.5868 9.72079 10.5868 9.40877C10.5868 9.09675 10.4628 8.79751 10.2422 8.57688C10.0215 8.35625 9.72231 8.2323 9.41029 8.2323Z" fill="white"/>
<path d="M17.5461 13.4283C17.9874 12.9871 18.2353 12.3886 18.2353 11.7646C18.2353 11.1405 17.9874 10.542 17.5461 10.1008C17.1049 9.65952 16.5064 9.41162 15.8824 9.41162C15.2583 9.41162 14.6598 9.65952 14.2186 10.1008C13.7773 10.542 13.5294 11.1405 13.5294 11.7646C13.5294 12.3886 13.7773 12.9871 14.2186 13.4283C14.6598 13.8696 15.2583 14.1175 15.8824 14.1175C16.5064 14.1175 17.1049 13.8696 17.5461 13.4283Z" fill="white"/>
<path d="M15.8824 19.9999C18.8235 19.9999 20 18.5234 20 17.0587C20 16.5907 19.8141 16.1418 19.4831 15.8109C19.1522 15.4799 18.7033 15.294 18.2353 15.294H13.5294C13.0614 15.294 12.6125 15.4799 12.2816 15.8109C11.9506 16.1418 11.7647 16.5907 11.7647 17.0587C11.7647 18.5293 12.9412 19.9999 15.8824 19.9999Z" fill="white"/>
<path d="M17.5461 13.4283C17.9874 12.9871 18.2353 12.3886 18.2353 11.7646C18.2353 11.1405 17.9874 10.542 17.5461 10.1008C17.1049 9.65952 16.5064 9.41162 15.8824 9.41162C15.2583 9.41162 14.6598 9.65952 14.2186 10.1008C13.7773 10.542 13.5294 11.1405 13.5294 11.7646C13.5294 12.3886 13.7773 12.9871 14.2186 13.4283C14.6598 13.8696 15.2583 14.1175 15.8824 14.1175C16.5064 14.1175 17.1049 13.8696 17.5461 13.4283Z" stroke="white"/>
<path d="M15.8824 19.9999C18.8235 19.9999 20 18.5234 20 17.0587C20 16.5907 19.8141 16.1418 19.4831 15.8109C19.1522 15.4799 18.7033 15.294 18.2353 15.294H13.5294C13.0614 15.294 12.6125 15.4799 12.2816 15.8109C11.9506 16.1418 11.7647 16.5907 11.7647 17.0587C11.7647 18.5293 12.9412 19.9999 15.8824 19.9999Z" stroke="white"/>
</svg>
