<svg width="22" height="22" viewBox="0 0 22 22" fill="none" xmlns="http://www.w3.org/2000/svg">
<path d="M14.5239 9.20831C16.1808 9.20831 17.5239 7.86517 17.5239 6.20831C17.5239 4.55146 16.1808 3.20831 14.5239 3.20831C12.8671 3.20831 11.5239 4.55146 11.5239 6.20831C11.5239 7.86517 12.8671 9.20831 14.5239 9.20831Z" fill="#2C3FE1" stroke="black"/>
<path d="M14.5239 18.8333C16.1808 18.8333 17.5239 17.4902 17.5239 15.8333C17.5239 14.1765 16.1808 12.8333 14.5239 12.8333C12.8671 12.8333 11.5239 14.1765 11.5239 15.8333C11.5239 17.4902 12.8671 18.8333 14.5239 18.8333Z" fill="#2C3FE1" stroke="black"/>
<path d="M3.52393 9.20831C5.18078 9.20831 6.52393 7.86517 6.52393 6.20831C6.52393 4.55146 5.18078 3.20831 3.52393 3.20831C1.86707 3.20831 0.523926 4.55146 0.523926 6.20831C0.523926 7.86517 1.86707 9.20831 3.52393 9.20831Z" fill="#2C3FE1" stroke="black"/>
<path d="M3.52393 18.8333C5.18078 18.8333 6.52393 17.4902 6.52393 15.8333C6.52393 14.1765 5.18078 12.8333 3.52393 12.8333C1.86707 12.8333 0.523926 14.1765 0.523926 15.8333C0.523926 17.4902 1.86707 18.8333 3.52393 18.8333Z" fill="#2C3FE1" stroke="black"/>
</svg>
