<svg width="27" height="28" viewBox="0 0 27 28" fill="none" xmlns="http://www.w3.org/2000/svg">
<path d="M22.2353 10.0294C24.8668 10.0294 27 7.89618 27 5.26471C27 2.63323 24.8668 0.5 22.2353 0.5C19.6038 0.5 17.4706 2.63323 17.4706 5.26471C17.4706 7.89618 19.6038 10.0294 22.2353 10.0294Z" fill="#2C3FE1"/>
<path d="M22.2353 26.6612C24.8668 26.6612 27 24.528 27 21.8965C27 19.2651 24.8668 17.1318 22.2353 17.1318C19.6038 17.1318 17.4706 19.2651 17.4706 21.8965C17.4706 24.528 19.6038 26.6612 22.2353 26.6612Z" fill="#2C3FE1"/>
<path d="M4.76471 10.0294C7.39618 10.0294 9.52941 7.89618 9.52941 5.26471C9.52941 2.63323 7.39618 0.5 4.76471 0.5C2.13323 0.5 0 2.63323 0 5.26471C0 7.89618 2.13323 10.0294 4.76471 10.0294Z" fill="#2C3FE1"/>
<path d="M4.76471 26.6612C7.39618 26.6612 9.52941 24.528 9.52941 21.8965C9.52941 19.2651 7.39618 17.1318 4.76471 17.1318C2.13323 17.1318 0 19.2651 0 21.8965C0 24.528 2.13323 26.6612 4.76471 26.6612Z" fill="#2C3FE1"/>
</svg>
