<svg width="22" height="22" viewBox="0 0 22 22" fill="none" xmlns="http://www.w3.org/2000/svg">
<path d="M17.4706 8.68C19.4198 8.68 21 6.96077 21 4.84C21 2.71923 19.4198 1 17.4706 1C15.5213 1 13.9412 2.71923 13.9412 4.84C13.9412 6.96077 15.5213 8.68 17.4706 8.68Z" fill="#2C3FE1" stroke="white"/>
<path d="M17.4706 20.9998C19.4198 20.9998 21 19.2806 21 17.1598C21 15.0391 19.4198 13.3198 17.4706 13.3198C15.5213 13.3198 13.9412 15.0391 13.9412 17.1598C13.9412 19.2806 15.5213 20.9998 17.4706 20.9998Z" fill="#2C3FE1" stroke="white"/>
<path d="M4.52941 8.68C6.47865 8.68 8.05882 6.96077 8.05882 4.84C8.05882 2.71923 6.47865 1 4.52941 1C2.58017 1 1 2.71923 1 4.84C1 6.96077 2.58017 8.68 4.52941 8.68Z" fill="#2C3FE1" stroke="white"/>
<path d="M4.52941 20.9998C6.47865 20.9998 8.05882 19.2806 8.05882 17.1598C8.05882 15.0391 6.47865 13.3198 4.52941 13.3198C2.58017 13.3198 1 15.0391 1 17.1598C1 19.2806 2.58017 20.9998 4.52941 20.9998Z" fill="#2C3FE1" stroke="white"/>
</svg>
