<svg width="1440" height="841" viewBox="0 0 1440 841" fill="none" xmlns="http://www.w3.org/2000/svg">
<g clip-path="url(#clip0_232_917)">
<rect width="1440" height="784" fill="url(#paint0_radial_232_917)"/>
<circle cx="794.991" cy="595.205" r="3.62757" fill="white" fill-opacity="0.25"/>
<circle cx="662.5" cy="329.5" r="3.5" fill="white" fill-opacity="0.25"/>
<circle cx="214.5" cy="503.5" r="2.5" fill="white" fill-opacity="0.25"/>
<circle cx="269.446" cy="101.402" r="2.26723" fill="white" fill-opacity="0.25"/>
<circle cx="1310.36" cy="193.36" r="1.36034" fill="white" fill-opacity="0.25"/>
<circle cx="101.36" cy="154.36" r="1.36034" fill="white" fill-opacity="0.25"/>
<circle cx="84.3603" cy="523.36" r="1.36034" fill="white" fill-opacity="0.25"/>
<circle cx="878.814" cy="424.814" r="1.81379" fill="white" fill-opacity="0.25"/>
<circle cx="306.814" cy="157.814" r="1.81379" fill="white" fill-opacity="0.25"/>
<circle cx="404.814" cy="691.814" r="1.81379" fill="white" fill-opacity="0.25"/>
<circle cx="438.814" cy="286.814" r="1.81379" fill="white" fill-opacity="0.25"/>
<circle cx="1268.81" cy="86.8138" r="1.81379" fill="white" fill-opacity="0.25"/>
<circle cx="788.814" cy="303.814" r="1.81379" fill="white" fill-opacity="0.25"/>
<circle cx="449.814" cy="716.814" r="1.81379" fill="white" fill-opacity="0.25"/>
<circle cx="657" cy="516" r="2" fill="white" fill-opacity="0.25"/>
<circle cx="719.628" cy="711.628" r="3.62757" fill="white" fill-opacity="0.25"/>
<circle cx="61.6276" cy="680.628" r="3.62757" fill="white" fill-opacity="0.25"/>
<circle cx="105.267" cy="394.267" r="2.26723" fill="white" fill-opacity="0.25"/>
<circle cx="451.732" cy="454.183" r="3.17413" fill="white" fill-opacity="0.25"/>
<circle cx="1073.17" cy="199.174" r="3.17413" fill="white" fill-opacity="0.25"/>
<circle cx="1305.5" cy="644.5" r="1.5" fill="white" fill-opacity="0.25"/>
<circle cx="1412.72" cy="389.721" r="2.72068" fill="white" fill-opacity="0.25"/>
<circle cx="617.721" cy="119.721" r="2.72068" fill="white" fill-opacity="0.25"/>
<circle cx="336.267" cy="626.267" r="2.26723" fill="white" fill-opacity="0.25"/>
<circle cx="192.814" cy="290.489" r="1.81379" fill="white" fill-opacity="0.25"/>
<circle cx="1299.5" cy="459.5" r="2.5" fill="white" fill-opacity="0.25"/>
<circle cx="1105" cy="147" r="3" fill="white" fill-opacity="0.25"/>
<circle cx="1141" cy="676" r="2" fill="white" fill-opacity="0.25"/>
<circle cx="1080.08" cy="425.081" r="4.08102" fill="white" fill-opacity="0.25"/>
<circle cx="1009" cy="707" r="3" fill="white" fill-opacity="0.25"/>
<circle cx="371.018" cy="45.1741" r="3.17413" fill="white" fill-opacity="0.25"/>
<circle cx="802.174" cy="26.1741" r="3.17413" fill="white" fill-opacity="0.25"/>
<circle cx="1407.72" cy="28.7207" r="2.72068" fill="white" fill-opacity="0.25"/>
<path d="M289.868 581.748L213.035 611.898C212.336 612.172 212.177 613.09 212.744 613.583L269.156 662.701C269.375 662.891 269.665 662.977 269.951 662.937L353.592 651.266C354.394 651.154 354.737 650.185 354.184 649.593L290.964 581.996C290.684 581.696 290.25 581.598 289.868 581.748Z" fill="#D897A9"/>
<path d="M561.962 596.145L463.444 657.413C462.982 657.7 462.752 657.843 462.626 658.07C462.5 658.297 462.5 658.568 462.5 659.111V711.476C462.5 712.429 462.5 712.906 462.797 713.199C463.094 713.493 463.571 713.487 464.524 713.475H464.524L1365.64 702.504C1365.82 702.502 1365.91 702.501 1366 702.484C1366.08 702.467 1366.17 702.434 1366.34 702.369L1438.22 674.495C1438.84 674.255 1439.15 674.136 1439.33 673.88C1439.5 673.625 1439.5 673.293 1439.5 672.63V500.613C1439.5 497.212 1439.5 495.512 1438.73 495.332C1437.95 495.153 1437.2 496.679 1435.7 499.731L1399.82 572.822C1399.43 573.617 1399.24 574.015 1398.87 574.155C1398.5 574.295 1398.09 574.127 1397.27 573.791L1369.8 562.531C1369.17 562.274 1368.86 562.146 1368.55 562.215C1368.24 562.285 1368.01 562.535 1367.56 563.036L1284.05 654.896L1284.05 654.896C1283.78 655.194 1283.64 655.343 1283.47 655.428C1283.29 655.512 1283.09 655.524 1282.68 655.547L1049.96 668.973C1049.73 668.987 1049.62 668.993 1049.5 668.974C1049.39 668.955 1049.29 668.91 1049.07 668.821L910.78 610.827C910.395 610.666 910.203 610.585 910 610.586C909.798 610.586 909.606 610.668 909.222 610.831L799.426 657.606C798.972 657.799 798.744 657.896 798.508 657.881C798.271 657.866 798.058 657.741 797.632 657.492L737.468 622.274C737.235 622.138 737.119 622.07 736.991 622.035C736.862 622 736.727 622 736.458 622H709.672C709.339 622 709.172 622 709.017 621.948C708.863 621.896 708.73 621.796 708.465 621.595L638.3 568.484C637.678 568.013 637.366 567.777 637.01 567.79C636.655 567.803 636.361 568.061 635.774 568.576L589.097 609.537C588.568 610.002 588.303 610.234 587.979 610.263C587.654 610.292 587.352 610.111 586.749 609.749L564.048 596.129C563.538 595.823 563.283 595.67 563.001 595.672C562.72 595.674 562.468 595.831 561.963 596.145L561.962 596.145Z" fill="url(#paint1_linear_232_917)"/>
<path d="M672.725 625.944L672.355 670.365C672.355 670.365 657.718 669.281 656.565 681.739L691.161 681.308L692.083 626.92C692.083 626.92 672.713 625.947 672.725 625.944Z" fill="black"/>
<path d="M672.725 625.944L672.355 670.365C672.355 670.365 657.718 669.281 656.565 681.739L691.161 681.308L692.083 626.92C692.083 626.92 672.713 625.947 672.725 625.944Z" stroke="black" stroke-width="0.666667" stroke-miterlimit="10"/>
<path d="M732.114 625.443L732.84 669.86C732.84 669.86 747.469 668.658 748.721 681.108L714.123 680.954L712.763 626.575C712.763 626.575 732.124 625.446 732.114 625.443Z" fill="black"/>
<path d="M732.114 625.443L732.84 669.86C732.84 669.86 747.469 668.658 748.721 681.108L714.123 680.954L712.763 626.575C712.763 626.575 732.124 625.446 732.114 625.443Z" stroke="black" stroke-width="0.666667" stroke-miterlimit="10"/>
<path d="M782.156 527.356C782.231 527.673 782.306 527.99 782.373 528.309C787.348 550.387 784.161 572.433 774.788 591.266C765.23 610.479 749.231 626.341 728.89 635.477C723.807 637.766 718.445 639.64 712.847 641.022C712.468 641.129 712.085 641.218 711.702 641.309C711.337 641.395 710.964 641.483 710.593 641.554C710.539 641.575 710.488 641.586 710.43 641.592C682.143 647.868 653.918 640.762 632.477 624.416C615.884 611.766 603.354 593.592 597.991 571.803C597.9 571.49 597.825 571.172 597.75 570.856C592.585 548.958 595.477 527.044 604.499 508.216C616.161 483.869 638.084 464.694 666.105 457.432C666.434 457.336 666.766 457.251 667.101 457.18C667.325 457.109 667.553 457.056 667.782 457.009L667.799 457.005C667.935 456.965 668.065 456.934 668.203 456.902C671.4 456.148 674.602 455.564 677.794 455.156C703.731 451.759 729.063 459.341 748.555 474.671C764.828 487.456 777.035 505.647 782.156 527.356Z" fill="#A545AD"/>
<path d="M782.156 527.356C782.231 527.673 782.306 527.99 782.373 528.309C787.348 550.387 784.161 572.433 774.788 591.266C765.23 610.479 749.231 626.341 728.89 635.477C723.807 637.766 718.445 639.64 712.847 641.022C712.468 641.129 712.085 641.218 711.702 641.309C711.337 641.395 710.964 641.483 710.593 641.554C710.539 641.575 710.488 641.586 710.43 641.592C682.143 647.868 653.918 640.762 632.477 624.416C615.884 611.766 603.354 593.592 597.991 571.803C597.9 571.49 597.825 571.172 597.75 570.856C592.585 548.958 595.477 527.044 604.499 508.216C616.161 483.869 638.084 464.694 666.105 457.432C666.434 457.336 666.766 457.251 667.101 457.18C667.325 457.109 667.553 457.056 667.782 457.009L667.799 457.005C667.935 456.965 668.065 456.934 668.203 456.902C671.4 456.148 674.602 455.564 677.794 455.156C703.731 451.759 729.063 459.341 748.555 474.671C764.828 487.456 777.035 505.647 782.156 527.356Z" stroke="black" stroke-width="0.666667" stroke-miterlimit="10"/>
<path d="M748.577 474.642C734.529 496.292 711.619 513.1 683.431 519.749C654.849 526.492 626.455 521.465 604.067 507.959" stroke="black" stroke-width="0.666667" stroke-miterlimit="10"/>
<path d="M632.477 624.415C639.193 614.339 647.857 605.35 658.074 597.993C669.111 590.041 681.972 583.993 696.202 580.543C696.443 580.478 696.68 580.421 696.924 580.364C711.377 576.954 725.784 576.553 739.396 578.742C752.094 580.778 764.087 585.066 774.789 591.266" stroke="black" stroke-width="0.666667" stroke-miterlimit="10"/>
<path d="M666.108 457.427C650.727 471.72 640.985 494.049 639.043 519.485C638.076 532.24 639.066 545.753 642.295 559.443C642.343 559.646 642.387 559.832 642.441 560.026C645.736 573.777 650.995 586.352 657.672 597.33L657.674 597.337C671.054 619.374 690.159 634.95 710.641 640.464C710.964 640.56 711.293 640.647 711.62 640.723C712.032 640.831 712.443 640.932 712.85 641.017" stroke="black" stroke-width="0.666667" stroke-miterlimit="10"/>
<path d="M710.43 641.591C710.482 641.554 710.532 641.515 710.574 641.471C710.832 641.255 711.083 641.042 711.328 640.814C711.377 640.766 711.421 640.731 711.47 640.685C727.246 626.754 737.302 604.377 739.395 578.742C740.447 566.13 739.559 552.723 736.475 539.136C736.391 538.743 736.298 538.353 736.207 537.963C733.121 524.884 728.281 512.845 722.129 502.233C708.972 479.475 689.841 463.269 669.257 457.4L669.249 457.403C668.769 457.257 668.284 457.132 667.799 457.005L667.79 457.008L667.782 457.009" stroke="black" stroke-width="0.666667" stroke-miterlimit="10"/>
<path d="M597.993 571.798L643.054 561.171L689.074 550.314L736.476 539.132L782.376 528.305" stroke="black" stroke-width="0.666667" stroke-miterlimit="10"/>
<path d="M667.102 457.179L667.508 458.903L681.941 520.084L681.942 520.093L689.072 550.317L696.202 580.543L710.316 640.373L710.357 640.551L710.574 641.471L710.594 641.553" stroke="black" stroke-width="0.666667" stroke-miterlimit="10"/>
<path d="M712.834 547.613C710.538 552.048 706.108 556.319 698.566 559.152C690.951 562.024 684.141 561.253 679.058 558.763C670.534 554.575 666.843 545.535 672.276 540.622C680.952 532.78 691.317 540.574 691.317 540.574C691.317 540.574 699.323 524.561 710.456 530.107C714.395 532.07 716.767 540.064 712.834 547.613Z" fill="#F0366E"/>
<path d="M712.834 547.613C710.538 552.048 706.108 556.319 698.566 559.152C690.951 562.024 684.141 561.253 679.058 558.763C670.534 554.575 666.843 545.535 672.276 540.622C680.952 532.78 691.317 540.574 691.317 540.574C691.317 540.574 699.323 524.561 710.456 530.107C714.395 532.07 716.767 540.064 712.834 547.613Z" stroke="black" stroke-width="0.666667" stroke-miterlimit="10"/>
<path d="M679.547 545.968C682.044 547.514 688.659 551.131 695.268 548.769C702.029 546.351 704.763 539.113 705.653 536.334" stroke="black" stroke-width="0.666667" stroke-miterlimit="10"/>
<path d="M745.593 596.817L668.952 614.429L653.536 567.431C652.858 565.363 654.102 563.159 656.223 562.673L733.382 544.941C735.47 544.461 737.529 545.852 737.865 547.969L745.593 596.817Z" fill="#FBC833"/>
<path d="M745.593 596.817L668.952 614.429L653.536 567.431C652.858 565.363 654.102 563.159 656.223 562.673L733.382 544.941C735.47 544.461 737.529 545.852 737.865 547.969L745.593 596.817Z" stroke="black" stroke-width="0.666667" stroke-miterlimit="10"/>
<path d="M746.873 601.998L669.926 619.584L668.736 614.407L745.618 596.906L746.873 601.998Z" fill="#FBC425"/>
<path d="M746.873 601.998L669.926 619.584L668.736 614.407L745.618 596.906L746.873 601.998Z" stroke="black" stroke-width="0.666667" stroke-miterlimit="10"/>
<path d="M651.509 601.979C644.018 606.694 633.66 612.53 622.902 616.043C610.761 620.021 598.13 621.067 588.573 614.248C578.073 606.757 577.13 592.202 581.689 581.108C584.854 573.385 589.89 566.462 595.922 560.585C596.335 563.995 598.404 572.988 598.324 573.114C595.701 577.269 592.912 580.785 591.234 584.995C587.979 593.209 588.586 604.665 598.427 607.687C603.619 609.277 609.469 608.58 615.036 607.132C618.343 606.266 621.559 605.117 624.451 604.032C632.175 601.113 639.626 597.279 646.601 592.886C652.245 589.322 657.101 598.453 651.509 601.979Z" fill="black"/>
<path d="M649.863 586.642C650.581 586.455 650.654 584.631 650.723 583.864C651.172 578.893 655.411 574.64 658.311 572.789C659.483 572.04 663.344 569.395 665.782 570.196C671.001 571.909 665.301 579.629 663.598 582.108C664.935 581.782 665.266 581.71 665.614 581.622C666.28 581.456 666.944 581.282 667.605 581.098C668.783 580.768 669.951 580.404 671.107 580.001C673.821 579.053 676.426 577.816 679.151 576.902C680.98 576.289 683.781 575.33 685.494 576.723C686.639 577.653 686.5 579.385 686.313 580.688C686.308 580.722 686.303 580.757 686.299 580.789C686.299 580.789 691.911 582.437 687.873 588.031C688.449 588.325 689.154 588.572 689.456 589.188C690.544 591.403 687.932 594.757 686.633 596.315C683.338 600.263 678.687 603.972 674.021 606.2C670.148 608.047 665.903 608.504 661.731 607.476C660.92 607.277 660.121 607.028 659.336 606.744C658.671 606.501 657.498 605.681 656.824 605.686C656.811 605.686 656.506 606.63 656.48 606.691C656.151 607.447 655.689 608.16 655.076 608.718C653.648 610.018 651.504 610.454 649.81 609.398C647.259 607.808 646.524 604.649 645.812 601.94C644.958 598.688 643.804 595.536 642.773 592.331C639.678 582.712 647.165 584.912 648.219 585.59C649.781 586.591 649.476 586.744 649.863 586.642Z" fill="white"/>
<path d="M649.863 586.642C650.581 586.455 650.654 584.631 650.723 583.864C651.172 578.893 655.411 574.64 658.311 572.789C659.483 572.04 663.344 569.395 665.782 570.196C671.001 571.909 665.301 579.629 663.598 582.108C664.935 581.782 665.266 581.71 665.614 581.622C666.28 581.456 666.944 581.282 667.605 581.098C668.783 580.768 669.951 580.404 671.107 580.001C673.821 579.053 676.426 577.816 679.151 576.902C680.98 576.289 683.781 575.33 685.494 576.723C686.639 577.653 686.5 579.385 686.313 580.688C686.308 580.722 686.303 580.757 686.299 580.789C686.299 580.789 691.911 582.437 687.873 588.031C688.449 588.325 689.154 588.572 689.456 589.188C690.544 591.403 687.932 594.757 686.633 596.315C683.338 600.263 678.687 603.972 674.021 606.2C670.148 608.047 665.903 608.504 661.731 607.476C660.92 607.277 660.121 607.028 659.336 606.744C658.671 606.501 657.498 605.681 656.824 605.686C656.811 605.686 656.506 606.63 656.48 606.691C656.151 607.447 655.689 608.16 655.076 608.718C653.648 610.018 651.504 610.454 649.81 609.398C647.259 607.808 646.524 604.649 645.812 601.94C644.958 598.688 643.804 595.536 642.773 592.331C639.678 582.712 647.165 584.912 648.219 585.59C649.781 586.591 649.476 586.744 649.863 586.642Z" stroke="black" stroke-width="0.666667" stroke-miterlimit="10"/>
<path d="M669.268 589.193C669.268 589.193 680.554 586.045 686.299 580.789" stroke="black" stroke-width="0.666667" stroke-miterlimit="10"/>
<path d="M688.108 588.093C688.108 588.093 679.814 594.623 673.208 596.769" stroke="black" stroke-width="0.666667" stroke-miterlimit="10"/>
<path d="M668.318 585.545C668.158 585.88 667.767 586.03 667.444 585.875C667.122 585.721 666.991 585.324 667.152 584.987C667.312 584.652 667.704 584.504 668.025 584.657C668.347 584.81 668.479 585.208 668.318 585.545Z" fill="black"/>
<path d="M668.318 585.545C668.158 585.88 667.767 586.03 667.444 585.875C667.122 585.721 666.991 585.324 667.152 584.987C667.312 584.652 667.704 584.504 668.025 584.657C668.347 584.81 668.479 585.208 668.318 585.545Z" stroke="black" stroke-width="0.666667" stroke-miterlimit="10"/>
<path d="M670.956 593.795C670.796 594.132 670.405 594.279 670.082 594.125C669.761 593.972 669.629 593.574 669.79 593.238C669.951 592.902 670.342 592.755 670.664 592.909C670.986 593.062 671.117 593.459 670.956 593.795Z" fill="black"/>
<path d="M670.956 593.795C670.796 594.132 670.405 594.279 670.082 594.125C669.761 593.972 669.629 593.574 669.79 593.238C669.951 592.902 670.342 592.755 670.664 592.909C670.986 593.062 671.117 593.459 670.956 593.795Z" stroke="black" stroke-width="0.666667" stroke-miterlimit="10"/>
<path d="M674.157 601.124C673.996 601.459 673.606 601.607 673.284 601.454C672.961 601.301 672.83 600.903 672.991 600.566C673.151 600.231 673.543 600.081 673.864 600.236C674.187 600.39 674.318 600.787 674.157 601.124Z" fill="black"/>
<path d="M674.157 601.124C673.996 601.459 673.606 601.607 673.284 601.454C672.961 601.301 672.83 600.903 672.991 600.566C673.151 600.231 673.543 600.081 673.864 600.236C674.187 600.39 674.318 600.787 674.157 601.124Z" stroke="black" stroke-width="0.666667" stroke-miterlimit="10"/>
<path d="M650.133 586.508L651.344 590.167" stroke="black" stroke-width="0.666667" stroke-miterlimit="10"/>
<path d="M655.893 602.321L656.751 605.687" stroke="black" stroke-width="0.666667" stroke-miterlimit="10"/>
<path d="M731.794 487.533C736.088 502.641 732.414 517.176 723.62 521.754C722.851 522.168 722.025 522.488 721.177 522.731C710.642 525.724 698.31 514.829 693.635 498.378C688.965 481.948 693.723 466.196 704.258 463.202C705.106 462.962 705.977 462.8 706.851 462.746C716.738 462.015 727.5 472.426 731.794 487.533Z" fill="white"/>
<path d="M731.794 487.533C736.088 502.641 732.414 517.176 723.62 521.754C722.851 522.168 722.025 522.488 721.177 522.731C710.642 525.724 698.31 514.829 693.635 498.378C688.965 481.948 693.723 466.196 704.258 463.202C705.106 462.962 705.977 462.8 706.851 462.746C716.738 462.015 727.5 472.426 731.794 487.533Z" stroke="black" stroke-width="0.666667" stroke-miterlimit="10"/>
<path d="M732.92 498.652L732.925 498.667C733.088 509.469 729.695 518.313 723.59 521.652C722.828 522.077 722.008 522.417 721.158 522.657C714.496 524.53 706.918 520.211 700.908 512.107C700.861 511.998 700.826 511.885 700.792 511.772C697.439 500.783 702.169 489.598 711.349 486.798C719.657 484.264 728.778 489.486 732.92 498.652Z" fill="black"/>
<path d="M732.92 498.652L732.925 498.667C733.088 509.469 729.695 518.313 723.59 521.652C722.828 522.077 722.008 522.417 721.158 522.657C714.496 524.53 706.918 520.211 700.908 512.107C700.861 511.998 700.826 511.885 700.792 511.772C697.439 500.783 702.169 489.598 711.349 486.798C719.657 484.264 728.778 489.486 732.92 498.652Z" stroke="black" stroke-width="0.666667" stroke-miterlimit="10"/>
<path d="M658.213 512.348C662.507 527.455 658.834 541.991 650.04 546.568C649.269 546.983 648.444 547.303 647.595 547.544C637.06 550.538 624.73 539.643 620.054 523.193C615.385 506.763 620.142 491.01 630.677 488.017C631.525 487.775 632.396 487.614 633.269 487.561C643.157 486.83 653.919 497.239 658.213 512.348Z" fill="white"/>
<path d="M658.213 512.348C662.507 527.455 658.834 541.991 650.04 546.568C649.269 546.983 648.444 547.303 647.595 547.544C637.06 550.538 624.73 539.643 620.054 523.193C615.385 506.763 620.142 491.01 630.677 488.017C631.525 487.775 632.396 487.614 633.269 487.561C643.157 486.83 653.919 497.239 658.213 512.348Z" stroke="black" stroke-width="0.666667" stroke-miterlimit="10"/>
<path d="M659.339 523.466L659.343 523.483C659.506 534.285 656.114 543.128 650.009 546.468C649.247 546.893 648.426 547.231 647.577 547.473C640.915 549.345 633.337 545.026 627.327 536.921C627.279 536.814 627.244 536.7 627.21 536.588C623.859 525.598 628.588 514.411 637.769 511.612C646.075 509.079 655.197 514.3 659.339 523.466Z" fill="black"/>
<path d="M659.339 523.466L659.343 523.483C659.506 534.285 656.114 543.128 650.009 546.468C649.247 546.893 648.426 547.231 647.577 547.473C640.915 549.345 633.337 545.026 627.327 536.921C627.279 536.814 627.244 536.7 627.21 536.588C623.859 525.598 628.588 514.411 637.769 511.612C646.075 509.079 655.197 514.3 659.339 523.466Z" stroke="black" stroke-width="0.666667" stroke-miterlimit="10"/>
<path d="M694.36 497.931C698.654 513.038 694.982 527.572 686.187 532.151C685.416 532.564 684.591 532.886 683.743 533.127C673.208 536.121 660.877 525.225 656.202 508.774C651.532 492.345 656.289 476.592 666.824 473.598C667.673 473.357 668.543 473.195 669.417 473.142C679.304 472.411 690.067 482.821 694.36 497.931Z" fill="white"/>
<path d="M694.36 497.931C698.654 513.038 694.982 527.572 686.187 532.151C685.416 532.564 684.591 532.886 683.743 533.127C673.208 536.121 660.877 525.225 656.202 508.774C651.532 492.345 656.289 476.592 666.824 473.598C667.673 473.357 668.543 473.195 669.417 473.142C679.304 472.411 690.067 482.821 694.36 497.931Z" stroke="black" stroke-width="0.666667" stroke-miterlimit="10"/>
<path d="M695.486 509.049L695.49 509.064C695.654 519.867 692.261 528.711 686.156 532.05C685.394 532.476 684.574 532.813 683.724 533.054C677.063 534.927 669.484 530.608 663.475 522.504C663.426 522.395 663.391 522.283 663.357 522.169C660.006 511.179 664.735 499.994 673.915 497.194C682.223 494.661 691.344 499.882 695.486 509.049Z" fill="black"/>
<path d="M695.486 509.049L695.49 509.064C695.654 519.867 692.261 528.711 686.156 532.05C685.394 532.476 684.574 532.813 683.724 533.054C677.063 534.927 669.484 530.608 663.475 522.504C663.426 522.395 663.391 522.283 663.357 522.169C660.006 511.179 664.735 499.994 673.915 497.194C682.223 494.661 691.344 499.882 695.486 509.049Z" stroke="black" stroke-width="0.666667" stroke-miterlimit="10"/>
<path d="M694.45 447.265C694.224 445.301 693.814 443.335 693.217 441.371C687.717 423.237 668.566 413.013 650.448 418.508C632.312 424.008 622.084 443.143 627.584 461.277C628.18 463.242 628.93 465.104 629.834 466.864C624.96 469.691 622.321 472.213 622.829 473.888C623.441 475.904 628.471 476.393 636.102 475.52C643.896 474.637 654.397 472.377 665.742 468.935C677.087 465.493 687.092 461.534 694.042 457.93C700.877 454.432 704.771 451.236 704.16 449.221C703.651 447.544 700.058 446.915 694.45 447.265Z" fill="black"/>
<path d="M694.45 447.265C694.224 445.301 693.814 443.335 693.217 441.371C687.717 423.237 668.566 413.013 650.448 418.508C632.312 424.008 622.084 443.143 627.584 461.277C628.18 463.242 628.93 465.104 629.834 466.864C624.96 469.691 622.321 472.213 622.829 473.888C623.441 475.904 628.471 476.393 636.102 475.52C643.896 474.637 654.397 472.377 665.742 468.935C677.087 465.493 687.092 461.534 694.042 457.93C700.877 454.432 704.771 451.236 704.16 449.221C703.651 447.544 700.058 446.915 694.45 447.265Z" stroke="black" stroke-width="0.666667" stroke-miterlimit="10"/>
<path d="M644.085 463.314C644.569 463.221 645.054 463.124 645.538 463.026C652.367 461.639 659.084 459.748 665.714 457.61C669.075 456.523 672.4 455.32 675.652 453.942C682.02 451.242 688.045 447.85 693.965 444.29C693.761 443.318 693.512 442.345 693.217 441.372C692.874 440.241 692.478 439.141 692.032 438.074C681.03 443.999 669.392 448.724 657.432 452.334C647.753 455.255 637.37 458.494 627.059 459.171C627.226 459.874 627.371 460.577 627.584 461.277C627.977 462.575 628.463 463.81 628.99 465.018C629.324 465.764 634.488 464.787 635.227 464.699C638.195 464.347 641.149 463.879 644.085 463.314Z" fill="#F0366E"/>
<path d="M644.085 463.314C644.569 463.221 645.054 463.124 645.538 463.026C652.367 461.639 659.084 459.748 665.714 457.61C669.075 456.523 672.4 455.32 675.652 453.942C682.02 451.242 688.045 447.85 693.965 444.29C693.761 443.318 693.512 442.345 693.217 441.372C692.874 440.241 692.478 439.141 692.032 438.074C681.03 443.999 669.392 448.724 657.432 452.334C647.753 455.255 637.37 458.494 627.059 459.171C627.226 459.874 627.371 460.577 627.584 461.277C627.977 462.575 628.463 463.81 628.99 465.018C629.324 465.764 634.488 464.787 635.227 464.699C638.195 464.347 641.149 463.879 644.085 463.314Z" stroke="black" stroke-width="0.666667" stroke-miterlimit="10"/>
<path d="M660.965 422.376C669.407 421.275 677.859 425.87 682.206 433.053C682.745 433.943 684.004 432.919 683.47 432.036C678.836 424.377 669.69 419.601 660.737 420.771C659.7 420.905 659.93 422.511 660.965 422.376Z" fill="white"/>
<path d="M655.693 422.646C656.651 422.23 656.006 420.741 655.048 421.158C654.09 421.574 654.735 423.063 655.693 422.646Z" fill="white"/>
<path d="M640.779 471.169C636.402 472.427 631.35 473.067 627.069 471.136C626.31 470.793 625.713 471.947 626.477 472.29C631.081 474.368 636.443 473.765 641.162 472.409C641.967 472.177 641.581 470.938 640.779 471.169Z" fill="white"/>
<path d="M807.885 526.639C800.888 530.558 792.002 533.272 785.632 538.47C782.468 541.052 779.931 544.238 778.543 548.498C776.479 554.816 766.76 551.313 768.811 544.993C771.282 537.424 776.944 531.665 783.478 527.361C784.829 526.466 786.2 525.639 787.607 524.865C795.503 520.536 805.553 518.352 811.33 510.931C820.28 499.429 803.7 492.989 794.559 492.265C785.855 491.572 777.18 493.395 768.727 495.7C766.538 492.657 764.182 489.757 761.66 487.012C774.028 483.49 786.969 480.259 799.761 482.52C809.909 484.322 822.167 490.183 824.138 501.486C826.089 512.71 816.815 521.664 807.885 526.639Z" fill="black"/>
<path d="M756.882 556.286C754.221 562.733 761.577 563.02 761.577 563.02C761.577 563.02 762.011 564.214 762.078 564.383C762.311 564.959 762.689 565.461 763.162 565.862C764.11 566.671 765.366 567.087 766.587 567.245C768.783 567.53 770.839 566.848 772.747 565.799C776.463 563.758 779.152 560.327 781.463 556.791C784.551 552.061 784.556 548.124 784.699 545.429C786.04 545.086 787.879 543.611 788.164 542.714C788.605 541.33 788.127 539.815 787.073 538.814C784.791 536.642 779.647 531.917 776.697 530.522C772.825 528.69 772.589 535.014 772.589 535.014C768.549 531.398 763.182 530.706 759.675 533.001C756.726 534.929 755.924 538.421 755.817 538.926C755.088 542.32 756.33 545.159 756.296 545.159C756.296 545.159 739.771 556.745 743.771 561.333C747.155 565.214 757.015 556.23 757.015 556.23L761.089 552.323" fill="white"/>
<path d="M756.882 556.286C754.221 562.733 761.577 563.02 761.577 563.02C761.577 563.02 762.011 564.214 762.078 564.383C762.311 564.959 762.689 565.461 763.162 565.862C764.11 566.671 765.366 567.087 766.587 567.245C768.783 567.53 770.839 566.848 772.747 565.799C776.463 563.758 779.152 560.327 781.463 556.791C784.551 552.061 784.556 548.124 784.699 545.429C786.04 545.086 787.879 543.611 788.164 542.714C788.605 541.33 788.127 539.815 787.073 538.814C784.791 536.642 779.647 531.917 776.697 530.522C772.825 528.69 772.589 535.014 772.589 535.014C768.549 531.398 763.182 530.706 759.675 533.001C756.726 534.929 755.924 538.421 755.817 538.926C755.088 542.32 756.33 545.159 756.296 545.159C756.296 545.159 739.771 556.745 743.771 561.333C747.155 565.214 757.015 556.23 757.015 556.23L761.089 552.323" stroke="black" stroke-width="0.666667" stroke-miterlimit="10"/>
<path d="M761.577 563.02L765.98 559.145" stroke="black" stroke-width="0.666667" stroke-miterlimit="10"/>
<path d="M756.109 545.286L761.283 540.468" stroke="black" stroke-width="0.666667" stroke-miterlimit="10"/>
<path d="M772.589 535.014L776.616 538.389" stroke="black" stroke-width="0.666667" stroke-miterlimit="10"/>
<path d="M781.712 543.026L784.699 545.429" stroke="black" stroke-width="0.666667" stroke-miterlimit="10"/>
<path d="M759.336 549.521C760.231 550.554 761.837 549.166 760.94 548.131C760.046 547.098 758.439 548.486 759.336 549.521Z" fill="black"/>
<path d="M764.999 554.583C765.894 555.614 767.5 554.226 766.604 553.192C765.709 552.16 764.104 553.548 764.999 554.583Z" fill="black"/>
<path d="M770.028 561.363C770.923 562.395 772.528 561.007 771.632 559.972C770.737 558.94 769.131 560.329 770.028 561.363Z" fill="black"/>
<path d="M810.339 430.203C810.339 430.203 810.097 416.087 792.916 413.252C786.442 412.184 779.847 414.528 775.215 419.912C772.603 422.949 770.472 427.06 770.34 432.439C770.34 432.439 746.91 422.378 745.772 448.491L727.754 456.758H746.058C746.061 456.783 746.062 456.805 746.065 456.829L751.289 456.758H757.814L757.756 456.669L832.597 455.646C832.597 455.646 833.214 420.326 810.339 430.203Z" fill="white"/>
<path d="M810.339 430.203C810.339 430.203 810.097 416.087 792.916 413.252C786.442 412.184 779.847 414.528 775.215 419.912C772.603 422.949 770.472 427.06 770.34 432.439C770.34 432.439 746.91 422.378 745.772 448.491L727.754 456.758H746.058C746.061 456.783 746.062 456.805 746.065 456.829L751.289 456.758H757.814L757.756 456.669L832.597 455.646C832.597 455.646 833.214 420.326 810.339 430.203Z" stroke="black" stroke-width="0.666667" stroke-miterlimit="10"/>
<path d="M772.105 441.484C772.105 443.271 770.655 444.721 768.867 444.721C767.078 444.721 765.628 443.271 765.628 441.484C765.628 439.695 767.078 438.246 768.867 438.246C770.655 438.246 772.105 439.695 772.105 441.484Z" fill="black"/>
<path d="M772.105 441.484C772.105 443.271 770.655 444.721 768.867 444.721C767.078 444.721 765.628 443.271 765.628 441.484C765.628 439.695 767.078 438.246 768.867 438.246C770.655 438.246 772.105 439.695 772.105 441.484Z" stroke="black" stroke-width="0.666667" stroke-miterlimit="10"/>
<path d="M792.297 441.484C792.297 443.271 790.848 444.721 789.059 444.721C787.27 444.721 785.821 443.271 785.821 441.484C785.821 439.695 787.27 438.246 789.059 438.246C790.848 438.246 792.297 439.695 792.297 441.484Z" fill="black"/>
<path d="M792.297 441.484C792.297 443.271 790.848 444.721 789.059 444.721C787.27 444.721 785.821 443.271 785.821 441.484C785.821 439.695 787.27 438.246 789.059 438.246C790.848 438.246 792.297 439.695 792.297 441.484Z" stroke="black" stroke-width="0.666667" stroke-miterlimit="10"/>
<path d="M812.108 441.484C812.108 443.271 810.658 444.721 808.869 444.721C807.08 444.721 805.631 443.271 805.631 441.484C805.631 439.695 807.08 438.246 808.869 438.246C810.658 438.246 812.108 439.695 812.108 441.484Z" fill="black"/>
<path d="M812.108 441.484C812.108 443.271 810.658 444.721 808.869 444.721C807.08 444.721 805.631 443.271 805.631 441.484C805.631 439.695 807.08 438.246 808.869 438.246C810.658 438.246 812.108 439.695 812.108 441.484Z" stroke="black" stroke-width="0.666667" stroke-miterlimit="10"/>
<g style="mix-blend-mode:soft-light">
<path d="M712.041 581.037C711.713 581.11 711.409 581.066 711.126 580.904C710.857 580.723 710.684 580.465 710.608 580.128L707.324 565.474C707.248 565.137 707.296 564.837 707.466 564.574C707.649 564.292 707.904 564.114 708.232 564.041C708.575 563.964 708.881 564.016 709.151 564.196C709.418 564.362 709.589 564.613 709.664 564.95L712.949 579.603C713.024 579.94 712.979 580.248 712.812 580.526C712.641 580.79 712.384 580.96 712.041 581.037ZM716.953 567.2C717.249 567.133 717.534 567.198 717.807 567.394C718.081 567.59 718.245 567.811 718.3 568.056C718.369 568.362 718.284 568.678 718.046 569.005L712.162 577.078L711.476 574.458L716.169 567.761C716.364 567.46 716.625 567.273 716.953 567.2ZM719.947 579.241C719.619 579.314 719.309 579.247 719.017 579.039L713.249 575.242L714.668 573.236L720.318 577.059C720.626 577.263 720.816 577.526 720.888 577.848C720.964 578.185 720.885 578.492 720.652 578.769C720.431 579.028 720.196 579.185 719.947 579.241Z" fill="white"/>
<path d="M696.624 587.988C696.555 587.682 696.619 587.418 696.815 587.198C697.011 586.977 697.219 586.842 697.437 586.793C697.765 586.719 698.061 586.798 698.326 587.028C699.225 587.823 700.197 588.433 701.243 588.858C702.292 589.299 703.375 589.562 704.493 589.65C705.626 589.733 706.746 589.651 707.854 589.403C708.962 589.154 710.012 588.758 711.004 588.214C711.997 587.67 712.881 586.973 713.658 586.124C714.438 585.29 715.037 584.311 715.458 583.188C715.583 582.87 715.817 582.673 716.161 582.596C716.395 582.544 716.642 582.585 716.901 582.72C717.161 582.854 717.321 583.059 717.383 583.335C717.424 583.519 717.417 583.705 717.361 583.895C716.868 585.276 716.182 586.491 715.302 587.54C714.427 588.605 713.396 589.487 712.209 590.188C711.025 590.903 709.747 591.415 708.374 591.723C707.001 592.03 705.627 592.113 704.251 591.971C702.891 591.826 701.588 591.459 700.342 590.87C699.099 590.296 697.954 589.499 696.906 588.48C696.762 588.351 696.668 588.187 696.624 587.988Z" fill="white"/>
<path d="M694.678 568.26C695.864 567.994 697.014 567.937 698.13 568.089C699.23 568.245 700.241 568.589 701.163 569.122C702.082 569.64 702.867 570.324 703.516 571.176C704.15 572.03 704.594 573.024 704.848 574.158C705.099 575.275 705.12 576.356 704.912 577.4C704.687 578.447 704.272 579.409 703.665 580.284C703.055 581.145 702.286 581.88 701.358 582.49C700.41 583.088 699.344 583.52 698.158 583.786C696.972 584.052 695.831 584.115 694.734 583.975C693.619 583.823 692.601 583.488 691.682 582.97C690.76 582.437 689.982 581.743 689.348 580.888C688.698 580.037 688.248 579.052 687.997 577.935C687.743 576.801 687.728 575.711 687.952 574.664C688.161 573.62 688.57 572.668 689.18 571.808C689.787 570.932 690.562 570.187 691.506 569.574C692.435 568.964 693.492 568.526 694.678 568.26ZM695.234 570.74C694.079 570.999 693.093 571.462 692.275 572.127C691.454 572.778 690.868 573.56 690.516 574.475C690.164 575.391 690.104 576.369 690.338 577.41C690.568 578.436 691.037 579.287 691.746 579.965C692.455 580.642 693.32 581.1 694.34 581.337C695.344 581.579 696.432 581.568 697.602 581.306C698.756 581.047 699.744 580.592 700.565 579.942C701.386 579.292 701.973 578.509 702.325 577.594C702.677 576.679 702.738 575.708 702.508 574.682C702.275 573.641 701.803 572.782 701.095 572.104C700.386 571.427 699.521 570.97 698.501 570.732C697.477 570.479 696.388 570.482 695.234 570.74Z" fill="white"/>
</g>
<path d="M144.691 553.22L66.7919 625.83L66.7919 625.83C65.9632 626.602 65.5488 626.988 65.5799 627.462C65.611 627.935 66.0723 628.264 66.995 628.922L231.332 746.024L231.332 746.024C231.662 746.259 231.826 746.376 232.018 746.421C232.21 746.466 232.41 746.434 232.81 746.37L358.941 726.09C359.219 726.045 359.357 726.023 359.495 726.039C359.633 726.055 359.763 726.109 360.023 726.217L570.945 813.563C571.46 813.776 571.718 813.883 571.981 813.85C572.244 813.816 572.467 813.648 572.913 813.313L617.83 779.504C618.161 779.255 618.326 779.131 618.521 779.082C618.716 779.032 618.92 779.063 619.329 779.124L711.764 792.965C711.882 792.982 711.941 792.991 712 792.993C712.06 792.995 712.119 792.989 712.238 792.979L996.786 767.519C996.893 767.51 996.946 767.505 997 767.506C997.053 767.507 997.107 767.513 997.213 767.527L1140 785.437C1140.25 785.468 1140.37 785.484 1140.5 785.469C1140.62 785.454 1140.74 785.408 1140.97 785.318L1363.91 699.001C1365.09 698.544 1365.68 698.316 1365.81 697.821C1365.94 697.326 1365.54 696.838 1364.74 695.863L1364.73 695.862L1275.46 587.764C1274.78 586.942 1274.44 586.532 1273.99 586.519C1273.53 586.506 1273.17 586.897 1272.45 587.679L1212.54 652.417C1212.27 652.705 1212.14 652.849 1211.97 652.931C1211.79 653.014 1211.6 653.027 1211.21 653.054L924.754 672.449C924.381 672.474 924.195 672.487 924.02 672.434C923.845 672.381 923.697 672.268 923.401 672.04L882.516 640.663C881.799 640.113 881.44 639.838 881.041 639.881C880.643 639.924 880.351 640.27 879.769 640.961L836.277 692.578C835.898 693.027 835.709 693.252 835.446 693.341C835.183 693.431 834.896 693.368 834.322 693.243L673.124 658.136C672.815 658.069 672.66 658.035 672.505 658.05C672.35 658.064 672.204 658.127 671.912 658.251L590.173 693.212C589.84 693.355 589.674 693.426 589.497 693.435C589.32 693.445 589.146 693.391 588.8 693.285L413.913 639.627C413.707 639.564 413.604 639.532 413.498 639.523C413.392 639.514 413.285 639.528 413.072 639.555L270.382 657.887C269.948 657.942 269.731 657.97 269.527 657.91C269.324 657.849 269.157 657.706 268.825 657.421L147.358 553.165C146.712 552.611 146.389 552.334 146.007 552.342C145.625 552.349 145.314 552.64 144.691 553.22Z" fill="url(#paint2_linear_232_917)"/>
<path d="M618.025 730.639L386.849 806.45C382.19 807.978 379.86 808.742 380 809.589C380.14 810.435 382.592 810.407 387.496 810.35H387.496L1458.3 798.025C1459.33 798.013 1459.84 798.008 1460.14 797.678C1460.43 797.348 1460.38 796.837 1460.27 795.816L1440.29 605.751C1440.16 604.495 1440.09 603.867 1439.65 603.613C1439.2 603.359 1438.63 603.618 1437.48 604.137L1437.48 604.137L1141.03 737.81C1140.77 737.929 1140.64 737.989 1140.49 738.009C1140.35 738.029 1140.21 738.008 1139.92 737.966L997.247 717.13C997.124 717.112 997.062 717.103 997 717.102C996.938 717.101 996.875 717.107 996.751 717.12L712.277 746.753L712.276 746.753C712.138 746.768 712.069 746.775 712 746.772C711.931 746.77 711.863 746.758 711.726 746.734L711.726 746.734L618.992 730.569L618.992 730.569C618.747 730.526 618.625 730.505 618.502 730.514C618.38 730.522 618.261 730.561 618.025 730.639Z" fill="url(#paint3_linear_232_917)"/>
<path d="M212.831 669.523L-15.8379 506.258C-17.2228 505.269 -17.9153 504.774 -18.4577 505.054C-19 505.333 -19 506.184 -19 507.885V808C-19 808.943 -19 809.414 -18.7071 809.707C-18.4142 810 -17.9428 810 -17 810H551.5C552.443 810 552.914 810 553.207 809.707C553.5 809.414 553.5 808.943 553.5 808V738.339C553.5 737.69 553.5 737.366 553.331 737.113C553.162 736.861 552.862 736.737 552.261 736.49L341.522 649.715C341.263 649.608 341.133 649.555 340.995 649.539C340.858 649.523 340.72 649.545 340.443 649.59L214.311 669.87H214.311C213.911 669.934 213.711 669.966 213.519 669.921C213.326 669.876 213.161 669.758 212.831 669.523Z" fill="url(#paint4_linear_232_917)"/>
<path d="M-2 810.118V2203C-2 2203.94 -2 2204.41 -1.70711 2204.71C-1.41421 2205 -0.942795 2205 4.14848e-05 2205H1437C1437.94 2205 1438.41 2205 1438.71 2204.71C1439 2204.41 1439 2203.94 1439 2203V707.351C1439 706.259 1439 705.713 1438.65 705.414C1438.3 705.114 1437.76 705.202 1436.68 705.377L1015.35 773.764C1015.21 773.787 1015.14 773.799 1015.07 773.8C1015 773.802 1014.93 773.793 1014.79 773.775L1014.79 773.775L633.753 726.032C633.627 726.016 633.563 726.008 633.5 726.008C633.437 726.008 633.373 726.016 633.247 726.033L-0.257048 808.134C-1.08725 808.242 -1.50235 808.296 -1.75117 808.579C-2 808.862 -2 809.281 -2 810.118Z" fill="url(#paint5_linear_232_917)"/>
</g>
<defs>
<radialGradient id="paint0_radial_232_917" cx="0" cy="0" r="1" gradientUnits="userSpaceOnUse" gradientTransform="translate(720 50.8702) rotate(90) scale(795.63 6132.77)">
<stop stop-color="#000D85"/>
<stop offset="0.225733" stop-color="#7011CE"/>
<stop offset="0.652253" stop-color="#FF5D53"/>
<stop offset="1" stop-color="#F5F95A"/>
</radialGradient>
<linearGradient id="paint1_linear_232_917" x1="1402.5" y1="435.5" x2="582" y2="730.5" gradientUnits="userSpaceOnUse">
<stop stop-color="#C97FE2"/>
<stop offset="0.491021" stop-color="#FF594F"/>
<stop offset="0.732053" stop-color="#38368F"/>
<stop offset="1" stop-color="#E2857F"/>
</linearGradient>
<linearGradient id="paint2_linear_232_917" x1="903.5" y1="280" x2="715.75" y2="814" gradientUnits="userSpaceOnUse">
<stop stop-color="#CA7E5D"/>
<stop offset="1" stop-color="#553072"/>
</linearGradient>
<linearGradient id="paint3_linear_232_917" x1="997.5" y1="727.572" x2="254.106" y2="951.765" gradientUnits="userSpaceOnUse">
<stop stop-color="#341B55"/>
<stop offset="1" stop-color="#4E2B7B"/>
</linearGradient>
<linearGradient id="paint4_linear_232_917" x1="416.5" y1="488" x2="14.4999" y2="954" gradientUnits="userSpaceOnUse">
<stop stop-color="#3E2361"/>
<stop offset="1" stop-color="#040615"/>
</linearGradient>
<linearGradient id="paint5_linear_232_917" x1="648.577" y1="836.834" x2="1609.02" y2="1591.65" gradientUnits="userSpaceOnUse">
<stop stop-color="#1D1236"/>
<stop offset="1" stop-color="#4F3A71"/>
</linearGradient>
<clipPath id="clip0_232_917">
<rect width="1440" height="841" fill="white"/>
</clipPath>
</defs>
</svg>
