<svg width="1425" height="841" viewBox="0 0 1425 841" fill="none" xmlns="http://www.w3.org/2000/svg">
<g clip-path="url(#clip0_232_917)">
<rect width="1440" height="784" fill="url(#paint0_radial_232_917)"/>
<circle cx="787.991" cy="595.205" r="3.62757" fill="white" fill-opacity="0.25"/>
<circle cx="656.5" cy="329.5" r="3.5" fill="white" fill-opacity="0.25"/>
<circle cx="213.5" cy="503.5" r="2.5" fill="white" fill-opacity="0.25"/>
<circle cx="267.446" cy="101.402" r="2.26723" fill="white" fill-opacity="0.25"/>
<circle cx="1296.36" cy="193.36" r="1.36034" fill="white" fill-opacity="0.25"/>
<circle cx="101.36" cy="154.36" r="1.36034" fill="white" fill-opacity="0.25"/>
<circle cx="84.3603" cy="523.36" r="1.36034" fill="white" fill-opacity="0.25"/>
<circle cx="869.814" cy="424.814" r="1.81379" fill="white" fill-opacity="0.25"/>
<circle cx="304.814" cy="157.814" r="1.81379" fill="white" fill-opacity="0.25"/>
<circle cx="400.814" cy="691.814" r="1.81379" fill="white" fill-opacity="0.25"/>
<circle cx="434.814" cy="286.814" r="1.81379" fill="white" fill-opacity="0.25"/>
<circle cx="1255.81" cy="86.8138" r="1.81379" fill="white" fill-opacity="0.25"/>
<circle cx="781.814" cy="303.814" r="1.81379" fill="white" fill-opacity="0.25"/>
<circle cx="445.814" cy="716.814" r="1.81379" fill="white" fill-opacity="0.25"/>
<circle cx="651" cy="516" r="2" fill="white" fill-opacity="0.25"/>
<circle cx="712.628" cy="711.628" r="3.62757" fill="white" fill-opacity="0.25"/>
<circle cx="61.6276" cy="680.628" r="3.62757" fill="white" fill-opacity="0.25"/>
<circle cx="105.267" cy="394.267" r="2.26723" fill="white" fill-opacity="0.25"/>
<circle cx="447.732" cy="454.183" r="3.17413" fill="white" fill-opacity="0.25"/>
<circle cx="1062.17" cy="199.174" r="3.17413" fill="white" fill-opacity="0.25"/>
<circle cx="1291.5" cy="644.5" r="1.5" fill="white" fill-opacity="0.25"/>
<circle cx="1397.72" cy="389.721" r="2.72068" fill="white" fill-opacity="0.25"/>
<circle cx="611.721" cy="119.721" r="2.72068" fill="white" fill-opacity="0.25"/>
<circle cx="334.267" cy="626.267" r="2.26723" fill="white" fill-opacity="0.25"/>
<circle cx="191.814" cy="290.489" r="1.81379" fill="white" fill-opacity="0.25"/>
<circle cx="1285.5" cy="459.5" r="2.5" fill="white" fill-opacity="0.25"/>
<circle cx="1094" cy="147" r="3" fill="white" fill-opacity="0.25"/>
<circle cx="1130" cy="676" r="2" fill="white" fill-opacity="0.25"/>
<circle cx="1069.08" cy="425.081" r="4.08102" fill="white" fill-opacity="0.25"/>
<circle cx="999" cy="707" r="3" fill="white" fill-opacity="0.25"/>
<circle cx="367.018" cy="45.1741" r="3.17413" fill="white" fill-opacity="0.25"/>
<circle cx="795.174" cy="26.1741" r="3.17413" fill="white" fill-opacity="0.25"/>
<circle cx="1392.72" cy="28.7207" r="2.72068" fill="white" fill-opacity="0.25"/>
<path d="M288.868 581.748L212.035 611.898C211.336 612.172 211.177 613.09 211.744 613.583L268.156 662.701C268.375 662.891 268.665 662.977 268.951 662.937L352.592 651.266C353.394 651.154 353.737 650.185 353.184 649.593L289.964 581.996C289.684 581.696 289.25 581.598 288.868 581.748Z" fill="#D897A9"/>
<path d="M557.962 596.145L459.444 657.413C458.982 657.7 458.752 657.843 458.626 658.07C458.5 658.297 458.5 658.568 458.5 659.111V711.476C458.5 712.429 458.5 712.906 458.797 713.199C459.094 713.493 459.571 713.487 460.524 713.475H460.524L1361.64 702.504C1361.82 702.502 1361.91 702.501 1362 702.484C1362.08 702.467 1362.17 702.434 1362.34 702.369L1434.22 674.495C1434.84 674.255 1435.15 674.136 1435.33 673.88C1435.5 673.625 1435.5 673.293 1435.5 672.63V500.613C1435.5 497.212 1435.5 495.512 1434.73 495.332C1433.95 495.153 1433.2 496.679 1431.7 499.731L1395.82 572.822C1395.43 573.617 1395.24 574.015 1394.87 574.155C1394.5 574.295 1394.09 574.127 1393.27 573.791L1365.8 562.531C1365.17 562.274 1364.86 562.146 1364.55 562.215C1364.24 562.285 1364.01 562.535 1363.56 563.036L1280.05 654.896L1280.05 654.896C1279.78 655.194 1279.64 655.343 1279.47 655.428C1279.29 655.512 1279.09 655.524 1278.68 655.547L1045.96 668.973C1045.73 668.987 1045.62 668.993 1045.5 668.974C1045.39 668.955 1045.29 668.91 1045.07 668.821L906.78 610.827C906.395 610.666 906.203 610.585 906 610.586C905.798 610.586 905.606 610.668 905.222 610.831L795.426 657.606C794.972 657.799 794.744 657.896 794.508 657.881C794.271 657.866 794.058 657.741 793.632 657.492L733.468 622.274C733.235 622.138 733.119 622.07 732.991 622.035C732.862 622 732.727 622 732.458 622H705.672C705.339 622 705.172 622 705.017 621.948C704.863 621.896 704.73 621.796 704.465 621.595L634.3 568.484C633.678 568.013 633.366 567.777 633.01 567.79C632.655 567.803 632.361 568.061 631.774 568.576L585.097 609.537C584.568 610.002 584.303 610.234 583.979 610.263C583.654 610.292 583.352 610.111 582.749 609.749L560.048 596.129C559.538 595.823 559.283 595.67 559.001 595.672C558.72 595.674 558.468 595.831 557.963 596.145L557.962 596.145Z" fill="url(#paint1_linear_232_917)"/>
<path d="M665.718 625.944L665.352 670.365C665.352 670.365 650.866 669.281 649.726 681.739L683.961 681.308L684.874 626.92C684.874 626.92 665.706 625.947 665.718 625.944Z" fill="black"/>
<path d="M665.718 625.944L665.352 670.365C665.352 670.365 650.866 669.281 649.726 681.739L683.961 681.308L684.874 626.92C684.874 626.92 665.706 625.947 665.718 625.944Z" stroke="black" stroke-width="0.666667" stroke-miterlimit="10"/>
<path d="M724.488 625.443L725.206 669.86C725.206 669.86 739.683 668.658 740.921 681.108L706.684 680.954L705.339 626.575C705.339 626.575 724.498 625.446 724.488 625.443Z" fill="black"/>
<path d="M724.488 625.443L725.206 669.86C725.206 669.86 739.683 668.658 740.921 681.108L706.684 680.954L705.339 626.575C705.339 626.575 724.498 625.446 724.488 625.443Z" stroke="black" stroke-width="0.666667" stroke-miterlimit="10"/>
<path d="M774.009 527.356C774.083 527.673 774.157 527.99 774.224 528.309C779.147 550.387 775.992 572.433 766.717 591.266C757.258 610.479 741.427 626.341 721.297 635.477C716.267 637.766 710.962 639.64 705.421 641.022C705.047 641.129 704.667 641.218 704.289 641.309C703.927 641.395 703.558 641.483 703.191 641.554C703.137 641.575 703.087 641.586 703.03 641.592C675.037 647.868 647.106 640.762 625.888 624.416C609.469 611.766 597.069 593.592 591.762 571.803C591.672 571.49 591.598 571.172 591.523 570.856C586.412 548.958 589.274 527.044 598.202 508.216C609.743 483.869 631.437 464.694 659.166 457.432C659.492 457.336 659.82 457.251 660.152 457.18C660.374 457.109 660.599 457.056 660.826 457.009L660.843 457.005C660.977 456.965 661.106 456.934 661.243 456.902C664.406 456.148 667.575 455.564 670.734 455.156C696.401 451.759 721.469 459.341 740.757 474.671C756.861 487.456 768.941 505.647 774.009 527.356Z" fill="#A545AD"/>
<path d="M774.009 527.356C774.083 527.673 774.157 527.99 774.224 528.309C779.147 550.387 775.992 572.433 766.717 591.266C757.258 610.479 741.427 626.341 721.297 635.477C716.267 637.766 710.962 639.64 705.421 641.022C705.047 641.129 704.667 641.218 704.289 641.309C703.927 641.395 703.558 641.483 703.191 641.554C703.137 641.575 703.087 641.586 703.03 641.592C675.037 647.868 647.106 640.762 625.888 624.416C609.469 611.766 597.069 593.592 591.762 571.803C591.672 571.49 591.598 571.172 591.523 570.856C586.412 548.958 589.274 527.044 598.202 508.216C609.743 483.869 631.437 464.694 659.166 457.432C659.492 457.336 659.82 457.251 660.152 457.18C660.374 457.109 660.599 457.056 660.826 457.009L660.843 457.005C660.977 456.965 661.106 456.934 661.243 456.902C664.406 456.148 667.575 455.564 670.734 455.156C696.401 451.759 721.469 459.341 740.757 474.671C756.861 487.456 768.941 505.647 774.009 527.356Z" stroke="black" stroke-width="0.666667" stroke-miterlimit="10"/>
<path d="M740.779 474.642C726.878 496.292 704.206 513.1 676.312 519.749C648.028 526.492 619.929 521.465 597.774 507.959" stroke="black" stroke-width="0.666667" stroke-miterlimit="10"/>
<path d="M625.889 624.415C632.535 614.339 641.108 605.35 651.219 597.993C662.141 590.041 674.868 583.993 688.95 580.543C689.189 580.478 689.423 580.421 689.664 580.364C703.967 576.954 718.224 576.553 731.694 578.742C744.26 580.778 756.128 585.066 766.718 591.266" stroke="black" stroke-width="0.666667" stroke-miterlimit="10"/>
<path d="M659.169 457.427C643.948 471.72 634.308 494.049 632.386 519.485C631.43 532.24 632.409 545.753 635.604 559.443C635.652 559.646 635.696 559.832 635.749 560.026C639.01 573.777 644.214 586.352 650.821 597.33L650.823 597.337C664.064 619.374 682.97 634.95 703.239 640.464C703.558 640.56 703.884 640.647 704.207 640.723C704.615 640.831 705.022 640.932 705.424 641.017" stroke="black" stroke-width="0.666667" stroke-miterlimit="10"/>
<path d="M703.03 641.591C703.081 641.554 703.131 641.515 703.172 641.471C703.428 641.255 703.676 641.042 703.918 640.814C703.967 640.766 704.01 640.731 704.059 640.685C719.671 626.754 729.622 604.377 731.693 578.742C732.734 566.13 731.856 552.723 728.804 539.136C728.721 538.743 728.629 538.353 728.538 537.963C725.485 524.884 720.694 512.845 714.607 502.233C701.587 479.475 682.655 463.269 662.286 457.4L662.278 457.403C661.802 457.257 661.323 457.132 660.843 457.005L660.834 457.008L660.826 457.009" stroke="black" stroke-width="0.666667" stroke-miterlimit="10"/>
<path d="M591.764 571.798L636.355 561.171L681.896 550.314L728.805 539.132L774.226 528.305" stroke="black" stroke-width="0.666667" stroke-miterlimit="10"/>
<path d="M660.153 457.179L660.555 458.903L674.837 520.084L674.839 520.093L681.894 550.317L688.95 580.543L702.917 640.373L702.958 640.551L703.172 641.471L703.191 641.553" stroke="black" stroke-width="0.666667" stroke-miterlimit="10"/>
<path d="M705.409 547.613C703.136 552.048 698.752 556.319 691.29 559.152C683.753 562.024 677.015 561.253 671.984 558.763C663.55 554.575 659.897 545.535 665.273 540.622C673.859 532.78 684.116 540.574 684.116 540.574C684.116 540.574 692.039 524.561 703.056 530.107C706.954 532.07 709.3 540.064 705.409 547.613Z" fill="#F0366E"/>
<path d="M705.409 547.613C703.136 552.048 698.752 556.319 691.29 559.152C683.753 562.024 677.015 561.253 671.984 558.763C663.55 554.575 659.897 545.535 665.273 540.622C673.859 532.78 684.116 540.574 684.116 540.574C684.116 540.574 692.039 524.561 703.056 530.107C706.954 532.07 709.3 540.064 705.409 547.613Z" stroke="black" stroke-width="0.666667" stroke-miterlimit="10"/>
<path d="M672.468 545.968C674.94 547.514 681.485 551.131 688.026 548.769C694.716 546.351 697.422 539.113 698.303 536.334" stroke="black" stroke-width="0.666667" stroke-miterlimit="10"/>
<path d="M737.827 596.817L661.984 614.429L646.729 567.431C646.057 565.363 647.288 563.159 649.387 562.673L725.742 544.941C727.809 544.461 729.846 545.852 730.179 547.969L737.827 596.817Z" fill="#FBC833"/>
<path d="M737.827 596.817L661.984 614.429L646.729 567.431C646.057 565.363 647.288 563.159 649.387 562.673L725.742 544.941C727.809 544.461 729.846 545.852 730.179 547.969L737.827 596.817Z" stroke="black" stroke-width="0.666667" stroke-miterlimit="10"/>
<path d="M739.093 601.998L662.947 619.584L661.77 614.407L737.851 596.906L739.093 601.998Z" fill="#FBC425"/>
<path d="M739.093 601.998L662.947 619.584L661.77 614.407L737.851 596.906L739.093 601.998Z" stroke="black" stroke-width="0.666667" stroke-miterlimit="10"/>
<path d="M644.722 601.979C637.309 606.694 627.059 612.53 616.413 616.043C604.399 620.021 591.9 621.067 582.442 614.248C572.052 606.757 571.118 592.202 575.63 581.108C578.761 573.385 583.745 566.462 589.714 560.585C590.123 563.995 592.17 572.988 592.091 573.114C589.496 577.269 586.736 580.785 585.075 584.995C581.854 593.209 582.454 604.665 592.194 607.687C597.331 609.277 603.121 608.58 608.629 607.132C611.901 606.266 615.084 605.117 617.946 604.032C625.589 601.113 632.964 597.279 639.865 592.886C645.451 589.322 650.257 598.453 644.722 601.979Z" fill="black"/>
<path d="M643.093 586.642C643.804 586.455 643.877 584.631 643.945 583.864C644.389 578.893 648.584 574.64 651.454 572.789C652.614 572.04 656.435 569.395 658.847 570.196C664.011 571.909 658.371 579.629 656.685 582.108C658.009 581.782 658.336 581.71 658.68 581.622C659.339 581.456 659.997 581.282 660.651 581.098C661.817 580.768 662.973 580.404 664.116 580.001C666.802 579.053 669.38 577.816 672.076 576.902C673.887 576.289 676.658 575.33 678.353 576.723C679.486 577.653 679.349 579.385 679.164 580.688C679.159 580.722 679.154 580.757 679.15 580.789C679.15 580.789 684.703 582.437 680.708 588.031C681.278 588.325 681.975 588.572 682.274 589.188C683.351 591.403 680.766 594.757 679.48 596.315C676.22 600.263 671.618 603.972 667 606.2C663.167 608.047 658.967 608.504 654.838 607.476C654.035 607.277 653.245 607.028 652.468 606.744C651.81 606.501 650.649 605.681 649.982 605.686C649.969 605.686 649.668 606.63 649.641 606.691C649.316 607.447 648.859 608.16 648.252 608.718C646.84 610.018 644.718 610.454 643.041 609.398C640.517 607.808 639.79 604.649 639.085 601.94C638.24 598.688 637.098 595.536 636.078 592.331C633.015 582.712 640.424 584.912 641.467 585.59C643.013 586.591 642.71 586.744 643.093 586.642Z" fill="white"/>
<path d="M643.093 586.642C643.804 586.455 643.877 584.631 643.945 583.864C644.389 578.893 648.584 574.64 651.454 572.789C652.614 572.04 656.435 569.395 658.847 570.196C664.011 571.909 658.371 579.629 656.685 582.108C658.009 581.782 658.336 581.71 658.68 581.622C659.339 581.456 659.997 581.282 660.651 581.098C661.817 580.768 662.973 580.404 664.116 580.001C666.802 579.053 669.38 577.816 672.076 576.902C673.887 576.289 676.658 575.33 678.353 576.723C679.486 577.653 679.349 579.385 679.164 580.688C679.159 580.722 679.154 580.757 679.15 580.789C679.15 580.789 684.703 582.437 680.708 588.031C681.278 588.325 681.975 588.572 682.274 589.188C683.351 591.403 680.766 594.757 679.48 596.315C676.22 600.263 671.618 603.972 667 606.2C663.167 608.047 658.967 608.504 654.838 607.476C654.035 607.277 653.245 607.028 652.468 606.744C651.81 606.501 650.649 605.681 649.982 605.686C649.969 605.686 649.668 606.63 649.641 606.691C649.316 607.447 648.859 608.16 648.252 608.718C646.84 610.018 644.718 610.454 643.041 609.398C640.517 607.808 639.79 604.649 639.085 601.94C638.24 598.688 637.098 595.536 636.078 592.331C633.015 582.712 640.424 584.912 641.467 585.59C643.013 586.591 642.71 586.744 643.093 586.642Z" stroke="black" stroke-width="0.666667" stroke-miterlimit="10"/>
<path d="M662.296 589.193C662.296 589.193 673.465 586.045 679.15 580.789" stroke="black" stroke-width="0.666667" stroke-miterlimit="10"/>
<path d="M680.94 588.093C680.94 588.093 672.732 594.623 666.196 596.769" stroke="black" stroke-width="0.666667" stroke-miterlimit="10"/>
<path d="M661.356 585.545C661.198 585.88 660.811 586.03 660.492 585.875C660.173 585.721 660.043 585.324 660.202 584.987C660.36 584.652 660.748 584.504 661.066 584.657C661.385 584.81 661.515 585.208 661.356 585.545Z" fill="black"/>
<path d="M661.356 585.545C661.198 585.88 660.811 586.03 660.492 585.875C660.173 585.721 660.043 585.324 660.202 584.987C660.36 584.652 660.748 584.504 661.066 584.657C661.385 584.81 661.515 585.208 661.356 585.545Z" stroke="black" stroke-width="0.666667" stroke-miterlimit="10"/>
<path d="M663.967 593.795C663.809 594.132 663.422 594.279 663.102 594.125C662.784 593.972 662.654 593.574 662.813 593.238C662.972 592.902 663.359 592.755 663.678 592.909C663.997 593.062 664.126 593.459 663.967 593.795Z" fill="black"/>
<path d="M663.967 593.795C663.809 594.132 663.422 594.279 663.102 594.125C662.784 593.972 662.654 593.574 662.813 593.238C662.972 592.902 663.359 592.755 663.678 592.909C663.997 593.062 664.126 593.459 663.967 593.795Z" stroke="black" stroke-width="0.666667" stroke-miterlimit="10"/>
<path d="M667.135 601.124C666.976 601.459 666.589 601.607 666.27 601.454C665.951 601.301 665.821 600.903 665.981 600.566C666.139 600.231 666.527 600.081 666.845 600.236C667.164 600.39 667.294 600.787 667.135 601.124Z" fill="black"/>
<path d="M667.135 601.124C666.976 601.459 666.589 601.607 666.27 601.454C665.951 601.301 665.821 600.903 665.981 600.566C666.139 600.231 666.527 600.081 666.845 600.236C667.164 600.39 667.294 600.787 667.135 601.124Z" stroke="black" stroke-width="0.666667" stroke-miterlimit="10"/>
<path d="M643.361 586.508L644.559 590.167" stroke="black" stroke-width="0.666667" stroke-miterlimit="10"/>
<path d="M649.061 602.321L649.91 605.687" stroke="black" stroke-width="0.666667" stroke-miterlimit="10"/>
<path d="M724.172 487.533C728.42 502.641 724.785 517.176 716.083 521.754C715.321 522.168 714.504 522.488 713.665 522.731C703.239 525.724 691.036 514.829 686.41 498.378C681.789 481.948 686.497 466.196 696.922 463.202C697.762 462.962 698.623 462.8 699.488 462.746C709.272 462.015 719.922 472.426 724.172 487.533Z" fill="white"/>
<path d="M724.172 487.533C728.42 502.641 724.785 517.176 716.083 521.754C715.321 522.168 714.504 522.488 713.665 522.731C703.239 525.724 691.036 514.829 686.41 498.378C681.789 481.948 686.497 466.196 696.922 463.202C697.762 462.962 698.623 462.8 699.488 462.746C709.272 462.015 719.922 472.426 724.172 487.533Z" stroke="black" stroke-width="0.666667" stroke-miterlimit="10"/>
<path d="M725.285 498.652L725.291 498.667C725.452 509.469 722.094 518.313 716.053 521.652C715.299 522.077 714.487 522.417 713.646 522.657C707.054 524.53 699.554 520.211 693.607 512.107C693.56 511.998 693.525 511.885 693.492 511.772C690.174 500.783 694.855 489.598 703.939 486.798C712.161 484.264 721.187 489.486 725.285 498.652Z" fill="black"/>
<path d="M725.285 498.652L725.291 498.667C725.452 509.469 722.094 518.313 716.053 521.652C715.299 522.077 714.487 522.417 713.646 522.657C707.054 524.53 699.554 520.211 693.607 512.107C693.56 511.998 693.525 511.885 693.492 511.772C690.174 500.783 694.855 489.598 703.939 486.798C712.161 484.264 721.187 489.486 725.285 498.652Z" stroke="black" stroke-width="0.666667" stroke-miterlimit="10"/>
<path d="M651.357 512.348C655.606 527.455 651.971 541.991 643.268 546.568C642.506 546.983 641.689 547.303 640.849 547.544C630.424 550.538 618.222 539.643 613.595 523.193C608.975 506.763 613.682 491.01 624.107 488.017C624.947 487.775 625.809 487.614 626.673 487.561C636.457 486.83 647.108 497.239 651.357 512.348Z" fill="white"/>
<path d="M651.357 512.348C655.606 527.455 651.971 541.991 643.268 546.568C642.506 546.983 641.689 547.303 640.849 547.544C630.424 550.538 618.222 539.643 613.595 523.193C608.975 506.763 613.682 491.01 624.107 488.017C624.947 487.775 625.809 487.614 626.673 487.561C636.457 486.83 647.108 497.239 651.357 512.348Z" stroke="black" stroke-width="0.666667" stroke-miterlimit="10"/>
<path d="M652.471 523.466L652.475 523.483C652.636 534.285 649.279 543.128 643.239 546.468C642.484 546.893 641.672 547.231 640.831 547.473C634.239 549.345 626.739 545.026 620.792 536.921C620.744 536.814 620.71 536.7 620.676 536.588C617.36 525.598 622.04 514.411 631.125 511.612C639.345 509.079 648.372 514.3 652.471 523.466Z" fill="black"/>
<path d="M652.471 523.466L652.475 523.483C652.636 534.285 649.279 543.128 643.239 546.468C642.484 546.893 641.672 547.231 640.831 547.473C634.239 549.345 626.739 545.026 620.792 536.921C620.744 536.814 620.71 536.7 620.676 536.588C617.36 525.598 622.04 514.411 631.125 511.612C639.345 509.079 648.372 514.3 652.471 523.466Z" stroke="black" stroke-width="0.666667" stroke-miterlimit="10"/>
<path d="M687.127 497.931C691.377 513.038 687.742 527.572 679.039 532.151C678.276 532.564 677.46 532.886 676.62 533.127C666.195 536.121 653.993 525.225 649.366 508.774C644.745 492.345 649.453 476.592 659.878 473.598C660.718 473.357 661.579 473.195 662.444 473.142C672.228 472.411 682.879 482.821 687.127 497.931Z" fill="white"/>
<path d="M687.127 497.931C691.377 513.038 687.742 527.572 679.039 532.151C678.276 532.564 677.46 532.886 676.62 533.127C666.195 536.121 653.993 525.225 649.366 508.774C644.745 492.345 649.453 476.592 659.878 473.598C660.718 473.357 661.579 473.195 662.444 473.142C672.228 472.411 682.879 482.821 687.127 497.931Z" stroke="black" stroke-width="0.666667" stroke-miterlimit="10"/>
<path d="M688.242 509.049L688.246 509.064C688.407 519.867 685.05 528.711 679.009 532.05C678.255 532.476 677.443 532.813 676.602 533.054C670.01 534.927 662.51 530.608 656.563 522.504C656.515 522.395 656.481 522.283 656.448 522.169C653.131 511.179 657.81 499.994 666.895 497.194C675.116 494.661 684.143 499.882 688.242 509.049Z" fill="black"/>
<path d="M688.242 509.049L688.246 509.064C688.407 519.867 685.05 528.711 679.009 532.05C678.255 532.476 677.443 532.813 676.602 533.054C670.01 534.927 662.51 530.608 656.563 522.504C656.515 522.395 656.481 522.283 656.448 522.169C653.131 511.179 657.81 499.994 666.895 497.194C675.116 494.661 684.143 499.882 688.242 509.049Z" stroke="black" stroke-width="0.666667" stroke-miterlimit="10"/>
<path d="M687.216 447.265C686.992 445.301 686.586 443.335 685.996 441.371C680.553 423.237 661.602 413.013 643.672 418.508C625.726 424.008 615.604 443.143 621.047 461.277C621.637 463.242 622.379 465.104 623.273 466.864C618.45 469.691 615.839 472.213 616.341 473.888C616.946 475.904 621.924 476.393 629.476 475.52C637.188 474.637 647.581 472.377 658.807 468.935C670.034 465.493 679.935 461.534 686.812 457.93C693.576 454.432 697.43 451.236 696.825 449.221C696.321 447.544 692.766 446.915 687.216 447.265Z" fill="black"/>
<path d="M687.216 447.265C686.992 445.301 686.586 443.335 685.996 441.371C680.553 423.237 661.602 413.013 643.672 418.508C625.726 424.008 615.604 443.143 621.047 461.277C621.637 463.242 622.379 465.104 623.273 466.864C618.45 469.691 615.839 472.213 616.341 473.888C616.946 475.904 621.924 476.393 629.476 475.52C637.188 474.637 647.581 472.377 658.807 468.935C670.034 465.493 679.935 461.534 686.812 457.93C693.576 454.432 697.43 451.236 696.825 449.221C696.321 447.544 692.766 446.915 687.216 447.265Z" stroke="black" stroke-width="0.666667" stroke-miterlimit="10"/>
<path d="M637.375 463.314C637.855 463.221 638.335 463.124 638.814 463.026C645.572 461.639 652.219 459.748 658.779 457.61C662.106 456.523 665.396 455.32 668.614 453.942C674.915 451.242 680.878 447.85 686.736 444.29C686.534 443.318 686.288 442.345 685.996 441.372C685.657 440.241 685.265 439.141 684.824 438.074C673.936 443.999 662.419 448.724 650.584 452.334C641.005 455.255 630.73 458.494 620.527 459.171C620.692 459.874 620.836 460.577 621.047 461.277C621.436 462.575 621.917 463.81 622.438 465.018C622.768 465.764 627.879 464.787 628.61 464.699C631.547 464.347 634.47 463.879 637.375 463.314Z" fill="#F0366E"/>
<path d="M637.375 463.314C637.855 463.221 638.335 463.124 638.814 463.026C645.572 461.639 652.219 459.748 658.779 457.61C662.106 456.523 665.396 455.32 668.614 453.942C674.915 451.242 680.878 447.85 686.736 444.29C686.534 443.318 686.288 442.345 685.996 441.372C685.657 440.241 685.265 439.141 684.824 438.074C673.936 443.999 662.419 448.724 650.584 452.334C641.005 455.255 630.73 458.494 620.527 459.171C620.692 459.874 620.836 460.577 621.047 461.277C621.436 462.575 621.917 463.81 622.438 465.018C622.768 465.764 627.879 464.787 628.61 464.699C631.547 464.347 634.47 463.879 637.375 463.314Z" stroke="black" stroke-width="0.666667" stroke-miterlimit="10"/>
<path d="M654.08 422.376C662.434 421.275 670.798 425.87 675.1 433.053C675.633 433.943 676.879 432.919 676.35 432.036C671.765 424.377 662.714 419.601 653.855 420.771C652.828 420.905 653.056 422.511 654.08 422.376Z" fill="white"/>
<path d="M648.863 422.646C649.811 422.23 649.173 420.741 648.224 421.158C647.276 421.574 647.915 423.063 648.863 422.646Z" fill="white"/>
<path d="M634.104 471.169C629.773 472.427 624.773 473.067 620.537 471.136C619.786 470.793 619.195 471.947 619.951 472.29C624.508 474.368 629.813 473.765 634.483 472.409C635.279 472.177 634.898 470.938 634.104 471.169Z" fill="white"/>
<path d="M799.47 526.639C792.545 530.558 783.752 533.272 777.448 538.47C774.317 541.052 771.807 544.238 770.433 548.498C768.391 554.816 758.773 551.313 760.803 544.993C763.248 537.424 768.851 531.665 775.317 527.361C776.653 526.466 778.011 525.639 779.403 524.865C787.217 520.536 797.161 518.352 802.878 510.931C811.735 499.429 795.329 492.989 786.282 492.265C777.669 491.572 769.085 493.395 760.72 495.7C758.553 492.657 756.222 489.757 753.726 487.012C765.965 483.49 778.771 480.259 791.43 482.52C801.472 484.322 813.602 490.183 815.553 501.486C817.484 512.71 808.306 521.664 799.47 526.639Z" fill="black"/>
<path d="M748.998 556.286C746.364 562.733 753.644 563.02 753.644 563.02C753.644 563.02 754.073 564.214 754.14 564.383C754.37 564.959 754.744 565.461 755.212 565.862C756.15 566.671 757.394 567.087 758.602 567.245C760.774 567.53 762.809 566.848 764.698 565.799C768.375 563.758 771.036 560.327 773.322 556.791C776.378 552.061 776.383 548.124 776.525 545.429C777.852 545.086 779.672 543.611 779.954 542.714C780.39 541.33 779.917 539.815 778.874 538.814C776.616 536.642 771.526 531.917 768.606 530.522C764.775 528.69 764.541 535.014 764.541 535.014C760.543 531.398 755.233 530.706 751.761 533.001C748.844 534.929 748.05 538.421 747.944 538.926C747.223 542.32 748.451 545.159 748.418 545.159C748.418 545.159 732.065 556.745 736.023 561.333C739.372 565.214 749.13 556.23 749.13 556.23L753.161 552.323" fill="white"/>
<path d="M748.998 556.286C746.364 562.733 753.644 563.02 753.644 563.02C753.644 563.02 754.073 564.214 754.14 564.383C754.37 564.959 754.744 565.461 755.212 565.862C756.15 566.671 757.394 567.087 758.602 567.245C760.774 567.53 762.809 566.848 764.698 565.799C768.375 563.758 771.036 560.327 773.322 556.791C776.378 552.061 776.383 548.124 776.525 545.429C777.852 545.086 779.672 543.611 779.954 542.714C780.39 541.33 779.917 539.815 778.874 538.814C776.616 536.642 771.526 531.917 768.606 530.522C764.775 528.69 764.541 535.014 764.541 535.014C760.543 531.398 755.233 530.706 751.761 533.001C748.844 534.929 748.05 538.421 747.944 538.926C747.223 542.32 748.451 545.159 748.418 545.159C748.418 545.159 732.065 556.745 736.023 561.333C739.372 565.214 749.13 556.23 749.13 556.23L753.161 552.323" stroke="black" stroke-width="0.666667" stroke-miterlimit="10"/>
<path d="M753.644 563.02L758.001 559.145" stroke="black" stroke-width="0.666667" stroke-miterlimit="10"/>
<path d="M748.233 545.286L753.353 540.468" stroke="black" stroke-width="0.666667" stroke-miterlimit="10"/>
<path d="M764.541 535.014L768.526 538.389" stroke="black" stroke-width="0.666667" stroke-miterlimit="10"/>
<path d="M773.569 543.026L776.526 545.429" stroke="black" stroke-width="0.666667" stroke-miterlimit="10"/>
<path d="M751.426 549.521C752.312 550.554 753.902 549.166 753.013 548.131C752.129 547.098 750.539 548.486 751.426 549.521Z" fill="black"/>
<path d="M757.03 554.583C757.916 555.614 759.506 554.226 758.619 553.192C757.733 552.16 756.144 553.548 757.03 554.583Z" fill="black"/>
<path d="M762.007 561.363C762.892 562.395 764.481 561.007 763.594 559.972C762.708 558.94 761.12 560.329 762.007 561.363Z" fill="black"/>
<path d="M801.898 430.203C801.898 430.203 801.659 416.087 784.657 413.252C778.25 412.184 771.724 414.528 767.139 419.912C764.555 422.949 762.446 427.06 762.316 432.439C762.316 432.439 739.129 422.378 738.003 448.491L720.173 456.758H738.287C738.29 456.783 738.291 456.805 738.293 456.829L743.463 456.758H749.92L749.862 456.669L823.924 455.646C823.924 455.646 824.535 420.326 801.898 430.203Z" fill="white"/>
<path d="M801.898 430.203C801.898 430.203 801.659 416.087 784.657 413.252C778.25 412.184 771.724 414.528 767.139 419.912C764.555 422.949 762.446 427.06 762.316 432.439C762.316 432.439 739.129 422.378 738.003 448.491L720.173 456.758H738.287C738.29 456.783 738.291 456.805 738.293 456.829L743.463 456.758H749.92L749.862 456.669L823.924 455.646C823.924 455.646 824.535 420.326 801.898 430.203Z" stroke="black" stroke-width="0.666667" stroke-miterlimit="10"/>
<path d="M764.062 441.484C764.062 443.271 762.627 444.721 760.858 444.721C759.088 444.721 757.653 443.271 757.653 441.484C757.653 439.695 759.088 438.246 760.858 438.246C762.627 438.246 764.062 439.695 764.062 441.484Z" fill="black"/>
<path d="M764.062 441.484C764.062 443.271 762.627 444.721 760.858 444.721C759.088 444.721 757.653 443.271 757.653 441.484C757.653 439.695 759.088 438.246 760.858 438.246C762.627 438.246 764.062 439.695 764.062 441.484Z" stroke="black" stroke-width="0.666667" stroke-miterlimit="10"/>
<path d="M784.044 441.484C784.044 443.271 782.61 444.721 780.839 444.721C779.069 444.721 777.635 443.271 777.635 441.484C777.635 439.695 779.069 438.246 780.839 438.246C782.61 438.246 784.044 439.695 784.044 441.484Z" fill="black"/>
<path d="M784.044 441.484C784.044 443.271 782.61 444.721 780.839 444.721C779.069 444.721 777.635 443.271 777.635 441.484C777.635 439.695 779.069 438.246 780.839 438.246C782.61 438.246 784.044 439.695 784.044 441.484Z" stroke="black" stroke-width="0.666667" stroke-miterlimit="10"/>
<path d="M803.649 441.484C803.649 443.271 802.214 444.721 800.443 444.721C798.673 444.721 797.239 443.271 797.239 441.484C797.239 439.695 798.673 438.246 800.443 438.246C802.214 438.246 803.649 439.695 803.649 441.484Z" fill="black"/>
<path d="M803.649 441.484C803.649 443.271 802.214 444.721 800.443 444.721C798.673 444.721 797.239 443.271 797.239 441.484C797.239 439.695 798.673 438.246 800.443 438.246C802.214 438.246 803.649 439.695 803.649 441.484Z" stroke="black" stroke-width="0.666667" stroke-miterlimit="10"/>
<g style="mix-blend-mode:soft-light">
<path d="M706.041 581.037C705.713 581.11 705.409 581.066 705.126 580.904C704.857 580.723 704.684 580.465 704.608 580.128L701.324 565.474C701.248 565.137 701.296 564.837 701.466 564.574C701.649 564.292 701.904 564.114 702.232 564.041C702.575 563.964 702.881 564.016 703.151 564.196C703.418 564.362 703.589 564.613 703.664 564.95L706.949 579.603C707.024 579.94 706.979 580.248 706.812 580.526C706.641 580.79 706.384 580.96 706.041 581.037ZM710.953 567.2C711.249 567.133 711.534 567.198 711.807 567.394C712.081 567.59 712.245 567.811 712.3 568.056C712.369 568.362 712.284 568.678 712.046 569.005L706.162 577.078L705.476 574.458L710.169 567.761C710.364 567.46 710.625 567.273 710.953 567.2ZM713.947 579.241C713.619 579.314 713.309 579.247 713.017 579.039L707.249 575.242L708.668 573.236L714.318 577.059C714.626 577.263 714.816 577.526 714.888 577.848C714.964 578.185 714.885 578.492 714.652 578.769C714.431 579.028 714.196 579.185 713.947 579.241Z" fill="white"/>
<path d="M690.624 587.988C690.555 587.682 690.619 587.418 690.815 587.198C691.011 586.977 691.219 586.842 691.437 586.793C691.765 586.719 692.061 586.798 692.326 587.028C693.225 587.823 694.197 588.433 695.243 588.858C696.292 589.299 697.375 589.562 698.493 589.65C699.626 589.733 700.746 589.651 701.854 589.403C702.962 589.154 704.012 588.758 705.004 588.214C705.997 587.67 706.881 586.973 707.658 586.124C708.438 585.29 709.037 584.311 709.458 583.188C709.583 582.87 709.817 582.673 710.161 582.596C710.395 582.544 710.642 582.585 710.901 582.72C711.161 582.854 711.321 583.059 711.383 583.335C711.424 583.519 711.417 583.705 711.361 583.895C710.868 585.276 710.182 586.491 709.302 587.54C708.427 588.605 707.396 589.487 706.209 590.188C705.025 590.903 703.747 591.415 702.374 591.723C701.001 592.03 699.627 592.113 698.251 591.971C696.891 591.826 695.588 591.459 694.342 590.87C693.099 590.296 691.954 589.499 690.906 588.48C690.762 588.351 690.668 588.187 690.624 587.988Z" fill="white"/>
<path d="M688.678 568.26C689.864 567.994 691.014 567.937 692.13 568.089C693.23 568.245 694.241 568.589 695.163 569.122C696.082 569.64 696.867 570.324 697.516 571.176C698.15 572.03 698.594 573.024 698.848 574.158C699.099 575.275 699.12 576.356 698.912 577.4C698.687 578.447 698.272 579.409 697.665 580.284C697.055 581.145 696.286 581.88 695.358 582.49C694.41 583.088 693.344 583.52 692.158 583.786C690.972 584.052 689.831 584.115 688.734 583.975C687.619 583.823 686.601 583.488 685.682 582.97C684.76 582.437 683.982 581.743 683.348 580.888C682.698 580.037 682.248 579.052 681.997 577.935C681.743 576.801 681.728 575.711 681.952 574.664C682.161 573.62 682.57 572.668 683.18 571.808C683.787 570.932 684.562 570.187 685.506 569.574C686.435 568.964 687.492 568.526 688.678 568.26ZM689.234 570.74C688.079 570.999 687.093 571.462 686.275 572.127C685.454 572.778 684.868 573.56 684.516 574.475C684.164 575.391 684.104 576.369 684.338 577.41C684.568 578.436 685.037 579.287 685.746 579.965C686.455 580.642 687.32 581.1 688.34 581.337C689.344 581.579 690.432 581.568 691.602 581.306C692.756 581.047 693.744 580.592 694.565 579.942C695.386 579.292 695.973 578.509 696.325 577.594C696.677 576.679 696.738 575.708 696.508 574.682C696.275 573.641 695.803 572.782 695.095 572.104C694.386 571.427 693.521 570.97 692.501 570.732C691.477 570.479 690.388 570.482 689.234 570.74Z" fill="white"/>
</g>
<path d="M144.691 553.22L66.7919 625.83L66.7919 625.83C65.9632 626.602 65.5488 626.988 65.5799 627.462C65.611 627.935 66.0723 628.264 66.995 628.922L231.332 746.024L231.332 746.024C231.662 746.259 231.826 746.376 232.018 746.421C232.21 746.466 232.41 746.434 232.81 746.37L358.941 726.09C359.219 726.045 359.357 726.023 359.495 726.039C359.633 726.055 359.763 726.109 360.023 726.217L570.945 813.563C571.46 813.776 571.718 813.883 571.981 813.85C572.244 813.816 572.467 813.648 572.913 813.313L617.83 779.504C618.161 779.255 618.326 779.131 618.521 779.082C618.716 779.032 618.92 779.063 619.329 779.124L711.764 792.965C711.882 792.982 711.941 792.991 712 792.993C712.06 792.995 712.119 792.989 712.238 792.979L996.786 767.519C996.893 767.51 996.946 767.505 997 767.506C997.053 767.507 997.107 767.513 997.213 767.527L1140 785.437C1140.25 785.468 1140.37 785.484 1140.5 785.469C1140.62 785.454 1140.74 785.408 1140.97 785.318L1363.91 699.001C1365.09 698.544 1365.68 698.316 1365.81 697.821C1365.94 697.326 1365.54 696.838 1364.74 695.863L1364.73 695.862L1275.46 587.764C1274.78 586.942 1274.44 586.532 1273.99 586.519C1273.53 586.506 1273.17 586.897 1272.45 587.679L1212.54 652.417C1212.27 652.705 1212.14 652.849 1211.97 652.931C1211.79 653.014 1211.6 653.027 1211.21 653.054L924.754 672.449C924.381 672.474 924.195 672.487 924.02 672.434C923.845 672.381 923.697 672.268 923.401 672.04L882.516 640.663C881.799 640.113 881.44 639.838 881.041 639.881C880.643 639.924 880.351 640.27 879.769 640.961L836.277 692.578C835.898 693.027 835.709 693.252 835.446 693.341C835.183 693.431 834.896 693.368 834.322 693.243L673.124 658.136C672.815 658.069 672.66 658.035 672.505 658.05C672.35 658.064 672.204 658.127 671.912 658.251L590.173 693.212C589.84 693.355 589.674 693.426 589.497 693.435C589.32 693.445 589.146 693.391 588.8 693.285L413.913 639.627C413.707 639.564 413.604 639.532 413.498 639.523C413.392 639.514 413.285 639.528 413.072 639.555L270.382 657.887C269.948 657.942 269.731 657.97 269.527 657.91C269.324 657.849 269.157 657.706 268.825 657.421L147.358 553.165C146.712 552.611 146.389 552.334 146.007 552.342C145.625 552.349 145.314 552.64 144.691 553.22Z" fill="url(#paint2_linear_232_917)"/>
<path d="M614.025 730.639L382.849 806.45C378.19 807.978 375.86 808.742 376 809.589C376.14 810.435 378.592 810.407 383.496 810.35H383.496L1454.3 798.025C1455.33 798.013 1455.84 798.008 1456.14 797.678C1456.43 797.348 1456.38 796.837 1456.27 795.816L1436.29 605.751C1436.16 604.495 1436.09 603.867 1435.65 603.613C1435.2 603.359 1434.63 603.618 1433.48 604.137L1433.48 604.137L1137.03 737.81C1136.77 737.929 1136.64 737.989 1136.49 738.009C1136.35 738.029 1136.21 738.008 1135.92 737.966L993.247 717.13C993.124 717.112 993.062 717.103 993 717.102C992.938 717.101 992.875 717.107 992.751 717.12L708.277 746.753L708.276 746.753C708.138 746.768 708.069 746.775 708 746.772C707.931 746.77 707.863 746.758 707.726 746.734L707.726 746.734L614.992 730.569L614.992 730.569C614.747 730.526 614.625 730.505 614.502 730.514C614.38 730.522 614.261 730.561 614.025 730.639Z" fill="url(#paint3_linear_232_917)"/>
<path d="M212.831 669.523L-15.8379 506.258C-17.2228 505.269 -17.9153 504.774 -18.4577 505.054C-19 505.333 -19 506.184 -19 507.885V808C-19 808.943 -19 809.414 -18.7071 809.707C-18.4142 810 -17.9428 810 -17 810H551.5C552.443 810 552.914 810 553.207 809.707C553.5 809.414 553.5 808.943 553.5 808V738.339C553.5 737.69 553.5 737.366 553.331 737.113C553.162 736.861 552.862 736.737 552.261 736.49L341.522 649.715C341.263 649.608 341.133 649.555 340.995 649.539C340.858 649.523 340.72 649.545 340.443 649.59L214.311 669.87H214.311C213.911 669.934 213.711 669.966 213.519 669.921C213.326 669.876 213.161 669.758 212.831 669.523Z" fill="url(#paint4_linear_232_917)"/>
<path d="M-19 809.125V2202C-19 2202.94 -19 2203.41 -18.7071 2203.71C-18.4142 2204 -17.9428 2204 -17 2204H1470C1470.94 2204 1471.41 2204 1471.71 2203.71C1472 2203.41 1472 2202.94 1472 2202V706.338C1472 705.252 1472 704.709 1471.65 704.409C1471.3 704.11 1470.76 704.194 1469.69 704.362L1033.64 772.767C1033.5 772.789 1033.43 772.8 1033.36 772.801C1033.29 772.802 1033.22 772.794 1033.09 772.777L638.795 725.03C638.673 725.015 638.612 725.007 638.551 725.008C638.489 725.008 638.428 725.015 638.306 725.031L-17.2486 807.141C-18.0825 807.245 -18.4995 807.298 -18.7498 807.581C-19 807.865 -19 808.285 -19 809.125Z" fill="url(#paint5_linear_232_917)"/>
</g>
<defs>
<radialGradient id="paint0_radial_232_917" cx="0" cy="0" r="1" gradientUnits="userSpaceOnUse" gradientTransform="translate(720 50.8702) rotate(90) scale(795.63 6132.77)">
<stop stop-color="#000D85"/>
<stop offset="0.225733" stop-color="#7011CE"/>
<stop offset="0.652253" stop-color="#FF5D53"/>
<stop offset="1" stop-color="#F5F95A"/>
</radialGradient>
<linearGradient id="paint1_linear_232_917" x1="1398.5" y1="435.5" x2="578" y2="730.5" gradientUnits="userSpaceOnUse">
<stop stop-color="#C97FE2"/>
<stop offset="0.491021" stop-color="#FF594F"/>
<stop offset="0.732053" stop-color="#38368F"/>
<stop offset="1" stop-color="#E2857F"/>
</linearGradient>
<linearGradient id="paint2_linear_232_917" x1="903.5" y1="280" x2="715.75" y2="814" gradientUnits="userSpaceOnUse">
<stop stop-color="#CA7E5D"/>
<stop offset="1" stop-color="#553072"/>
</linearGradient>
<linearGradient id="paint3_linear_232_917" x1="993.5" y1="727.572" x2="250.106" y2="951.765" gradientUnits="userSpaceOnUse">
<stop stop-color="#341B55"/>
<stop offset="1" stop-color="#4E2B7B"/>
</linearGradient>
<linearGradient id="paint4_linear_232_917" x1="416.5" y1="488" x2="14.4999" y2="954" gradientUnits="userSpaceOnUse">
<stop stop-color="#3E2361"/>
<stop offset="1" stop-color="#040615"/>
</linearGradient>
<linearGradient id="paint5_linear_232_917" x1="654.151" y1="835.834" x2="1621.83" y2="1622.73" gradientUnits="userSpaceOnUse">
<stop stop-color="#1D1236"/>
<stop offset="1" stop-color="#4F3A71"/>
</linearGradient>
<clipPath id="clip0_232_917">
<rect width="1425" height="841" fill="white"/>
</clipPath>
</defs>
</svg>
