<svg width="18" height="18" viewBox="0 0 18 18" fill="none" xmlns="http://www.w3.org/2000/svg">
<rect width="18" height="18" rx="9" fill="white"/>
<path d="M5.33479 9.66178L11.2209 14.7344C11.3175 14.8186 11.4326 14.8854 11.5593 14.931C11.686 14.9765 11.8219 15 11.9592 15C12.0965 15 12.2324 14.9765 12.3592 14.931C12.4859 14.8854 12.6009 14.8186 12.6976 14.7344C12.8913 14.5662 13 14.3387 13 14.1015C13 13.8643 12.8913 13.6367 12.6976 13.4685L7.54987 8.97944L12.6976 4.53526C12.8913 4.36704 13 4.13949 13 3.9023C13 3.66511 12.8913 3.43756 12.6976 3.26934C12.6013 3.18451 12.4864 3.11702 12.3597 3.07079C12.2329 3.02455 12.0968 3.00049 11.9592 3C11.8216 3.00049 11.6855 3.02455 11.5588 3.07079C11.432 3.11702 11.3172 3.18451 11.2209 3.26934L5.33479 8.34199C5.22923 8.42607 5.14499 8.5281 5.08737 8.64168C5.02975 8.75525 5 8.8779 5 9.00189C5 9.12588 5.02975 9.24852 5.08737 9.36209C5.14499 9.47567 5.22923 9.57771 5.33479 9.66178Z" fill="#313338"/>
</svg>
