<svg width="1440" height="365" viewBox="0 0 1440 365" fill="none" xmlns="http://www.w3.org/2000/svg">
<path d="M288.868 169.748L212.035 199.898C211.336 200.172 211.177 201.09 211.744 201.583L268.156 250.701C268.375 250.891 268.665 250.977 268.951 250.937L352.592 239.266C353.394 239.154 353.737 238.185 353.184 237.593L289.964 169.996C289.684 169.697 289.25 169.598 288.868 169.748Z" fill="#D897A9"/>
<path d="M560.962 184.145L462.444 245.413C461.982 245.7 461.752 245.844 461.626 246.07C461.5 246.297 461.5 246.568 461.5 247.112V299.476C461.5 300.429 461.5 300.906 461.797 301.199C462.094 301.493 462.571 301.487 463.524 301.476H463.524L1364.64 290.505C1364.82 290.502 1364.91 290.501 1365 290.484C1365.08 290.467 1365.17 290.435 1365.34 290.369L1437.22 262.495C1437.84 262.256 1438.15 262.136 1438.33 261.88C1438.5 261.625 1438.5 261.294 1438.5 260.631V88.6128C1438.5 85.2123 1438.5 83.5121 1437.73 83.3324C1436.95 83.1527 1436.2 84.6789 1434.7 87.7314L1398.82 160.822C1398.43 161.618 1398.24 162.015 1397.87 162.155C1397.5 162.295 1397.09 162.127 1396.27 161.791L1368.8 150.531C1368.17 150.275 1367.86 150.146 1367.55 150.216C1367.24 150.285 1367.01 150.536 1366.56 151.037L1283.05 242.896L1283.05 242.896C1282.78 243.194 1282.64 243.343 1282.47 243.428C1282.29 243.512 1282.09 243.524 1281.68 243.547L1048.96 256.974C1048.73 256.987 1048.62 256.993 1048.5 256.974C1048.39 256.955 1048.29 256.91 1048.07 256.821L909.78 198.827C909.395 198.666 909.203 198.585 909 198.586C908.798 198.586 908.606 198.668 908.222 198.831L798.426 245.606C797.972 245.799 797.744 245.896 797.508 245.881C797.271 245.866 797.058 245.741 796.632 245.492L736.468 210.274C736.235 210.138 736.119 210.07 735.991 210.035C735.862 210 735.727 210 735.458 210H708.672C708.339 210 708.172 210 708.017 209.948C707.863 209.896 707.73 209.796 707.465 209.595L637.3 156.485C636.678 156.013 636.366 155.777 636.01 155.79C635.655 155.803 635.361 156.061 634.774 156.576L588.097 197.538C587.568 198.002 587.303 198.234 586.979 198.263C586.654 198.293 586.352 198.111 585.749 197.749L563.048 184.129C562.538 183.823 562.283 183.67 562.001 183.672C561.72 183.674 561.468 183.831 560.963 184.145L560.962 184.145Z" fill="url(#paint0_linear_232_1179)"/>
<path d="M671.725 213.944L671.355 258.365C671.355 258.365 656.718 257.281 655.565 269.739L690.161 269.308L691.083 214.921C691.083 214.921 671.713 213.947 671.725 213.944Z" fill="black"/>
<path d="M671.725 213.944L671.355 258.365C671.355 258.365 656.718 257.281 655.565 269.739L690.161 269.308L691.083 214.921C691.083 214.921 671.713 213.947 671.725 213.944Z" stroke="black" stroke-width="0.666667" stroke-miterlimit="10"/>
<path d="M731.114 213.444L731.84 257.86C731.84 257.86 746.469 256.658 747.721 269.108L713.123 268.955L711.763 214.575C711.763 214.575 731.124 213.446 731.114 213.444Z" fill="black"/>
<path d="M731.114 213.444L731.84 257.86C731.84 257.86 746.469 256.658 747.721 269.108L713.123 268.955L711.763 214.575C711.763 214.575 731.124 213.446 731.114 213.444Z" stroke="black" stroke-width="0.666667" stroke-miterlimit="10"/>
<path d="M781.156 115.356C781.231 115.673 781.306 115.99 781.373 116.309C786.348 138.387 783.161 160.433 773.788 179.266C764.23 198.479 748.231 214.341 727.89 223.478C722.807 225.766 717.445 227.64 711.847 229.022C711.468 229.129 711.085 229.218 710.702 229.309C710.337 229.395 709.964 229.483 709.593 229.554C709.539 229.575 709.488 229.587 709.43 229.592C681.143 235.869 652.918 228.763 631.477 212.416C614.884 199.767 602.354 181.592 596.991 159.803C596.9 159.49 596.825 159.173 596.75 158.856C591.585 136.958 594.477 115.044 603.499 96.2159C615.161 71.8694 637.084 52.6941 665.105 45.4319C665.434 45.3363 665.766 45.251 666.101 45.18C666.325 45.109 666.553 45.056 666.782 45.0095L666.799 45.0056C666.935 44.9656 667.065 44.9346 667.203 44.9023C670.4 44.1481 673.602 43.5643 676.794 43.1562C702.731 39.7595 728.063 47.3407 747.555 62.6711C763.828 75.4559 776.035 93.647 781.156 115.356Z" fill="#A545AD"/>
<path d="M781.156 115.356C781.231 115.673 781.306 115.99 781.373 116.309C786.348 138.387 783.161 160.433 773.788 179.266C764.23 198.479 748.231 214.341 727.89 223.478C722.807 225.766 717.445 227.64 711.847 229.022C711.468 229.129 711.085 229.218 710.702 229.309C710.337 229.395 709.964 229.483 709.593 229.554C709.539 229.575 709.488 229.587 709.43 229.592C681.143 235.869 652.918 228.763 631.477 212.416C614.884 199.767 602.354 181.592 596.991 159.803C596.9 159.49 596.825 159.173 596.75 158.856C591.585 136.958 594.477 115.044 603.499 96.2159C615.161 71.8694 637.084 52.6941 665.105 45.4319C665.434 45.3363 665.766 45.251 666.101 45.18C666.325 45.109 666.553 45.056 666.782 45.0095L666.799 45.0056C666.935 44.9656 667.065 44.9346 667.203 44.9023C670.4 44.1481 673.602 43.5643 676.794 43.1562C702.731 39.7595 728.063 47.3407 747.555 62.6711C763.828 75.456 776.035 93.647 781.156 115.356Z" stroke="black" stroke-width="0.666667" stroke-miterlimit="10"/>
<path d="M747.577 62.6426C733.529 84.2925 710.619 101.1 682.431 107.749C653.849 114.492 625.455 109.466 603.067 95.9588" stroke="black" stroke-width="0.666667" stroke-miterlimit="10"/>
<path d="M631.477 212.415C638.193 202.339 646.857 193.35 657.074 185.993C668.111 178.041 680.972 171.993 695.202 168.544C695.443 168.478 695.68 168.421 695.924 168.364C710.377 164.954 724.784 164.553 738.396 166.742C751.094 168.779 763.087 173.067 773.789 179.266" stroke="black" stroke-width="0.666667" stroke-miterlimit="10"/>
<path d="M665.108 45.4271C649.727 59.7204 639.985 82.0496 638.043 107.485C637.076 120.24 638.066 133.753 641.295 147.443C641.343 147.646 641.387 147.832 641.441 148.026C644.736 161.777 649.995 174.352 656.672 185.33L656.674 185.337C670.054 207.374 689.159 222.95 709.641 228.465C709.964 228.56 710.293 228.647 710.62 228.723C711.032 228.831 711.443 228.932 711.85 229.017" stroke="black" stroke-width="0.666667" stroke-miterlimit="10"/>
<path d="M709.43 229.591C709.482 229.554 709.532 229.515 709.574 229.471C709.832 229.256 710.083 229.042 710.328 228.814C710.377 228.766 710.421 228.731 710.47 228.685C726.246 214.754 736.302 192.377 738.395 166.742C739.447 154.13 738.559 140.723 735.475 127.136C735.391 126.743 735.298 126.353 735.207 125.963C732.121 112.884 727.281 100.846 721.129 90.2332C707.972 67.4752 688.841 51.2692 668.257 45.4005L668.249 45.4031C667.769 45.2571 667.284 45.1319 666.799 45.0053L666.79 45.0079L666.782 45.0092" stroke="black" stroke-width="0.666667" stroke-miterlimit="10"/>
<path d="M596.993 159.799L642.054 149.171L688.074 138.314L735.476 127.132L781.376 116.305" stroke="black" stroke-width="0.666667" stroke-miterlimit="10"/>
<path d="M666.102 45.1792L666.508 46.9034L680.941 108.084L680.942 108.093L688.072 138.317L695.202 168.543L709.316 228.373L709.357 228.551L709.574 229.471L709.594 229.553" stroke="black" stroke-width="0.666667" stroke-miterlimit="10"/>
<path d="M711.834 135.613C709.538 140.049 705.108 144.32 697.566 147.152C689.951 150.024 683.141 149.253 678.058 146.763C669.534 142.575 665.843 133.535 671.276 128.622C679.952 120.78 690.317 128.575 690.317 128.575C690.317 128.575 698.323 112.561 709.456 118.107C713.395 120.07 715.767 128.064 711.834 135.613Z" fill="#F0366E"/>
<path d="M711.834 135.613C709.538 140.049 705.108 144.32 697.566 147.152C689.951 150.024 683.141 149.253 678.058 146.763C669.534 142.575 665.843 133.535 671.276 128.622C679.952 120.78 690.317 128.575 690.317 128.575C690.317 128.575 698.323 112.561 709.456 118.107C713.395 120.07 715.767 128.064 711.834 135.613Z" stroke="black" stroke-width="0.666667" stroke-miterlimit="10"/>
<path d="M678.547 133.968C681.044 135.514 687.659 139.131 694.268 136.769C701.029 134.351 703.763 127.114 704.653 124.334" stroke="black" stroke-width="0.666667" stroke-miterlimit="10"/>
<path d="M744.593 184.817L667.952 202.429L652.536 155.431C651.858 153.363 653.102 151.16 655.223 150.673L732.382 132.941C734.47 132.461 736.529 133.852 736.865 135.969L744.593 184.817Z" fill="#FBC833"/>
<path d="M744.593 184.817L667.952 202.429L652.536 155.431C651.858 153.363 653.102 151.16 655.223 150.673L732.382 132.941C734.47 132.461 736.529 133.852 736.865 135.969L744.593 184.817Z" stroke="black" stroke-width="0.666667" stroke-miterlimit="10"/>
<path d="M745.873 189.999L668.926 207.584L667.736 202.408L744.618 184.906L745.873 189.999Z" fill="#FBC425"/>
<path d="M745.873 189.999L668.926 207.584L667.736 202.408L744.618 184.906L745.873 189.999Z" stroke="black" stroke-width="0.666667" stroke-miterlimit="10"/>
<path d="M650.509 189.979C643.018 194.694 632.66 200.53 621.902 204.043C609.761 208.021 597.13 209.067 587.573 202.248C577.073 194.757 576.13 180.202 580.689 169.108C583.854 161.386 588.89 154.462 594.922 148.585C595.335 151.995 597.404 160.988 597.324 161.114C594.701 165.269 591.912 168.785 590.234 172.995C586.979 181.209 587.586 192.665 597.427 195.687C602.619 197.277 608.469 196.58 614.036 195.132C617.343 194.267 620.559 193.117 623.451 192.032C631.175 189.113 638.626 185.279 645.601 180.886C651.245 177.322 656.101 186.453 650.509 189.979Z" fill="black"/>
<path d="M648.863 174.642C649.581 174.455 649.654 172.632 649.723 171.864C650.172 166.893 654.411 162.64 657.311 160.79C658.483 160.041 662.344 157.395 664.782 158.196C670.001 159.909 664.301 167.629 662.598 170.108C663.935 169.782 664.266 169.71 664.614 169.622C665.28 169.456 665.944 169.283 666.605 169.098C667.783 168.769 668.951 168.404 670.107 168.001C672.821 167.053 675.426 165.816 678.151 164.902C679.98 164.29 682.781 163.33 684.494 164.724C685.639 165.653 685.5 167.385 685.313 168.689C685.308 168.722 685.303 168.757 685.299 168.789C685.299 168.789 690.911 170.437 686.873 176.031C687.449 176.325 688.154 176.572 688.456 177.188C689.544 179.403 686.932 182.757 685.633 184.315C682.338 188.263 677.687 191.972 673.021 194.2C669.148 196.047 664.903 196.504 660.731 195.476C659.92 195.277 659.121 195.028 658.336 194.744C657.671 194.501 656.498 193.681 655.824 193.686C655.811 193.686 655.506 194.63 655.48 194.691C655.151 195.448 654.689 196.161 654.076 196.719C652.648 198.018 650.504 198.454 648.81 197.398C646.259 195.808 645.524 192.649 644.812 189.941C643.958 186.689 642.804 183.536 641.773 180.332C638.678 170.712 646.165 172.912 647.219 173.59C648.781 174.591 648.476 174.744 648.863 174.642Z" fill="white"/>
<path d="M648.863 174.642C649.581 174.455 649.654 172.632 649.723 171.864C650.172 166.893 654.411 162.64 657.311 160.79C658.483 160.041 662.344 157.395 664.782 158.196C670.001 159.909 664.301 167.629 662.598 170.108C663.935 169.782 664.266 169.71 664.614 169.622C665.28 169.456 665.944 169.283 666.605 169.098C667.783 168.769 668.951 168.404 670.107 168.001C672.821 167.053 675.426 165.816 678.151 164.902C679.98 164.29 682.781 163.33 684.494 164.724C685.639 165.653 685.5 167.385 685.313 168.689C685.308 168.722 685.303 168.757 685.299 168.789C685.299 168.789 690.911 170.437 686.873 176.031C687.449 176.325 688.154 176.572 688.456 177.188C689.544 179.403 686.932 182.757 685.633 184.315C682.338 188.263 677.687 191.972 673.021 194.2C669.148 196.047 664.903 196.504 660.731 195.476C659.92 195.277 659.121 195.028 658.336 194.744C657.671 194.501 656.498 193.681 655.824 193.686C655.811 193.686 655.506 194.63 655.48 194.691C655.151 195.448 654.689 196.161 654.076 196.719C652.648 198.018 650.504 198.454 648.81 197.398C646.259 195.808 645.524 192.649 644.812 189.941C643.958 186.689 642.804 183.536 641.773 180.332C638.678 170.712 646.165 172.912 647.219 173.59C648.781 174.591 648.476 174.744 648.863 174.642Z" stroke="black" stroke-width="0.666667" stroke-miterlimit="10"/>
<path d="M668.268 177.193C668.268 177.193 679.554 174.046 685.299 168.789" stroke="black" stroke-width="0.666667" stroke-miterlimit="10"/>
<path d="M687.108 176.094C687.108 176.094 678.814 182.624 672.208 184.769" stroke="black" stroke-width="0.666667" stroke-miterlimit="10"/>
<path d="M667.318 173.546C667.158 173.88 666.767 174.03 666.444 173.875C666.122 173.721 665.991 173.325 666.152 172.988C666.312 172.652 666.704 172.505 667.025 172.657C667.347 172.811 667.479 173.208 667.318 173.546Z" fill="black"/>
<path d="M667.318 173.546C667.158 173.88 666.767 174.03 666.444 173.875C666.122 173.721 665.991 173.325 666.152 172.988C666.312 172.652 666.704 172.505 667.025 172.657C667.347 172.811 667.479 173.208 667.318 173.546Z" stroke="black" stroke-width="0.666667" stroke-miterlimit="10"/>
<path d="M669.956 181.795C669.796 182.132 669.405 182.279 669.082 182.125C668.761 181.972 668.629 181.574 668.79 181.238C668.951 180.902 669.342 180.755 669.664 180.909C669.986 181.062 670.117 181.459 669.956 181.795Z" fill="black"/>
<path d="M669.956 181.795C669.796 182.132 669.405 182.279 669.082 182.125C668.761 181.972 668.629 181.574 668.79 181.238C668.951 180.902 669.342 180.755 669.664 180.909C669.986 181.062 670.117 181.459 669.956 181.795Z" stroke="black" stroke-width="0.666667" stroke-miterlimit="10"/>
<path d="M673.157 189.124C672.996 189.46 672.606 189.607 672.284 189.454C671.961 189.301 671.83 188.903 671.991 188.566C672.151 188.231 672.543 188.082 672.864 188.237C673.187 188.39 673.318 188.787 673.157 189.124Z" fill="black"/>
<path d="M673.157 189.124C672.996 189.46 672.606 189.607 672.284 189.454C671.961 189.301 671.83 188.903 671.991 188.566C672.151 188.231 672.543 188.082 672.864 188.237C673.187 188.39 673.318 188.787 673.157 189.124Z" stroke="black" stroke-width="0.666667" stroke-miterlimit="10"/>
<path d="M649.133 174.509L650.344 178.167" stroke="black" stroke-width="0.666667" stroke-miterlimit="10"/>
<path d="M654.893 190.321L655.751 193.687" stroke="black" stroke-width="0.666667" stroke-miterlimit="10"/>
<path d="M730.794 75.533C735.088 90.6413 731.414 105.176 722.62 109.755C721.851 110.168 721.025 110.488 720.177 110.731C709.642 113.725 697.31 102.829 692.635 86.378C687.965 69.9485 692.723 54.1957 703.258 51.202C704.106 50.9617 704.977 50.8003 705.851 50.7461C715.738 50.0151 726.5 60.426 730.794 75.533Z" fill="white"/>
<path d="M730.794 75.533C735.088 90.6413 731.414 105.176 722.62 109.755C721.851 110.168 721.025 110.488 720.177 110.731C709.642 113.725 697.31 102.829 692.635 86.378C687.965 69.9485 692.723 54.1957 703.258 51.202C704.106 50.9617 704.977 50.8003 705.851 50.7461C715.738 50.0151 726.5 60.426 730.794 75.533Z" stroke="black" stroke-width="0.666667" stroke-miterlimit="10"/>
<path d="M731.92 86.6519L731.925 86.6674C732.088 97.4697 728.695 106.313 722.59 109.653C721.828 110.078 721.008 110.417 720.158 110.657C713.496 112.53 705.918 108.211 699.908 100.107C699.861 99.9985 699.826 99.8849 699.792 99.7725C696.439 88.7829 701.169 77.5983 710.349 74.7983C718.657 72.2643 727.778 77.4859 731.92 86.6519Z" fill="black"/>
<path d="M731.92 86.6519L731.925 86.6674C732.088 97.4697 728.695 106.313 722.59 109.653C721.828 110.078 721.008 110.417 720.158 110.657C713.496 112.53 705.918 108.211 699.908 100.107C699.861 99.9985 699.826 99.8849 699.792 99.7725C696.439 88.7829 701.169 77.5983 710.349 74.7983C718.657 72.2643 727.778 77.4859 731.92 86.6519Z" stroke="black" stroke-width="0.666667" stroke-miterlimit="10"/>
<path d="M657.213 100.348C661.507 115.455 657.834 129.991 649.04 134.568C648.269 134.983 647.444 135.303 646.595 135.545C636.06 138.538 623.73 127.643 619.054 111.193C614.385 94.7633 619.142 79.0106 629.677 76.0169C630.525 75.7754 631.396 75.6139 632.269 75.561C642.157 74.83 652.919 85.2397 657.213 100.348Z" fill="white"/>
<path d="M657.213 100.348C661.507 115.455 657.834 129.991 649.04 134.568C648.269 134.983 647.444 135.303 646.595 135.545C636.06 138.538 623.73 127.643 619.054 111.193C614.385 94.7633 619.142 79.0106 629.677 76.0169C630.525 75.7754 631.396 75.6139 632.269 75.561C642.157 74.83 652.919 85.2397 657.213 100.348Z" stroke="black" stroke-width="0.666667" stroke-miterlimit="10"/>
<path d="M658.339 111.466L658.343 111.483C658.506 122.285 655.114 131.128 649.009 134.468C648.247 134.893 647.426 135.231 646.577 135.473C639.915 137.346 632.337 133.027 626.327 124.921C626.279 124.814 626.244 124.7 626.21 124.588C622.859 113.598 627.588 102.411 636.769 99.6123C645.075 97.0797 654.197 102.3 658.339 111.466Z" fill="black"/>
<path d="M658.339 111.466L658.343 111.483C658.506 122.285 655.114 131.128 649.009 134.468C648.247 134.893 647.426 135.231 646.577 135.473C639.915 137.346 632.337 133.027 626.327 124.921C626.279 124.814 626.244 124.7 626.21 124.588C622.859 113.598 627.588 102.411 636.769 99.6123C645.075 97.0797 654.197 102.3 658.339 111.466Z" stroke="black" stroke-width="0.666667" stroke-miterlimit="10"/>
<path d="M693.36 85.9308C697.654 101.038 693.982 115.573 685.187 120.151C684.416 120.564 683.591 120.886 682.743 121.127C672.208 124.121 659.877 113.225 655.202 96.7745C650.532 80.345 655.289 64.5923 665.824 61.5985C666.673 61.357 667.543 61.1956 668.417 61.1426C678.304 60.4116 689.067 70.8213 693.36 85.9308Z" fill="white"/>
<path d="M693.36 85.9308C697.654 101.038 693.982 115.573 685.187 120.151C684.416 120.564 683.591 120.886 682.743 121.127C672.208 124.121 659.877 113.225 655.202 96.7745C650.532 80.345 655.289 64.5923 665.824 61.5985C666.673 61.357 667.543 61.1956 668.417 61.1426C678.304 60.4116 689.067 70.8213 693.36 85.9308Z" stroke="black" stroke-width="0.666667" stroke-miterlimit="10"/>
<path d="M694.486 97.049L694.49 97.0645C694.654 107.867 691.261 116.711 685.156 120.05C684.394 120.476 683.574 120.813 682.724 121.055C676.063 122.927 668.484 118.608 662.475 110.504C662.426 110.396 662.391 110.283 662.357 110.17C659.006 99.1787 663.735 87.9941 672.915 85.1941C681.223 82.6614 690.344 87.8817 694.486 97.049Z" fill="black"/>
<path d="M694.486 97.049L694.49 97.0645C694.654 107.867 691.261 116.711 685.156 120.05C684.394 120.476 683.574 120.813 682.724 121.055C676.063 122.927 668.484 118.608 662.475 110.504C662.426 110.396 662.391 110.283 662.357 110.17C659.006 99.1787 663.735 87.9941 672.915 85.1941C681.223 82.6614 690.344 87.8817 694.486 97.049Z" stroke="black" stroke-width="0.666667" stroke-miterlimit="10"/>
<path d="M693.45 35.2656C693.224 33.3012 692.814 31.3355 692.217 29.3711C686.717 11.2368 667.566 1.01306 649.448 6.5085C631.312 12.0078 621.084 31.143 626.584 49.2773C627.18 51.2417 627.93 53.1042 628.834 54.8645C623.96 57.6917 621.321 60.2127 621.829 61.8878C622.441 63.9039 627.471 64.3934 635.102 63.5203C642.896 62.6369 653.397 60.3767 664.742 56.9348C676.087 53.4929 686.092 49.5344 693.042 45.9297C699.877 42.4323 703.771 39.2357 703.16 37.2209C702.651 35.5445 699.058 34.9156 693.45 35.2656Z" fill="black"/>
<path d="M693.45 35.2656C693.224 33.3012 692.814 31.3355 692.217 29.3711C686.717 11.2368 667.566 1.01306 649.448 6.5085C631.312 12.0078 621.084 31.143 626.584 49.2773C627.18 51.2417 627.93 53.1042 628.834 54.8645C623.96 57.6917 621.321 60.2127 621.829 61.8878C622.441 63.9039 627.471 64.3934 635.102 63.5203C642.896 62.6369 653.397 60.3767 664.742 56.9348C676.087 53.4929 686.092 49.5344 693.042 45.9297C699.877 42.4323 703.771 39.2357 703.16 37.2209C702.651 35.5445 699.058 34.9156 693.45 35.2656Z" stroke="black" stroke-width="0.666667" stroke-miterlimit="10"/>
<path d="M643.085 51.3144C643.569 51.2214 644.054 51.1245 644.538 51.0264C651.367 49.6393 658.084 47.7485 664.714 45.6097C668.075 44.5236 671.4 43.3199 674.652 41.9418C681.02 39.2425 687.045 35.8497 692.965 32.2902C692.761 31.3177 692.512 30.3452 692.217 29.3726C691.874 28.2413 691.478 27.1409 691.032 26.0741C680.03 31.9996 668.392 36.724 656.432 40.3338C646.753 43.2553 636.37 46.4944 626.059 47.1712C626.226 47.8737 626.371 48.5776 626.584 49.2776C626.977 50.5756 627.463 51.8103 627.99 53.0179C628.324 53.7644 633.488 52.7867 634.227 52.6989C637.195 52.3476 640.149 51.8788 643.085 51.3144Z" fill="#F0366E"/>
<path d="M643.085 51.3144C643.569 51.2214 644.054 51.1245 644.538 51.0264C651.367 49.6393 658.084 47.7485 664.714 45.6097C668.075 44.5236 671.4 43.3199 674.652 41.9418C681.02 39.2425 687.045 35.8497 692.965 32.2902C692.761 31.3177 692.512 30.3452 692.217 29.3726C691.874 28.2413 691.478 27.1409 691.032 26.0741C680.03 31.9996 668.392 36.724 656.432 40.3338C646.753 43.2553 636.37 46.4944 626.059 47.1712C626.226 47.8737 626.371 48.5776 626.584 49.2776C626.977 50.5756 627.463 51.8103 627.99 53.0179C628.324 53.7644 633.488 52.7867 634.227 52.6989C637.195 52.3476 640.149 51.8788 643.085 51.3144Z" stroke="black" stroke-width="0.666667" stroke-miterlimit="10"/>
<path d="M659.965 10.3765C668.407 9.27481 676.859 13.8701 681.206 21.0536C681.745 21.9434 683.004 20.9192 682.47 20.0358C677.836 12.3771 668.69 7.60103 659.737 8.77115C658.7 8.90547 658.93 10.5108 659.965 10.3765Z" fill="white"/>
<path d="M654.693 10.6464C655.651 10.2306 655.006 8.74144 654.048 9.1586C653.09 9.57447 653.735 11.0636 654.693 10.6464Z" fill="white"/>
<path d="M639.779 59.1695C635.402 60.4274 630.35 61.0667 626.069 59.1359C625.31 58.7937 624.713 59.947 625.477 60.2905C630.081 62.3686 635.443 61.7654 640.162 60.4093C640.967 60.1769 640.581 58.9383 639.779 59.1695Z" fill="white"/>
<path d="M806.885 114.639C799.888 118.559 791.002 121.272 784.632 126.47C781.468 129.052 778.931 132.238 777.543 136.498C775.479 142.816 765.76 139.313 767.811 132.993C770.282 125.424 775.944 119.665 782.478 115.361C783.829 114.466 785.2 113.639 786.607 112.866C794.503 108.536 804.553 106.352 810.33 98.9313C819.28 87.429 802.7 80.9895 793.559 80.2649C784.855 79.5727 776.18 81.395 767.727 83.7004C765.538 80.6576 763.182 77.7568 760.66 75.0123C773.028 71.4903 785.969 68.2589 798.761 70.5203C808.909 72.322 821.167 78.183 823.138 89.4864C825.089 100.71 815.815 109.664 806.885 114.639Z" fill="black"/>
<path d="M755.882 144.286C753.221 150.733 760.577 151.02 760.577 151.02C760.577 151.02 761.011 152.214 761.078 152.384C761.311 152.96 761.689 153.461 762.162 153.862C763.11 154.671 764.366 155.087 765.587 155.246C767.783 155.53 769.839 154.848 771.747 153.799C775.463 151.759 778.152 148.327 780.463 144.791C783.551 140.061 783.556 136.125 783.699 133.429C785.04 133.086 786.879 131.611 787.164 130.714C787.605 129.33 787.127 127.815 786.073 126.814C783.791 124.642 778.647 119.917 775.697 118.522C771.825 116.69 771.589 123.014 771.589 123.014C767.549 119.398 762.182 118.706 758.675 121.001C755.726 122.929 754.924 126.421 754.817 126.926C754.088 130.321 755.33 133.159 755.296 133.159C755.296 133.159 738.771 144.746 742.771 149.333C746.155 153.214 756.015 144.23 756.015 144.23L760.089 140.323" fill="white"/>
<path d="M755.882 144.286C753.221 150.733 760.577 151.02 760.577 151.02C760.577 151.02 761.011 152.214 761.078 152.384C761.311 152.96 761.689 153.461 762.162 153.862C763.11 154.671 764.366 155.087 765.587 155.246C767.783 155.53 769.839 154.848 771.747 153.799C775.463 151.759 778.152 148.327 780.463 144.791C783.551 140.061 783.556 136.125 783.699 133.429C785.04 133.086 786.879 131.611 787.164 130.714C787.605 129.33 787.127 127.815 786.073 126.814C783.791 124.642 778.647 119.917 775.697 118.522C771.825 116.69 771.589 123.014 771.589 123.014C767.549 119.398 762.182 118.706 758.675 121.001C755.726 122.929 754.924 126.421 754.817 126.926C754.088 130.321 755.33 133.159 755.296 133.159C755.296 133.159 738.771 144.746 742.771 149.333C746.155 153.214 756.015 144.23 756.015 144.23L760.089 140.323" stroke="black" stroke-width="0.666667" stroke-miterlimit="10"/>
<path d="M760.577 151.02L764.98 147.145" stroke="black" stroke-width="0.666667" stroke-miterlimit="10"/>
<path d="M755.109 133.286L760.283 128.469" stroke="black" stroke-width="0.666667" stroke-miterlimit="10"/>
<path d="M771.589 123.014L775.616 126.389" stroke="black" stroke-width="0.666667" stroke-miterlimit="10"/>
<path d="M780.712 131.026L783.699 133.43" stroke="black" stroke-width="0.666667" stroke-miterlimit="10"/>
<path d="M758.336 137.521C759.231 138.554 760.837 137.166 759.94 136.131C759.046 135.098 757.439 136.486 758.336 137.521Z" fill="black"/>
<path d="M763.999 142.583C764.894 143.615 766.5 142.226 765.604 141.192C764.709 140.16 763.104 141.548 763.999 142.583Z" fill="black"/>
<path d="M769.028 149.363C769.923 150.395 771.528 149.007 770.632 147.972C769.737 146.94 768.131 148.329 769.028 149.363Z" fill="black"/>
<path d="M809.339 18.2035C809.339 18.2035 809.097 4.08709 791.916 1.2522C785.442 0.184105 778.847 2.52826 774.215 7.91263C771.603 10.949 769.472 15.0599 769.34 20.4391C769.34 20.4391 745.91 10.3781 744.772 36.4915L726.754 44.7586H745.058C745.061 44.7831 745.062 44.805 745.065 44.8296L750.289 44.7586H756.814L756.756 44.6694L831.597 43.6465C831.597 43.6465 832.214 8.32588 809.339 18.2035Z" fill="white"/>
<path d="M809.339 18.2035C809.339 18.2035 809.097 4.08709 791.916 1.2522C785.442 0.184106 778.847 2.52826 774.215 7.91263C771.603 10.949 769.472 15.0599 769.34 20.4391C769.34 20.4391 745.91 10.3781 744.772 36.4915L726.754 44.7586H745.058C745.061 44.7831 745.062 44.805 745.065 44.8296L750.289 44.7586H756.814L756.756 44.6694L831.597 43.6465C831.597 43.6465 832.214 8.32588 809.339 18.2035Z" stroke="black" stroke-width="0.666667" stroke-miterlimit="10"/>
<path d="M771.105 29.4838C771.105 31.2713 769.655 32.7217 767.867 32.7217C766.078 32.7217 764.628 31.2713 764.628 29.4838C764.628 27.6951 766.078 26.246 767.867 26.246C769.655 26.246 771.105 27.6951 771.105 29.4838Z" fill="black"/>
<path d="M771.105 29.4838C771.105 31.2713 769.655 32.7217 767.867 32.7217C766.078 32.7217 764.628 31.2713 764.628 29.4838C764.628 27.6951 766.078 26.246 767.867 26.246C769.655 26.246 771.105 27.6951 771.105 29.4838Z" stroke="black" stroke-width="0.666667" stroke-miterlimit="10"/>
<path d="M791.297 29.4838C791.297 31.2713 789.848 32.7217 788.059 32.7217C786.27 32.7217 784.821 31.2713 784.821 29.4838C784.821 27.6951 786.27 26.246 788.059 26.246C789.848 26.246 791.297 27.6951 791.297 29.4838Z" fill="black"/>
<path d="M791.297 29.4838C791.297 31.2713 789.848 32.7217 788.059 32.7217C786.27 32.7217 784.821 31.2713 784.821 29.4838C784.821 27.6951 786.27 26.246 788.059 26.246C789.848 26.246 791.297 27.6951 791.297 29.4838Z" stroke="black" stroke-width="0.666667" stroke-miterlimit="10"/>
<path d="M811.108 29.4838C811.108 31.2713 809.658 32.7217 807.869 32.7217C806.08 32.7217 804.631 31.2713 804.631 29.4838C804.631 27.6951 806.08 26.246 807.869 26.246C809.658 26.246 811.108 27.6951 811.108 29.4838Z" fill="black"/>
<path d="M811.108 29.4838C811.108 31.2713 809.658 32.7217 807.869 32.7217C806.08 32.7217 804.631 31.2713 804.631 29.4838C804.631 27.6951 806.08 26.246 807.869 26.246C809.658 26.246 811.108 27.6951 811.108 29.4838Z" stroke="black" stroke-width="0.666667" stroke-miterlimit="10"/>
<g style="mix-blend-mode:soft-light">
<path d="M711.041 169.037C710.713 169.11 710.409 169.066 710.126 168.904C709.857 168.724 709.684 168.465 709.608 168.128L706.324 153.475C706.248 153.138 706.296 152.838 706.466 152.574C706.649 152.292 706.904 152.114 707.232 152.041C707.575 151.964 707.881 152.016 708.151 152.197C708.418 152.362 708.589 152.613 708.664 152.95L711.949 167.603C712.024 167.94 711.979 168.248 711.812 168.527C711.641 168.79 711.384 168.96 711.041 169.037ZM715.953 155.2C716.249 155.133 716.534 155.198 716.807 155.394C717.081 155.59 717.245 155.811 717.3 156.056C717.369 156.362 717.284 156.679 717.046 157.005L711.162 165.078L710.476 162.458L715.169 155.761C715.364 155.461 715.625 155.273 715.953 155.2ZM718.947 167.241C718.619 167.314 718.309 167.247 718.017 167.039L712.249 163.242L713.668 161.236L719.318 165.059C719.626 165.264 719.816 165.526 719.888 165.848C719.964 166.185 719.885 166.492 719.652 166.769C719.431 167.028 719.196 167.185 718.947 167.241Z" fill="white"/>
<path d="M695.624 175.988C695.555 175.682 695.619 175.419 695.815 175.198C696.011 174.977 696.219 174.842 696.437 174.793C696.765 174.719 697.061 174.798 697.326 175.028C698.225 175.823 699.197 176.434 700.243 176.859C701.292 177.299 702.375 177.563 703.493 177.65C704.626 177.734 705.746 177.651 706.854 177.403C707.962 177.155 709.012 176.758 710.004 176.214C710.997 175.67 711.881 174.974 712.658 174.124C713.438 173.29 714.037 172.311 714.458 171.188C714.583 170.87 714.817 170.673 715.161 170.596C715.395 170.544 715.642 170.585 715.901 170.72C716.161 170.854 716.321 171.06 716.383 171.335C716.424 171.519 716.417 171.706 716.361 171.895C715.868 173.276 715.182 174.491 714.302 175.541C713.427 176.605 712.396 177.488 711.209 178.188C710.025 178.903 708.747 179.415 707.374 179.723C706.001 180.03 704.627 180.113 703.251 179.971C701.891 179.826 700.588 179.459 699.342 178.87C698.099 178.296 696.954 177.499 695.906 176.48C695.762 176.351 695.668 176.187 695.624 175.988Z" fill="white"/>
<path d="M693.678 156.26C694.864 155.994 696.014 155.937 697.13 156.089C698.23 156.245 699.241 156.589 700.163 157.122C701.082 157.64 701.867 158.324 702.516 159.176C703.15 160.031 703.594 161.025 703.848 162.158C704.099 163.275 704.12 164.356 703.912 165.4C703.687 166.447 703.272 167.409 702.665 168.284C702.055 169.145 701.286 169.88 700.358 170.49C699.41 171.089 698.344 171.521 697.158 171.786C695.972 172.052 694.831 172.115 693.734 171.975C692.619 171.823 691.601 171.488 690.682 170.97C689.76 170.437 688.982 169.743 688.348 168.889C687.698 168.037 687.248 167.053 686.997 165.935C686.743 164.802 686.728 163.711 686.952 162.664C687.161 161.62 687.57 160.668 688.18 159.808C688.787 158.932 689.562 158.188 690.506 157.574C691.435 156.964 692.492 156.526 693.678 156.26ZM694.234 158.741C693.079 158.999 692.093 159.462 691.275 160.127C690.454 160.778 689.868 161.561 689.516 162.476C689.164 163.391 689.104 164.369 689.338 165.41C689.568 166.436 690.037 167.288 690.746 167.965C691.455 168.642 692.32 169.1 693.34 169.337C694.344 169.579 695.432 169.568 696.602 169.306C697.756 169.047 698.744 168.592 699.565 167.942C700.386 167.292 700.973 166.509 701.325 165.594C701.677 164.679 701.738 163.708 701.508 162.682C701.275 161.641 700.803 160.782 700.095 160.105C699.386 159.427 698.521 158.97 697.501 158.732C696.477 158.479 695.388 158.482 694.234 158.741Z" fill="white"/>
</g>
<path d="M143.691 141.22L65.7919 213.83L65.7919 213.83C64.9632 214.602 64.5488 214.989 64.5799 215.462C64.611 215.936 65.0723 216.264 65.995 216.922L230.332 334.024L230.332 334.024C230.662 334.259 230.826 334.377 231.018 334.421C231.21 334.466 231.41 334.434 231.81 334.37L357.941 314.09C358.219 314.045 358.357 314.023 358.495 314.039C358.633 314.055 358.763 314.109 359.023 314.217L569.945 401.563C570.46 401.777 570.718 401.883 570.981 401.85C571.244 401.816 571.467 401.649 571.913 401.313L616.83 367.504C617.161 367.256 617.326 367.131 617.521 367.082C617.716 367.032 617.92 367.063 618.329 367.124L710.764 380.965C710.882 380.982 710.941 380.991 711 380.993C711.06 380.995 711.119 380.99 711.238 380.979L995.786 355.519C995.893 355.51 995.946 355.505 996 355.506C996.053 355.507 996.107 355.514 996.213 355.527L1139 373.437C1139.25 373.469 1139.37 373.484 1139.5 373.469C1139.62 373.454 1139.74 373.409 1139.97 373.318L1362.91 287.001C1364.09 286.544 1364.68 286.316 1364.81 285.821C1364.94 285.326 1364.54 284.838 1363.74 283.863L1363.73 283.863L1274.46 175.764C1273.78 174.943 1273.44 174.532 1272.99 174.519C1272.53 174.506 1272.17 174.897 1271.45 175.679L1211.54 240.417C1211.27 240.705 1211.14 240.849 1210.97 240.932C1210.79 241.014 1210.6 241.027 1210.21 241.054L923.754 260.449C923.381 260.474 923.195 260.487 923.02 260.434C922.845 260.381 922.697 260.268 922.401 260.04L881.516 228.664C880.799 228.113 880.44 227.838 880.041 227.881C879.643 227.924 879.351 228.27 878.769 228.961L835.277 280.578C834.898 281.027 834.709 281.252 834.446 281.341C834.183 281.431 833.896 281.369 833.322 281.244L672.124 246.136C671.815 246.069 671.66 246.035 671.505 246.05C671.35 246.065 671.204 246.127 670.912 246.252L589.173 281.212C588.84 281.355 588.674 281.426 588.497 281.435C588.32 281.445 588.146 281.392 587.8 281.285L412.913 227.627C412.707 227.564 412.604 227.532 412.498 227.523C412.392 227.514 412.285 227.528 412.072 227.555L269.382 245.887C268.948 245.943 268.731 245.971 268.527 245.91C268.324 245.849 268.157 245.706 267.825 245.421L146.358 141.165C145.712 140.611 145.389 140.334 145.007 140.342C144.625 140.35 144.314 140.64 143.691 141.22Z" fill="url(#paint1_linear_232_1179)"/>
<path d="M617.025 318.639L385.849 394.45C381.19 395.978 378.86 396.743 379 397.589C379.14 398.435 381.592 398.407 386.496 398.351H386.496L1457.3 386.025C1458.33 386.014 1458.84 386.008 1459.14 385.678C1459.43 385.348 1459.38 384.837 1459.27 383.816L1439.29 193.751C1439.16 192.496 1439.09 191.868 1438.65 191.613C1438.2 191.359 1437.63 191.618 1436.48 192.137L1436.48 192.137L1140.03 325.81C1139.77 325.93 1139.64 325.989 1139.49 326.009C1139.35 326.029 1139.21 326.008 1138.92 325.966L996.247 305.131C996.124 305.113 996.062 305.104 996 305.102C995.938 305.101 995.875 305.107 995.751 305.12L711.277 334.753L711.276 334.754C711.138 334.768 711.069 334.775 711 334.773C710.931 334.77 710.863 334.758 710.726 334.735L710.726 334.735L617.992 318.569L617.992 318.569C617.747 318.526 617.625 318.505 617.502 318.514C617.38 318.523 617.261 318.561 617.025 318.639Z" fill="url(#paint2_linear_232_1179)"/>
<path d="M211.831 257.523L-16.8379 94.2579C-18.2228 93.269 -18.9153 92.7746 -19.4577 93.0538C-20 93.3329 -20 94.1838 -20 95.8856V396C-20 396.943 -20 397.414 -19.7071 397.707C-19.4142 398 -18.9428 398 -18 398H550.5C551.443 398 551.914 398 552.207 397.707C552.5 397.414 552.5 396.943 552.5 396V326.34C552.5 325.69 552.5 325.366 552.331 325.113C552.162 324.861 551.862 324.737 551.261 324.49L340.522 237.715C340.263 237.608 340.133 237.555 339.995 237.539C339.858 237.523 339.72 237.545 339.443 237.59L213.311 257.87H213.311C212.911 257.934 212.711 257.966 212.519 257.921C212.326 257.876 212.161 257.758 211.831 257.523Z" fill="url(#paint3_linear_232_1179)"/>
<path d="M-3 398.118V1791C-3 1791.94 -3 1792.41 -2.70711 1792.71C-2.41421 1793 -1.9428 1793 -0.999959 1793H1436C1436.94 1793 1437.41 1793 1437.71 1792.71C1438 1792.41 1438 1791.94 1438 1791V295.351C1438 294.259 1438 293.713 1437.65 293.414C1437.3 293.114 1436.76 293.202 1435.68 293.377L1014.35 361.765C1014.21 361.788 1014.14 361.799 1014.07 361.8C1014 361.802 1013.93 361.793 1013.79 361.775L1013.79 361.775L632.753 314.032C632.627 314.016 632.563 314.008 632.5 314.008C632.437 314.008 632.373 314.017 632.247 314.033L-1.25705 396.135C-2.08725 396.242 -2.50235 396.296 -2.75117 396.579C-3 396.862 -3 397.281 -3 398.118Z" fill="url(#paint4_linear_232_1179)"/>
<defs>
<linearGradient id="paint0_linear_232_1179" x1="1401.5" y1="23.5002" x2="581" y2="318.5" gradientUnits="userSpaceOnUse">
<stop stop-color="#C97FE2"/>
<stop offset="0.491021" stop-color="#FF594F"/>
<stop offset="0.732053" stop-color="#38368F"/>
<stop offset="1" stop-color="#E2857F"/>
</linearGradient>
<linearGradient id="paint1_linear_232_1179" x1="902.5" y1="-132" x2="714.75" y2="402" gradientUnits="userSpaceOnUse">
<stop stop-color="#CA7E5D"/>
<stop offset="1" stop-color="#553072"/>
</linearGradient>
<linearGradient id="paint2_linear_232_1179" x1="996.5" y1="315.573" x2="253.106" y2="539.766" gradientUnits="userSpaceOnUse">
<stop stop-color="#341B55"/>
<stop offset="1" stop-color="#4E2B7B"/>
</linearGradient>
<linearGradient id="paint3_linear_232_1179" x1="415.5" y1="76.0001" x2="13.4999" y2="542" gradientUnits="userSpaceOnUse">
<stop stop-color="#3E2361"/>
<stop offset="1" stop-color="#040615"/>
</linearGradient>
<linearGradient id="paint4_linear_232_1179" x1="647.577" y1="424.834" x2="1608.02" y2="1179.65" gradientUnits="userSpaceOnUse">
<stop stop-color="#1D1236"/>
<stop offset="1" stop-color="#4F3A71"/>
</linearGradient>
</defs>
</svg>
