<svg width="8" height="8" viewBox="0 0 8 8" fill="none" xmlns="http://www.w3.org/2000/svg">
<g id="bxs:up-arrow" clip-path="url(#clip0_1170_2720)">
<path id="Vector" d="M6.99997 1.66666L0.999971 1.66666C0.939224 1.66685 0.879679 1.68361 0.827746 1.71512C0.775813 1.74664 0.733458 1.79172 0.705239 1.84551C0.677022 1.89931 0.66401 1.95978 0.667604 2.02042C0.671198 2.08106 0.691263 2.13958 0.725638 2.18966L3.72564 6.523C3.84997 6.70266 4.1493 6.70266 4.27397 6.523L7.27397 2.18966C7.3087 2.13968 7.32906 2.08114 7.33285 2.0204C7.33664 1.95965 7.32371 1.89904 7.29547 1.84513C7.26722 1.79122 7.22475 1.74608 7.17265 1.71461C7.12055 1.68315 7.06083 1.66657 6.99997 1.66666Z" fill="#BBBBBB"/>
</g>
<defs>
<clipPath id="clip0_1170_2720">
<rect width="8" height="8" fill="white" transform="translate(8 8) rotate(180)"/>
</clipPath>
</defs>
</svg>
