<svg width="208" height="450" viewBox="0 0 208 450" fill="none" xmlns="http://www.w3.org/2000/svg">
<g clip-path="url(#clip0_633_8799)">
<rect width="208" height="450" fill="url(#paint0_linear_633_8799)"/>
<circle cx="192.814" cy="1.81379" r="1.81379" fill="white" fill-opacity="0.25"/>
<circle cx="29" cy="62" r="3" fill="white" fill-opacity="0.25"/>
<circle cx="93.5" cy="173.5" r="4.5" fill="white" fill-opacity="0.25"/>
<circle cx="203.5" cy="13.5" r="4.5" fill="white" fill-opacity="0.25"/>
<circle cx="4.08102" cy="340.081" r="4.08102" fill="white" fill-opacity="0.25"/>
<path d="M139.768 397.677C136.373 391.528 128.661 387.446 119.041 389.655C125.229 379.918 121.315 369.286 116.721 364.903C107.815 356.406 96.0544 360.095 86.4958 367.502C86.4958 367.502 83.5621 350.618 67.1431 351.007C49.525 351.424 46.7146 369.503 46.7146 369.503C36.5181 363.088 25.6228 359.621 16.5921 370.519C11.8545 376.237 10.7479 389.278 16.3628 394.817C8.71164 392.168 -0.84999 399.13 -3.20513 405.498C-6.14208 413.441 -4.01354 422.487 2.15894 428.095C3.92502 429.7 5.94055 431.012 8.08756 431.997C13.3601 434.416 23.0845 432.474 23.0845 432.474C21.4283 436.548 22.5873 442.216 24.5519 445.955C29.6588 455.679 43.1212 454.719 50.1492 448.376C55.3206 455.882 63.9288 459.917 72.548 458.823C84.079 457.358 89.7427 447.461 90.3509 446.355C90.543 446.144 93.3802 447.398 93.684 447.505C95.4346 448.121 97.1787 448.732 98.9953 449.108C103.07 449.95 107.397 449.664 110.945 447.248C114.072 445.118 116.09 441.642 116.64 437.827C117.125 434.472 116.641 430.963 115.364 427.847C115.364 427.847 125.683 428.769 130.708 425.833C134.98 423.338 138.264 420.167 140.195 415.437C142.5 409.787 142.766 403.112 139.768 397.677Z" fill="#36347F"/>
<path d="M140.187 397.716L140.438 397.579C137.627 392.517 131.91 388.847 124.637 388.848C122.96 388.848 121.201 389.043 119.377 389.459L119.441 389.735L119.683 389.887C122.006 386.255 122.928 382.491 122.927 378.973C122.924 372.986 120.276 367.718 117.317 364.909C113.652 361.43 109.478 359.963 105.191 359.965C98.914 359.968 92.4057 363.076 86.6904 367.476L86.866 367.699L87.1489 367.651C87.1439 367.629 86.4227 363.494 83.6778 359.336C80.9403 355.179 76.1305 350.995 68.0513 351C67.8655 351 67.6783 351.002 67.489 351.006C58.5666 351.212 53.3505 355.892 50.4171 360.493C47.4763 365.096 46.7696 369.623 46.7653 369.645L47.0482 369.689L47.2013 369.449C41.7255 366.027 36.0298 363.424 30.4729 363.421C25.6345 363.416 20.9214 365.422 16.6768 370.52C14.0945 373.624 12.5983 378.756 12.5949 383.741C12.5973 388.124 13.7561 392.408 16.4669 395.071L16.6686 394.87L16.763 394.602C15.584 394.197 14.3618 394.012 13.1312 394.012C9.63542 394.014 6.07563 395.494 3.12889 397.647C0.182934 399.804 -2.15535 402.633 -3.18617 405.398C-4.07666 407.791 -4.5083 410.284 -4.5083 412.754C-4.50801 418.546 -2.13576 424.214 2.25842 428.183C4.04883 429.8 6.09094 431.121 8.26591 432.112C10.3582 433.064 13.0703 433.345 15.6282 433.346C19.7339 433.346 23.4422 432.609 23.453 432.607L23.3965 432.33L23.1307 432.224C22.5599 433.62 22.317 435.185 22.317 436.79C22.3181 439.991 23.2807 443.352 24.6114 445.872C27.3373 451.036 32.4217 453.238 37.6275 453.233C42.3814 453.232 47.2623 451.42 50.679 448.358L50.486 448.148L50.2495 448.308C54.9141 455.038 62.3483 459 70.1003 459C71.0442 459 71.9926 458.941 72.9416 458.821C78.7889 458.084 83.1474 455.219 86.1128 452.41C89.0797 449.6 90.6629 446.839 90.9763 446.274L90.7245 446.138L90.9371 446.328L90.7753 446.184L90.8319 446.394L90.9371 446.328L90.7753 446.184L90.8319 446.394L90.8015 446.28L90.8138 446.397L90.8319 446.394L90.8015 446.28L90.8138 446.397L90.8145 446.398C90.8334 446.397 90.9183 446.408 91.0235 446.435C91.4022 446.529 92.0835 446.787 92.6865 447.029C92.9883 447.15 93.2735 447.268 93.4991 447.361C93.7262 447.455 93.8844 447.521 93.9649 447.549C95.7172 448.161 97.4752 448.775 99.3189 449.154C100.666 449.431 102.041 449.586 103.41 449.587C106.241 449.587 109.051 448.918 111.5 447.26C114.703 445.091 116.76 441.561 117.322 437.695C117.448 436.827 117.51 435.948 117.51 435.069C117.51 432.517 116.991 429.96 116.027 427.62L115.761 427.727L115.736 428.009C115.741 428.01 117.286 428.147 119.475 428.147C122.963 428.142 128.071 427.813 131.263 425.968C135.575 423.467 138.923 420.26 140.879 415.489C142.029 412.689 142.678 409.639 142.678 406.606C142.678 403.48 141.987 400.371 140.438 397.579L140.187 397.716L139.935 397.852C141.432 400.549 142.105 403.562 142.105 406.606C142.105 409.56 141.471 412.54 140.348 415.276C138.441 419.915 135.213 423.015 130.973 425.479C127.987 427.222 122.919 427.585 119.475 427.58C118.393 427.58 117.469 427.547 116.817 427.513C116.164 427.478 115.788 427.445 115.787 427.445L115.318 427.403L115.495 427.834C116.432 430.106 116.936 432.593 116.936 435.069C116.936 435.922 116.877 436.774 116.754 437.614C116.214 441.337 114.232 444.724 111.176 446.792C108.838 448.375 106.152 449.02 103.41 449.02C102.085 449.02 100.748 448.869 99.4357 448.599C97.6421 448.231 95.908 447.628 94.1565 447.015C94.1071 446.998 93.8938 446.91 93.6196 446.797C93.2045 446.625 92.627 446.389 92.1002 446.193C91.8361 446.095 91.5851 446.007 91.3689 445.943C91.149 445.879 90.9799 445.834 90.8145 445.831L90.6854 445.846C90.6375 445.859 90.5722 445.883 90.512 445.948L90.4895 445.973L90.4735 446.002C90.1775 446.537 88.6218 449.249 85.716 452.001C82.8093 454.753 78.5626 457.541 72.869 458.259C71.9447 458.376 71.0196 458.434 70.1003 458.434C62.5478 458.434 55.2863 454.572 50.7225 447.988L50.5368 447.72L50.2937 447.938C46.9975 450.897 42.2341 452.668 37.6275 452.667C32.5739 452.662 27.7389 450.561 25.1195 445.609C23.8308 443.174 22.8889 439.878 22.8904 436.79C22.8901 435.241 23.1259 433.746 23.6622 432.436L23.8617 431.948L23.3399 432.051C23.3393 432.052 23.1143 432.097 22.7072 432.165C21.4868 432.37 18.6563 432.78 15.6282 432.78C13.1145 432.781 10.4639 432.493 8.506 431.598C6.38284 430.63 4.39007 429.34 2.64507 427.764C-1.62337 423.911 -3.93496 418.394 -3.93496 412.754C-3.93496 410.349 -3.51492 407.923 -2.64794 405.593C-1.67467 402.971 0.598975 400.2 3.47012 398.103C6.34003 396.003 9.80237 394.577 13.1312 394.579C14.304 394.579 15.4606 394.754 16.5742 395.137L17.7672 395.548L16.8704 394.669C14.3202 392.175 13.166 388.03 13.1684 383.741C13.1647 378.869 14.6569 373.826 17.1196 370.88C21.2891 365.887 25.798 363.992 30.4729 363.987C35.8433 363.984 41.4592 366.527 46.8952 369.928L47.2645 370.159L47.3319 369.732C47.3319 369.732 47.3414 369.667 47.366 369.538C47.5474 368.572 48.5117 364.154 51.4662 359.954C54.4251 355.753 59.3336 351.769 67.5027 351.573C67.687 351.569 67.8699 351.566 68.0513 351.566C75.9164 351.571 80.5144 355.595 83.1982 359.646C84.5355 361.671 85.3844 363.702 85.8966 365.224C86.1527 365.985 86.3254 366.618 86.4328 367.06C86.4872 367.281 86.525 367.455 86.5496 367.571C86.5736 367.689 86.5837 367.747 86.5837 367.748L86.665 368.213L87.0423 367.923C92.6945 363.567 99.1099 360.529 105.191 360.532C109.346 360.534 113.35 361.936 116.92 365.318C119.754 367.999 122.358 373.155 122.354 378.973C122.354 382.394 121.462 386.045 119.199 389.584L118.827 390.166L119.506 390.011C121.29 389.604 123.005 389.415 124.637 389.415C131.712 389.416 137.223 392.973 139.935 397.852L140.187 397.716Z" fill="#313338"/>
<path d="M73.0363 459C84.4862 457.533 90.11 447.62 90.7139 446.512C90.9046 446.301 93.722 447.557 94.0235 447.664C95.7619 448.28 97.4937 448.892 99.2975 449.269C103.344 450.113 107.64 449.826 111.163 447.406C114.268 445.272 116.272 441.79 116.818 437.97C117.3 434.609 116.819 431.094 115.551 427.973C115.551 427.973 125.797 428.897 130.787 425.956C135.029 423.457 138.29 420.281 140.207 415.543C142.496 409.884 142.761 403.198 139.783 397.754C136.412 391.594 128.755 387.506 119.202 389.719C125.346 379.965 121.46 369.316 116.899 364.926C108.055 356.415 96.3773 360.11 86.886 367.53C86.886 367.53 83.9729 350.617 67.6694 351.007" fill="#542151"/>
<path d="M73.109 459C78.9423 458.261 83.2903 455.392 86.2486 452.578C89.2083 449.763 90.7877 446.998 91.1004 446.432L90.8492 446.296L91.0613 446.486L90.8999 446.341L90.9563 446.552L91.0613 446.486L90.8999 446.341L90.9563 446.552L90.9259 446.438L90.9382 446.555L90.9563 446.552L90.9259 446.438L90.9382 446.555L90.9389 446.556C90.9578 446.554 91.0424 446.566 91.1474 446.593C91.5252 446.687 92.2049 446.945 92.8064 447.188C93.1075 447.309 93.392 447.427 93.6171 447.52C93.8436 447.615 94.0014 447.681 94.0818 447.709C95.8298 448.322 97.5836 448.937 99.4229 449.317C100.766 449.594 102.139 449.75 103.505 449.75C106.328 449.75 109.132 449.08 111.574 447.419C114.77 445.247 116.822 441.711 117.383 437.839C117.508 436.969 117.57 436.089 117.57 435.209C117.57 432.652 117.052 430.091 116.09 427.747L115.825 427.854L115.8 428.136C115.806 428.137 117.347 428.274 119.531 428.274C123.01 428.269 128.106 427.94 131.291 426.093C135.592 423.587 138.931 420.374 140.884 415.595C142.03 412.791 142.678 409.736 142.678 406.699C142.678 403.567 141.989 400.452 140.443 397.657C137.639 392.585 131.936 388.91 124.68 388.911C123.007 388.911 121.253 389.106 119.433 389.523L119.497 389.8L119.738 389.951C122.055 386.313 122.975 382.543 122.975 379.019C122.971 373.023 120.33 367.746 117.378 364.932C113.721 361.447 109.557 359.978 105.281 359.98C99.019 359.983 92.5263 363.096 86.8247 367.503L86.9999 367.727L87.2822 367.679C87.2771 367.657 86.5576 363.514 83.8194 359.35C81.0884 355.186 76.2902 350.995 68.2304 351C68.0451 351 67.8584 351.002 67.6694 351.006L67.6832 351.574C67.867 351.57 68.0494 351.567 68.2304 351.567C76.0767 351.572 80.6635 355.602 83.341 359.66C84.675 361.689 85.5218 363.723 86.0329 365.247C86.2884 366.009 86.4606 366.644 86.5678 367.087C86.622 367.308 86.6597 367.482 86.6843 367.599C86.7082 367.717 86.7183 367.775 86.7183 367.775L86.7994 368.242L87.1758 367.951C92.8144 363.588 99.2144 360.545 105.281 360.548C109.426 360.55 113.42 361.954 116.982 365.342C119.809 368.028 122.406 373.192 122.403 379.019C122.402 382.446 121.513 386.103 119.255 389.648L118.884 390.231L119.561 390.076C121.341 389.668 123.052 389.478 124.68 389.478C131.738 389.48 137.236 393.042 139.941 397.929C141.435 400.631 142.106 403.649 142.106 406.699C142.106 409.657 141.474 412.642 140.354 415.382C138.451 420.03 135.231 423.134 131.001 425.603C128.022 427.349 122.967 427.712 119.531 427.707C118.451 427.707 117.529 427.673 116.879 427.64C116.228 427.605 115.852 427.571 115.852 427.571L115.384 427.53L115.561 427.961C116.495 430.236 116.998 432.728 116.998 435.209C116.998 436.062 116.939 436.916 116.816 437.757C116.277 441.487 114.3 444.879 111.252 446.951C108.919 448.536 106.239 449.182 103.505 449.182C102.182 449.182 100.848 449.031 99.5394 448.761C97.7501 448.392 96.0202 447.788 94.2729 447.174C94.2236 447.157 94.0108 447.069 93.7372 446.955C93.3232 446.784 92.7471 446.547 92.2216 446.351C91.9581 446.252 91.7076 446.165 91.4919 446.1C91.2726 446.036 91.104 445.991 90.9389 445.988L90.8101 446.003C90.7623 446.017 90.6972 446.04 90.6371 446.106L90.6147 446.13L90.5987 446.159C90.3034 446.695 88.7515 449.412 85.8526 452.168C82.953 454.925 78.7164 457.717 73.0366 458.437L73.109 459Z" fill="#313338"/>
<path d="M112.051 440.605C109.78 434.825 107.879 428.874 105.058 423.318C103.436 420.124 101.077 416.866 98.5175 414.328C97.5681 413.387 95.836 411.591 94.2826 412.103C91.6215 412.982 92.511 418.036 92.8799 419.932C93.4744 422.979 94.5124 425.918 95.3345 428.909C95.6852 430.186 96.0124 431.487 96.1493 432.807C96.2979 434.237 96.1881 435.699 96.0659 437.126C95.8097 440.108 95.2921 443.132 95.6442 446.126C95.7218 446.788 95.8755 447.402 96.0703 447.99C97.0161 448.287 97.97 448.555 98.9451 448.754C103.06 449.593 107.43 449.309 111.013 446.898C112.02 446.221 112.897 445.396 113.665 444.479C113.094 443.2 112.561 441.904 112.051 440.605Z" fill="url(#paint1_linear_633_8799)"/>
<path d="M71.5836 376.021C73.337 375.529 74.6011 374.185 75.4396 372.554C77.6452 368.264 77.6522 362.789 77.5388 358.054C77.5024 356.516 77.4058 354.986 77.291 353.457C74.7943 351.906 71.6403 350.908 67.6694 351.007L68.8748 376.18C69.7924 376.301 70.7247 376.262 71.5836 376.021Z" fill="url(#paint2_linear_633_8799)"/>
<path d="M83.207 445.158C80.3696 444.248 77.6892 446.9 76.5821 449.086C75.263 451.691 75.2942 454.75 75.7032 457.597C81.6597 456.127 85.7741 452.556 88.1909 449.794C86.9822 447.897 85.3942 445.86 83.207 445.158Z" fill="url(#paint3_linear_633_8799)"/>
<path d="M138.721 401.726C134.343 403 132.383 408.493 132.834 412.658C133.059 414.725 133.979 416.81 135.747 418.021C136.477 418.521 137.278 418.841 138.113 419.026C138.904 417.881 139.6 416.639 140.168 415.25C141.926 410.953 142.515 406.071 141.409 401.575C140.524 401.438 139.621 401.464 138.721 401.726Z" fill="url(#paint4_linear_633_8799)"/>
<path d="M96.4491 362.008C93.0843 365.76 88.9953 371.718 92.1583 376.744C92.771 377.718 93.658 378.251 94.7714 378.485C95.1064 378.556 97.7694 378.978 97.87 378.868C93.972 383.132 94.9863 389.438 97.4142 394.173C99.5679 398.372 103.03 402.342 107.715 403.711C112.445 405.092 117.247 403.931 121.339 401.367C125.635 398.674 129.133 394.798 132.063 390.71C128.447 389.073 123.994 388.523 119.023 389.662C125.198 379.964 121.495 369.257 116.632 364.823C110.509 359.239 103.707 359.062 96.4491 362.008Z" fill="url(#paint5_linear_633_8799)"/>
<path d="M76.161 384.147C73.9306 384.635 73.6873 384.939 73.5098 387.468C73.0473 384.977 72.7715 384.703 70.5 384.476C72.7312 383.989 72.9737 383.684 73.1512 381.156C73.6144 383.647 73.8902 383.921 76.161 384.147Z" fill="white"/>
<path d="M105.881 406.921C103.65 407.463 103.408 407.801 103.23 410.61C102.767 407.843 102.491 407.538 100.22 407.287C102.451 406.745 102.694 406.406 102.872 403.597C103.334 406.365 103.61 406.67 105.881 406.921Z" fill="white"/>
<path d="M133.479 394.667C131.248 395.154 131.005 395.459 130.827 397.987C130.365 395.497 130.089 395.222 127.818 394.996C130.049 394.508 130.292 394.204 130.469 391.675C130.932 394.166 131.208 394.441 133.479 394.667Z" fill="white"/>
<path d="M127.11 422.017C124.601 422.505 124.327 422.81 124.128 425.338C123.607 422.847 123.297 422.573 120.742 422.346C123.252 421.858 123.525 421.554 123.724 419.026C124.245 421.517 124.556 421.791 127.11 422.017Z" fill="white"/>
<path d="M78.9916 430.433C76.7611 430.921 76.5179 431.226 76.3403 433.753C75.8778 431.263 75.602 430.989 73.3306 430.762C75.561 430.274 75.8043 429.97 75.9818 427.442C76.4443 429.933 76.7208 430.207 78.9916 430.433Z" fill="white"/>
<path d="M136.954 403.844C135.848 402.172 134.123 401.206 132.184 401.314C130.287 401.42 128.495 402.328 126.995 403.524C126.23 404.133 125.54 404.843 124.94 405.631C124.434 403.956 123.513 402.428 122.114 401.25C121.012 400.323 119.698 399.721 118.33 399.399C117.931 399.305 117.728 399.947 118.129 400.041C120.33 400.56 122.313 401.847 123.512 403.907C124.635 405.835 124.992 408.155 124.718 410.386C124.55 411.746 124.14 413.071 123.544 414.286C123.355 414.67 123.889 415.042 124.078 414.654C125.323 412.119 125.743 409.092 125.13 406.367L125.278 406.254C126.323 404.801 127.733 403.613 129.287 402.827C130.774 402.074 132.541 401.665 134.137 402.28C135.118 402.657 135.889 403.404 136.481 404.3C136.716 404.656 137.187 404.198 136.954 403.844Z" fill="#313338"/>
<path d="M78.873 362.408C77.4055 361.023 75.4866 360.476 73.6009 361.034C71.7547 361.58 70.1944 362.89 68.9862 364.413C68.3706 365.19 67.8521 366.048 67.4381 366.963C66.5618 365.435 65.309 364.148 63.663 363.318C62.3684 362.664 60.9369 362.38 59.517 362.381C59.103 362.383 59.0476 363.06 59.4637 363.059C61.7499 363.056 63.9942 363.859 65.6416 365.601C67.1839 367.233 68.0602 369.429 68.2935 371.684C68.4361 373.058 68.3317 374.455 68.0192 375.787C67.9198 376.208 68.5297 376.449 68.6291 376.025C69.2828 373.244 69.0114 370.174 67.7917 367.641C67.8406 367.607 67.8845 367.564 67.9126 367.496C68.6132 365.825 69.7336 364.329 71.0872 363.195C72.3833 362.109 74.0322 361.296 75.743 361.527C76.7957 361.67 77.7245 362.224 78.5101 362.965C78.8218 363.26 79.1826 362.7 78.873 362.408Z" fill="#313338"/>
<path d="M37.8513 386.463C38.2041 384.455 37.5983 382.483 36.0766 381.109C34.5873 379.765 32.6123 379.067 30.6528 378.789C29.654 378.648 28.6403 378.633 27.6374 378.741C28.4394 377.18 28.8288 375.413 28.6145 373.534C28.4459 372.056 27.889 370.649 27.096 369.399C26.8656 369.035 26.2618 369.335 26.4943 369.702C27.7699 371.713 28.3421 374.105 27.7869 376.455C27.2676 378.656 25.9005 380.561 24.1252 381.93C23.0434 382.765 21.8058 383.394 20.5062 383.806C20.096 383.935 20.2315 384.597 20.6455 384.466C23.358 383.607 25.8008 381.784 27.2617 379.402C27.3169 379.428 27.3778 379.443 27.4512 379.433C29.2529 379.189 31.1402 379.404 32.8519 380.011C34.4908 380.592 36.0954 381.625 36.8529 383.252C37.3183 384.252 37.3679 385.356 37.1787 386.431C37.1036 386.858 37.777 386.887 37.8513 386.463Z" fill="#313338"/>
<path d="M71.0603 435.176C69.1508 435.828 67.727 437.309 67.2554 439.311C66.7941 441.268 67.1237 443.344 67.811 445.205C68.1614 446.154 68.6293 447.054 69.1984 447.887C67.4629 447.929 65.7453 448.433 64.2159 449.524C63.0137 450.383 62.0556 451.549 61.3467 452.848C61.1399 453.226 61.6867 453.614 61.8949 453.233C63.0361 451.143 64.8407 449.491 67.1438 448.851C69.3003 448.253 71.6011 448.543 73.6312 449.451C74.8675 450.004 75.9997 450.793 76.9727 451.741C77.2799 452.04 77.7895 451.603 77.48 451.301C75.4492 449.323 72.7087 448.045 69.9497 447.9L69.888 447.717C68.8212 446.247 68.1138 444.48 67.8296 442.68C67.5574 440.957 67.6935 439.046 68.7461 437.598C69.394 436.707 70.3291 436.134 71.3519 435.784C71.7573 435.645 71.4628 435.039 71.0603 435.176Z" fill="#313338"/>
<path d="M102.078 384.516C100.905 382.891 100.585 380.874 101.323 378.986C102.045 377.138 103.47 375.648 105.063 374.539C105.875 373.973 106.754 373.513 107.676 373.167C106.303 372.136 105.202 370.74 104.58 368.979C104.09 367.594 103.971 366.1 104.125 364.642C104.17 364.218 104.826 364.219 104.782 364.646C104.533 366.992 105.064 369.366 106.561 371.206C107.963 372.929 109.979 374.016 112.12 374.449C113.425 374.713 114.777 374.726 116.09 374.518C116.505 374.453 116.671 375.1 116.253 375.165C113.513 375.598 110.592 375.057 108.29 373.588C108.253 373.635 108.206 373.676 108.138 373.7C106.458 374.276 104.901 375.298 103.667 376.591C102.486 377.828 101.529 379.451 101.567 381.227C101.591 382.32 102.024 383.321 102.653 384.191C102.902 384.537 102.326 384.859 102.078 384.516Z" fill="#313338"/>
<path d="M43.2789 429.778C42.6063 431.659 42.8277 433.68 43.9996 435.287C45.1467 436.859 46.8546 437.893 48.6213 438.518C49.5223 438.836 50.4586 439.034 51.4056 439.111C50.3935 440.478 49.7281 442.12 49.6029 443.978C49.5046 445.441 49.7776 446.906 50.2959 448.261C50.4473 448.655 51.0576 448.473 50.9056 448.076C50.0711 445.895 49.9537 443.474 50.873 441.298C51.733 439.26 53.3278 437.661 55.2076 436.657C56.3533 436.045 57.6079 435.66 58.8823 435.496C59.2847 435.444 59.2727 434.779 58.8668 434.831C56.2076 435.172 53.6305 436.496 51.8674 438.538C51.8207 438.504 51.767 438.477 51.6977 438.473C49.9869 438.384 48.2761 437.834 46.7959 436.936C45.3786 436.075 44.0703 434.784 43.6502 433.071C43.3913 432.017 43.5363 430.938 43.8963 429.931C44.0392 429.532 43.4203 429.381 43.2789 429.778Z" fill="#313338"/>
<path d="M101.637 415.043C101.788 416.959 102.788 418.615 104.468 419.506C106.111 420.377 108.038 420.543 109.855 420.33C110.78 420.221 111.69 419.993 112.561 419.655C112.206 421.271 112.269 422.976 112.897 424.64C113.391 425.948 114.216 427.1 115.215 428.052C115.506 428.329 115.975 427.911 115.683 427.632C114.075 426.1 113.008 424.053 112.958 421.777C112.911 419.644 113.69 417.579 114.958 415.906C115.732 414.887 116.692 414.018 117.758 413.332C118.095 413.116 117.82 412.545 117.48 412.763C115.255 414.194 113.496 416.44 112.743 418.962L112.566 418.978C111.013 419.632 109.276 419.885 107.604 419.739C106.005 419.6 104.33 419.04 103.276 417.736C102.627 416.934 102.326 415.938 102.246 414.912C102.214 414.505 101.605 414.639 101.637 415.043Z" fill="#313338"/>
<path d="M95.7381 429.182C93.8776 428.535 91.9022 428.811 90.3544 430.056C88.8409 431.275 87.867 433.058 87.2968 434.891C87.0066 435.826 86.8349 436.794 86.7818 437.771C85.4173 436.762 83.7918 436.117 81.9662 436.033C80.5297 435.966 79.0998 436.282 77.7841 436.849C77.4015 437.014 77.5942 437.638 77.9797 437.472C80.0977 436.56 82.4688 436.381 84.6246 437.275C86.6436 438.112 88.2488 439.715 89.2787 441.626C89.9064 442.79 90.3137 444.072 90.5043 445.38C90.5646 445.793 91.217 445.765 91.1559 445.348C90.7581 442.618 89.3987 439.998 87.3542 438.233C87.3869 438.184 87.4124 438.128 87.4139 438.056C87.4604 436.293 87.9593 434.519 88.8045 432.975C89.6147 431.495 90.849 430.118 92.519 429.643C93.5459 429.352 94.6071 429.475 95.6028 429.822C95.9985 429.959 96.1308 429.319 95.7381 429.182Z" fill="#313338"/>
<path d="M106.086 404.298C108.111 404.148 109.867 403.082 110.822 401.281C111.756 399.518 111.948 397.444 111.737 395.487C111.629 394.49 111.396 393.51 111.046 392.57C112.749 392.962 114.552 392.906 116.313 392.241C117.699 391.718 118.923 390.838 119.936 389.769C120.231 389.458 119.793 388.95 119.496 389.262C117.865 390.983 115.695 392.118 113.29 392.156C111.037 392.193 108.863 391.34 107.108 389.964C106.037 389.124 105.128 388.085 104.412 386.933C104.187 386.569 103.581 386.861 103.809 387.229C105.301 389.633 107.659 391.542 110.316 392.369C110.305 392.428 110.304 392.491 110.332 392.559C111.009 394.236 111.262 396.108 111.094 397.905C110.934 399.627 110.329 401.425 108.944 402.551C108.091 403.244 107.037 403.561 105.953 403.641C105.522 403.673 105.659 404.329 106.086 404.298Z" fill="#313338"/>
<path d="M93.421 386.536C94.1417 384.624 93.9668 382.544 92.8276 380.864C91.7125 379.22 90.0211 378.113 88.2607 377.425C87.3638 377.074 86.4278 376.846 85.4783 376.742C86.5273 375.366 87.2344 373.699 87.4043 371.794C87.5379 370.296 87.2984 368.786 86.8094 367.381C86.6673 366.972 86.2586 367.093 86.3368 367.523C86.7839 369.974 87.0404 372.302 86.0653 374.511C85.1521 376.58 83.5125 378.178 81.6 379.159C80.4352 379.757 79.1659 380.119 77.8817 380.252C77.4766 380.295 77.4723 380.978 77.881 380.935C80.561 380.656 83.1806 379.366 85.0007 377.316C85.0469 377.354 85.1002 377.383 85.1699 377.388C86.8862 377.525 88.5919 378.136 90.0573 379.097C91.4609 380.018 92.7444 381.378 93.1261 383.147C93.3606 384.236 93.1901 385.339 92.8041 386.363C92.6513 386.769 93.2689 386.939 93.421 386.536Z" fill="#313338"/>
<path d="M19.8516 409.903C21.6539 409.552 23.1218 408.376 23.7955 406.599C24.4552 404.859 24.4167 402.908 24.0293 401.108C23.8317 400.191 23.5223 399.302 23.1134 398.463C24.682 398.651 26.2934 398.41 27.8068 397.607C28.9979 396.975 30.0064 396.028 30.8072 394.927C31.0403 394.606 30.596 394.178 30.3613 394.501C29.0721 396.273 27.2398 397.557 25.085 397.844C23.067 398.113 21.0298 397.545 19.3138 396.446C18.2683 395.777 17.3464 394.904 16.5877 393.905C16.3479 393.59 15.834 393.926 16.0758 394.244C17.6595 396.327 19.969 397.86 22.4378 398.352L22.4712 398.528C23.2488 400.019 23.6662 401.735 23.6979 403.426C23.7284 405.046 23.3679 406.785 22.2387 407.978C21.5441 408.713 20.6302 409.118 19.665 409.306C19.2821 409.38 19.4713 409.977 19.8516 409.903Z" fill="#313338"/>
<path d="M110.258 443.376C111.078 441.626 111.04 439.657 110.041 437.995C109.063 436.369 107.493 435.208 105.831 434.437C104.983 434.044 104.09 433.763 103.176 433.598C104.279 432.376 105.07 430.857 105.355 429.076C105.579 427.675 105.443 426.236 105.058 424.88C104.946 424.485 104.335 424.602 104.448 425C105.068 427.182 104.97 429.529 103.885 431.54C102.87 433.423 101.179 434.812 99.2623 435.6C98.095 436.081 96.8414 436.333 95.5877 436.369C95.1924 436.38 95.1451 437.022 95.5441 437.011C98.16 436.937 100.782 435.907 102.675 434.106C102.718 434.144 102.768 434.175 102.836 434.185C104.491 434.434 106.106 435.129 107.466 436.137C108.769 437.103 109.928 438.473 110.186 440.165C110.345 441.206 110.11 442.233 109.671 443.17C109.497 443.542 110.085 443.746 110.258 443.376Z" fill="#313338"/>
<path d="M42.4222 386.414C44.2111 387.088 46.1105 386.8 47.598 385.503C49.0541 384.235 49.9905 382.377 50.5388 380.467C50.8179 379.493 50.9829 378.485 51.0339 377.467C52.3459 378.518 53.9083 379.191 55.6643 379.278C57.0456 379.348 58.4198 379.018 59.6856 378.428C60.0535 378.257 59.8681 377.606 59.4975 377.779C57.461 378.728 55.1811 378.915 53.1082 377.984C51.1668 377.112 49.6234 375.443 48.6331 373.452C48.0295 372.24 47.6379 370.904 47.454 369.542C47.3966 369.112 46.7693 369.141 46.8274 369.575C47.2099 372.418 48.517 375.147 50.4836 376.987C50.4521 377.037 50.4276 377.096 50.4262 377.17C50.3815 379.006 49.9017 380.854 49.0884 382.464C48.31 384.005 47.1232 385.44 45.5175 385.933C44.53 386.237 43.5097 386.109 42.5515 385.748C42.1718 385.604 42.0445 386.272 42.4222 386.414Z" fill="#313338"/>
<path d="M36.1618 417.625C34.2323 417.809 32.5737 418.905 31.6913 420.725C30.8285 422.507 30.6782 424.588 30.9104 426.544C31.0285 427.542 31.2672 428.52 31.6156 429.456C29.9839 429.091 28.2657 429.177 26.5954 429.872C25.2813 430.419 24.1285 431.321 23.1784 432.409C22.9021 432.725 23.3279 433.227 23.6063 432.909C25.1349 431.158 27.1872 429.986 29.4812 429.907C31.6299 429.834 33.7176 430.652 35.415 432.003C36.4494 432.825 37.3342 433.851 38.0345 434.994C38.2562 435.354 38.8291 435.051 38.606 434.688C37.1432 432.304 34.8635 430.43 32.3153 429.645C32.325 429.585 32.325 429.522 32.2974 429.455C31.6248 427.786 31.3532 425.916 31.4851 424.112C31.6106 422.385 32.1594 420.573 33.4636 419.422C34.2658 418.714 35.2663 418.378 36.2999 418.28C36.7097 418.241 36.5695 417.586 36.1618 417.625Z" fill="#313338"/>
<path d="M6.94486 407.263C5.97179 408.876 5.81624 410.792 6.63085 412.511C7.42809 414.192 8.85124 415.484 10.4032 416.408C11.1945 416.878 12.0406 417.245 12.9194 417.501C11.7193 418.57 10.7964 419.963 10.3433 421.662C9.98669 422.999 9.97986 424.41 10.224 425.767C10.295 426.162 10.9035 426.112 10.8317 425.715C10.4387 423.53 10.7647 421.263 12.0227 419.425C13.2011 417.702 14.9916 416.532 16.9442 415.967C18.134 415.623 19.385 415.511 20.6155 415.608C21.0037 415.638 21.1127 415.018 20.7208 414.988C18.1535 414.785 15.4876 415.51 13.4578 417.06L13.309 416.966C11.7135 416.55 10.2011 415.706 8.96849 414.585C7.78789 413.51 6.78873 412.059 6.70121 410.388C6.64757 409.361 6.97837 408.389 7.4994 407.525C7.70641 407.183 7.15042 406.923 6.94486 407.263Z" fill="#313338"/>
<path d="M64.1199 419.494C64.3933 424.712 59.7102 429.204 53.6591 429.527C47.6079 429.849 42.4805 425.881 42.2063 420.662C41.9321 415.443 46.6159 410.951 52.6671 410.629C58.7182 410.306 63.8457 414.275 64.1199 419.494Z" fill="url(#paint6_linear_633_8799)"/>
<path d="M75.4659 419.228C75.7463 424.448 80.72 428.432 86.5749 428.126C92.4306 427.821 96.9498 423.342 96.6701 418.123C96.3897 412.903 91.416 408.919 85.5604 409.224C79.7055 409.53 75.1863 414.008 75.4659 419.228Z" fill="url(#paint7_linear_633_8799)"/>
<path d="M59.8656 402.156C59.8803 402.676 59.8883 403.183 59.8847 403.691C59.8774 406.833 59.5683 409.763 59.0248 412.275C58.4133 411.958 57.7666 411.689 57.0862 411.481C55.729 411.041 54.3887 411.031 52.8353 411.074C52.2933 411.089 51.5953 411.117 51.0797 411.197C49.4406 411.428 47.9618 411.973 46.6574 412.714C45.7551 410.009 45.1399 406.568 45.0403 403.029C44.7524 392.875 48.692 384.067 52.4793 383.962C52.6661 383.957 52.8477 383.97 53.0294 384.006C56.5852 384.648 59.5917 392.492 59.8656 402.156Z" fill="white"/>
<path d="M59.6173 402.014L59.3681 402.021C59.3801 402.442 59.3872 402.855 59.3872 403.265C59.3872 403.348 59.3872 403.431 59.3865 403.514V403.516C59.3794 406.575 59.0821 409.425 58.5612 411.864L58.8047 411.916L58.92 411.695C58.3162 411.377 57.677 411.108 57.0039 410.9L56.9309 411.139L57.0081 410.901C55.9576 410.556 54.9213 410.475 53.8107 410.475C53.4865 410.475 53.1552 410.481 52.8154 410.491C52.2881 410.506 51.6092 410.532 51.0868 410.614L51.1258 410.861L51.0904 410.614C49.4729 410.844 48.0133 411.389 46.7278 412.129L46.8517 412.346L47.0881 412.267C46.2245 409.648 45.6335 406.3 45.5372 402.862C45.528 402.52 45.523 402.18 45.523 401.841C45.5223 397.126 46.4362 392.772 47.7804 389.601C48.4515 388.016 49.2308 386.728 50.0448 385.843C50.8603 384.954 51.6991 384.482 52.4856 384.461L52.5528 384.46C52.693 384.46 52.8268 384.472 52.9598 384.5L52.9627 384.501H52.9655C53.7399 384.641 54.5228 385.193 55.2604 386.121C57.481 388.902 59.1756 394.967 59.3681 402.021L59.6173 402.014L59.8657 402.007C59.7327 397.255 58.9377 392.95 57.7365 389.736C57.1348 388.129 56.4326 386.795 55.6497 385.809C54.8675 384.827 53.9983 384.183 53.0547 384.009L53.0101 384.255L53.0603 384.011C52.8905 383.976 52.7213 383.961 52.5528 383.961L52.4721 383.962C51.491 383.992 50.546 384.561 49.6789 385.504C48.3778 386.923 47.2233 389.212 46.3831 392.046C45.5443 394.879 45.0254 398.256 45.0254 401.841C45.0254 402.184 45.0296 402.529 45.0396 402.875C45.1372 406.363 45.7347 409.749 46.6153 412.424L46.7108 412.714L46.9756 412.562C48.2122 411.851 49.6102 411.329 51.1604 411.108H51.1626L51.164 411.107C51.6397 411.033 52.3093 411.004 52.8296 410.99C53.1672 410.981 53.4936 410.974 53.8107 410.974C54.898 410.974 55.8741 411.054 56.8531 411.376L56.8552 411.377L56.8573 411.377C57.5001 411.576 58.1109 411.833 58.6893 412.137L58.9795 412.29L59.0482 411.968C59.5776 409.491 59.8778 406.607 59.8841 403.517V403.518C59.8849 403.434 59.8856 403.35 59.8856 403.265C59.8856 402.849 59.8778 402.432 59.8657 402.008L59.6173 402.014Z" fill="#313338"/>
<path d="M53.0807 384.663C52.9192 384.667 52.7584 384.696 52.6041 384.747C49.9559 385.486 48.5187 391.22 48.5645 399.001L56.3678 400.312L48.6693 402.047C48.8876 405.215 49.4938 408.534 50.5963 410.905C51.292 410.744 52.0139 410.653 52.762 410.633C55.0892 410.568 57.3262 410.883 59.0589 412.013C59.0859 411.906 59.5618 409.079 59.7328 407.52C59.9322 405.672 59.8994 402.87 59.8398 400.757C59.5829 391.773 56.1379 384.579 53.0807 384.663Z" fill="#313338"/>
<path d="M43.6104 386.806C43.6129 386.828 43.6688 387.624 44.1375 388.463C44.6024 389.303 45.5118 390.175 47.1225 390.273L47.1485 389.776C45.6725 389.677 44.9307 388.93 44.5166 388.2C44.3115 387.834 44.1953 387.471 44.1311 387.201C44.0987 387.066 44.0797 386.954 44.0689 386.878L44.0581 386.792L44.0556 386.766L43.6104 386.806Z" fill="#313338"/>
<path d="M42.1948 389.61C42.1979 389.633 42.265 390.428 42.8275 391.268C43.3855 392.108 44.477 392.98 46.4101 393.078L46.4406 392.582C44.6699 392.483 43.7796 391.734 43.2826 391.005C43.0364 390.639 42.8969 390.276 42.8199 390.006C42.781 389.871 42.7581 389.759 42.7452 389.682L42.7322 389.596L42.7292 389.571L42.1948 389.61Z" fill="#313338"/>
<path d="M41.4873 393.818C41.4904 393.841 41.5574 394.636 42.1199 395.476C42.6777 396.316 43.7699 397.188 45.7026 397.286L45.7331 396.789C43.9627 396.69 43.0725 395.942 42.5748 395.213C42.3287 394.847 42.1892 394.483 42.1122 394.213C42.0734 394.078 42.0505 393.967 42.0376 393.891L42.0246 393.804L42.0215 393.779L41.4873 393.818Z" fill="#313338"/>
<path d="M45.0254 414.074C46.0483 413.069 47.2734 412.314 48.5627 411.72C49.8579 411.132 51.2553 410.796 52.6688 410.643C54.0866 410.543 55.5344 410.667 56.888 411.123C57.2223 411.248 57.5677 411.335 57.8889 411.489L58.8461 411.963C59.1659 412.116 59.4506 412.337 59.7412 412.544C60.0325 412.748 60.3158 412.96 60.5932 413.178L60.5662 413.223C59.3732 412.512 58.1379 411.838 56.7894 411.529C56.133 411.31 55.4416 411.269 54.7648 411.161C54.0786 411.143 53.3923 411.098 52.7089 411.182C51.3429 411.291 49.9908 411.613 48.7021 412.115C47.4172 412.623 46.1768 413.28 45.0561 414.117L45.0254 414.074Z" fill="#313338"/>
<path d="M91.6365 400.528C91.6678 401.047 91.6932 401.555 91.7063 402.062C91.8017 405.207 91.5906 408.148 91.1327 410.679C90.5154 410.381 89.8639 410.134 89.1811 409.948C87.8191 409.551 86.3334 409.384 84.7909 409.477C84.2529 409.509 83.723 409.572 83.2134 409.669C81.593 409.953 80.1102 410.528 78.8385 411.312C77.8536 408.634 77.1533 405.419 76.9379 401.881C76.3198 391.732 79.9442 382.792 83.7033 382.563C83.889 382.552 84.0695 382.559 84.2508 382.59C87.8046 383.117 91.0483 390.867 91.6365 400.528Z" fill="white"/>
<path d="M92.0841 400.388L91.8253 400.403C91.857 400.909 91.8821 401.402 91.8953 401.896V401.897C91.9108 402.382 91.9182 402.862 91.9182 403.336C91.9182 405.854 91.7059 408.208 91.3188 410.274L91.5739 410.319L91.6867 410.094C91.0475 409.796 90.3737 409.548 89.6653 409.362L89.5974 409.603L89.6697 409.363C88.5159 409.039 87.2789 408.868 85.9954 408.868C85.7108 408.868 85.4241 408.877 85.1358 408.893C84.5814 408.926 84.0337 408.988 83.5051 409.085L83.5537 409.33L83.5088 409.084C81.8353 409.368 80.3033 409.942 78.9867 410.725L79.1231 410.938L79.3663 410.852C78.3777 408.257 77.6737 405.134 77.4569 401.696C77.4105 400.951 77.3876 400.211 77.3876 399.482C77.3869 395.025 78.234 390.937 79.5094 387.955C80.1456 386.464 80.8902 385.251 81.6768 384.41C82.4641 383.567 83.2824 383.107 84.0661 383.063L84.215 383.058C84.3322 383.058 84.4465 383.067 84.5608 383.086H84.5637L84.5667 383.087C85.3776 383.201 86.2107 383.727 87.0105 384.632C89.4161 387.341 91.3859 393.352 91.8253 400.403L92.0841 400.388L92.3428 400.372C92.0428 395.623 91.0697 391.343 89.7102 388.167C89.029 386.579 88.2527 385.267 87.4049 384.307C86.5571 383.35 85.6305 382.735 84.6426 382.592L84.6043 382.839L84.6478 382.593C84.5033 382.569 84.3588 382.558 84.215 382.558L84.0344 382.563C83.0583 382.622 82.1316 383.176 81.2912 384.076C78.778 386.778 76.8753 392.703 76.8687 399.482C76.8687 400.221 76.8922 400.971 76.9394 401.727C77.1591 405.212 77.8727 408.38 78.8798 411.024L78.9889 411.312L79.2594 411.151C80.5186 410.401 81.9894 409.849 83.598 409.577L83.6002 409.576H83.6016C84.1059 409.484 84.6323 409.424 85.1675 409.393C85.4454 409.376 85.7211 409.368 85.9954 409.368C87.231 409.368 88.4201 409.532 89.5244 409.843L89.5267 409.844L89.5289 409.844C90.2049 410.022 90.8492 410.259 91.4611 410.544L91.7685 410.687L91.829 410.363C92.2227 408.263 92.4364 405.881 92.4364 403.336C92.4364 402.857 92.4291 402.371 92.4136 401.881V401.883C92.4003 401.382 92.3745 400.882 92.3428 400.372L92.0841 400.388Z" fill="#313338"/>
<path d="M84.4077 383.263C84.25 383.273 84.0931 383.306 83.944 383.363C81.3738 384.192 80.1526 390.013 80.4508 397.847L88.1384 398.915L80.6527 400.911C80.9701 404.093 81.672 407.416 82.829 409.768C83.5053 409.583 84.2101 409.468 84.9419 409.424C87.2203 409.284 89.4217 409.528 91.1558 410.61C91.1793 410.502 91.5538 407.639 91.6701 406.064C91.8049 404.196 91.6822 401.375 91.5545 399.251C91.0103 390.212 87.4008 383.079 84.4077 383.263Z" fill="#313338"/>
<path d="M91.2485 382.558V382.561C91.2492 382.593 91.2417 383.4 90.8575 384.239C90.4692 385.075 89.7371 385.956 88.1909 386.221L88.2613 386.766C89.949 386.487 90.8486 385.458 91.2834 384.494C91.7215 383.53 91.7284 382.644 91.7291 382.561V382.558H91.2485Z" fill="#313338"/>
<path d="M92.6635 386.065V386.067C92.6641 386.094 92.6566 386.767 92.2724 387.465C91.884 388.163 91.1518 388.896 89.606 389.118L89.6757 389.571C91.3637 389.339 92.2635 388.481 92.6983 387.678C93.1373 386.875 93.1434 386.136 93.1441 386.067V386.065H92.6635Z" fill="#313338"/>
<path d="M93.9826 389.571V389.575C93.9834 389.606 93.9744 390.413 93.5134 391.252C93.0475 392.089 92.1689 392.969 90.3135 393.234L90.398 393.779C92.4232 393.5 93.5027 392.471 94.0244 391.507C94.5502 390.543 94.5584 389.658 94.5592 389.575V389.571H93.9826Z" fill="#313338"/>
<path d="M93.1153 411.589C92.4917 411.276 91.8667 410.986 91.2188 410.767C90.5816 410.523 89.9336 410.325 89.2785 410.175C88.9474 410.117 88.622 410.037 88.2952 409.97L87.3068 409.817L86.3126 409.751C85.9815 409.728 85.6496 409.766 85.3185 409.766C83.9961 409.781 82.6708 409.998 81.3914 410.418C80.0891 410.776 78.867 411.406 77.6034 412.013L77.5762 411.968C78.1732 411.602 78.7466 411.184 79.3659 410.862C79.9945 410.563 80.6051 410.211 81.2689 410.012C82.5612 409.5 83.9373 409.275 85.3063 409.215C86.6796 409.165 88.0579 409.363 89.3803 409.76C90.7042 410.154 91.9843 410.738 93.144 411.544L93.1153 411.589Z" fill="#313338"/>
<path d="M69.2636 414.348C65.9195 414.601 63.5286 413.112 60.4524 413.303C58.7252 413.411 57.0669 413.853 57.0553 415.743C57.035 419.205 59.7547 421.462 63.0277 422.786C67.2554 424.496 72.0777 424.257 76.2052 422.337C79.6815 420.721 83.2725 418.031 82.3961 413.984C81.9954 412.134 80.385 411.91 78.6599 412.045C75.5874 412.285 72.3238 414.117 69.2636 414.348Z" fill="white"/>
<mask id="mask0_633_8799" style="mask-type:luminance" maskUnits="userSpaceOnUse" x="56" y="411" width="27" height="14">
<path d="M68.9868 414.203C67.2853 414.336 65.8305 414 64.4062 413.665C63.0321 413.341 61.6869 413.016 60.177 413.114C58.45 413.226 56.792 413.687 56.7804 415.656C56.7601 419.262 59.4794 421.613 62.7519 422.993C66.9789 424.774 71.8005 424.524 75.9274 422.525C79.4031 420.841 82.9936 418.039 82.1174 413.824C81.7167 411.895 80.1066 411.663 78.3818 411.803C75.3096 412.053 72.0466 413.962 68.9868 414.203Z" fill="white"/>
</mask>
<g mask="url(#mask0_633_8799)">
<path d="M74.5557 412.731C75.0195 413.841 75.5255 415.369 75.7716 417.236C75.8798 418.055 75.9226 418.826 75.9226 419.539C75.9226 420.692 75.8093 421.69 75.6758 422.483L76.1796 422.567C76.3168 421.751 76.4329 420.724 76.4329 419.539C76.4329 418.806 76.3886 418.013 76.2776 417.171C76.0242 415.25 75.5044 413.679 75.0268 412.536L74.5557 412.731Z" fill="#313338"/>
<path d="M68.7446 414.28C69.1272 415.45 69.5112 417.006 69.6433 418.862C69.676 419.326 69.6912 419.775 69.6912 420.207C69.6912 421.761 69.5003 423.091 69.2862 424.116L69.7863 424.219C70.0063 423.167 70.2016 421.802 70.2016 420.207C70.2016 419.764 70.1863 419.303 70.1529 418.827C70.0172 416.921 69.623 415.325 69.2303 414.124L68.7446 414.28Z" fill="#313338"/>
<path d="M62.3745 413.351C62.7317 414.567 63.0939 416.279 63.0975 418.344V418.373C63.0975 420.224 62.8086 421.779 62.5052 422.929L62.9988 423.057C63.3117 421.875 63.6079 420.275 63.6079 418.373V418.342C63.6042 416.22 63.2326 414.46 62.8652 413.209L62.3745 413.351Z" fill="#313338"/>
</g>
<path d="M68.9055 414.08L68.8857 413.82C68.6275 413.841 68.3751 413.85 68.1271 413.85C65.4247 413.858 63.2667 412.687 60.5848 412.679C60.3961 412.679 60.2044 412.685 60.0105 412.698C59.1232 412.759 58.2358 412.904 57.5357 413.327C56.8319 413.745 56.3455 414.489 56.3477 415.577V415.62C56.3462 417.533 57.0609 419.13 58.1897 420.408C59.3185 421.689 60.8547 422.663 62.5212 423.382C64.4832 424.228 66.5689 424.636 68.656 424.636C71.1784 424.636 73.7022 424.039 76.0125 422.894C77.5992 422.107 79.2167 421.085 80.4493 419.784C81.6805 418.485 82.5306 416.889 82.5299 414.993C82.5299 414.556 82.4845 414.103 82.3894 413.637C82.2102 412.736 81.7676 412.124 81.1765 411.772C80.5861 411.418 79.8765 411.312 79.1384 411.312C78.8794 411.312 78.6161 411.325 78.352 411.347C76.7587 411.481 75.1456 412.046 73.5508 412.6C71.9575 413.156 70.381 413.701 68.8857 413.82L68.9055 414.08L68.9259 414.34C70.5141 414.211 72.1235 413.648 73.7183 413.094C75.3124 412.538 76.8918 411.991 78.3944 411.867C78.6475 411.846 78.897 411.833 79.1384 411.833C79.829 411.832 80.4471 411.938 80.9139 412.221C81.3784 412.504 81.7215 412.951 81.8854 413.742C81.9739 414.175 82.0148 414.592 82.0148 414.993C82.0141 416.725 81.2474 418.185 80.0777 419.422C78.9087 420.659 77.3395 421.656 75.7864 422.425C73.5457 423.536 71.0979 424.115 68.656 424.115C66.6355 424.114 64.6186 423.719 62.7231 422.902C61.1042 422.204 59.6323 421.264 58.573 420.061C57.5145 418.857 56.8634 417.4 56.8619 415.62V415.58C56.8751 414.637 57.2306 414.129 57.7998 413.774C58.3733 413.424 59.1912 413.274 60.0442 413.218C60.2263 413.207 60.4063 413.201 60.5848 413.201C63.1035 413.193 65.2726 414.364 68.1271 414.372C68.3875 414.372 68.6538 414.362 68.9259 414.34L68.9055 414.08Z" fill="#313338"/>
<path d="M69.8014 402.896L69.7925 405.85C69.7925 405.85 74.103 404.119 74.0375 406.401C73.972 408.682 69.8935 409.208 69.8935 409.208" fill="url(#paint8_linear_633_8799)"/>
<path d="M69.0971 402.896L69.085 406.111L69.4948 405.979C69.4948 405.979 69.6044 405.944 69.7975 405.889C70.3746 405.722 71.6853 405.392 72.716 405.394C73.1599 405.393 73.543 405.458 73.7775 405.585C74.008 405.716 74.1281 405.865 74.1371 406.203L74.1363 406.244V406.243C74.1192 406.695 73.8644 407.061 73.4399 407.387C72.8061 407.872 71.807 408.206 70.9719 408.402C70.5547 408.501 70.1782 408.569 69.9071 408.611C69.7716 408.632 69.6628 408.646 69.5881 408.656C69.5135 408.666 69.4762 408.669 69.4762 408.669L69.5468 409.208C69.5597 409.206 70.7885 409.08 72.0513 408.668C72.6835 408.462 73.3263 408.185 73.8352 407.799C74.3424 407.416 74.723 406.9 74.7449 406.26L74.7458 406.203C74.7547 405.713 74.4852 405.321 74.09 405.119C73.698 404.913 73.2192 404.853 72.716 404.852C71.1683 404.855 69.3041 405.466 69.287 405.469L69.3909 405.724L69.6953 405.725L69.7058 402.898L69.0971 402.896Z" fill="#313338"/>
<path d="M48.612 416.224C47.6717 416.134 47.5734 418.233 48.5157 418.322C49.4553 418.411 49.5536 416.313 48.612 416.224Z" fill="#313338"/>
<path d="M54.6508 416.224C53.2402 416.134 53.0938 418.233 54.5063 418.322C55.9168 418.411 56.0633 416.313 54.6508 416.224Z" fill="#313338"/>
<path d="M52.1502 420.43C51.2098 420.371 51.1115 421.77 52.0532 421.829C52.9935 421.889 53.0918 420.49 52.1502 420.43Z" fill="#313338"/>
<path d="M85.0785 414.119C83.668 414.06 83.5215 415.458 84.934 415.518C86.3445 415.577 86.491 414.178 85.0785 414.119Z" fill="#313338"/>
<path d="M91.0691 414.119C90.1289 414.06 90.0313 415.459 90.9728 415.518C91.913 415.577 92.0113 414.179 91.0691 414.119Z" fill="#313338"/>
<path d="M88.2384 418.327C87.2988 418.267 87.2005 419.666 88.1421 419.725C89.0825 419.785 89.1808 418.386 88.2384 418.327Z" fill="#313338"/>
<path d="M-4.61414 412.013C-7.56399 414.846 -10.1599 418.032 -11.7145 421.851C-13.5944 426.487 -13.6956 432.771 -10.0947 436.65C-5.73487 441.342 1.35107 441.226 7.82972 440.159C9.15269 439.944 10.4472 439.684 11.6908 439.418C12.9923 439.136 14.2285 438.855 15.3786 438.595C16.2245 438.409 16.7883 437.939 17.1063 437.356C18.068 435.59 16.8027 432.757 14.2505 433.334C13.8238 433.428 13.3682 433.535 12.9058 433.643C12.5367 433.73 12.1607 433.824 11.7704 433.918C10.5483 434.206 9.23266 434.516 7.87296 434.782C3.20188 435.712 -1.93883 436.145 -5.3228 433.695C-8.56216 431.352 -7.83911 426.27 -6.41447 423.12C-5.71289 421.578 -4.7876 420.165 -3.70301 418.861L-4.61414 412.013Z" fill="#313338"/>
<path d="M12.3001 431.9C12.3001 431.9 9.48727 429.489 8.75443 431.902C8.19544 433.741 8.20667 437.857 8.24412 439.714C8.26126 440.57 8.72433 441.38 9.49318 441.738C9.99082 441.971 11.3481 441.757 12.0228 441.31C13.238 442.318 14.8173 444.224 18.0645 444.76C20.4937 445.16 23.1426 445.012 25.4794 444.206C26.6807 443.792 27.782 443.169 28.5224 442.1C28.9334 441.505 29.2488 440.794 29.2736 440.06C29.2857 439.694 29.2196 439.33 29.0626 439C29.0167 438.904 28.6735 438.24 28.6735 438.24C28.6735 438.24 31.0082 435.216 27.6214 433.521C27.6214 433.521 30.9099 428.521 23.1113 429.267C22.639 429.312 22.3189 427.189 20.573 426.157C20.3139 426.004 18.4969 424.964 16.5083 425.48C14.1433 426.095 12.3322 428.704 12.3001 431.9Z" fill="white"/>
<path d="M11.8956 431.988L12.0717 431.785C12.0643 431.78 11.7403 431.511 11.2734 431.239C10.8045 430.969 10.1984 430.684 9.57823 430.68C9.26893 430.68 8.9489 430.76 8.67814 430.964C8.40658 431.168 8.19677 431.483 8.06245 431.912C7.8308 432.652 7.70017 433.699 7.62136 434.822C7.54335 435.944 7.52129 437.136 7.521 438.139C7.521 438.699 7.52811 439.2 7.53631 439.596C7.55554 440.52 8.07239 441.404 8.95311 441.802C9.15609 441.891 9.39085 441.917 9.65501 441.919C10.3351 441.914 11.1994 441.721 11.7652 441.366L11.6162 441.143L11.4438 441.349C12.6332 442.299 14.2982 444.23 17.6605 444.762C18.5378 444.902 19.4424 444.974 20.3516 444.974C22.0215 444.974 23.7071 444.731 25.2642 444.213C26.5033 443.8 27.6732 443.168 28.4655 442.064C28.8996 441.457 29.2428 440.722 29.2715 439.936L29.2732 439.844C29.2732 439.481 29.1975 439.117 29.0322 438.781C28.9792 438.674 28.6376 438.037 28.6362 438.033L28.395 438.156L28.6096 438.32C28.6212 438.298 29.4495 437.287 29.4574 436.016C29.4583 435.556 29.3407 435.059 29.0257 434.592C28.711 434.123 28.2059 433.689 27.4555 433.327L27.3347 433.565L27.5612 433.713C27.5698 433.691 28.2926 432.659 28.3006 431.512C28.3057 430.92 28.0806 430.273 27.4422 429.817C26.8066 429.361 25.8097 429.088 24.2695 429.087C23.8171 429.087 23.317 429.111 22.7642 429.162H22.7648L22.775 429.27V429.161L22.7648 429.162L22.775 429.27V429.161V429.248L22.8181 429.17L22.775 429.161V429.248L22.8181 429.17L22.8156 429.168C22.7838 429.152 22.6729 428.998 22.5584 428.781C22.1965 428.126 21.6425 426.899 20.3694 426.171C20.1409 426.042 18.8811 425.34 17.2852 425.338C16.8957 425.338 16.486 425.38 16.0684 425.485C13.5341 426.127 11.6584 428.781 11.6238 431.985L11.8956 431.988L12.1678 431.991C12.1978 428.978 13.9716 426.553 16.2039 426C16.5727 425.908 16.9362 425.869 17.2852 425.869C18.7153 425.867 19.9037 426.519 20.0947 426.63C20.9006 427.089 21.3924 427.798 21.7431 428.415C21.9186 428.724 22.0567 429.006 22.1905 429.229C22.2585 429.341 22.324 429.438 22.4076 429.523C22.4887 429.605 22.6086 429.691 22.775 429.693L22.8153 429.691H22.8156C23.3536 429.642 23.8366 429.618 24.2695 429.618C25.7465 429.618 26.6292 429.889 27.1188 430.245C27.6055 430.601 27.7512 431.033 27.7563 431.512C27.7574 431.972 27.5978 432.456 27.4326 432.82C27.3506 433.002 27.2678 433.153 27.2067 433.258L27.1335 433.38L27.1083 433.418L26.9368 433.669L27.214 433.803C27.8983 434.134 28.3184 434.508 28.5705 434.883C28.8222 435.259 28.9124 435.641 28.9132 436.016C28.914 436.532 28.7326 437.033 28.5461 437.401C28.4531 437.584 28.3598 437.735 28.2906 437.839L28.2081 437.956L28.1806 437.993L28.0726 438.128L28.1537 438.28C28.154 438.28 28.2402 438.441 28.3323 438.614C28.4233 438.785 28.524 438.975 28.5415 439.011C28.6682 439.269 28.7286 439.552 28.7289 439.844L28.7275 439.919C28.7065 440.56 28.4139 441.21 28.0197 441.759C27.32 442.735 26.2703 443.315 25.0888 443.709C23.596 444.206 21.9676 444.442 20.3516 444.442C19.4719 444.442 18.5962 444.372 17.7481 444.238C14.5663 443.726 13.0483 441.95 11.7887 440.938L11.6343 440.814L11.467 440.921C11.0523 441.193 10.2208 441.392 9.65501 441.387C9.4373 441.389 9.25761 441.356 9.18105 441.319C8.5126 441.02 8.0959 440.327 8.08059 439.585C8.07239 439.192 8.06528 438.695 8.06528 438.139C8.06528 437.144 8.08763 435.962 8.16419 434.858C8.24017 433.756 8.37428 432.728 8.58263 432.069C8.69461 431.714 8.84766 431.507 9.01007 431.386C9.17314 431.264 9.35762 431.213 9.57823 431.212C10.0168 431.208 10.5693 431.444 10.9944 431.695C11.2079 431.82 11.3913 431.945 11.5203 432.038L11.6697 432.151L11.7199 432.191L12.1621 432.557L12.1678 431.991L11.8956 431.988Z" fill="#313338"/>
<path d="M27.2454 433.753L24.5044 434.107L24.5939 434.455L27.3349 434.1" fill="#313338"/>
<path d="M28.6905 437.961L25.2119 438.217L25.2714 438.662L28.75 438.406" fill="#313338"/>
<path d="M23.0209 428.844L18.8433 429.566L18.9114 430.247L23.089 429.526" fill="#313338"/>
<path d="M11.9045 432.351L11.7671 435.135L12.3373 435.156L12.4747 432.372" fill="#313338"/>
<path d="M11.9122 439.364L11.7671 441.437L12.33 441.468L12.4747 439.394" fill="#313338"/>
<path d="M23.7909 432.266C23.8967 433.193 22.4931 433.363 22.387 432.435C22.2812 431.508 23.6848 431.338 23.7909 432.266Z" fill="#313338"/>
<path d="M23.7937 437.175C23.8465 438.102 23.1446 438.272 23.0917 437.344C23.0388 436.418 23.7409 436.247 23.7937 437.175Z" fill="#313338"/>
<path d="M24.4984 442.085C24.6042 443.011 23.2006 443.182 23.0946 442.253C22.9888 441.326 24.3924 441.157 24.4984 442.085Z" fill="#313338"/>
<path d="M142.215 406.403C142.315 406.49 142.423 406.576 142.523 406.664C146.695 410.171 150.637 414.098 152.723 419.187C154.59 423.793 154.696 430.026 151.097 433.875C146.73 438.53 139.651 438.42 133.175 437.357C131.855 437.136 130.555 436.878 129.307 436.615C128.015 436.344 126.767 436.059 125.62 435.804C123.737 435.383 123.25 433.596 123.764 432.206C124.055 431.422 124.677 430.755 125.547 430.564C125.909 430.475 126.307 430.479 126.747 430.577C127.511 430.743 128.348 430.952 129.228 431.161C130.455 431.454 131.768 431.754 133.124 432.026H133.132C137.8 432.941 142.937 433.374 146.319 430.948C149.563 428.62 148.843 423.575 147.416 420.447C146.108 417.571 143.979 415.152 141.638 412.98C141.552 412.908 141.466 412.828 141.38 412.748L142.215 406.403Z" fill="#313338"/>
<path d="M129.274 429.097C129.274 429.097 132.182 426.687 132.938 429.1C133.515 430.939 133.502 435.055 133.463 436.912C133.445 437.769 132.966 438.579 132.171 438.937C131.658 439.169 130.254 438.955 129.558 438.507C128.301 439.516 126.669 441.42 123.313 441.955C120.803 442.356 118.066 442.206 115.651 441.399C114.409 440.985 113.271 440.361 112.507 439.292C112.083 438.697 111.757 437.986 111.732 437.252C111.719 436.886 111.788 436.523 111.95 436.193C111.997 436.096 112.352 435.432 112.352 435.432C112.352 435.432 109.94 432.407 113.441 430.714C113.441 430.714 110.044 425.712 118.103 426.461C118.591 426.506 118.922 424.382 120.727 423.351C120.995 423.197 122.873 422.158 124.927 422.676C127.371 423.291 129.242 425.901 129.274 429.097Z" fill="white"/>
<path d="M129.106 429.185L129.282 429.387L129.332 429.348C129.452 429.254 129.775 429.013 130.172 428.8C130.569 428.586 131.04 428.407 131.424 428.409C131.644 428.411 131.829 428.461 131.992 428.583C132.154 428.706 132.308 428.912 132.419 429.266C132.627 429.923 132.76 430.947 132.836 432.045C132.913 433.145 132.935 434.324 132.935 435.318C132.935 435.882 132.927 436.386 132.919 436.783C132.903 437.526 132.487 438.218 131.818 438.517C131.741 438.554 131.562 438.587 131.345 438.585C130.779 438.59 129.947 438.39 129.532 438.118L129.365 438.011L129.21 438.135C127.951 439.148 126.432 440.923 123.25 441.433C122.403 441.568 121.529 441.637 120.651 441.637C119.033 441.638 117.403 441.401 115.909 440.903C114.727 440.509 113.678 439.928 112.979 438.952C112.584 438.402 112.292 437.752 112.271 437.11L112.27 437.038C112.27 436.745 112.33 436.462 112.457 436.203C112.475 436.167 112.575 435.977 112.667 435.806C112.759 435.634 112.845 435.473 112.845 435.472L112.926 435.32L112.818 435.185L112.791 435.149C112.652 434.966 112.081 434.112 112.087 433.208C112.088 432.833 112.178 432.451 112.429 432.076C112.681 431.701 113.101 431.327 113.786 430.996L114.064 430.862L113.892 430.61L113.867 430.571C113.744 430.383 113.239 429.511 113.245 428.704C113.25 428.226 113.395 427.793 113.882 427.437C114.371 427.081 115.253 426.81 116.729 426.811C117.163 426.811 117.647 426.834 118.186 426.884L118.227 426.886C118.394 426.885 118.513 426.798 118.594 426.716C118.738 426.568 118.839 426.379 118.965 426.149C119.334 425.461 119.85 424.425 120.908 423.824C121.099 423.713 122.288 423.061 123.717 423.064C124.067 423.064 124.43 423.102 124.799 423.195C127.032 423.748 128.805 426.174 128.834 429.188L128.84 429.753L129.282 429.387L129.106 429.185L129.378 429.182C129.344 425.977 127.47 423.323 124.935 422.68C124.517 422.575 124.107 422.532 123.717 422.532C122.122 422.535 120.863 423.236 120.633 423.365C119.698 423.898 119.153 424.703 118.783 425.35C118.6 425.674 118.457 425.963 118.343 426.152C118.286 426.246 118.235 426.316 118.204 426.346L118.187 426.361L118.19 426.365L118.189 426.361H118.187L118.19 426.365L118.189 426.361L118.227 426.453V426.355L118.189 426.361L118.227 426.453V426.355V426.463L118.238 426.355H118.227V426.463L118.238 426.355C117.683 426.304 117.182 426.28 116.729 426.28C115.189 426.28 114.194 426.554 113.559 427.01C112.92 427.466 112.696 428.112 112.701 428.704C112.708 429.852 113.431 430.884 113.439 430.905L113.666 430.758L113.546 430.519C112.794 430.881 112.289 431.315 111.974 431.784C111.659 432.251 111.542 432.748 111.542 433.208C111.55 434.479 112.378 435.49 112.389 435.512L112.604 435.349L112.363 435.225C112.362 435.228 112.019 435.865 111.966 435.973C111.801 436.31 111.725 436.674 111.725 437.038L111.727 437.128C111.755 437.915 112.098 438.649 112.532 439.257C113.324 440.361 114.494 440.993 115.733 441.406C117.292 441.926 118.978 442.169 120.651 442.169C121.558 442.169 122.461 442.097 123.337 441.958C126.7 441.427 128.365 439.496 129.556 438.546L129.383 438.341L129.233 438.563C129.799 438.919 130.664 439.112 131.345 439.117C131.609 439.115 131.843 439.089 132.046 439C132.927 438.602 133.444 437.719 133.464 436.794C133.472 436.393 133.479 435.886 133.479 435.318C133.479 434.316 133.457 433.127 133.38 432.01C133.301 430.89 133.17 429.848 132.94 429.11C132.805 428.681 132.596 428.365 132.324 428.162C132.054 427.957 131.733 427.877 131.424 427.878C130.804 427.882 130.197 428.166 129.729 428.436C129.262 428.708 128.938 428.976 128.931 428.982L129.106 429.185Z" fill="#313338"/>
<path d="M113.665 430.941L116.406 431.649L116.496 430.955L113.755 430.247" fill="#313338"/>
<path d="M112.25 435.6L115.729 435.857L115.788 435.413L112.309 435.156" fill="#313338"/>
<path d="M117.911 426.72L122.786 427.442L122.865 426.761L117.991 426.039" fill="#313338"/>
<path d="M128.525 428.87L128.662 432.351L129.233 432.324L129.097 428.844" fill="#313338"/>
<path d="M129.233 435.898L129.377 438.662L129.941 438.621L129.796 435.857" fill="#313338"/>
<path d="M117.209 429.152C117.104 429.616 118.507 429.701 118.613 429.237C118.719 428.774 117.315 428.689 117.209 429.152Z" fill="#313338"/>
<path d="M117.209 434.061C117.103 434.525 118.508 434.61 118.613 434.146C118.719 433.683 117.316 433.598 117.209 434.061Z" fill="#313338"/>
<path d="M116.501 438.971C116.395 439.434 117.799 439.519 117.905 439.055C118.011 438.592 116.607 438.507 116.501 438.971Z" fill="#313338"/>
<path d="M78.8432 -35.5654C75.1425 -40.0513 69.135 -41.1997 63.4121 -35.9562C65.0754 -46.9331 59.9494 -55.3439 55.8975 -57.8119C48.0409 -62.5974 41.2848 -55.2837 36.8632 -45.3075C36.8632 -45.3075 30.8579 -59.7635 20.2698 -53.9067C8.90869 -47.6218 11.4665 -30.149 11.4665 -30.149C3.27621 -32.5983 -4.65345 -32.1178 -7.88469 -19.1265C-9.57968 -12.3105 -7.13556 -0.0149245 -2.1387 3.16809C-7.75926 3.30964 -12.2909 12.8796 -12.2781 19.4917C-12.2618 27.7389 -8.68217 35.2972 -3.30557 38.3573C-1.76709 39.2333 -0.137497 39.7575 1.49843 39.9391C5.51548 40.3837 11.3711 35.3497 11.3711 35.3497C11.2822 39.6304 13.4113 44.4245 15.5968 47.1855C21.2785 54.3654 29.8044 48.9773 32.8377 40.8218C38.0235 45.9527 44.6031 46.7579 49.9452 42.8694C57.092 37.6664 58.3756 26.7188 58.503 25.504C58.5767 25.2465 60.727 25.4426 60.9505 25.4384C62.2388 25.4146 63.5218 25.3891 64.795 25.1245C67.6503 24.529 70.396 22.8175 72.1184 19.4193C73.6357 16.4241 74.1053 12.5691 73.5378 8.89685C73.0393 5.66631 71.8729 2.62014 70.2864 0.198659C70.2864 0.198659 77.2232 -2.41573 79.7802 -6.78392C81.954 -10.4971 83.3217 -14.4969 83.4299 -19.4693C83.5589 -25.4076 82.1129 -31.6008 78.8432 -35.5654Z" fill="#36347F"/>
<path d="M43.3124 34.7412C41.0567 34.5818 38.7292 34.8795 35.2617 34.165C34.3953 33.9861 33.6678 33.9486 32.8691 33.7526C29.9935 33.0473 26.8296 31.4761 24.9822 30.8024L24.6727 31.2415C26.568 31.9329 29.7821 34.0214 32.7335 34.7454C33.5536 34.9465 34.2877 34.987 35.177 35.1708C38.7358 35.904 41.1702 35.1202 43.4857 35.2838L43.3124 34.7412Z" fill="#313338"/>
<path d="M218.269 165.156C216.571 163.098 213.814 162.571 211.188 164.977C211.951 159.94 209.599 156.08 207.74 154.948C204.135 152.752 201.035 156.108 199.006 160.686C199.006 160.686 196.25 154.052 191.392 156.74C186.178 159.624 187.352 167.641 187.352 167.641C183.594 166.518 179.955 166.738 178.472 172.699C177.695 175.827 178.816 181.469 181.109 182.929C178.53 182.994 176.451 187.386 176.456 190.42C176.464 194.204 178.107 197.672 180.574 199.076C181.28 199.478 182.027 199.719 182.778 199.802C184.621 200.006 187.308 197.696 187.308 197.696C187.267 199.661 188.244 201.86 189.247 203.127C191.854 206.422 195.767 203.949 197.158 200.207C199.538 202.562 202.557 202.931 205.008 201.147C208.288 198.759 208.877 193.736 208.935 193.178C208.969 193.06 209.956 193.15 210.058 193.148C210.65 193.137 211.238 193.126 211.822 193.004C213.133 192.731 214.393 191.946 215.183 190.386C215.879 189.012 216.095 187.243 215.834 185.558C215.605 184.076 215.07 182.678 214.342 181.567C214.342 181.567 217.525 180.367 218.699 178.363C219.696 176.659 220.324 174.824 220.373 172.542C220.433 169.817 219.769 166.975 218.269 165.156Z" fill="#542151"/>
<path d="M55.661 53.9912C53.4306 54.4793 53.1873 54.7835 53.0098 57.3116C52.5473 54.8208 52.2715 54.5466 50 54.3204C52.2312 53.833 52.4737 53.5281 52.6512 51C53.1144 53.4908 53.3902 53.765 55.661 53.9912Z" fill="white"/>
<path d="M33.0341 15.8223C33.0609 16.2124 33.0823 16.5934 33.095 16.9753C33.1848 19.3361 33.0415 21.5468 32.7094 23.4504C32.2403 23.2306 31.7463 23.0484 31.2288 22.9125C30.1958 22.6232 29.1886 22.6562 28.0228 22.7361C27.6161 22.7634 27.0925 22.8059 26.7076 22.8815C25.4831 23.1047 24.3887 23.5592 23.4312 24.1556C22.6712 22.1508 22.1046 19.5842 21.9224 16.9283C21.398 9.30823 24.0906 2.57167 26.9328 2.37767C27.0729 2.36819 27.2098 2.3725 27.3473 2.39426C30.0383 2.76852 32.5351 8.57054 33.0341 15.8223Z" fill="white"/>
<path d="M26.5439 3.89823C26.4227 3.90636 26.3027 3.93275 26.1884 3.9756C24.2212 4.61128 23.3154 8.9626 23.586 14.8075L29.4883 15.5556L23.7571 17.0928C24.0172 19.4656 24.5734 21.9411 25.4736 23.6887C25.9914 23.5466 26.531 23.457 27.0924 23.4187C28.8389 23.2997 30.5291 23.4683 31.8651 24.2646C31.8821 24.1837 32.1539 22.0447 32.2351 20.8687C32.3288 19.474 32.2192 17.3698 32.1103 15.7846C31.6447 9.04245 28.8382 3.74204 26.5439 3.89823Z" fill="#313338"/>
<path d="M19.6666 6.7464C19.6796 6.7576 20.1164 7.16822 20.8034 7.39236C21.4891 7.61923 22.4362 7.63638 23.3753 6.86825L23.1364 6.58093C22.2709 7.27957 21.4796 7.24515 20.8786 7.05364C20.5788 6.95652 20.3291 6.81521 20.1559 6.69883C20.0691 6.6408 20.0016 6.58885 19.9566 6.5522L19.9067 6.51008L19.8923 6.49732L19.6666 6.7464Z" fill="#313338"/>
<path d="M20.1966 5.46855C20.2098 5.47949 20.6528 5.88449 21.3922 6.06122C22.129 6.24029 23.1767 6.16461 24.2938 5.23191L24.0573 4.94226C23.0291 5.79131 22.1557 5.83262 21.5088 5.68334C21.1863 5.60714 20.9238 5.47765 20.7434 5.3678C20.653 5.31307 20.5834 5.26305 20.5373 5.2275L20.4861 5.18648L20.4718 5.17437L20.1966 5.46855Z" fill="#313338"/>
<path d="M22.5638 2.83169C22.5742 2.84535 22.9132 3.34057 23.5927 3.6811C24.2694 4.02378 25.3071 4.18857 26.6072 3.53517L26.443 3.19931C25.2482 3.79108 24.3888 3.63272 23.7926 3.34028C23.4958 3.19215 23.2697 3.00626 23.1192 2.85822C23.0436 2.78434 22.9875 2.72025 22.9507 2.67512L22.91 2.62307L22.8988 2.60802L22.5638 2.83169Z" fill="#313338"/>
<path d="M35.8171 17.8117C35.7879 18.2017 35.7641 18.5825 35.7491 18.9643C35.6447 21.3245 35.7744 23.536 36.0947 25.4417C36.5652 25.2248 37.0603 25.0457 37.5786 24.913C38.6134 24.63 39.6204 24.6692 40.7857 24.7563C41.1922 24.7861 41.7155 24.8318 42.1 24.9098C43.323 25.1405 44.4146 25.6018 45.3684 26.2041C46.1408 24.204 46.7232 21.6409 46.9218 18.9862C47.4931 11.3695 44.8421 4.61649 42.0012 4.40498C41.8611 4.39464 41.7242 4.3981 41.5865 4.41901C38.8933 4.77668 36.3608 10.5632 35.8171 17.8117Z" fill="white"/>
<path d="M42.3805 5.92787C42.5017 5.93674 42.6215 5.96387 42.7356 6.00743C44.6987 6.65522 45.5777 11.012 45.2711 16.8552L39.3643 17.5669L45.0859 19.1394C44.8112 21.5105 44.2398 23.9825 43.3288 25.7245C42.8119 25.5793 42.2729 25.4863 41.7117 25.4446C39.966 25.3148 38.2748 25.473 36.9339 26.2611C36.9174 26.1801 36.6588 24.0394 36.5848 22.8629C36.4997 21.4677 36.6223 19.3642 36.741 17.7797C37.2481 11.0406 40.0873 5.75754 42.3805 5.92787Z" fill="#313338"/>
<path d="M49.2401 8.81832C49.2271 8.82943 48.7878 9.23736 48.0994 9.45726C47.4123 9.67989 46.4652 9.69121 45.5308 8.9173L45.7715 8.63146C46.6327 9.33542 47.4242 9.30589 48.0263 9.11808C48.3267 9.02281 48.5772 8.88304 48.7512 8.76773C48.8383 8.71024 48.9062 8.6587 48.9513 8.62233L49.0016 8.58052L49.0161 8.56785L49.2401 8.81832Z" fill="#313338"/>
<path d="M48.718 7.53723C48.7047 7.54809 48.2592 7.95035 47.5188 8.12252C46.7809 8.29704 45.7337 8.21491 44.6223 7.27534L44.8606 6.98716C45.8836 7.84253 46.7567 7.88922 47.4045 7.74393C47.7275 7.66972 47.9908 7.54185 48.1718 7.43311C48.2625 7.37894 48.3325 7.32935 48.3788 7.29409L48.4303 7.25338L48.4447 7.24136L48.718 7.53723Z" fill="#313338"/>
<path d="M46.3676 4.88575C46.3571 4.89934 46.0151 5.39246 45.3335 5.7288C44.6547 6.0673 43.616 6.22569 42.32 5.5643L42.4863 5.22945C43.6773 5.82857 44.5377 5.67552 45.1357 5.38675C45.4335 5.24045 45.6607 5.05596 45.8121 4.90885C45.8881 4.83544 45.9446 4.77169 45.9817 4.7268L46.0228 4.67499L46.034 4.66001L46.3676 4.88575Z" fill="#313338"/>
</g>
<defs>
<linearGradient id="paint0_linear_633_8799" x1="104" y1="-427.477" x2="104" y2="485.874" gradientUnits="userSpaceOnUse">
<stop stop-color="#5F11FB"/>
<stop offset="0.0001" stop-color="#271940"/>
<stop offset="0.0002" stop-color="#341B55"/>
<stop offset="1" stop-color="#341B55"/>
</linearGradient>
<linearGradient id="paint1_linear_633_8799" x1="92.4365" y1="430.597" x2="113.665" y2="430.597" gradientUnits="userSpaceOnUse">
<stop stop-color="#1F4037"/>
<stop offset="1" stop-color="#99F2C8"/>
</linearGradient>
<linearGradient id="paint2_linear_633_8799" x1="67.6694" y1="363.623" x2="77.5762" y2="363.623" gradientUnits="userSpaceOnUse">
<stop stop-color="#2A2D3E"/>
<stop offset="1" stop-color="#FECB6E"/>
</linearGradient>
<linearGradient id="paint3_linear_633_8799" x1="75.4536" y1="451.286" x2="88.1909" y2="451.286" gradientUnits="userSpaceOnUse">
<stop stop-color="#1F4037"/>
<stop offset="1" stop-color="#99F2C8"/>
</linearGradient>
<linearGradient id="paint4_linear_633_8799" x1="132.771" y1="410.26" x2="141.97" y2="410.26" gradientUnits="userSpaceOnUse">
<stop stop-color="#6025F5"/>
<stop offset="1" stop-color="#FF5555"/>
</linearGradient>
<linearGradient id="paint5_linear_633_8799" x1="91.021" y1="382.208" x2="132.063" y2="382.208" gradientUnits="userSpaceOnUse">
<stop stop-color="#1F4037"/>
<stop offset="1" stop-color="#99F2C8"/>
</linearGradient>
<linearGradient id="paint6_linear_633_8799" x1="42.1948" y1="420.078" x2="64.1313" y2="420.078" gradientUnits="userSpaceOnUse">
<stop stop-color="#6025F5"/>
<stop offset="1" stop-color="#FF5555"/>
</linearGradient>
<linearGradient id="paint7_linear_633_8799" x1="75.4536" y1="418.675" x2="96.6824" y2="418.675" gradientUnits="userSpaceOnUse">
<stop stop-color="#6025F5"/>
<stop offset="1" stop-color="#FF5555"/>
</linearGradient>
<linearGradient id="paint8_linear_633_8799" x1="69.7925" y1="406.052" x2="74.0382" y2="406.052" gradientUnits="userSpaceOnUse">
<stop stop-color="#2A2D3E"/>
<stop offset="1" stop-color="#FECB6E"/>
</linearGradient>
<clipPath id="clip0_633_8799">
<path d="M0 4.00001C0 1.79087 1.79086 0 4 0H208V450H4C1.79086 450 0 448.209 0 446V4.00001Z" fill="white"/>
</clipPath>
</defs>
</svg>
