<svg width="1339" height="696" viewBox="0 0 1339 696" fill="none" xmlns="http://www.w3.org/2000/svg">
<circle cx="736.991" cy="572.205" r="3.62757" fill="white" fill-opacity="0.25"/>
<circle cx="604.5" cy="306.5" r="3.5" fill="white" fill-opacity="0.25"/>
<circle cx="156.5" cy="480.5" r="2.5" fill="white" fill-opacity="0.25"/>
<circle cx="211.446" cy="78.4015" r="2.26723" fill="white" fill-opacity="0.25"/>
<circle cx="1252.36" cy="170.36" r="1.36034" fill="white" fill-opacity="0.25"/>
<circle cx="43.3603" cy="131.36" r="1.36034" fill="white" fill-opacity="0.25"/>
<circle cx="26.3603" cy="500.36" r="1.36034" fill="white" fill-opacity="0.25"/>
<circle cx="820.814" cy="401.814" r="1.81379" fill="white" fill-opacity="0.25"/>
<circle cx="248.814" cy="134.814" r="1.81379" fill="white" fill-opacity="0.25"/>
<circle cx="346.814" cy="668.814" r="1.81379" fill="white" fill-opacity="0.25"/>
<circle cx="380.814" cy="263.814" r="1.81379" fill="white" fill-opacity="0.25"/>
<circle cx="1210.81" cy="63.8138" r="1.81379" fill="white" fill-opacity="0.25"/>
<circle cx="730.814" cy="280.814" r="1.81379" fill="white" fill-opacity="0.25"/>
<circle cx="391.814" cy="693.814" r="1.81379" fill="white" fill-opacity="0.25"/>
<circle cx="599" cy="493" r="2" fill="white" fill-opacity="0.25"/>
<circle cx="661.628" cy="688.628" r="3.62757" fill="white" fill-opacity="0.25"/>
<circle cx="3.62757" cy="657.628" r="3.62757" fill="white" fill-opacity="0.25"/>
<circle cx="47.2672" cy="371.267" r="2.26723" fill="white" fill-opacity="0.25"/>
<circle cx="393.732" cy="431.183" r="3.17413" fill="white" fill-opacity="0.25"/>
<circle cx="1015.17" cy="176.174" r="3.17413" fill="white" fill-opacity="0.25"/>
<circle cx="1247.5" cy="621.5" r="1.5" fill="white" fill-opacity="0.25"/>
<circle cx="559.721" cy="96.7207" r="2.72068" fill="white" fill-opacity="0.25"/>
<circle cx="278.267" cy="603.267" r="2.26723" fill="white" fill-opacity="0.25"/>
<circle cx="134.814" cy="267.489" r="1.81379" fill="white" fill-opacity="0.25"/>
<circle cx="1241.5" cy="436.5" r="2.5" fill="white" fill-opacity="0.25"/>
<circle cx="1047" cy="124" r="3" fill="white" fill-opacity="0.25"/>
<circle cx="1083" cy="653" r="2" fill="white" fill-opacity="0.25"/>
<circle cx="1022.08" cy="402.081" r="4.08102" fill="white" fill-opacity="0.25"/>
<circle cx="951" cy="684" r="3" fill="white" fill-opacity="0.25"/>
<circle cx="313.018" cy="22.1741" r="3.17413" fill="white" fill-opacity="0.25"/>
<circle cx="744.174" cy="3.17413" r="3.17413" fill="white" fill-opacity="0.25"/>
</svg>
