<svg width="18" height="18" viewBox="0 0 18 18" fill="none" xmlns="http://www.w3.org/2000/svg">
<g clip-path="url(#clip0_1382_396)">
<path d="M9 0C4.03272 0 0 4.03272 0 9C0 13.9673 4.03272 18 9 18C13.9583 18 17.984 13.9817 17.9986 9.02664C17.9995 9.01779 18 9.0089 18 9C18 8.99201 17.9996 8.98402 17.9989 8.97606C17.986 4.01976 13.9594 0 9 0ZM9 0.54C9.0846 0.54 9.16812 0.54378 9.252 0.5463C9.9216 0.71064 10.4499 0.8514 10.6034 1.503C11.3162 1.94436 12.0211 2.33892 12.5152 2.988C12.1216 3.1032 11.5436 2.91168 11.6296 2.44224C11.3719 2.79882 11.239 2.6406 10.8886 2.63538C11.1622 2.6955 11.2712 3.25692 11.6251 2.93382C12.0512 3.36042 11.0432 3.55716 10.8306 3.39534C10.2866 3.44574 10.9375 3.99816 10.2847 3.95712C9.77202 4.35204 10.154 5.0157 9.42966 5.20074C8.5203 5.47128 9.85212 6.6807 8.94348 6.82848C8.90784 6.4422 8.65908 5.75568 8.08452 5.76558C7.53678 6.1506 6.33672 5.48802 6.23574 6.56478C5.84658 7.08948 6.28776 8.2017 6.99084 7.8075C7.1244 7.4286 8.2458 6.9264 7.96104 7.65954C7.8471 8.118 7.51932 8.5419 8.17272 8.38062C9.09198 8.41914 8.44002 9.19692 8.75772 9.64476C9.11412 9.84546 9.65844 9.76914 10.0231 9.75204C10.1164 9.14238 11.0851 9.1791 11.1449 9.15534C11.246 8.90262 11.729 9.16146 11.6528 9.4374C12.2661 9.42408 12.1241 9.063 12.6981 9.3357C13.1643 8.90388 12.8169 9.8397 13.383 9.90486C13.7608 10.2839 14.6205 9.93114 14.6977 10.7366C14.9051 11.5033 16.0414 11.0313 16.4099 11.5654C16.3886 12.386 15.6953 12.9703 15.4807 13.7398C15.1387 14.5958 14.144 14.7924 13.6951 15.5516C13.0514 16.1348 12.3307 16.5548 11.5576 16.906C11.4055 16.9927 11.1485 17.1173 10.9251 17.2375C10.5043 17.3353 10.0766 17.4006 9.64584 17.433C9.72936 17.2085 10.1234 16.9416 10.1984 16.7105C10.4864 16.0841 11.3585 15.1148 10.5919 14.5715C10.0238 14.4718 9.85194 13.9525 9.58086 13.5671C9.4095 13.0505 8.65746 12.6621 9.07488 12.1747C8.8776 11.7016 9.52974 11.261 9.73908 10.8675C9.80388 10.447 9.38988 9.7749 9.16272 10.3329C8.69814 10.1894 8.13132 9.88758 7.96536 9.39978C7.4718 9.07488 6.78744 8.72442 6.31026 8.4969C5.71518 8.52444 5.17194 8.09316 4.73796 7.7337C4.69584 7.10802 4.32342 6.3351 4.023 5.9319C4.29534 6.3522 4.25376 7.48422 3.81546 6.5403C3.68946 6.1119 3.62592 5.55228 3.6 5.07474C3.27312 4.85442 3.42486 3.8961 3.7449 3.49668C4.1022 3.21768 4.39254 2.39094 4.37418 2.2518C4.1724 2.32452 4.49622 1.97874 4.6512 1.74168C5.96458 0.953166 7.4681 0.537705 9 0.54ZM10.2213 0.62892C10.7642 0.707286 11.2981 0.838592 11.8154 1.02096C11.8231 1.04076 11.831 1.06092 11.842 1.08396C12.6128 1.96146 11.0495 1.16928 10.7244 0.90666C10.6126 0.81108 10.4256 0.7119 10.2213 0.62892ZM9.17118 0.85176C8.97354 0.86184 8.81586 0.95976 9.07578 1.11024C8.91144 1.52712 7.90164 0.95184 7.89012 1.575C8.20296 1.87974 8.86824 1.84824 9.1251 2.1555C8.90064 1.74402 9.48258 1.63674 9.3105 1.89486C9.27954 2.0772 9.53064 1.6146 9.27594 1.73952C9.19548 1.25298 8.92728 1.22382 9.48906 0.93582C9.423 0.8712 9.2898 0.84582 9.17118 0.85176ZM9.61848 6.30594C9.90594 6.31908 10.1554 6.91794 10.3241 6.92442C10.3415 6.86916 10.5374 7.51122 10.2791 7.25562C9.87372 7.15734 9.9504 6.34878 9.73728 7.00488C9.20304 7.01838 9.87426 6.37722 9.41382 6.40512C9.48366 6.33132 9.55206 6.3027 9.61848 6.30594ZM8.94726 6.9462C9.51768 6.96348 10.0606 7.6338 10.4888 7.33248C10.6499 7.45488 10.6916 7.75656 11.1892 7.68168C11.7999 7.88022 11.4653 8.1252 11.092 8.08308C10.9793 8.06634 10.9184 8.31024 10.8176 8.13474C10.5757 8.16246 10.0145 8.00784 10.4821 7.82928C10.4839 7.42518 9.63252 8.12844 9.62856 7.59888C9.24804 7.4637 8.99136 7.20198 8.67474 7.46964C8.49834 7.33068 8.0496 7.344 8.54892 7.0587C8.66682 6.9808 8.80603 6.94148 8.94726 6.9462ZM12.3865 7.89606C12.4531 7.87014 12.6234 8.21826 12.6835 7.96572C12.7998 8.27172 13.1103 9.10944 12.7003 9.15462C12.9132 8.70462 12.5638 8.29566 12.3599 7.9857C12.3617 7.9281 12.3712 7.902 12.3865 7.89606Z" fill="#2C3FE1"/>
</g>
<defs>
<clipPath id="clip0_1382_396">
<rect width="18" height="18" rx="9" fill="white"/>
</clipPath>
</defs>
</svg>
