<svg width="41" height="28" viewBox="0 0 41 28" fill="none" xmlns="http://www.w3.org/2000/svg">
<rect x="6.5" y="0.5" width="27" height="27" rx="5.5" fill="#FCBC34"/>
<rect x="6.5" y="0.5" width="27" height="27" rx="5.5" stroke="white"/>
<g style="mix-blend-mode:soft-light" opacity="0.4">
<path d="M20.0663 10.9145L19.3027 14.9283L20.0663 15.5379V10.9145Z" fill="#292B31"/>
</g>
<g filter="url(#filter0_f_2992_1637)">
<path d="M14.5167 12.4798H12.1202C11.124 12.4798 10.3164 13.2483 10.3164 14.1962C10.3164 15.1441 11.124 15.9125 12.1202 15.9125H14.5167C15.5129 15.9125 16.3204 15.1441 16.3204 14.1962C16.3204 13.2483 15.5129 12.4798 14.5167 12.4798Z" fill="#C140A3"/>
</g>
<g filter="url(#filter1_f_2992_1637)">
<path d="M28.3073 12.4798H25.9038C24.9095 12.4798 24.1035 13.2476 24.1035 14.1946V14.1977C24.1035 15.1448 24.9095 15.9125 25.9038 15.9125H28.3073C29.3015 15.9125 30.1075 15.1448 30.1075 14.1977V14.1946C30.1075 13.2476 29.3015 12.4798 28.3073 12.4798Z" fill="#C140A3"/>
</g>
<path d="M23.4168 21.0616C23.3575 21.0616 23.2994 21.0449 23.2497 21.0134C23.2 20.982 23.1608 20.9372 23.1368 20.8845C22.7612 20.172 22.6691 19.3501 22.8782 18.5759C23.0873 17.8017 23.5828 17.1294 24.2701 16.6877C24.9608 16.2362 25.7985 16.0476 26.6233 16.1578C27.4482 16.2681 28.2022 16.6695 28.7416 17.2854C28.7709 17.3459 28.7797 17.4139 28.7667 17.4796C28.7538 17.5453 28.7197 17.6053 28.6694 17.651C28.6191 17.6966 28.5551 17.7257 28.4868 17.7339C28.4184 17.742 28.3492 17.729 28.2889 17.6965C27.8467 17.1888 27.2274 16.8569 26.5493 16.7641C25.8711 16.6714 25.1816 16.8243 24.6121 17.1937C23.7197 17.7724 22.9414 19.0248 23.7002 20.6409C23.7272 20.7151 23.7248 20.7963 23.6935 20.8688C23.6622 20.9413 23.6042 20.9999 23.5308 21.0331C23.4952 21.0501 23.4564 21.0598 23.4168 21.0616Z" fill="#292B31"/>
<path d="M29.8842 9.27026C29.8842 7.7252 28.5899 6.47269 26.9934 6.47269C25.3968 6.47269 24.1025 7.7252 24.1025 9.27026V10.1114C24.1025 11.6565 25.3968 12.909 26.9934 12.909C28.5899 12.909 29.8842 11.6565 29.8842 10.1114V9.27026Z" fill="#292B31"/>
<path d="M26.0567 8.51813C26.3377 8.51813 26.5655 8.29835 26.5655 8.02724C26.5655 7.75613 26.3377 7.53635 26.0567 7.53635C25.7756 7.53635 25.5479 7.75613 25.5479 8.02724C25.5479 8.29835 25.7756 8.51813 26.0567 8.51813Z" fill="white"/>
<path opacity="0.1" d="M26.9994 10.4093C27.6532 10.4093 28.1833 9.89791 28.1833 9.26705C28.1833 8.6362 27.6532 8.12479 26.9994 8.12479C26.3455 8.12479 25.8154 8.6362 25.8154 9.26705C25.8154 9.89791 26.3455 10.4093 26.9994 10.4093Z" fill="white"/>
<path d="M16.3197 9.27026C16.3197 7.7252 15.0255 6.47269 13.4289 6.47269C11.8324 6.47269 10.5381 7.7252 10.5381 9.27026V10.1114C10.5381 11.6565 11.8324 12.909 13.4289 12.909C15.0255 12.909 16.3197 11.6565 16.3197 10.1114V9.27026Z" fill="#292B31"/>
<path d="M12.4922 8.51813C12.7732 8.51813 13.001 8.29835 13.001 8.02724C13.001 7.75613 12.7732 7.53635 12.4922 7.53635C12.2112 7.53635 11.9834 7.75613 11.9834 8.02724C11.9834 8.29835 12.2112 8.51813 12.4922 8.51813Z" fill="white"/>
<path opacity="0.1" d="M13.4349 10.4093C14.0888 10.4093 14.6189 9.89791 14.6189 9.26705C14.6189 8.6362 14.0888 8.12479 13.4349 8.12479C12.781 8.12479 12.251 8.6362 12.251 9.26705C12.251 9.89791 12.781 10.4093 13.4349 10.4093Z" fill="white"/>
<defs>
<filter id="filter0_f_2992_1637" x="0.316406" y="2.47983" width="26.0039" height="23.4327" filterUnits="userSpaceOnUse" color-interpolation-filters="sRGB">
<feFlood flood-opacity="0" result="BackgroundImageFix"/>
<feBlend mode="normal" in="SourceGraphic" in2="BackgroundImageFix" result="shape"/>
<feGaussianBlur stdDeviation="5" result="effect1_foregroundBlur_2992_1637"/>
</filter>
<filter id="filter1_f_2992_1637" x="14.1035" y="2.47983" width="26.0039" height="23.4327" filterUnits="userSpaceOnUse" color-interpolation-filters="sRGB">
<feFlood flood-opacity="0" result="BackgroundImageFix"/>
<feBlend mode="normal" in="SourceGraphic" in2="BackgroundImageFix" result="shape"/>
<feGaussianBlur stdDeviation="5" result="effect1_foregroundBlur_2992_1637"/>
</filter>
</defs>
</svg>
