<svg width="41" height="28" viewBox="0 0 41 28" fill="none" xmlns="http://www.w3.org/2000/svg">
<g filter="url(#filter0_i_2115_3943)">
<path d="M34 6.61579V21.3746C34.0008 22.2443 33.8303 23.1057 33.498 23.9095C33.1657 24.7133 32.6783 25.4438 32.0636 26.0591C31.4489 26.6744 30.7189 27.1625 29.9155 27.4955C29.112 27.8286 28.2508 28 27.381 28H12.6222C10.8667 27.9992 9.1833 27.3016 7.94167 26.0606C6.70005 24.8196 6.0017 23.1365 6 21.381V6.62221C5.99916 5.7526 6.16977 4.89136 6.50206 4.08774C6.83436 3.28413 7.32183 2.55391 7.93659 1.93885C8.55134 1.3238 9.28133 0.835976 10.0848 0.503289C10.8882 0.170602 11.7494 -0.00042136 12.619 7.79573e-07H27.3778C28.247 -0.00042066 29.1078 0.170367 29.911 0.502614C30.7142 0.834861 31.4441 1.32206 32.0591 1.93639C32.674 2.55072 33.1619 3.28016 33.4949 4.08305C33.828 4.88595 33.9996 5.74657 34 6.61579Z" fill="#FCBC34"/>
</g>
<path d="M34 21.3746V6.61579C33.9996 5.74657 33.828 4.88595 33.4949 4.08305C33.1619 3.28016 32.674 2.55072 32.0591 1.93639C31.4441 1.32206 30.7142 0.834861 29.911 0.502614C29.1078 0.170367 28.247 -0.00042066 27.3778 0L34 21.3746ZM34 21.3746C34.0008 22.2443 33.8303 23.1057 33.498 23.9095C33.1657 24.7133 32.6783 25.4438 32.0636 26.0591C31.4489 26.6744 30.7189 27.1625 29.9155 27.4955C29.112 27.8286 28.2508 28 27.381 28H12.6222L34 21.3746ZM33.0331 4.27462C33.3409 5.01686 33.4996 5.81247 33.5 6.61603V21.3746V21.3751C33.5008 22.1791 33.3431 22.9755 33.0359 23.7185C32.7288 24.4616 32.2782 25.1369 31.7099 25.7057C31.1416 26.2745 30.4668 26.7258 29.724 27.0337C28.9812 27.3415 28.1851 27.5 27.381 27.5H12.6224C10.9994 27.4992 9.44307 26.8543 8.29514 25.707C7.14727 24.5596 6.50164 23.0037 6.5 21.3808L6.5 6.62221L6.5 6.62172C6.49922 5.81784 6.65694 5.02168 6.96412 4.2788C7.2713 3.53592 7.72193 2.86089 8.29023 2.29232C8.85852 1.72375 9.53333 1.2728 10.2761 0.965252C11.0188 0.657709 11.8149 0.49961 12.6188 0.500001H12.619L27.3778 0.500001L27.378 0.500001C28.1816 0.499611 28.9774 0.657498 29.7199 0.964646C30.4624 1.2718 31.1372 1.72219 31.7057 2.29012C32.2742 2.85804 32.7252 3.53238 33.0331 4.27462Z" stroke="white"/>
<g style="mix-blend-mode:soft-light" opacity="0.4">
<path d="M20.0663 10.9145L19.3027 14.9283L20.0663 15.5379V10.9145Z" fill="#292B31"/>
</g>
<g filter="url(#filter1_f_2115_3943)">
<path d="M14.5167 12.4798H12.1202C11.124 12.4798 10.3164 13.2483 10.3164 14.1962C10.3164 15.1441 11.124 15.9125 12.1202 15.9125H14.5167C15.5129 15.9125 16.3204 15.1441 16.3204 14.1962C16.3204 13.2483 15.5129 12.4798 14.5167 12.4798Z" fill="#C140A3"/>
</g>
<g filter="url(#filter2_f_2115_3943)">
<path d="M28.3073 12.4798H25.9038C24.9095 12.4798 24.1035 13.2476 24.1035 14.1946V14.1977C24.1035 15.1448 24.9095 15.9125 25.9038 15.9125H28.3073C29.3015 15.9125 30.1075 15.1448 30.1075 14.1977V14.1946C30.1075 13.2476 29.3015 12.4798 28.3073 12.4798Z" fill="#C140A3"/>
</g>
<path d="M23.4168 21.0616C23.3575 21.0616 23.2994 21.0449 23.2497 21.0134C23.2 20.982 23.1608 20.9372 23.1368 20.8845C22.7612 20.172 22.6691 19.3501 22.8782 18.5759C23.0873 17.8017 23.5828 17.1294 24.2701 16.6877C24.9608 16.2362 25.7985 16.0476 26.6233 16.1578C27.4482 16.2681 28.2022 16.6695 28.7416 17.2854C28.7709 17.3459 28.7797 17.4139 28.7667 17.4796C28.7538 17.5453 28.7197 17.6053 28.6694 17.651C28.6191 17.6966 28.5551 17.7257 28.4868 17.7339C28.4184 17.742 28.3492 17.729 28.2889 17.6965C27.8467 17.1888 27.2274 16.8569 26.5493 16.7641C25.8711 16.6714 25.1816 16.8243 24.6121 17.1937C23.7197 17.7724 22.9414 19.0248 23.7002 20.6409C23.7272 20.7151 23.7248 20.7963 23.6935 20.8688C23.6622 20.9413 23.6042 20.9999 23.5308 21.0331C23.4952 21.0501 23.4564 21.0598 23.4168 21.0616Z" fill="#292B31"/>
<path d="M29.8842 9.27026C29.8842 7.7252 28.5899 6.47269 26.9934 6.47269C25.3968 6.47269 24.1025 7.7252 24.1025 9.27026V10.1114C24.1025 11.6565 25.3968 12.909 26.9934 12.909C28.5899 12.909 29.8842 11.6565 29.8842 10.1114V9.27026Z" fill="#292B31"/>
<path d="M26.0567 8.51813C26.3377 8.51813 26.5655 8.29835 26.5655 8.02724C26.5655 7.75613 26.3377 7.53635 26.0567 7.53635C25.7756 7.53635 25.5479 7.75613 25.5479 8.02724C25.5479 8.29835 25.7756 8.51813 26.0567 8.51813Z" fill="white"/>
<path opacity="0.1" d="M26.9994 10.4093C27.6532 10.4093 28.1833 9.89791 28.1833 9.26705C28.1833 8.6362 27.6532 8.12479 26.9994 8.12479C26.3455 8.12479 25.8154 8.6362 25.8154 9.26705C25.8154 9.89791 26.3455 10.4093 26.9994 10.4093Z" fill="white"/>
<path d="M16.3197 9.27026C16.3197 7.7252 15.0255 6.47269 13.4289 6.47269C11.8324 6.47269 10.5381 7.7252 10.5381 9.27026V10.1114C10.5381 11.6565 11.8324 12.909 13.4289 12.909C15.0255 12.909 16.3197 11.6565 16.3197 10.1114V9.27026Z" fill="#292B31"/>
<path d="M12.4922 8.51813C12.7732 8.51813 13.001 8.29835 13.001 8.02724C13.001 7.75613 12.7732 7.53635 12.4922 7.53635C12.2112 7.53635 11.9834 7.75613 11.9834 8.02724C11.9834 8.29835 12.2112 8.51813 12.4922 8.51813Z" fill="white"/>
<path opacity="0.1" d="M13.4349 10.4093C14.0888 10.4093 14.6189 9.89791 14.6189 9.26705C14.6189 8.6362 14.0888 8.12479 13.4349 8.12479C12.781 8.12479 12.251 8.6362 12.251 9.26705C12.251 9.89791 12.781 10.4093 13.4349 10.4093Z" fill="white"/>
<defs>
<filter id="filter0_i_2115_3943" x="6" y="0" width="28" height="28" filterUnits="userSpaceOnUse" color-interpolation-filters="sRGB">
<feFlood flood-opacity="0" result="BackgroundImageFix"/>
<feBlend mode="normal" in="SourceGraphic" in2="BackgroundImageFix" result="shape"/>
<feColorMatrix in="SourceAlpha" type="matrix" values="0 0 0 0 0 0 0 0 0 0 0 0 0 0 0 0 0 0 127 0" result="hardAlpha"/>
<feOffset dx="-6" dy="-6"/>
<feComposite in2="hardAlpha" operator="arithmetic" k2="-1" k3="1"/>
<feColorMatrix type="matrix" values="0 0 0 0 0 0 0 0 0 0 0 0 0 0 0 0 0 0 0.04 0"/>
<feBlend mode="normal" in2="shape" result="effect1_innerShadow_2115_3943"/>
</filter>
<filter id="filter1_f_2115_3943" x="0.316406" y="2.47983" width="26.0039" height="23.4327" filterUnits="userSpaceOnUse" color-interpolation-filters="sRGB">
<feFlood flood-opacity="0" result="BackgroundImageFix"/>
<feBlend mode="normal" in="SourceGraphic" in2="BackgroundImageFix" result="shape"/>
<feGaussianBlur stdDeviation="5" result="effect1_foregroundBlur_2115_3943"/>
</filter>
<filter id="filter2_f_2115_3943" x="14.1035" y="2.47983" width="26.0039" height="23.4327" filterUnits="userSpaceOnUse" color-interpolation-filters="sRGB">
<feFlood flood-opacity="0" result="BackgroundImageFix"/>
<feBlend mode="normal" in="SourceGraphic" in2="BackgroundImageFix" result="shape"/>
<feGaussianBlur stdDeviation="5" result="effect1_foregroundBlur_2115_3943"/>
</filter>
</defs>
</svg>
