<svg width="28" height="29" viewBox="0 0 28 29" fill="none" xmlns="http://www.w3.org/2000/svg">
<rect x="0.5" y="1" width="27" height="27" rx="5.5" fill="#D84BE5"/>
<rect x="0.5" y="1" width="27" height="27" rx="5.5" stroke="white"/>
<g style="mix-blend-mode:soft-light" opacity="0.4">
<path d="M14.0663 11.4145L13.3027 15.4282L14.0663 16.0378V11.4145Z" fill="#292B31"/>
</g>
<path fill-rule="evenodd" clip-rule="evenodd" d="M6.125 16.9062C8.36585 24.0549 19.6277 23.756 21.875 16.9062C16.6851 18.0469 11.3149 18.0469 6.125 16.9062Z" fill="#2B1607"/>
<path d="M13.9307 22.375H13.7896C9.98065 22.3222 6.8899 20.199 5.91522 16.963C5.90478 16.9273 5.90343 16.8894 5.91129 16.853C5.91915 16.8165 5.93596 16.7828 5.9601 16.755C5.98537 16.7281 6.01687 16.7082 6.05164 16.6972C6.0864 16.6862 6.12331 16.6845 6.15889 16.6923C11.3288 17.8399 16.6768 17.8399 21.8467 16.6923C21.8821 16.6846 21.9188 16.6866 21.9531 16.6982C21.9875 16.7098 22.0182 16.7305 22.0423 16.7583C22.0659 16.7871 22.0821 16.8215 22.0894 16.8585C22.0967 16.8954 22.0948 16.9336 22.084 16.9696C20.9843 20.2683 17.7973 22.375 13.9307 22.375ZM6.41538 17.1909C7.45098 20.0636 10.3013 21.9028 13.7896 21.9523C17.4126 22.0052 20.4039 20.1461 21.5582 17.1909C16.5627 18.247 11.4109 18.247 6.41538 17.1909Z" fill="#292B31"/>
<g style="mix-blend-mode:soft-light" opacity="0.4">
<path d="M10.0674 23.7387C11.1775 24.9611 16.2468 25.0413 17.4724 23.7387C15.0327 24.2698 12.5072 24.2698 10.0674 23.7387Z" fill="#422715"/>
<path d="M10.0674 23.7387C11.1775 24.9611 16.2468 25.0413 17.4724 23.7387C15.0327 24.2698 12.5072 24.2698 10.0674 23.7387Z" stroke="#292B31" stroke-width="1.58" stroke-miterlimit="10"/>
</g>
<path fill-rule="evenodd" clip-rule="evenodd" d="M14.1823 25.8749H13.5828C12.9973 25.8749 12.4357 25.6437 12.0217 25.2321C11.6076 24.8205 11.375 24.2623 11.375 23.6802V20.3032C11.375 19.8866 11.9874 19.4413 12.4418 19.547C13.3957 19.7708 14.3888 19.7708 15.3426 19.547C15.752 19.4637 16.4062 19.8866 16.4062 20.3032V23.6802C16.4063 23.9698 16.3486 24.2565 16.2367 24.5238C16.1247 24.7911 15.9606 25.0338 15.7539 25.2378C15.5472 25.4418 15.3019 25.6031 15.0322 25.7125C14.7624 25.8218 14.4736 25.8771 14.1823 25.8749Z" fill="#FE7354"/>
<path fill-rule="evenodd" clip-rule="evenodd" d="M13.6221 19.75C13.8306 20.5703 13.6938 22.5938 13.8682 22.5938C14.0425 22.5938 13.9844 20.622 14.1689 19.75H13.6221Z" fill="#A00707"/>
<path d="M21.3084 14.5H19.8673C17.7441 14.5 17.7441 14.516 17.7441 12.3768V11.4833C17.7437 11.1327 17.8124 10.7855 17.9463 10.4615C18.0802 10.1375 18.2766 9.84301 18.5243 9.59496C18.7721 9.34691 19.0663 9.15013 19.3902 9.01587C19.714 8.88161 20.0612 8.8125 20.4118 8.8125H20.764C21.1146 8.8125 21.4618 8.88161 21.7856 9.01587C22.1095 9.15013 22.4037 9.34691 22.6514 9.59496C22.8992 9.84301 23.0956 10.1375 23.2295 10.4615C23.3634 10.7855 23.4321 11.1327 23.4316 11.4833V12.3928C23.4252 14.516 23.4252 14.5 21.3084 14.5Z" fill="#292B31"/>
<path d="M19.6597 10.898C19.9361 10.898 20.1602 10.6739 20.1602 10.3975C20.1602 10.1211 19.9361 9.89697 19.6597 9.89697C19.3833 9.89697 19.1592 10.1211 19.1592 10.3975C19.1592 10.6739 19.3833 10.898 19.6597 10.898Z" fill="white"/>
<path opacity="0.1" d="M20.5865 12.8263C21.2298 12.8263 21.7512 12.3048 21.7512 11.6616C21.7512 11.0184 21.2298 10.4969 20.5865 10.4969C19.9433 10.4969 19.4219 11.0184 19.4219 11.6616C19.4219 12.3048 19.9433 12.8263 20.5865 12.8263Z" fill="white"/>
<path d="M4.77226 12.9688C4.73484 12.9683 4.69772 12.9619 4.66231 12.9495C4.61562 12.9349 4.57222 12.911 4.53461 12.8792C4.497 12.8474 4.46592 12.8084 4.44315 12.7643C4.42038 12.7202 4.40637 12.672 4.40193 12.6224C4.39749 12.5728 4.4027 12.5228 4.41726 12.4752C4.59519 11.8534 4.96806 11.3083 5.47875 10.9234C5.98943 10.5384 6.60976 10.3349 7.24467 10.344C7.87883 10.3381 8.49768 10.5428 9.00774 10.9273C9.5178 11.3117 9.89138 11.8551 10.0721 12.4752C10.1005 12.5717 10.0903 12.6757 10.0438 12.7646C9.99735 12.8534 9.91827 12.9199 9.82388 12.9495C9.77728 12.9648 9.72815 12.9705 9.67938 12.9662C9.6306 12.9618 9.58317 12.9476 9.53986 12.9243C9.49654 12.901 9.45823 12.8692 9.42716 12.8306C9.39609 12.792 9.3729 12.7474 9.35893 12.6995C9.22269 12.2333 8.94157 11.8249 8.55794 11.5359C8.17432 11.2469 7.70899 11.0929 7.2321 11.0972C6.75735 11.0957 6.29487 11.2509 5.91379 11.5397C5.5327 11.8286 5.25347 12.2354 5.11783 12.6995C5.09453 12.7753 5.0488 12.8419 4.98692 12.8901C4.92505 12.9383 4.85006 12.9658 4.77226 12.9688Z" fill="#292B31"/>
</svg>
