<svg width="28" height="28" viewBox="0 0 28 28" fill="none" xmlns="http://www.w3.org/2000/svg">
<rect x="0.5" y="0.5" width="27" height="27" rx="5.5" fill="#D84BE5"/>
<rect x="0.5" y="0.5" width="27" height="27" rx="5.5" stroke="white"/>
<g style="mix-blend-mode:soft-light" opacity="0.4">
<path d="M14.0663 10.9145L13.3027 14.9283L14.0663 15.5379V10.9145Z" fill="#292B31"/>
</g>
<path d="M14.1679 22.3125C10.5604 22.3125 6.51941 20.2986 6.12742 15.8885C6.11728 15.8079 6.13928 15.7267 6.18859 15.6625C6.23789 15.5984 6.31047 15.5566 6.39034 15.5464C6.47021 15.5361 6.55084 15.5583 6.61449 15.608C6.67814 15.6577 6.7196 15.7309 6.72974 15.8114C7.0803 19.8521 10.8281 21.6926 14.1679 21.6926C18.8877 21.6926 21.2492 18.7343 21.4978 15.8114C21.5035 15.7318 21.5402 15.6578 21.5999 15.6054C21.6597 15.553 21.7375 15.5266 21.8165 15.5319C21.8936 15.5421 21.9644 15.5804 22.0155 15.6396C22.0666 15.6987 22.0944 15.7747 22.0937 15.8531C21.7304 20.3082 17.7373 22.3093 14.1743 22.3125H14.1679Z" fill="#292B31"/>
<path d="M21.3151 13.9824H19.8713C17.7441 13.9824 17.7441 13.9984 17.7441 11.8552V11.1333C17.745 10.3779 18.0454 9.65372 18.5796 9.11959C19.1137 8.58547 19.8379 8.28503 20.5932 8.28418C21.3486 8.28503 22.0728 8.58547 22.6069 9.11959C23.141 9.65372 23.4415 10.3779 23.4423 11.1333V11.8712C23.4359 13.9984 23.4359 13.9824 21.3151 13.9824Z" fill="#292B31"/>
<path d="M19.6363 10.3941C19.9122 10.3941 20.1359 10.1704 20.1359 9.89451C20.1359 9.6186 19.9122 9.39493 19.6363 9.39493C19.3604 9.39493 19.1367 9.6186 19.1367 9.89451C19.1367 10.1704 19.3604 10.3941 19.6363 10.3941Z" fill="white"/>
<path opacity="0.1" d="M20.5619 12.3187C21.2039 12.3187 21.7244 11.7983 21.7244 11.1563C21.7244 10.5142 21.2039 9.99378 20.5619 9.99378C19.9199 9.99378 19.3994 10.5142 19.3994 11.1563C19.3994 11.7983 19.9199 12.3187 20.5619 12.3187Z" fill="white"/>
<path d="M7.97138 13.9824H6.52758C4.40039 13.9824 4.40039 13.9984 4.40039 11.8552V11.1333C4.40124 10.3779 4.70168 9.65372 5.23581 9.11959C5.76993 8.58547 6.49411 8.28503 7.24948 8.28418C8.00484 8.28503 8.72903 8.58547 9.26315 9.11959C9.79727 9.65372 10.0977 10.3779 10.0986 11.1333V11.8712C10.0922 13.9984 10.0922 13.9824 7.97138 13.9824Z" fill="#292B31"/>
<path d="M6.31595 10.398C6.59237 10.398 6.81646 10.1739 6.81646 9.89747C6.81646 9.62104 6.59237 9.39695 6.31595 9.39695C6.03952 9.39695 5.81543 9.62104 5.81543 9.89747C5.81543 10.1739 6.03952 10.398 6.31595 10.398Z" fill="white"/>
<path opacity="0.1" d="M7.24279 12.3263C7.88601 12.3263 8.40745 11.8048 8.40745 11.1616C8.40745 10.5184 7.88601 9.99693 7.24279 9.99693C6.59956 9.99693 6.07812 10.5184 6.07812 11.1616C6.07812 11.8048 6.59956 12.3263 7.24279 12.3263Z" fill="white"/>
</svg>
