<svg width="28" height="29" viewBox="0 0 28 29" fill="none" xmlns="http://www.w3.org/2000/svg">
<g filter="url(#filter0_i_2119_4844)">
<path d="M28 7.11579V21.8746C28.0008 22.7443 27.8303 23.6057 27.498 24.4095C27.1657 25.2133 26.6783 25.9438 26.0636 26.5591C25.4489 27.1744 24.7189 27.6625 23.9155 27.9955C23.112 28.3286 22.2508 28.5 21.381 28.5H6.62221C4.86671 28.4992 3.1833 27.8016 1.94167 26.5606C0.700046 25.3196 0.00170315 23.6365 3.113e-06 21.881V7.12221C-0.00084045 6.2526 0.169766 5.39136 0.502063 4.58774C0.834361 3.78413 1.32183 3.05391 1.93659 2.43885C2.55134 1.8238 3.28133 1.33598 4.08478 1.00329C4.88823 0.670602 5.74939 0.499579 6.619 0.500001H21.3778C22.247 0.499579 23.1078 0.670367 23.911 1.00261C24.7142 1.33486 25.4441 1.82206 26.0591 2.43639C26.674 3.05072 27.1619 3.78016 27.4949 4.58305C27.828 5.38595 27.9996 6.24657 28 7.11579Z" fill="#D84BE5"/>
</g>
<path d="M28 21.8746V7.11579C27.9996 6.24657 27.828 5.38595 27.4949 4.58305C27.1619 3.78016 26.674 3.05072 26.0591 2.43639C25.4441 1.82206 24.7142 1.33486 23.911 1.00261C23.1078 0.670367 22.247 0.499579 21.3778 0.5L28 21.8746ZM28 21.8746C28.0008 22.7443 27.8303 23.6057 27.498 24.4095C27.1657 25.2133 26.6783 25.9438 26.0636 26.5591C25.4489 27.1744 24.7189 27.6625 23.9155 27.9955C23.112 28.3286 22.2508 28.5 21.381 28.5H6.62221L28 21.8746ZM27.0331 4.77462C27.3409 5.51686 27.4996 6.31247 27.5 7.11603V21.8746V21.8751C27.5008 22.6791 27.3431 23.4755 27.0359 24.2185C26.7288 24.9616 26.2782 25.6369 25.7099 26.2057C25.1416 26.7745 24.4668 27.2258 23.724 27.5337C22.9812 27.8415 22.1851 28 21.381 28H6.62245C4.99943 27.9992 3.44307 27.3543 2.29514 26.207C1.14727 25.0596 0.501639 23.5037 0.500003 21.8808L0.500003 7.12221L0.500003 7.12172C0.499223 6.31784 0.656936 5.52168 0.964119 4.7788C1.2713 4.03592 1.72193 3.36089 2.29023 2.79232C2.85852 2.22375 3.53333 1.7728 4.27606 1.46525C5.0188 1.15771 5.81487 0.99961 6.61876 1H6.619L21.3778 1L21.378 1C22.1816 0.999611 22.9774 1.1575 23.7199 1.46465C24.4624 1.7718 25.1372 2.22219 25.7057 2.79012C26.2742 3.35804 26.7252 4.03238 27.0331 4.77462Z" stroke="white"/>
<g style="mix-blend-mode:soft-light" opacity="0.4">
<path d="M14.0663 11.4145L13.3027 15.4282L14.0663 16.0378V11.4145Z" fill="#292B31"/>
</g>
<path fill-rule="evenodd" clip-rule="evenodd" d="M6.125 16.9062C8.36585 24.0549 19.6277 23.756 21.875 16.9062C16.6851 18.0469 11.3149 18.0469 6.125 16.9062Z" fill="#2B1607"/>
<path d="M13.9307 22.375H13.7896C9.98065 22.3222 6.8899 20.199 5.91522 16.963C5.90478 16.9273 5.90343 16.8894 5.91129 16.853C5.91915 16.8165 5.93596 16.7828 5.9601 16.755C5.98537 16.7281 6.01687 16.7082 6.05164 16.6972C6.0864 16.6862 6.12331 16.6845 6.15889 16.6923C11.3288 17.8399 16.6768 17.8399 21.8467 16.6923C21.8821 16.6846 21.9188 16.6866 21.9531 16.6982C21.9875 16.7098 22.0182 16.7305 22.0423 16.7583C22.0659 16.7871 22.0821 16.8215 22.0894 16.8585C22.0967 16.8954 22.0948 16.9336 22.084 16.9696C20.9843 20.2683 17.7973 22.375 13.9307 22.375ZM6.41538 17.1909C7.45098 20.0636 10.3013 21.9028 13.7896 21.9523C17.4126 22.0052 20.4039 20.1461 21.5582 17.1909C16.5627 18.247 11.4109 18.247 6.41538 17.1909Z" fill="#292B31"/>
<g style="mix-blend-mode:soft-light" opacity="0.4">
<path d="M10.0674 23.7387C11.1775 24.9611 16.2468 25.0413 17.4724 23.7387C15.0327 24.2698 12.5072 24.2698 10.0674 23.7387Z" fill="#422715"/>
<path d="M10.0674 23.7387C11.1775 24.9611 16.2468 25.0413 17.4724 23.7387C15.0327 24.2698 12.5072 24.2698 10.0674 23.7387Z" stroke="#292B31" stroke-width="1.58" stroke-miterlimit="10"/>
</g>
<path fill-rule="evenodd" clip-rule="evenodd" d="M14.1823 25.8749H13.5828C12.9973 25.8749 12.4357 25.6437 12.0217 25.2321C11.6076 24.8205 11.375 24.2623 11.375 23.6802V20.3032C11.375 19.8866 11.9874 19.4413 12.4418 19.547C13.3957 19.7708 14.3888 19.7708 15.3426 19.547C15.752 19.4637 16.4062 19.8866 16.4062 20.3032V23.6802C16.4063 23.9698 16.3486 24.2565 16.2367 24.5238C16.1247 24.7911 15.9606 25.0338 15.7539 25.2378C15.5472 25.4418 15.3019 25.6031 15.0322 25.7125C14.7624 25.8218 14.4736 25.8771 14.1823 25.8749Z" fill="#FE7354"/>
<path fill-rule="evenodd" clip-rule="evenodd" d="M13.6221 19.75C13.8306 20.5703 13.6938 22.5938 13.8682 22.5938C14.0425 22.5938 13.9844 20.622 14.1689 19.75H13.6221Z" fill="#A00707"/>
<path d="M21.3084 14.5H19.8673C17.7441 14.5 17.7441 14.516 17.7441 12.3768V11.4833C17.7437 11.1327 17.8124 10.7855 17.9463 10.4615C18.0802 10.1375 18.2766 9.84301 18.5243 9.59496C18.7721 9.34691 19.0663 9.15013 19.3902 9.01587C19.714 8.88161 20.0612 8.8125 20.4118 8.8125H20.764C21.1146 8.8125 21.4618 8.88161 21.7856 9.01587C22.1095 9.15013 22.4037 9.34691 22.6514 9.59496C22.8992 9.84301 23.0956 10.1375 23.2295 10.4615C23.3634 10.7855 23.4321 11.1327 23.4316 11.4833V12.3928C23.4252 14.516 23.4252 14.5 21.3084 14.5Z" fill="#292B31"/>
<path d="M19.6597 10.898C19.9361 10.898 20.1602 10.6739 20.1602 10.3975C20.1602 10.1211 19.9361 9.89697 19.6597 9.89697C19.3833 9.89697 19.1592 10.1211 19.1592 10.3975C19.1592 10.6739 19.3833 10.898 19.6597 10.898Z" fill="white"/>
<path opacity="0.1" d="M20.5865 12.8263C21.2298 12.8263 21.7512 12.3048 21.7512 11.6616C21.7512 11.0184 21.2298 10.4969 20.5865 10.4969C19.9433 10.4969 19.4219 11.0184 19.4219 11.6616C19.4219 12.3048 19.9433 12.8263 20.5865 12.8263Z" fill="white"/>
<path d="M8.56429 14.6875H7.1232C5 14.6875 5 14.7035 5 12.5643V11.6708C4.99958 11.3202 5.06827 10.973 5.20214 10.649C5.33601 10.325 5.53244 10.0305 5.7802 9.78246C6.02795 9.53441 6.32217 9.33763 6.64602 9.20337C6.96988 9.06911 7.31703 9 7.66762 9H8.01988C8.37047 9 8.71762 9.06911 9.04147 9.20337C9.36533 9.33763 9.65955 9.53441 9.9073 9.78246C10.1551 10.0305 10.3515 10.325 10.4854 10.649C10.6192 10.973 10.6879 11.3202 10.6875 11.6708V12.5803C10.6811 14.7035 10.6811 14.6875 8.56429 14.6875Z" fill="#292B31"/>
<path d="M6.91555 11.0855C7.19198 11.0855 7.41607 10.8614 7.41607 10.585C7.41607 10.3086 7.19198 10.0845 6.91555 10.0845C6.63913 10.0845 6.41504 10.3086 6.41504 10.585C6.41504 10.8614 6.63913 11.0855 6.91555 11.0855Z" fill="white"/>
<path opacity="0.1" d="M7.8424 13.0138C8.48562 13.0138 9.00706 12.4923 9.00706 11.8491C9.00706 11.2059 8.48562 10.6844 7.8424 10.6844C7.19917 10.6844 6.67773 11.2059 6.67773 11.8491C6.67773 12.4923 7.19917 13.0138 7.8424 13.0138Z" fill="white"/>
<defs>
<filter id="filter0_i_2119_4844" x="0" y="0.5" width="28" height="28" filterUnits="userSpaceOnUse" color-interpolation-filters="sRGB">
<feFlood flood-opacity="0" result="BackgroundImageFix"/>
<feBlend mode="normal" in="SourceGraphic" in2="BackgroundImageFix" result="shape"/>
<feColorMatrix in="SourceAlpha" type="matrix" values="0 0 0 0 0 0 0 0 0 0 0 0 0 0 0 0 0 0 127 0" result="hardAlpha"/>
<feOffset dx="-6" dy="-6"/>
<feComposite in2="hardAlpha" operator="arithmetic" k2="-1" k3="1"/>
<feColorMatrix type="matrix" values="0 0 0 0 0 0 0 0 0 0 0 0 0 0 0 0 0 0 0.04 0"/>
<feBlend mode="normal" in2="shape" result="effect1_innerShadow_2119_4844"/>
</filter>
</defs>
</svg>
