<svg width="28" height="28" viewBox="0 0 28 28" fill="none" xmlns="http://www.w3.org/2000/svg">
<g filter="url(#filter0_i_2119_4301)">
<path d="M28 6.61579V21.3746C28.0008 22.2443 27.8303 23.1057 27.498 23.9095C27.1657 24.7133 26.6783 25.4438 26.0636 26.0591C25.4489 26.6744 24.7189 27.1625 23.9155 27.4955C23.112 27.8286 22.2508 28 21.381 28H6.62221C4.86671 27.9992 3.1833 27.3016 1.94167 26.0606C0.700046 24.8196 0.00170315 23.1365 3.113e-06 21.381V6.62221C-0.00084045 5.7526 0.169766 4.89136 0.502063 4.08774C0.834361 3.28413 1.32183 2.55391 1.93659 1.93885C2.55134 1.3238 3.28133 0.835976 4.08478 0.503289C4.88823 0.170602 5.74939 -0.00042136 6.619 7.79573e-07H21.3778C22.247 -0.00042066 23.1078 0.170367 23.911 0.502614C24.7142 0.834861 25.4441 1.32206 26.0591 1.93639C26.674 2.55072 27.1619 3.28016 27.4949 4.08305C27.828 4.88595 27.9996 5.74657 28 6.61579Z" fill="#FE7354"/>
</g>
<path d="M28 21.3746V6.61579C27.9996 5.74657 27.828 4.88595 27.4949 4.08305C27.1619 3.28016 26.674 2.55072 26.0591 1.93639C25.4441 1.32206 24.7142 0.834861 23.911 0.502614C23.1078 0.170367 22.247 -0.00042066 21.3778 0L28 21.3746ZM28 21.3746C28.0008 22.2443 27.8303 23.1057 27.498 23.9095C27.1657 24.7133 26.6783 25.4438 26.0636 26.0591C25.4489 26.6744 24.7189 27.1625 23.9155 27.4955C23.112 27.8286 22.2508 28 21.381 28H6.62221L28 21.3746ZM27.0331 4.27462C27.3409 5.01686 27.4996 5.81247 27.5 6.61603V21.3746V21.3751C27.5008 22.1791 27.3431 22.9755 27.0359 23.7185C26.7288 24.4616 26.2782 25.1369 25.7099 25.7057C25.1416 26.2745 24.4668 26.7258 23.724 27.0337C22.9812 27.3415 22.1851 27.5 21.381 27.5H6.62245C4.99943 27.4992 3.44307 26.8543 2.29514 25.707C1.14727 24.5596 0.501639 23.0037 0.500003 21.3808L0.500003 6.62221L0.500003 6.62172C0.499223 5.81784 0.656936 5.02168 0.964119 4.2788C1.2713 3.53592 1.72193 2.86089 2.29023 2.29232C2.85852 1.72375 3.53333 1.2728 4.27606 0.965252C5.0188 0.657709 5.81487 0.49961 6.61876 0.500001H6.619L21.3778 0.500001L21.378 0.500001C22.1816 0.499611 22.9774 0.657498 23.7199 0.964646C24.4624 1.2718 25.1372 1.72219 25.7057 2.29012C26.2742 2.85804 26.7252 3.53238 27.0331 4.27462Z" stroke="white"/>
<g style="mix-blend-mode:soft-light" opacity="0.4">
<path d="M14.0663 10.9145L13.3027 14.9283L14.0663 15.5379V10.9145Z" fill="#292B31"/>
</g>
<path d="M14.1679 22.3125C10.5604 22.3125 6.51941 20.2986 6.12742 15.8885C6.11728 15.8079 6.13928 15.7267 6.18859 15.6625C6.23789 15.5984 6.31047 15.5566 6.39034 15.5464C6.47021 15.5361 6.55084 15.5583 6.61449 15.608C6.67814 15.6577 6.7196 15.7309 6.72974 15.8114C7.0803 19.8521 10.8281 21.6926 14.1679 21.6926C18.8877 21.6926 21.2492 18.7343 21.4978 15.8114C21.5035 15.7318 21.5402 15.6578 21.5999 15.6054C21.6597 15.553 21.7375 15.5266 21.8165 15.5319C21.8936 15.5421 21.9644 15.5804 22.0155 15.6396C22.0666 15.6987 22.0944 15.7747 22.0937 15.8531C21.7304 20.3082 17.7373 22.3093 14.1743 22.3125H14.1679Z" fill="#292B31"/>
<path d="M21.3151 13.9824H19.8713C17.7441 13.9824 17.7441 13.9984 17.7441 11.8552V11.1333C17.745 10.3779 18.0454 9.65372 18.5796 9.11959C19.1137 8.58547 19.8379 8.28503 20.5932 8.28418C21.3486 8.28503 22.0728 8.58547 22.6069 9.11959C23.141 9.65372 23.4415 10.3779 23.4423 11.1333V11.8712C23.4359 13.9984 23.4359 13.9824 21.3151 13.9824Z" fill="#292B31"/>
<path d="M19.6363 10.3941C19.9122 10.3941 20.1359 10.1704 20.1359 9.89451C20.1359 9.6186 19.9122 9.39493 19.6363 9.39493C19.3604 9.39493 19.1367 9.6186 19.1367 9.89451C19.1367 10.1704 19.3604 10.3941 19.6363 10.3941Z" fill="white"/>
<path opacity="0.1" d="M20.5619 12.3187C21.2039 12.3187 21.7244 11.7983 21.7244 11.1563C21.7244 10.5142 21.2039 9.99378 20.5619 9.99378C19.9199 9.99378 19.3994 10.5142 19.3994 11.1563C19.3994 11.7983 19.9199 12.3187 20.5619 12.3187Z" fill="white"/>
<path d="M7.97138 13.9824H6.52758C4.40039 13.9824 4.40039 13.9984 4.40039 11.8552V11.1333C4.40124 10.3779 4.70168 9.65372 5.23581 9.11959C5.76993 8.58547 6.49411 8.28503 7.24948 8.28418C8.00484 8.28503 8.72903 8.58547 9.26315 9.11959C9.79727 9.65372 10.0977 10.3779 10.0986 11.1333V11.8712C10.0922 13.9984 10.0922 13.9824 7.97138 13.9824Z" fill="#292B31"/>
<path d="M6.31595 10.398C6.59237 10.398 6.81646 10.1739 6.81646 9.89747C6.81646 9.62104 6.59237 9.39695 6.31595 9.39695C6.03952 9.39695 5.81543 9.62104 5.81543 9.89747C5.81543 10.1739 6.03952 10.398 6.31595 10.398Z" fill="white"/>
<path opacity="0.1" d="M7.24279 12.3263C7.88601 12.3263 8.40745 11.8048 8.40745 11.1616C8.40745 10.5184 7.88601 9.99693 7.24279 9.99693C6.59956 9.99693 6.07812 10.5184 6.07812 11.1616C6.07812 11.8048 6.59956 12.3263 7.24279 12.3263Z" fill="white"/>
<defs>
<filter id="filter0_i_2119_4301" x="0" y="0" width="28" height="28" filterUnits="userSpaceOnUse" color-interpolation-filters="sRGB">
<feFlood flood-opacity="0" result="BackgroundImageFix"/>
<feBlend mode="normal" in="SourceGraphic" in2="BackgroundImageFix" result="shape"/>
<feColorMatrix in="SourceAlpha" type="matrix" values="0 0 0 0 0 0 0 0 0 0 0 0 0 0 0 0 0 0 127 0" result="hardAlpha"/>
<feOffset dx="-6" dy="-6"/>
<feComposite in2="hardAlpha" operator="arithmetic" k2="-1" k3="1"/>
<feColorMatrix type="matrix" values="0 0 0 0 0 0 0 0 0 0 0 0 0 0 0 0 0 0 0.04 0"/>
<feBlend mode="normal" in2="shape" result="effect1_innerShadow_2119_4301"/>
</filter>
</defs>
</svg>
