<svg width="79" height="79" viewBox="0 0 79 79" fill="none" xmlns="http://www.w3.org/2000/svg">
<path d="M58.699 36.5648C58.6037 36.6618 58.4905 36.7388 58.3659 36.7913C58.2413 36.8438 58.1078 36.8708 57.9729 36.8708C57.838 36.8708 57.7045 36.8438 57.5799 36.7913C57.4553 36.7388 57.3421 36.6618 57.2468 36.5648L40.5262 19.5642V62.9565C40.5262 63.2333 40.418 63.4987 40.2256 63.6944C40.0331 63.8901 39.7721 64 39.4999 64C39.2277 64 38.9667 63.8901 38.7742 63.6944C38.5817 63.4987 38.4736 63.2333 38.4736 62.9565V19.5642L21.7529 36.5648C21.6576 36.6618 21.5444 36.7387 21.4198 36.7911C21.2952 36.8436 21.1617 36.8706 21.0269 36.8706C20.892 36.8706 20.7585 36.8436 20.6339 36.7911C20.5093 36.7387 20.3961 36.6618 20.3008 36.5648C20.2054 36.4679 20.1298 36.3528 20.0782 36.2261C20.0266 36.0994 20 35.9637 20 35.8266C20 35.6895 20.0266 35.5537 20.0782 35.427C20.1298 35.3004 20.2054 35.1853 20.3008 35.0883L38.7738 16.306C38.8691 16.209 38.9823 16.1321 39.1069 16.0795C39.2315 16.027 39.365 16 39.4999 16C39.6348 16 39.7683 16.027 39.8929 16.0795C40.0175 16.1321 40.1307 16.209 40.226 16.306L58.699 35.0883C58.7944 35.1852 58.8701 35.3003 58.9218 35.427C58.9734 35.5537 59 35.6894 59 35.8266C59 35.9637 58.9734 36.0995 58.9218 36.2262C58.8701 36.3528 58.7944 36.4679 58.699 36.5648Z" fill="#BBBBBB"/>
<rect x="1" y="1" width="77" height="77" rx="38.5" stroke="#BBBBBB" stroke-width="2"/>
</svg>
