<svg width="290" height="200" viewBox="0 0 290 200" fill="none" xmlns="http://www.w3.org/2000/svg">
<g clip-path="url(#clip0_1063_13889)">
<mask id="mask0_1063_13889" style="mask-type:luminance" maskUnits="userSpaceOnUse" x="0" y="0" width="290" height="200">
<path d="M266 0H24C10.7452 0 0 10.7452 0 24V176C0 189.255 10.7452 200 24 200H266C279.255 200 290 189.255 290 176V24C290 10.7452 279.255 0 266 0Z" fill="white"/>
</mask>
<g mask="url(#mask0_1063_13889)">
<path d="M266 1H24C11.2975 1 1 11.2975 1 24V176C1 188.703 11.2975 199 24 199H266C278.703 199 289 188.703 289 176V24C289 11.2975 278.703 1 266 1Z" fill="#F0CD4E" stroke="#24213A" stroke-width="2"/>
<path d="M71 1H266C272.1 1 277.95 3.42321 282.263 7.73654C286.577 12.0499 289 17.9 289 24V174H94C87.9 174 82.0499 171.577 77.7365 167.263C73.4232 162.95 71 157.1 71 151V1Z" fill="#C552A4"/>
<path d="M320.15 139.16C320.265 139.174 320.374 139.218 320.465 139.289C320.557 139.359 320.628 139.453 320.67 139.56C321.076 140.507 321.138 141.566 320.845 142.554C320.553 143.542 319.925 144.396 319.07 144.97C316.696 146.667 314.18 148.156 311.55 149.42C311.55 149.42 209.73 144.33 194.88 141.74C180.03 139.14 44.05 97.5005 44.05 97.5005C44.05 97.5005 35.75 88.0105 43.02 90.6605C50.29 93.3005 205.43 119.8 205.43 119.8L320.15 139.15V139.16Z" fill="#7D75BF" stroke="#24213A" stroke-width="1.5" stroke-miterlimit="10"/>
<path d="M141.73 116.82L96.76 103.78L128.88 106.28C129.14 106.31 129.39 106.35 129.64 106.42L177.47 119.47L143.61 117.15C142.974 117.106 142.344 116.995 141.73 116.82Z" fill="#443CA0" stroke="#24213A" stroke-width="1.5" stroke-miterlimit="10"/>
</g>
<path d="M243.682 76.0673L243.682 76.0678C242.656 82.192 239.667 88.625 234.663 92.3496C230.434 95.4917 224.241 97.4592 218.706 97.4396V92.939C223.388 93.0013 229.225 90.9612 232.565 88.1889L232.565 88.1889C236.117 85.2372 238.197 80.2694 239.103 75.6692L239.103 75.6691C239.219 75.0759 239.321 74.4889 239.397 73.9146C239.498 73.1838 239.85 72.7169 240.313 72.4702C240.776 72.2229 241.354 72.195 241.909 72.3499C243.02 72.6597 244.027 73.6969 243.828 75.1442L243.682 76.0673ZM243.682 76.0673C243.735 75.7816 243.778 75.4894 243.819 75.2016L243.828 75.1444L243.682 76.0673Z" fill="#2D2B2B" stroke="#2D2B2B" stroke-width="0.0521415"/>
<path d="M243.897 51.2455C244.188 50.7042 244.694 50.2179 245.309 50.2066C248.153 50.1541 246.967 58.8535 246.637 60.9701L243.897 51.2455ZM243.897 51.2455C243.322 52.3104 242.296 56.9637 241.975 60.5881L243.897 51.2455ZM236.734 71.1342L236.77 71.15L236.742 71.1771L236.724 71.1581L236.742 71.1771L236.741 71.1773L236.741 71.1777L236.739 71.1797L236.731 71.1877C236.723 71.1948 236.713 71.2053 236.699 71.2191C236.671 71.2468 236.632 71.2875 236.584 71.3397C236.489 71.444 236.36 71.594 236.227 71.7764C235.961 72.142 235.681 72.6353 235.616 73.1518C235.552 73.6661 235.701 74.2053 236.298 74.668C236.897 75.1322 237.948 75.5201 239.69 75.7233C241.433 75.9266 242.935 76.0463 244.161 76.0571C245.387 76.0679 246.333 75.9697 246.964 75.7389C247.279 75.6236 247.514 75.4758 247.666 75.2939C247.817 75.1127 247.888 74.8959 247.874 74.6388C247.844 74.1216 247.469 73.441 246.699 72.5697L246.661 72.5264H246.718L246.719 72.5264L246.719 72.5264L246.722 72.5263L246.735 72.5259C246.747 72.5254 246.764 72.5244 246.787 72.5225C246.832 72.5185 246.898 72.5105 246.983 72.4945C247.151 72.4625 247.392 72.3984 247.677 72.2699C248.246 72.013 248.995 71.4983 249.708 70.4668C251.135 68.4032 252.419 64.2687 251.825 55.9878C251.795 55.5619 251.717 55.0953 251.548 54.695C251.379 54.2948 251.122 53.9635 250.735 53.803L250.735 53.803C250.466 53.6915 250.162 53.7112 249.831 53.9044C249.5 54.0981 249.144 54.4662 248.778 55.0503C248.046 56.2184 247.278 58.2428 246.587 61.4356L246.536 61.4255L246.562 61.43C246.536 61.4255 246.536 61.4255 246.536 61.4254L246.536 61.425L246.536 61.4235L246.537 61.4174L246.542 61.3933L246.557 61.2991C246.571 61.2165 246.591 61.0954 246.615 60.9413C246.663 60.6331 246.728 60.1928 246.795 59.6647C246.931 58.6082 247.078 57.2006 247.124 55.7951C247.169 54.389 247.114 52.9872 246.845 51.9415C246.711 51.4186 246.524 50.987 246.272 50.6885C246.021 50.3909 245.705 50.2254 245.309 50.2327C244.708 50.2437 244.209 50.72 243.919 51.2578L243.919 51.2579C243.771 51.5331 243.591 52.0534 243.4 52.7387C243.209 53.4233 243.008 54.2705 242.817 55.1982C242.436 57.0536 242.096 59.2296 241.963 61.0684L241.911 61.0656L241.937 61.0665L241.911 61.0656L241.911 61.0653L241.911 61.0644L241.911 61.0606L241.911 61.0455L241.913 60.9866C241.915 60.9348 241.917 60.8586 241.919 60.7607C241.924 60.5649 241.93 60.2826 241.935 59.9367C241.944 59.2449 241.948 58.2986 241.926 57.2805C241.904 56.2623 241.857 55.1726 241.765 54.1941C241.672 53.215 241.534 52.3492 241.331 51.7777C241.128 51.2053 240.848 50.7357 240.532 50.4218C240.215 50.1078 239.865 49.9518 239.52 49.999C239.174 50.0463 238.826 50.2979 238.516 50.8175C238.205 51.337 237.935 52.1212 237.746 53.2259C237.551 54.3675 237.453 55.5231 237.42 56.6806L237.272 62.1513L237.222 62.1612L237.246 62.1506L237.222 62.1611L237.222 62.1609L237.222 62.1602L237.221 62.1571L237.215 62.1448L237.193 62.0968C237.174 62.0548 237.145 61.9933 237.108 61.9154C237.033 61.7597 236.923 61.5387 236.783 61.2774C236.504 60.7548 236.106 60.0716 235.629 59.4287C235.152 58.7854 234.598 58.1843 234.008 57.8238C233.419 57.4638 232.796 57.3453 232.178 57.6604C231.989 57.7564 231.825 57.9959 231.697 58.3557C231.568 58.7142 231.476 59.1868 231.428 59.7405C231.332 60.8478 231.412 62.2759 231.72 63.7574C232.337 66.7218 233.869 69.89 236.734 71.1342Z" fill="white" stroke="#2D2B2B" stroke-width="0.0521415"/>
<path d="M236.724 71.1581C236.724 71.1581 232.714 74.9356 239.687 75.7492C246.66 76.5627 249.799 76.0391 246.718 72.5525C246.718 72.5525 253.038 72.5525 251.851 55.9859C251.791 55.1312 251.536 54.1069 250.745 53.7789C249.637 53.3184 247.944 55.0424 246.562 61.43C246.562 61.43 248.547 50.1468 245.309 50.2066C244.694 50.2179 244.188 50.7042 243.897 51.2455C243.296 52.3579 242.203 57.386 241.937 61.0665C241.937 61.0665 242.171 54.0681 241.356 51.769C240.54 49.469 238.477 48.7961 237.721 53.2215C237.525 54.3646 237.426 55.5214 237.394 56.6799L237.246 62.1506C237.246 62.1506 234.683 56.3551 232.166 57.6372C230.586 58.4426 230.97 68.6595 236.724 71.1581Z" stroke="#2D2B2B" stroke-width="0.260708" stroke-miterlimit="10"/>
<path d="M239.718 60.8695L248.767 62.0078" stroke="#2D2B2B" stroke-width="0.260708" stroke-miterlimit="10"/>
<path d="M237.476 63.0242C237.476 63.0242 242.937 63.4306 242.57 68.4424" stroke="#2D2B2B" stroke-width="0.260708" stroke-miterlimit="10"/>
<path d="M240.587 71.7726C240.097 71.8453 239.39 71.8946 238.561 71.7605C237.868 71.6482 237.305 71.4422 236.897 71.2572" stroke="#2D2B2B" stroke-width="0.260708" stroke-miterlimit="10"/>
<path d="M244.292 72.3548L246.718 72.5535" stroke="#2D2B2B" stroke-width="0.260708" stroke-miterlimit="10"/>
<path d="M112.295 92.939V97.4396C106.759 97.4592 100.567 95.4917 96.3378 92.3496C91.3332 88.625 88.3448 82.192 87.319 76.0678L87.3189 76.0673H87.3189C87.2661 75.7864 87.2242 75.4992 87.1828 75.216C87.1794 75.192 87.1759 75.1681 87.1724 75.1442L112.295 92.939ZM112.295 92.939C107.613 93.0013 101.776 90.9612 98.4354 88.1889L98.4353 88.1889C94.8834 85.2372 92.8033 80.2694 91.8971 75.6692L91.8971 75.6691C91.7821 75.0759 91.6798 74.4889 91.6033 73.9147L112.295 92.939Z" fill="#2D2B2B" stroke="#2D2B2B" stroke-width="0.0521415"/>
<path d="M94.2765 71.1581L94.2586 71.1771L94.2298 71.15L94.2661 71.1342C97.131 69.89 98.6628 66.7218 99.2801 63.7574C99.5885 62.2759 99.668 60.8478 99.572 59.7405C99.524 59.1868 99.4321 58.7142 99.3036 58.3557C99.1746 57.9959 99.0107 57.7564 98.8224 57.6604C98.2038 57.3453 97.5815 57.4638 96.9922 57.8238C96.4022 58.1843 95.8481 58.7854 95.3711 59.4287C94.8943 60.0716 94.4958 60.7548 94.2165 61.2774C94.0768 61.5387 93.967 61.7597 93.8921 61.9154C93.8547 61.9933 93.826 62.0548 93.8067 62.0968L93.7848 62.1448L93.7792 62.1571L93.7779 62.1602L93.7775 62.1609L93.7774 62.1611L93.7536 62.1506L93.7774 62.1612L93.7275 62.1513L93.5795 56.6806C93.5479 55.5231 93.449 54.3675 93.2536 53.2259L93.2793 53.2215L93.2536 53.2259C93.0647 52.1212 92.7946 51.337 92.4843 50.8175C92.174 50.2979 91.8255 50.0463 91.4802 49.999C91.1349 49.9518 90.7846 50.1078 90.4682 50.4218C90.1519 50.7357 89.872 51.2053 89.6692 51.7777L89.6446 51.769L89.6692 51.7777C89.4665 52.3492 89.3284 53.215 89.2357 54.1941C89.143 55.1726 89.0958 56.2623 89.0741 57.2805C89.0523 58.2986 89.0561 59.2449 89.0652 59.9367C89.0698 60.2826 89.0758 60.5649 89.0806 60.7607C89.083 60.8586 89.0851 60.9348 89.0866 60.9866L89.0884 61.0455L89.0888 61.0606L89.089 61.0644L89.089 61.0646L89.089 61.0653L89.089 61.0656L89.063 61.0665L89.089 61.0656L89.037 61.0684C88.9039 59.2296 88.5644 57.0536 88.183 55.1982C87.9923 54.2705 87.7913 53.4233 87.6005 52.7387C87.4094 52.0534 87.2292 51.5331 87.0807 51.2579C86.7906 50.72 86.2919 50.2437 85.6904 50.2327C85.2945 50.2254 84.9785 50.3909 84.7273 50.6885C84.4753 50.987 84.2885 51.4186 84.1544 51.9415C83.8861 52.9872 83.8306 54.389 83.8764 55.7951C83.9222 57.2006 84.0691 58.6082 84.2046 59.6647C84.2723 60.1928 84.3372 60.6331 84.3851 60.9413C84.4091 61.0954 84.4288 61.2165 84.4426 61.2991L84.4585 61.3933L84.4626 61.4174L84.4637 61.4235L84.4639 61.4245L84.464 61.425L84.464 61.4254C84.464 61.4255 84.4641 61.4255 84.4384 61.43L84.4641 61.4255L84.4129 61.4356C83.722 58.2428 82.954 56.2184 82.2219 55.0503C81.8558 54.4662 81.4999 54.0981 81.1689 53.9044C80.8387 53.7112 80.5338 53.6915 80.2656 53.803L80.2655 53.803C79.8785 53.9635 79.6208 54.2948 79.4521 54.695C79.2833 55.0953 79.2046 55.5619 79.1742 55.9878L79.1482 55.9859L79.1742 55.9878C78.5815 64.2687 79.865 68.4032 81.2916 70.4668C82.0047 71.4983 82.7538 72.013 83.3234 72.2699C83.6083 72.3984 83.8485 72.4625 84.0172 72.4945C84.1015 72.5105 84.168 72.5185 84.2131 72.5225C84.2357 72.5244 84.253 72.5254 84.2646 72.5259L84.2775 72.5263L84.2807 72.5264L84.2814 72.5264L84.2815 72.5264H84.3394L84.3011 72.5697C83.5314 73.441 83.1557 74.1216 83.1262 74.6388C83.1116 74.8959 83.1825 75.1127 83.3341 75.2939C83.4862 75.4758 83.7208 75.6236 84.0361 75.7389C84.6671 75.9697 85.6129 76.0679 86.8389 76.0571C88.0643 76.0463 89.5669 75.9266 91.31 75.7233C93.0516 75.5201 94.1028 75.1322 94.7019 74.668C95.2991 74.2053 95.4482 73.6661 95.3839 73.1518C95.3193 72.6353 95.039 72.142 94.773 71.7764C94.6402 71.594 94.5115 71.444 94.4159 71.3397C94.3682 71.2875 94.3288 71.2468 94.3013 71.2191C94.2876 71.2053 94.2769 71.1948 94.2696 71.1877L94.2613 71.1797L94.2593 71.1777L94.2588 71.1773L94.2586 71.1771L94.2765 71.1581Z" fill="white" stroke="#2D2B2B" stroke-width="0.0521415"/>
<path d="M94.2765 71.1581C94.2765 71.1581 98.2863 74.9356 91.313 75.7492C84.3393 76.5627 81.2016 76.0391 84.2815 72.5525C84.2815 72.5525 77.9623 72.5525 79.1482 55.9859C79.2091 55.1312 79.4644 54.1069 80.2556 53.7789C81.3632 53.3184 83.0562 55.0424 84.4384 61.43C84.4384 61.43 82.4528 50.1468 85.6909 50.2066C86.3062 50.2179 86.8117 50.7042 87.1037 51.2455C87.7038 52.3579 88.7967 57.386 89.063 61.0665C89.063 61.0665 88.8292 54.0681 89.6446 51.769C90.4594 49.469 92.5226 48.7961 93.2793 53.2215C93.4749 54.3646 93.574 55.5214 93.6056 56.6799L93.7536 62.1506C93.7536 62.1506 96.3175 56.3551 98.8342 57.6372C100.415 58.4426 100.03 68.6595 94.2765 71.1581Z" stroke="#2D2B2B" stroke-width="0.260708" stroke-miterlimit="10"/>
<path d="M91.2815 60.8695L82.2327 62.0078" stroke="#2D2B2B" stroke-width="0.260708" stroke-miterlimit="10"/>
<path d="M93.5246 63.0242C93.5246 63.0242 88.0628 63.4306 88.4301 68.4424" stroke="#2D2B2B" stroke-width="0.260708" stroke-miterlimit="10"/>
<path d="M90.4133 71.7726C90.9035 71.8453 91.6093 71.8946 92.4386 71.7605C93.1313 71.6482 93.694 71.4422 94.1023 71.2572" stroke="#2D2B2B" stroke-width="0.260708" stroke-miterlimit="10"/>
<path d="M86.7082 72.3548L84.2815 72.5535" stroke="#2D2B2B" stroke-width="0.260708" stroke-miterlimit="10"/>
<path d="M232.083 164.774L223.652 142.114L112.872 143.398L95.1611 165.18L232.083 164.774Z" fill="#2C3FE1" stroke="#2D2B2B" stroke-width="0.0521415"/>
<path d="M112.859 143.373L223.67 142.087L232.12 164.8L95.1062 165.206L112.859 143.373Z" stroke="#2D2B2B" stroke-width="0.260708" stroke-miterlimit="10"/>
<path d="M225.251 160.547L219.771 145.067L116.979 145.774L104.515 161.658L225.251 160.547Z" fill="white" stroke="#2D2B2B" stroke-width="0.0521415"/>
<path d="M116.966 145.748L219.789 145.04L225.288 160.573L104.461 161.685L116.966 145.748Z" stroke="#2D2B2B" stroke-width="0.260708" stroke-miterlimit="10"/>
<path d="M124.917 145.695L120.937 151.523L116.992 157.291L114.049 161.589" stroke="#2D2B2B" stroke-width="0.260708" stroke-miterlimit="10"/>
<path d="M133.13 145.642L129.322 151.429L125.532 157.195L122.689 161.511" stroke="#2D2B2B" stroke-width="0.260708" stroke-miterlimit="10"/>
<path d="M141.413 145.574L137.833 151.338H137.824L134.234 157.103L131.537 161.427" stroke="#2D2B2B" stroke-width="0.260708" stroke-miterlimit="10"/>
<path d="M149.389 145.522L145.962 151.246L142.509 157.008L139.912 161.36" stroke="#2D2B2B" stroke-width="0.260708" stroke-miterlimit="10"/>
<path d="M158.001 145.462L154.838 151.154H154.829L151.621 156.914L149.197 161.273" stroke="#2D2B2B" stroke-width="0.260708" stroke-miterlimit="10"/>
<path d="M159.632 156.842L159.641 156.832L162.713 151.063L165.731 145.412" stroke="#2D2B2B" stroke-width="0.260708" stroke-miterlimit="10"/>
<path d="M168.746 156.715L173.182 145.474" stroke="#2D2B2B" stroke-width="0.260708" stroke-miterlimit="10"/>
<path d="M176.6 156.608L178.817 150.889H178.826L180.991 145.306" stroke="#2D2B2B" stroke-width="0.260708" stroke-miterlimit="10"/>
<path d="M186.185 156.643L186.212 156.535L187.419 150.799L188.592 145.246" stroke="#2D2B2B" stroke-width="0.260708" stroke-miterlimit="10"/>
<path d="M195.831 145.203L195.339 150.708L194.832 156.447L194.446 160.86" stroke="#2D2B2B" stroke-width="0.260708" stroke-miterlimit="10"/>
<path d="M203.471 145.145L203.551 150.625L203.627 156.356L203.686 160.774" stroke="#2D2B2B" stroke-width="0.260708" stroke-miterlimit="10"/>
<path d="M212.228 145.084L213.163 150.514H213.172L214.156 156.236H214.166L214.935 160.675" stroke="#2D2B2B" stroke-width="0.260708" stroke-miterlimit="10"/>
<path d="M112.361 151.612L112.371 151.612L120.937 151.523L129.32 151.427L137.823 151.339H137.832L145.962 151.246L154.828 151.153H154.837L162.712 151.063L171.16 150.977L178.817 150.888H178.825L187.419 150.8L195.339 150.708L203.55 150.624L213.162 150.514H213.171L221.701 150.426" stroke="#2D2B2B" stroke-width="0.260708" stroke-miterlimit="10"/>
<path d="M107.835 157.388L116.992 157.292L125.531 157.195L134.234 157.105L142.508 157.01L151.62 156.915L159.64 156.833L168.161 156.735L186.212 156.537L194.832 156.448L203.626 156.357L214.155 156.236H214.165L223.722 156.136" stroke="#2D2B2B" stroke-width="0.260708" stroke-miterlimit="10"/>
<path d="M94.9126 165.432L94.8936 168.904L232.092 168.77L232.044 164.609L94.9126 165.432Z" fill="#2C3FE1" stroke="#2D2B2B" stroke-width="0.0521415"/>
<path d="M94.8674 168.93L232.118 168.796L232.07 164.583L94.8867 165.406L94.8674 168.93Z" stroke="#2D2B2B" stroke-width="0.260708" stroke-miterlimit="10"/>
<path d="M154.515 132.359V142.733H174.705V132.359H154.515Z" fill="#2C3FE1" stroke="#2D2B2B" stroke-width="0.0521415"/>
<path d="M174.731 142.759H154.489V132.333H174.731V142.759Z" stroke="#2D2B2B" stroke-width="0.260708" stroke-miterlimit="10"/>
<path d="M109.632 132.35H219.587C221.746 132.35 223.497 130.599 223.497 128.44V56.9877C223.497 54.8282 221.746 53.078 219.587 53.078H109.632C107.473 53.078 105.722 54.8282 105.722 56.9877V128.44C105.722 130.599 107.473 132.35 109.632 132.35Z" fill="#2C3FE1" stroke="#2D2B2B" stroke-width="0.0521415"/>
<path d="M219.587 132.376H109.632C107.458 132.376 105.696 130.613 105.696 128.44V56.9877C105.696 54.8138 107.458 53.0519 109.632 53.0519H219.587C221.76 53.0519 223.523 54.8138 223.523 56.9877V128.44C223.523 130.613 221.76 132.376 219.587 132.376Z" stroke="#2D2B2B" stroke-width="0.260708" stroke-miterlimit="10"/>
<path d="M115.977 128.291H213.047C216.118 128.291 218.607 125.802 218.607 122.731V63.0142C218.607 59.9426 216.118 57.4532 213.047 57.4532H115.977C112.906 57.4532 110.417 59.9426 110.417 63.0142V122.731C110.417 125.802 112.906 128.291 115.977 128.291Z" fill="#2C3FE1" stroke="#2D2B2B" stroke-width="0.0521415"/>
<path d="M213.047 128.317H115.977C112.892 128.317 110.391 125.816 110.391 122.731V63.0141C110.391 59.9282 112.892 57.4271 115.977 57.4271H213.047C216.132 57.4271 218.633 59.9282 218.633 63.0141V122.731C218.633 125.816 216.132 128.317 213.047 128.317Z" stroke="#2D2B2B" stroke-width="0.260708" stroke-miterlimit="10"/>
<path d="M128.116 67.9604V123.519H201.754V67.9604H128.116Z" fill="white" stroke="#2D2B2B" stroke-width="0.0521415"/>
<path d="M201.78 123.545H128.09V67.9343H201.78V123.545Z" stroke="#2D2B2B" stroke-width="0.260708" stroke-miterlimit="10"/>
<mask id="path-48-inside-1_1063_13889" fill="white">
<path d="M127.995 96.0215H201.864H127.995Z"/>
</mask>
<path d="M127.995 96.0215H201.864H127.995Z" fill="white"/>
<path d="M127.995 95.9693H201.864V96.0736H127.995V95.9693Z" fill="#2D2B2B" mask="url(#path-48-inside-1_1063_13889)"/>
<path d="M127.995 96.0215H201.864" stroke="#2D2B2B" stroke-width="0.260708" stroke-miterlimit="10"/>
<mask id="path-51-inside-2_1063_13889" fill="white">
<path d="M164.93 67.7911V123.413V67.7911Z"/>
</mask>
<path d="M164.93 67.7911V123.413V67.7911Z" fill="white"/>
<path d="M164.982 67.7911V123.413H164.878V67.7911H164.982Z" fill="#2D2B2B" mask="url(#path-51-inside-2_1063_13889)"/>
<path d="M164.93 67.7911V123.413" stroke="#2D2B2B" stroke-width="0.260708" stroke-miterlimit="10"/>
<path d="M201.781 67.9409H128.191V70.5716H201.781V67.9409Z" fill="#FE7354" stroke="#2D2B2B" stroke-width="0.0521415"/>
<path d="M201.807 67.9148H128.165V70.5977H201.807V67.9148Z" stroke="#2D2B2B" stroke-width="0.260708" stroke-miterlimit="10"/>
<path d="M188.779 100.072C189.299 99.5439 189.875 99.2469 190.485 99.2357C191.566 99.2154 192.549 100.114 193.26 101.6C193.971 103.085 194.405 105.149 194.395 107.438C194.383 109.728 193.929 111.808 193.204 113.319C192.479 114.833 191.487 115.768 190.404 115.788L188.779 100.072ZM188.779 100.072C187.445 101.43 186.51 104.289 186.494 107.586M188.779 100.072L186.494 107.586M186.494 107.586C186.486 109.268 186.719 110.827 187.124 112.125C187.53 113.424 188.108 114.459 188.79 115.094M186.494 107.586L188.79 115.094M188.79 115.094C189.282 115.551 189.828 115.798 190.404 115.788L188.79 115.094Z" fill="white" stroke="#2D2B2B" stroke-width="0.0521415"/>
<path d="M186.468 107.585C186.484 104.285 187.419 101.418 188.76 100.054C189.284 99.5223 189.866 99.221 190.484 99.2097C192.68 99.1685 194.442 102.853 194.421 107.438C194.398 112.024 192.601 115.774 190.405 115.814C189.82 115.825 189.267 115.573 188.772 115.113C187.4 113.835 186.452 110.954 186.468 107.585Z" stroke="#2D2B2B" stroke-width="0.260708" stroke-miterlimit="10"/>
<path d="M189.176 106.966L192.31 105.192C192.067 103.742 191.597 102.493 190.98 101.591C190.362 100.69 189.599 100.139 188.77 100.08C187.441 101.441 186.51 104.295 186.494 107.585C186.486 109.267 186.719 110.826 187.124 112.125C187.528 113.417 188.103 114.449 188.781 115.085C189.8 114.932 190.722 114.043 191.393 112.69C192.066 111.332 192.484 109.513 192.494 107.519C192.494 107.397 192.493 107.274 192.49 107.153L189.188 107.015L189.097 107.011L189.176 106.966Z" fill="black" stroke="#2D2B2B" stroke-width="0.0521415"/>
<path d="M188.772 115.112C190.846 114.814 192.5 111.513 192.52 107.519C192.52 107.388 192.519 107.257 192.516 107.128L189.189 106.988L192.339 105.206C191.854 102.286 190.449 100.165 188.76 100.053C187.419 101.418 186.484 104.285 186.468 107.585C186.452 110.953 187.4 113.834 188.772 115.112Z" stroke="#2D2B2B" stroke-width="0.260708" stroke-miterlimit="10"/>
<path d="M195.424 101.683L193.599 102.032" stroke="#2D2B2B" stroke-width="0.260708" stroke-miterlimit="10"/>
<mask id="path-61-inside-3_1063_13889" fill="white">
<path d="M194.822 100.123L193.271 101.128L194.822 100.123Z"/>
</mask>
<path d="M194.822 100.123L193.271 101.128L194.822 100.123Z" fill="white"/>
<path d="M194.85 100.167L193.299 101.172L193.243 101.084L194.794 100.079L194.85 100.167Z" fill="#2D2B2B" mask="url(#path-61-inside-3_1063_13889)"/>
<path d="M194.822 100.123L193.271 101.128" stroke="#2D2B2B" stroke-width="0.260708" stroke-miterlimit="10"/>
<path d="M175.95 115.399L175.95 115.399C177.03 115.368 178.032 114.42 178.773 112.895C179.514 111.373 179.991 109.283 180.028 106.989C180.066 104.694 179.656 102.631 178.964 101.151C178.272 99.6682 177.302 98.7786 176.222 98.8101C175.614 98.8276 175.035 99.1318 174.51 99.6658C173.163 101.041 172.197 103.917 172.143 107.221C172.116 108.906 172.33 110.467 172.719 111.764C173.109 113.061 173.674 114.092 174.348 114.72L174.348 114.72C174.833 115.173 175.375 115.415 175.95 115.399Z" fill="white" stroke="#2D2B2B" stroke-width="0.0521415"/>
<path d="M172.117 107.22C172.171 103.913 173.137 101.03 174.491 99.6476C175.02 99.1104 175.605 98.8018 176.221 98.784C178.413 98.7202 180.129 102.394 180.054 106.989C179.98 111.584 178.143 115.362 175.95 115.425C175.367 115.442 174.819 115.195 174.33 114.739C172.974 113.474 172.062 110.596 172.117 107.22Z" stroke="#2D2B2B" stroke-width="0.260708" stroke-miterlimit="10"/>
<path d="M178.131 107.09L178.131 107.09C178.133 106.968 178.133 106.846 178.132 106.724L174.839 106.621L174.747 106.618L174.827 106.572L177.974 104.761C177.749 103.31 177.294 102.063 176.688 101.166C176.083 100.269 175.328 99.7257 174.502 99.6746C173.159 101.053 172.197 103.924 172.143 107.221C172.116 108.907 172.33 110.467 172.719 111.764C173.108 113.055 173.669 114.083 174.338 114.712C175.357 114.548 176.288 113.648 176.973 112.284C177.66 110.917 178.098 109.088 178.131 107.09Z" fill="black" stroke="#2D2B2B" stroke-width="0.0521415"/>
<path d="M174.33 114.739C176.403 114.419 178.092 111.093 178.157 107.091C178.159 106.96 178.159 106.829 178.157 106.699L174.84 106.595L178.002 104.774C177.553 101.853 176.176 99.7424 174.491 99.6478C173.137 101.03 172.171 103.913 172.117 107.221C172.062 110.597 172.974 113.474 174.33 114.739Z" stroke="#2D2B2B" stroke-width="0.260708" stroke-miterlimit="10"/>
<path d="M171.209 101.447L172.949 101.972" stroke="#2D2B2B" stroke-width="0.260708" stroke-miterlimit="10"/>
<path d="M172.081 99.9535L173.434 101.105" stroke="#2D2B2B" stroke-width="0.260708" stroke-miterlimit="10"/>
<path d="M179.499 115.917C180.383 117.405 182.003 118.295 183.706 118.221C186.165 118.115 187.425 116.067 187.514 115.917" stroke="#2D2B2B" stroke-width="0.260708" stroke-miterlimit="10"/>
<path d="M139.374 75.0615L139.374 75.0615C138.323 75.0651 137.367 75.9993 136.674 77.5264C135.983 79.0512 135.558 81.1577 135.567 83.4838C135.575 85.8096 136.015 87.9126 136.718 89.4323C137.422 90.9542 138.385 91.8816 139.436 91.878C140.027 91.8756 140.584 91.5823 141.085 91.0541C141.728 90.3752 142.27 89.3133 142.651 88.0012C143.032 86.6895 143.25 85.1294 143.243 83.4557C143.237 81.7466 142.998 80.1581 142.593 78.8328C142.188 77.507 141.617 76.4466 140.949 75.7916C140.467 75.3191 139.933 75.0591 139.374 75.0615Z" fill="white" stroke="#2D2B2B" stroke-width="0.0521415"/>
<path d="M143.269 83.4556C143.282 86.8074 142.396 89.706 141.104 91.072C140.6 91.6036 140.036 91.9017 139.436 91.9041C137.302 91.9114 135.557 88.1411 135.541 83.4839C135.524 78.8258 137.24 75.0427 139.374 75.0354C139.942 75.033 140.481 75.2972 140.967 75.773C142.312 77.0914 143.257 80.0328 143.269 83.4556Z" stroke="#2D2B2B" stroke-width="0.260708" stroke-miterlimit="10"/>
<path d="M137.386 83.43L137.412 83.4299C137.413 83.555 137.415 83.6793 137.419 83.8029L140.63 83.9937L140.716 83.9988L140.641 84.0423L137.61 85.7968C137.858 87.2735 138.325 88.5508 138.933 89.4765C139.541 90.4016 140.287 90.9719 141.093 91.0452C141.731 90.3659 142.271 89.3077 142.65 88.0014C143.03 86.6897 143.248 85.1296 143.242 83.4559C143.236 81.7468 142.997 80.1583 142.592 78.833C142.188 77.5133 141.621 76.4565 140.956 75.8008C139.968 75.9402 139.08 76.8279 138.439 78.1925C137.796 79.5615 137.405 81.4041 137.412 83.4299L137.386 83.43ZM137.386 83.43C137.371 79.3722 138.952 76.0439 140.966 75.7732L137.393 83.8275C137.389 83.6958 137.387 83.5633 137.386 83.43Z" fill="black" stroke="#2D2B2B" stroke-width="0.0521415"/>
<path d="M140.966 75.7732C138.952 76.0439 137.371 79.3722 137.386 83.43C137.387 83.5633 137.389 83.6958 137.393 83.8275L140.628 84.0197L137.582 85.7833C138.076 88.757 139.46 90.9333 141.103 91.0723C142.395 89.7062 143.28 86.8076 143.268 83.4559C143.256 80.033 142.311 77.0917 140.966 75.7732Z" stroke="#2D2B2B" stroke-width="0.260708" stroke-miterlimit="10"/>
<path d="M153.495 91.8254L153.495 91.8254C154.086 91.8238 154.644 91.5305 155.145 91.0023C155.787 90.323 156.329 89.2609 156.71 87.9487C157.091 86.6368 157.309 85.0768 157.303 83.4031C157.296 81.6943 157.057 80.1058 156.652 78.7804C156.247 77.4546 155.676 76.394 155.007 75.739L155.007 75.739C154.526 75.2665 153.993 75.0065 153.433 75.0089L153.433 75.0089C152.383 75.0125 151.426 75.9467 150.733 77.4738C150.041 78.9986 149.617 81.105 149.626 83.4312C149.634 85.7573 150.074 87.8605 150.777 89.3802C151.481 90.9022 152.444 91.8294 153.495 91.8254Z" fill="white" stroke="#2D2B2B" stroke-width="0.0521415"/>
<path d="M157.329 83.403C157.341 86.7548 156.455 89.6533 155.164 91.0202C154.659 91.5518 154.095 91.8499 153.495 91.8515C151.361 91.8596 149.617 88.0893 149.599 83.4312C149.582 78.7732 151.299 74.9901 153.433 74.9828C154.001 74.9804 154.541 75.2445 155.026 75.7204C156.371 77.0388 157.316 79.981 157.329 83.403Z" stroke="#2D2B2B" stroke-width="0.260708" stroke-miterlimit="10"/>
<path d="M151.473 83.3772L151.473 83.3772C151.473 83.5014 151.475 83.6257 151.479 83.7493L154.69 83.9402L154.776 83.9453L154.701 83.9888L151.67 85.7433C151.918 87.22 152.386 88.4973 152.994 89.423C153.602 90.3482 154.348 90.9187 155.153 90.9924C155.792 90.3127 156.331 89.2543 156.71 87.948C157.09 86.6362 157.308 85.0761 157.302 83.4024C157.296 81.6937 157.057 80.1052 156.652 78.7798C156.248 77.4599 155.681 76.403 155.016 75.7473C154.028 75.8866 153.14 76.7746 152.499 78.1394C151.856 79.5086 151.465 81.3514 151.473 83.3772Z" fill="black" stroke="#2D2B2B" stroke-width="0.0521415"/>
<path d="M155.025 75.7197C153.012 75.9903 151.432 79.3195 151.447 83.3773C151.447 83.5098 151.449 83.6422 151.453 83.7739L154.688 83.9662L151.642 85.7297C152.137 88.7034 153.52 90.8798 155.164 91.0195C156.455 89.6527 157.34 86.7541 157.329 83.4023C157.316 79.9803 156.371 77.0381 155.025 75.7197Z" stroke="#2D2B2B" stroke-width="0.260708" stroke-miterlimit="10"/>
<path d="M143.836 92.4746H146.641" stroke="#2D2B2B" stroke-width="0.260708" stroke-miterlimit="10"/>
<path d="M173.711 83.6253L173.756 83.6446L173.715 83.6711L171.689 85.0002C171.857 86.6437 172.353 88.1485 173.042 89.2503C173.733 90.3566 174.614 91.0514 175.547 91.0812L175.547 91.0812C176.641 91.1167 177.659 90.3199 178.42 88.9893C179.181 87.6598 179.681 85.8033 179.737 83.735C179.793 81.6671 179.396 79.7815 178.709 78.4049C178.022 77.0272 177.049 76.1655 175.955 76.13C174.971 76.0982 174.036 76.8749 173.295 78.1143C172.557 79.3476 172.016 81.0313 171.813 82.8034L173.711 83.6253Z" fill="black" stroke="#2D2B2B" stroke-width="0.0521415"/>
<path d="M175.956 76.1039C173.958 76.0393 172.189 79.2554 171.785 82.8196L173.701 83.6493L171.661 84.9871C171.995 88.2928 173.655 91.0467 175.546 91.1073C177.762 91.1792 179.65 87.8791 179.763 83.7357C179.876 79.593 178.172 76.1758 175.956 76.1039Z" stroke="#2D2B2B" stroke-width="0.260708" stroke-miterlimit="10"/>
<path d="M171.738 75.3411C171.89 75.7224 172.139 76.241 172.539 76.7548C172.855 77.1603 173.172 77.4423 173.427 77.6338" stroke="#2D2B2B" stroke-width="0.260708" stroke-miterlimit="10"/>
<path d="M174.085 73.8151C174.125 74.1722 174.199 74.6069 174.335 75.0851C174.484 75.611 174.667 76.0375 174.829 76.3631" stroke="#2D2B2B" stroke-width="0.260708" stroke-miterlimit="10"/>
<path d="M176.797 73.6478C176.726 73.9798 176.661 74.387 176.633 74.8563C176.602 75.4 176.629 75.8742 176.671 76.249" stroke="#2D2B2B" stroke-width="0.260708" stroke-miterlimit="10"/>
<path d="M173.936 83.6689C174.505 83.7811 174.912 83.8888 175.204 84.025C175.523 84.1744 175.706 84.3589 175.814 84.6216C175.921 84.8818 175.953 85.2172 175.977 85.6654C175.982 85.7652 175.987 85.8707 175.992 85.9824C176.007 86.3239 176.025 86.7235 176.066 87.195C176.156 86.5777 176.187 86.0782 176.212 85.6703L176.213 85.6621C176.241 85.209 176.262 84.8656 176.353 84.6021C176.445 84.3354 176.608 84.1505 176.914 84.0123C177.193 83.8866 177.591 83.7991 178.164 83.7218C177.597 83.6112 177.205 83.5123 176.935 83.3885C176.638 83.2525 176.485 83.0853 176.409 82.8394C176.333 82.5973 176.332 82.2796 176.332 81.846L176.332 81.8314C176.332 81.4419 176.332 80.9559 176.281 80.34C176.211 80.8046 176.168 81.1982 176.131 81.5337C176.119 81.6463 176.108 81.7523 176.096 81.8523C176.045 82.2928 175.992 82.6185 175.869 82.8645C175.745 83.1129 175.551 83.2783 175.223 83.4019C174.923 83.5146 174.511 83.5932 173.936 83.6689Z" fill="white" stroke="#2D2B2B" stroke-width="0.0521415"/>
<path d="M192.876 83.7611L192.838 83.7317L192.884 83.7158L194.833 83.0355C194.751 81.2532 194.326 79.5342 193.675 78.2498C193.02 76.9589 192.14 76.1152 191.157 76.0742C190.063 76.0291 189.033 76.8168 188.253 78.1402C187.475 79.4626 186.95 81.3141 186.865 83.3812L186.865 83.3812C186.78 85.4487 187.151 87.3375 187.819 88.7198C188.488 90.1032 189.45 90.9731 190.543 91.0181L190.543 91.0181C191.476 91.0568 192.402 90.4288 193.167 89.3763C193.929 88.3281 194.527 86.8637 194.807 85.2364L192.876 83.7611Z" fill="black" stroke="#2D2B2B" stroke-width="0.0521415"/>
<path d="M191.158 76.0481C193.155 76.1313 194.7 79.4693 194.86 83.0537L192.892 83.7404L194.835 85.2253C194.276 88.4987 192.432 91.1225 190.542 91.0442C188.327 90.9529 186.668 87.522 186.839 83.3801C187.009 79.2391 188.942 75.9568 191.158 76.0481Z" stroke="#2D2B2B" stroke-width="0.260708" stroke-miterlimit="10"/>
<path d="M195.416 75.5993C195.238 75.9693 194.955 76.4685 194.521 76.9508C194.178 77.3321 193.842 77.5906 193.574 77.7627" stroke="#2D2B2B" stroke-width="0.260708" stroke-miterlimit="10"/>
<path d="M193.181 73.9061C193.115 74.2591 193.013 74.6872 192.845 75.1534C192.66 75.6672 192.449 76.08 192.264 76.3918" stroke="#2D2B2B" stroke-width="0.260708" stroke-miterlimit="10"/>
<path d="M190.486 73.5381C190.534 73.8733 190.571 74.2853 190.566 74.7555C190.56 75.3 190.501 75.771 190.434 76.1418" stroke="#2D2B2B" stroke-width="0.260708" stroke-miterlimit="10"/>
<path d="M188.284 84.1663C188.854 84.2783 189.261 84.3859 189.552 84.5221C189.872 84.6714 190.055 84.8559 190.163 85.1185C190.27 85.3788 190.302 85.7141 190.325 86.1623C190.331 86.2622 190.335 86.3678 190.34 86.4797C190.356 86.8211 190.374 87.2204 190.415 87.6915C190.505 87.0736 190.536 86.5737 190.561 86.1656L190.562 86.1584C190.59 85.7052 190.611 85.3619 190.702 85.0984C190.794 84.8319 190.956 84.6471 191.263 84.5091C191.541 84.3835 191.939 84.2963 192.512 84.2192C191.946 84.1084 191.554 84.0093 191.283 83.8855C190.986 83.7493 190.833 83.5821 190.757 83.3362C190.682 83.094 190.681 82.7765 190.681 82.3429L190.681 82.3282C190.681 81.9388 190.681 81.453 190.63 80.8373C190.56 81.3019 190.517 81.6955 190.48 82.0309C190.468 82.1434 190.456 82.2494 190.445 82.3493C190.393 82.7896 190.341 83.1153 190.218 83.3613C190.094 83.6097 189.899 83.7752 189.571 83.8989C189.272 84.0117 188.859 84.0903 188.284 84.1663Z" fill="white" stroke="#2D2B2B" stroke-width="0.0521415"/>
<path d="M183.364 92.5628C183.44 92.5628 183.517 92.5147 183.591 92.4169C183.665 92.3195 183.732 92.1769 183.789 91.9984C183.904 91.6416 183.975 91.147 183.975 90.5991C183.975 90.0513 183.904 89.5565 183.789 89.1995C183.732 89.0209 183.665 88.8782 183.591 88.7807C183.517 88.6828 183.44 88.6347 183.364 88.6347C183.288 88.6347 183.211 88.6828 183.137 88.7807C183.064 88.8782 182.996 89.0209 182.939 89.1995C182.825 89.5565 182.754 90.0513 182.754 90.5991C182.754 91.147 182.825 91.6416 182.939 91.9984C182.996 92.1769 183.064 92.3195 183.137 92.4169C183.211 92.5147 183.288 92.5628 183.364 92.5628Z" fill="black" stroke="#2D2B2B" stroke-width="0.0521415"/>
<path d="M184.001 90.5991C184.001 91.6986 183.716 92.5889 183.364 92.5889C183.013 92.5889 182.728 91.6986 182.728 90.5991C182.728 89.4997 183.013 88.6086 183.364 88.6086C183.716 88.6086 184.001 89.4997 184.001 90.5991Z" stroke="#2D2B2B" stroke-width="0.260708" stroke-miterlimit="10"/>
<path d="M136.954 105.381C136.884 105.83 136.749 106.224 136.596 106.606C136.543 106.741 136.487 106.874 136.431 107.008C136.327 107.255 136.222 107.504 136.128 107.769C135.762 108.807 135.972 109.631 136.298 110.435C136.371 110.616 136.45 110.797 136.53 110.979C136.805 111.602 137.086 112.241 137.154 112.978C137.206 113.547 137.162 114.077 137.121 114.59C137.117 114.635 137.113 114.68 137.11 114.724C137.066 115.267 137.034 115.793 137.127 116.335C138.693 115.366 140.622 115.642 142.398 116.079C142.402 115.734 142.36 115.357 142.316 114.963C142.295 114.773 142.274 114.579 142.257 114.383C142.204 113.771 142.196 113.143 142.389 112.57L142.389 112.57C142.416 112.492 142.442 112.414 142.468 112.337C142.883 111.119 143.243 110.06 142.974 108.748C142.869 108.24 142.59 107.766 142.309 107.29C142.255 107.199 142.201 107.107 142.149 107.016C141.822 106.448 141.541 105.867 141.615 105.222C141.671 104.728 141.803 104.283 141.933 103.845C141.968 103.724 142.004 103.605 142.038 103.485C142.194 102.926 142.314 102.359 142.24 101.69C142.072 100.176 141.364 98.7284 139.644 98.4388C138.512 98.2484 137.761 98.5919 137.282 99.1661C136.801 99.7421 136.59 100.553 136.549 101.302L136.549 101.302C136.514 101.951 136.643 102.572 136.771 103.191C136.782 103.242 136.793 103.293 136.803 103.344C136.941 104.013 137.063 104.682 136.954 105.381ZM136.954 105.381L136.928 105.377L136.954 105.381C136.954 105.381 136.954 105.381 136.954 105.381Z" fill="black" stroke="#2D2B2B" stroke-width="0.0521415"/>
<path d="M142.999 108.743C143.288 110.146 142.859 111.262 142.414 112.579C142.03 113.714 142.445 115.072 142.423 116.112C140.626 115.668 138.679 115.385 137.108 116.378C136.904 115.259 137.241 114.214 137.128 112.98C136.954 111.086 135.365 109.854 136.104 107.761C136.393 106.942 136.789 106.27 136.928 105.377C137.144 103.99 136.445 102.714 136.523 101.3C136.606 99.7978 137.368 98.0294 139.649 98.4131C141.386 98.7056 142.098 100.169 142.266 101.687C142.415 103.035 141.784 103.972 141.64 105.225C141.495 106.496 142.748 107.522 142.999 108.743Z" stroke="#2D2B2B" stroke-width="0.260708" stroke-miterlimit="10"/>
<path d="M137.487 101.348L137.487 101.348C137.45 102.005 137.581 102.632 137.71 103.251C137.72 103.302 137.731 103.353 137.741 103.404C137.88 104.073 137.999 104.735 137.891 105.423L137.891 105.423C137.823 105.866 137.691 106.255 137.539 106.636C137.485 106.773 137.427 106.909 137.37 107.046C137.267 107.29 137.163 107.538 137.07 107.8L137.07 107.8C136.697 108.856 136.911 109.694 137.239 110.504C137.313 110.688 137.394 110.871 137.474 111.054C137.748 111.676 138.024 112.304 138.09 113.031L138.09 113.031C138.138 113.546 138.098 114.015 138.052 114.478C138.048 114.516 138.044 114.554 138.04 114.592C137.998 115.009 137.956 115.425 137.975 115.864C137.965 115.868 137.956 115.872 137.946 115.877C137.656 116.006 137.406 116.118 137.132 116.288C137.039 115.745 137.069 115.231 137.111 114.699C137.115 114.655 137.118 114.611 137.122 114.567L137.487 101.348ZM137.487 101.348C137.523 100.706 137.682 100.014 138.031 99.4606C138.357 98.943 138.849 98.5464 139.558 98.4249C138.474 98.2656 137.749 98.6061 137.282 99.1656C136.8 99.7417 136.59 100.553 136.548 101.302L136.522 101.3L136.548 101.302C136.512 101.951 136.641 102.572 136.77 103.192C136.781 103.243 136.792 103.293 136.802 103.344C136.94 104.013 137.062 104.683 136.953 105.381C136.883 105.83 136.749 106.224 136.597 106.606C136.542 106.745 136.484 106.882 136.426 107.02C136.324 107.263 136.221 107.508 136.128 107.768C135.761 108.806 135.971 109.631 136.296 110.435C136.37 110.616 136.449 110.797 136.529 110.979C136.804 111.602 137.084 112.241 137.152 112.977L137.487 101.348Z" fill="white" stroke="#2D2B2B" stroke-width="0.0521415"/>
<path d="M137.513 101.349C137.434 102.763 138.134 104.041 137.917 105.427C137.779 106.319 137.385 106.991 137.094 107.809C136.354 109.902 137.943 111.136 138.116 113.029C138.211 114.064 137.956 114.913 138.002 115.88C137.68 116.024 137.412 116.141 137.113 116.33C136.909 115.211 137.239 114.213 137.126 112.979C136.953 111.086 135.363 109.853 136.104 107.76C136.395 106.942 136.789 106.27 136.927 105.377C137.144 103.992 136.444 102.714 136.522 101.3C136.606 99.7976 137.369 98.0284 139.649 98.4129C139.67 98.4178 139.696 98.4194 139.717 98.4291C138.146 98.6011 137.585 100.071 137.513 101.349Z" stroke="#2D2B2B" stroke-width="0.260708" stroke-miterlimit="10"/>
<path d="M157.283 109.833L157.283 109.833C157.553 111.144 157.193 112.204 156.778 113.422C156.752 113.499 156.726 113.577 156.699 113.655C156.699 113.655 156.699 113.655 156.699 113.655L156.724 113.663C156.446 114.485 156.489 114.986 156.544 115.636C156.554 115.752 156.564 115.872 156.573 116L157.283 109.833ZM157.283 109.833C157.179 109.324 156.899 108.85 156.618 108.373C156.564 108.282 156.511 108.191 156.458 108.1C156.132 107.532 155.85 106.951 155.924 106.307C155.981 105.813 156.113 105.368 156.243 104.93C156.278 104.809 156.314 104.689 156.347 104.569C156.504 104.011 156.624 103.444 156.55 102.775C156.382 101.261 155.674 99.8129 153.954 99.5234L153.958 99.4977L153.954 99.5234C152.822 99.3325 152.071 99.6759 151.591 100.25C151.11 100.826 150.9 101.637 150.859 102.386C150.823 103.035 150.952 103.656 151.081 104.275C151.092 104.326 151.102 104.377 151.113 104.428C151.251 105.097 151.373 105.767 151.264 106.465C151.194 106.914 151.059 107.308 150.906 107.691C150.853 107.825 150.797 107.958 150.741 108.092C150.637 108.339 150.532 108.588 150.438 108.854C150.072 109.892 150.282 110.716 150.607 111.519C150.681 111.701 150.76 111.881 150.84 112.063C151.115 112.686 151.396 113.325 151.464 114.062L151.464 114.062C151.515 114.625 151.483 115.031 151.446 115.503C151.435 115.647 151.423 115.798 151.413 115.962M157.283 109.833L151.413 115.962M151.413 115.962C153.174 115.442 155.01 115.252 156.546 115.987C156.537 115.865 156.527 115.75 156.518 115.639L151.413 115.962Z" fill="black" stroke="#2D2B2B" stroke-width="0.0521415"/>
<path d="M157.309 109.828C157.598 111.23 157.169 112.347 156.724 113.663C156.393 114.642 156.517 115.166 156.575 116.03C155.029 115.271 153.17 115.466 151.385 115.997C151.427 115.277 151.506 114.81 151.438 114.065C151.263 112.17 149.675 110.938 150.414 108.845C150.703 108.026 151.099 107.354 151.238 106.461C151.454 105.075 150.755 103.799 150.833 102.384C150.916 100.882 151.678 99.1131 153.958 99.4977C155.695 99.7901 156.408 101.253 156.576 102.772C156.724 104.119 156.094 105.056 155.95 106.309C155.804 107.579 157.058 108.606 157.309 109.828Z" stroke="#2D2B2B" stroke-width="0.260708" stroke-miterlimit="10"/>
<path d="M151.237 106.463L151.263 106.466C151.194 106.916 151.06 107.309 150.907 107.691C150.852 107.83 150.795 107.967 150.737 108.105C150.635 108.347 150.532 108.592 150.439 108.853C150.072 109.891 150.282 110.716 150.607 111.52C150.681 111.701 150.76 111.882 150.84 112.064C151.114 112.687 151.395 113.325 151.463 114.062L151.463 114.062C151.516 114.64 151.489 114.996 151.454 115.459C151.445 115.586 151.435 115.721 151.426 115.87C151.58 115.827 151.724 115.801 151.868 115.779C151.9 115.774 151.933 115.769 151.965 115.764C152.083 115.746 152.203 115.728 152.33 115.701C152.343 115.532 152.359 115.384 152.373 115.245C152.411 114.878 152.443 114.574 152.401 114.116C152.335 113.389 152.059 112.761 151.785 112.139C151.704 111.956 151.624 111.773 151.549 111.588C151.222 110.779 151.007 109.94 151.38 108.885L151.38 108.885C151.474 108.623 151.578 108.375 151.68 108.131C151.738 107.994 151.795 107.858 151.85 107.721C152.001 107.341 152.134 106.951 152.202 106.508L152.202 106.508C152.31 105.82 152.19 105.158 152.052 104.489C152.042 104.438 152.031 104.387 152.02 104.336C151.892 103.717 151.761 103.09 151.798 102.433L151.798 102.433C151.834 101.791 151.993 101.1 152.342 100.546C152.668 100.028 153.159 99.631 153.869 99.5093C152.785 99.3499 152.06 99.6907 151.592 100.25C151.111 100.827 150.901 101.638 150.859 102.387L150.859 102.387C150.823 103.036 150.952 103.657 151.081 104.277C151.092 104.327 151.102 104.378 151.113 104.429C151.251 105.098 151.372 105.769 151.263 106.467L151.237 106.463ZM151.237 106.463C151.143 107.07 150.931 107.575 150.713 108.093C150.611 108.337 150.507 108.583 150.414 108.844M151.237 106.463C151.354 105.717 151.205 105.003 151.055 104.281C150.927 103.662 150.797 103.038 150.833 102.385L150.414 108.844M150.414 108.844C149.96 110.129 150.383 111.089 150.817 112.077C151.091 112.699 151.37 113.332 151.437 114.064L150.414 108.844Z" fill="white" stroke="#2D2B2B" stroke-width="0.0521415"/>
<path d="M151.824 102.435C151.745 103.848 152.445 105.126 152.228 106.512C152.09 107.404 151.696 108.077 151.405 108.893C150.664 110.987 152.254 112.22 152.427 114.114C152.486 114.754 152.401 115.098 152.355 115.723C152.013 115.796 151.729 115.807 151.397 115.905C151.44 115.185 151.505 114.811 151.437 114.064C151.263 112.171 149.674 110.938 150.414 108.844C150.705 108.027 151.099 107.355 151.237 106.463C151.455 105.077 150.754 103.798 150.833 102.385C150.916 100.883 151.679 99.1127 153.96 99.4973C153.981 99.5029 154.006 99.5045 154.027 99.5134C152.457 99.6863 151.896 101.157 151.824 102.435Z" stroke="#2D2B2B" stroke-width="0.260708" stroke-miterlimit="10"/>
<path d="M146.986 118.993C147.753 118.993 148.447 118.895 148.948 118.737C149.198 118.659 149.399 118.565 149.537 118.463C149.675 118.36 149.745 118.252 149.745 118.143C149.745 118.034 149.675 117.926 149.537 117.823C149.399 117.721 149.198 117.628 148.948 117.549C148.447 117.392 147.753 117.294 146.986 117.294C146.218 117.294 145.524 117.392 145.023 117.549C144.773 117.628 144.572 117.721 144.434 117.823C144.296 117.926 144.226 118.034 144.226 118.143C144.226 118.252 144.296 118.36 144.434 118.463C144.572 118.565 144.773 118.659 145.023 118.737C145.524 118.895 146.218 118.993 146.986 118.993Z" fill="black" stroke="#2D2B2B" stroke-width="0.0521415"/>
<path d="M149.771 118.143C149.771 118.627 148.524 119.019 146.986 119.019C145.447 119.019 144.199 118.627 144.199 118.143C144.199 117.659 145.447 117.268 146.986 117.268C148.524 117.268 149.771 117.659 149.771 118.143Z" stroke="#2D2B2B" stroke-width="0.260708" stroke-miterlimit="10"/>
<path d="M212.599 109.826L213.175 109.286L209.816 108.934L209.993 112.298L211.091 111.251L211.11 111.233L211.128 111.252L213.494 113.703L214.333 112.905L211.993 110.431L211.975 110.412L211.994 110.394L212.012 110.413L211.994 110.394L211.994 110.394L211.994 110.393L211.995 110.393L211.997 110.39L212.007 110.381L212.046 110.345L212.183 110.217L212.599 109.826Z" fill="white" stroke="#2D2B2B" stroke-width="0.0521415"/>
<path d="M153.62 48.1908V48.1908C153.592 42.8376 152.338 37.9973 150.334 34.5001C148.329 31.0021 145.578 28.8527 142.558 28.868C139.217 28.8921 136.23 31.5669 134.241 35.786L134.241 35.786C133.074 38.2477 132.258 41.2323 131.901 44.5113C131.772 45.7399 131.705 47.0177 131.711 48.319L131.711 48.319C131.717 49.9634 131.845 51.5526 132.076 53.0755H153.291C153.517 51.5155 153.632 49.8772 153.62 48.1908Z" fill="white" stroke="#2D2B2B" stroke-width="0.0521415"/>
<path d="M153.646 48.1907C153.658 49.8863 153.542 51.5335 153.314 53.1016H132.054C131.82 51.5707 131.691 49.9728 131.685 48.3191C131.679 47.0169 131.746 45.7381 131.875 44.5085C132.232 41.227 133.049 38.2396 134.217 35.7748C136.209 31.5522 139.202 28.8661 142.558 28.8419C148.624 28.8112 153.591 37.477 153.646 48.1907Z" stroke="#2D2B2B" stroke-width="0.260708" stroke-miterlimit="10"/>
<path d="M131.402 30.7066C131.402 30.7066 131.17 34.4098 134.214 35.7726" stroke="#2D2B2B" stroke-width="0.260708" stroke-miterlimit="10"/>
<path d="M128.366 34.81C128.366 34.81 129.121 38.8121 132.758 39.1934" stroke="#2D2B2B" stroke-width="0.260708" stroke-miterlimit="10"/>
<path d="M127.366 40.5735C127.366 40.5735 128.239 44.0569 131.876 44.5117" stroke="#2D2B2B" stroke-width="0.260708" stroke-miterlimit="10"/>
<path d="M143.322 45.1476L143.409 45.1744L143.321 45.1977L135.467 47.2946C135.467 47.7675 135.473 48.2397 135.491 48.7236C135.552 50.227 135.711 51.6879 135.948 53.0755H149.701C149.785 51.9036 149.803 50.6768 149.742 49.2978L149.742 49.2977C149.561 44.897 148.595 40.8779 147.181 37.9399C146.475 36.4709 145.657 35.2731 144.77 34.433C143.883 33.5929 142.929 33.1117 141.949 33.072C140.456 33.014 139.112 33.9897 138.037 35.7163C136.966 37.4381 136.168 39.9016 135.765 42.8122L143.322 45.1476Z" fill="black" stroke="#2D2B2B" stroke-width="0.0521415"/>
<path d="M149.725 53.1016H135.926C135.686 51.7064 135.527 50.237 135.465 48.7247C135.447 48.2335 135.441 47.7544 135.441 47.2746L143.314 45.1725L135.736 42.8306C136.541 36.9858 138.938 32.9288 141.95 33.0459C145.902 33.2059 149.405 40.4895 149.768 49.2966C149.83 50.6861 149.811 51.9213 149.725 53.1016Z" stroke="#2D2B2B" stroke-width="0.260708" stroke-miterlimit="10"/>
<path d="M193.823 48.5097L193.823 48.5096C193.829 47.2076 193.761 45.9362 193.626 44.7085L193.626 44.7083C193.282 41.4286 192.459 38.4384 191.293 35.9767L191.293 35.9767C189.304 31.764 186.316 29.0828 182.97 29.0643C179.95 29.0462 177.199 31.1958 175.195 34.6946C173.192 38.1926 171.939 43.0343 171.914 48.3871L171.914 48.3872C171.901 50.0064 172.005 51.5777 172.206 53.0755H193.488C193.701 51.614 193.817 50.0862 193.823 48.5097Z" fill="white" stroke="#2D2B2B" stroke-width="0.0521415"/>
<path d="M193.849 48.5098C193.843 50.0956 193.726 51.6321 193.511 53.1016H172.183C171.98 51.5957 171.875 50.0156 171.888 48.387C171.937 37.6741 176.903 29.0019 182.97 29.0382C186.332 29.0568 189.325 31.7494 191.317 35.9655C192.484 38.4303 193.308 41.4233 193.652 44.7056C193.787 45.9344 193.855 47.2067 193.849 48.5098Z" stroke="#2D2B2B" stroke-width="0.260708" stroke-miterlimit="10"/>
<path d="M194.128 30.8996C194.128 30.8996 194.361 34.602 191.317 35.9648" stroke="#2D2B2B" stroke-width="0.260708" stroke-miterlimit="10"/>
<path d="M197.166 35.0006C197.166 35.0006 196.41 39.0035 192.774 39.3848" stroke="#2D2B2B" stroke-width="0.260708" stroke-miterlimit="10"/>
<path d="M198.165 40.7657C198.165 40.7657 197.292 44.2491 193.655 44.7032" stroke="#2D2B2B" stroke-width="0.260708" stroke-miterlimit="10"/>
<path d="M175.787 49.4948L175.787 49.4948C175.732 50.7996 175.744 51.965 175.816 53.0755H189.617C189.836 51.7485 189.976 50.3498 190.037 48.915C190.056 48.4368 190.061 47.9585 190.062 47.4917L182.208 45.3884L182.12 45.365L182.207 45.3383L189.77 43.0029C189.363 40.0919 188.564 37.6284 187.492 35.9066C186.417 34.18 185.072 33.2042 183.58 33.2618C182.6 33.3017 181.646 33.7831 180.759 34.6233C179.872 35.4636 179.054 36.6615 178.347 38.1309C176.934 41.0697 175.968 45.0904 175.787 49.4948Z" fill="black" stroke="#2D2B2B" stroke-width="0.0521415"/>
<path d="M190.088 47.4717C190.088 47.9451 190.082 48.4306 190.063 48.9161C190.001 50.3598 189.861 51.767 189.639 53.1016H175.791C175.718 51.9827 175.706 50.8089 175.76 49.4937C176.123 40.6793 179.627 33.3966 183.579 33.2358C186.59 33.1195 188.987 37.1757 189.798 43.0213L182.214 45.3632L190.088 47.4717Z" stroke="#2D2B2B" stroke-width="0.260708" stroke-miterlimit="10"/>
<path d="M179.848 53.2506L145.394 53.1215L145.396 53.1301C145.399 53.1552 145.404 53.1925 145.412 53.2412C145.427 53.3386 145.452 53.4817 145.489 53.6639C145.564 54.0284 145.689 54.5494 145.89 55.1753C146.292 56.4271 147 58.0977 148.219 59.7731C150.656 63.1228 155.141 66.4946 163.338 66.5724C170.767 66.643 174.894 63.3046 177.165 59.95C178.301 58.2721 178.973 56.5896 179.361 55.3265C179.555 54.695 179.678 54.1685 179.752 53.7999C179.789 53.6156 179.814 53.4709 179.83 53.3722C179.838 53.3229 179.843 53.2851 179.847 53.2597L179.848 53.2506Z" fill="white" stroke="#2D2B2B" stroke-width="0.0521415"/>
<path d="M145.365 53.0953C145.365 53.0953 146.928 66.4426 163.337 66.5985C178.215 66.7399 179.878 53.2246 179.878 53.2246L145.365 53.0953Z" stroke="#2D2B2B" stroke-width="0.260708" stroke-miterlimit="10"/>
<path d="M153.655 64.4502V53.1298" stroke="#2D2B2B" stroke-width="0.260708" stroke-miterlimit="10"/>
<path d="M163.207 66.5987V53.1633" stroke="#2D2B2B" stroke-width="0.260708" stroke-miterlimit="10"/>
<path d="M172.848 64.1738V53.1968" stroke="#2D2B2B" stroke-width="0.260708" stroke-miterlimit="10"/>
<path d="M162.751 55.2356C165.567 55.2356 167.851 52.9522 167.851 50.1359C167.851 47.3188 165.567 45.0362 162.751 45.0362C159.935 45.0362 157.651 47.3188 157.651 50.1359C157.651 52.9522 159.935 55.2356 162.751 55.2356Z" fill="#BA4D65" stroke="#2D2B2B" stroke-width="0.0521415"/>
<path d="M167.877 50.1359C167.877 52.9666 165.582 55.2617 162.751 55.2617C159.92 55.2617 157.625 52.9666 157.625 50.1359C157.625 47.3044 159.92 45.0101 162.751 45.0101C165.582 45.0101 167.877 47.3044 167.877 50.1359Z" stroke="#2D2B2B" stroke-width="0.260708" stroke-miterlimit="10"/>
<path d="M160.068 21.4451C161.038 21.6836 161.802 21.9013 162.405 22.1592C163.041 22.4313 163.5 22.7488 163.834 23.1845C164.168 23.6199 164.375 24.1711 164.513 24.9074C164.643 25.6014 164.711 26.4616 164.763 27.547C164.994 26.4852 165.203 25.6479 165.446 24.9848C165.703 24.2814 165.998 23.7721 166.4 23.3977C166.801 23.0231 167.306 22.7856 167.978 22.6221C168.615 22.4672 169.404 22.3784 170.4 22.3029C169.43 22.0644 168.667 21.8468 168.064 21.5889C167.428 21.3168 166.969 20.9993 166.635 20.5636C166.301 20.1282 166.093 19.577 165.955 18.8407C165.826 18.1467 165.757 17.2864 165.705 16.201C165.474 17.2629 165.265 18.1001 165.023 18.7632C164.766 19.4667 164.47 19.976 164.069 20.3504C163.667 20.725 163.162 20.9625 162.49 21.126C161.853 21.2809 161.064 21.3697 160.068 21.4451Z" fill="#FE7354" stroke="#2D2B2B" stroke-width="0.0521415"/>
<path d="M170.566 22.3167C166.271 22.6294 165.738 23.127 164.747 27.7479C164.532 23.0268 164.087 22.4476 159.902 21.4313C164.197 21.1187 164.731 20.6211 165.722 16.0002C165.937 20.7212 166.382 21.3005 170.566 22.3167Z" stroke="#2D2B2B" stroke-width="0.391061" stroke-miterlimit="10"/>
<path d="M216.636 39.4407C217.825 40.0355 218.75 40.5403 219.453 41.0498C220.184 41.5805 220.676 42.1173 220.975 42.7679C221.274 43.4183 221.379 44.1798 221.342 45.1578C221.306 46.0929 221.139 47.2278 220.886 48.6551C221.499 47.3416 222.015 46.3172 222.523 45.5314C223.054 44.7095 223.578 44.1467 224.197 43.7864C224.815 43.4259 225.527 43.2694 226.43 43.2557C227.298 43.2425 228.345 43.3609 229.66 43.5576C228.471 42.9628 227.546 42.458 226.844 41.9485C226.112 41.4178 225.62 40.881 225.321 40.2304C225.022 39.5801 224.917 38.8185 224.955 37.8405C224.991 36.9054 225.157 35.7706 225.41 34.3432C224.797 35.6568 224.281 36.6811 223.773 37.4669C223.242 38.2888 222.718 38.8516 222.099 39.212C221.481 39.5724 220.769 39.7289 219.866 39.7427C218.998 39.7558 217.951 39.6375 216.636 39.4407Z" fill="#FE7354" stroke="#2D2B2B" stroke-width="0.0521415"/>
<path d="M229.819 43.6081C224.252 42.7622 223.427 43.2429 220.825 48.8477C221.918 42.7655 221.519 41.8987 216.477 39.3903C222.044 40.2361 222.869 39.7554 225.471 34.1506C224.378 40.2329 224.777 41.0997 229.819 43.6081Z" stroke="#2D2B2B" stroke-width="0.391061" stroke-miterlimit="10"/>
<path d="M104.077 43.2823C103.394 43.8062 102.491 44.3312 101.328 44.9524C102.627 44.7226 103.661 44.5774 104.522 44.5675C105.418 44.5571 106.128 44.6933 106.751 45.0343C107.374 45.3752 107.909 45.9193 108.457 46.7203C108.982 47.4858 109.521 48.4874 110.164 49.7732C109.875 48.3651 109.68 47.2444 109.619 46.3183C109.556 45.3493 109.64 44.5913 109.919 43.9383C110.198 43.285 110.672 42.7395 111.383 42.1937C112.066 41.6698 112.97 41.1447 114.132 40.5233C112.834 40.7533 111.8 40.8985 110.939 40.9085C110.042 40.919 109.333 40.7827 108.709 40.4417C108.086 40.1007 107.552 39.5565 107.003 38.7555C106.478 37.9899 105.939 36.9882 105.297 35.7024C105.586 37.1106 105.781 38.2313 105.841 39.1575C105.905 40.1265 105.821 40.8846 105.542 41.5377C105.262 42.191 104.789 42.7365 104.077 43.2823Z" fill="#FE7354" stroke="#2D2B2B" stroke-width="0.0521415"/>
<path d="M114.29 40.4686C109.357 43.0909 108.984 43.9609 110.23 49.9641C107.5 44.4747 106.67 44.0207 101.17 45.0071C106.104 42.3856 106.476 41.5147 105.23 35.5116C107.96 41.0009 108.791 41.4558 114.29 40.4686Z" stroke="#2D2B2B" stroke-width="0.391061" stroke-miterlimit="10"/>
</g>
<defs>
<clipPath id="clip0_1063_13889">
<rect width="290" height="200" fill="white"/>
</clipPath>
</defs>
</svg>
