<svg width="290" height="200" viewBox="0 0 290 200" fill="none" xmlns="http://www.w3.org/2000/svg">
<g clip-path="url(#clip0_1063_14064)">
<path d="M266 0H24C10.7452 0 0 10.7452 0 24V176C0 189.255 10.7452 200 24 200H266C279.255 200 290 189.255 290 176V24C290 10.7452 279.255 0 266 0Z" fill="#C552A4"/>
<mask id="mask0_1063_14064" style="mask-type:alpha" maskUnits="userSpaceOnUse" x="75" y="25" width="246" height="246">
<path d="M198 25.5C265.655 25.5 320.5 80.3451 320.5 148C320.5 215.655 265.655 270.5 198 270.5C130.345 270.5 75.5 215.655 75.5 148C75.5 80.3451 130.345 25.5 198 25.5Z" fill="#2A2362" stroke="black"/>
</mask>
<g mask="url(#mask0_1063_14064)">
<path d="M24 0.5H266C278.979 0.5 289.5 11.0213 289.5 24V176C289.5 188.979 278.979 199.5 266 199.5H24C11.0213 199.5 0.5 188.979 0.5 176V24C0.5 11.0213 11.0213 0.5 24 0.5Z" fill="#F0CD4E" stroke="black"/>
</g>
<path d="M213.6 175.78C216 175.91 218.3 176.96 220.7 176.92C221.643 176.86 222.581 176.744 223.51 176.57C227.342 176.013 231.251 176.383 234.91 177.65" stroke="#2D2B2B" stroke-linecap="round" stroke-linejoin="round"/>
<path d="M144.46 96.1296C145.62 95.6396 146.93 95.2996 147.66 94.2396C148.509 92.9724 149.16 91.5831 149.59 90.1196M156.48 53.4896C157.78 55.3707 159.733 56.7004 161.96 57.2196C163.12 57.4796 164.26 57.5596 165.44 57.5696C165.98 57.5796 166.52 57.2696 167.01 57.1096M212.22 66.7996C212.99 68.6296 214.09 70.4096 216.01 71.1696C216.84 71.4996 217.48 72.1296 218.36 72.3696C218.84 72.5096 219.71 72.5896 220.21 72.6696M188.19 45.0996C187.87 45.9696 188.09 46.4596 188.59 47.2296C189.19 48.1696 189.55 49.3296 190.33 50.1596C190.86 50.7196 191.13 51.3296 191.82 51.6996C192.19 51.8996 192.47 52.1896 192.83 52.3696M137.12 160.14C137.11 159.08 137.22 158.57 138.08 158.07C138.68 157.72 139.69 157.18 140.43 157.06C142.99 156.64 145.53 157.28 148.06 157.69" stroke="#24213A" stroke-linecap="round"/>
<g clip-path="url(#clip1_1063_14064)">
<path d="M157.625 167.419C157.625 184.813 143.537 184.812 126 184.812C108.463 184.812 94.375 184.813 94.375 167.419C94.375 150.025 108.606 121.562 126 121.562C143.394 121.562 157.625 149.881 157.625 167.419Z" fill="#DBB471"/>
<path opacity="0.5" d="M138.958 162.917L138.959 162.916C145.805 161.403 149.532 158.661 151.473 155.722C153.221 153.077 153.511 150.285 153.34 148.118C156.044 154.811 157.525 161.723 157.525 167.419C157.525 171.754 156.638 174.994 155.046 177.42C153.454 179.844 151.151 181.463 148.3 182.545C142.589 184.711 134.704 184.713 126 184.713C117.296 184.713 109.411 184.711 103.682 182.563C100.822 181.49 98.5047 179.884 96.8928 177.479C95.2805 175.074 94.3671 171.861 94.3312 167.562C94.3312 165.683 94.5829 163.803 94.8515 161.797C94.8518 161.795 94.8521 161.792 94.8525 161.79C96.7206 166.506 101.811 169.498 107.228 171.251C112.792 173.052 118.735 173.557 121.984 173.268L121.984 173.268C123.9 173.088 124.739 172.606 125.195 171.888C125.419 171.536 125.546 171.133 125.669 170.705C125.684 170.655 125.698 170.605 125.712 170.554C125.823 170.167 125.94 169.758 126.128 169.327C126.969 167.399 129.26 165 138.958 162.917Z" fill="#2C3FE1" stroke="black" stroke-width="0.2"/>
<path d="M128.775 155.2V155.294L128.869 155.299C130.156 155.371 131.395 155.621 132.382 156.202C133.364 156.781 134.101 157.692 134.383 159.1C134.736 160.863 134.208 162.342 133.201 163.526C132.192 164.713 130.699 165.603 129.128 166.174L129.056 166.2L129.063 166.277C129.207 168.002 129.35 169.584 129.494 171.165L129.494 171.166C129.527 171.498 129.428 171.737 129.268 171.893C129.106 172.051 128.872 172.134 128.623 172.134C128.126 172.134 127.603 171.805 127.537 171.146C127.393 169.565 127.249 168.127 127.106 166.69L127.097 166.6H127.006C126.142 166.6 125.288 166.599 124.435 166.457L124.319 166.438V166.556C124.319 167.878 124.44 169.079 124.571 170.375C124.583 170.494 124.595 170.614 124.607 170.735C124.64 171.067 124.54 171.306 124.38 171.462C124.218 171.62 123.984 171.703 123.736 171.703C123.239 171.703 122.716 171.374 122.65 170.715C122.506 169.133 122.362 167.557 122.362 165.981V165.919L122.307 165.891C120.88 165.178 119.453 164.179 118.169 162.752C117.781 162.299 117.904 161.711 118.256 161.342C118.431 161.159 118.656 161.038 118.891 161.018C119.122 160.998 119.372 161.076 119.604 161.308L119.608 161.312C120.325 162.028 121.195 162.899 122.213 163.48L122.362 163.566V163.393V163.391C122.362 161.524 122.362 159.652 122.218 157.779L122.213 157.704L122.138 157.689C120.708 157.403 119.444 156.978 118.46 155.713L118.46 155.713C117.404 154.376 117.338 153.014 117.879 151.846C118.423 150.67 119.586 149.679 121.006 149.111L121.025 149.104L121.039 149.089C121.076 149.052 121.101 149.028 121.121 149.01C121.141 148.992 121.151 148.985 121.157 148.982C121.168 148.977 121.177 148.975 121.256 148.975H121.389L121.352 148.847C121.21 148.348 121.103 147.848 120.995 147.344L120.994 147.343C120.887 146.841 120.778 146.335 120.634 145.828L120.634 145.828L120.633 145.827C120.533 145.493 120.585 145.218 120.714 145.01C120.845 144.801 121.061 144.653 121.301 144.587C121.54 144.521 121.796 144.538 122.007 144.65C122.214 144.761 122.385 144.968 122.452 145.3L122.452 145.301L122.454 145.308C122.742 146.316 123.027 147.315 123.17 148.314L123.184 148.411L123.281 148.399C124.423 148.256 125.565 148.256 126.706 148.399L126.819 148.413V148.3V144.131C126.819 143.799 126.942 143.557 127.122 143.397C127.304 143.236 127.549 143.153 127.797 143.153C128.045 143.153 128.29 143.236 128.472 143.397C128.651 143.557 128.775 143.799 128.775 144.131V148.875V148.944L128.84 148.968C129.983 149.397 131.127 149.969 132.13 150.542C132.391 150.705 132.517 150.93 132.549 151.166C132.582 151.404 132.517 151.66 132.384 151.877C132.25 152.094 132.052 152.266 131.826 152.342C131.604 152.418 131.349 152.404 131.088 152.242C130.503 151.804 129.633 151.37 128.912 151.082L128.775 151.027V151.175V155.2ZM126.819 150.456V150.369L126.733 150.357L126.729 150.356C125.726 150.213 124.713 150.068 123.7 150.068H123.591L123.6 150.177L124.032 155.352L124.039 155.443H124.131H124.85C125.128 155.443 125.405 155.411 125.69 155.377C125.707 155.375 125.725 155.373 125.742 155.371C126.047 155.335 126.366 155.3 126.719 155.3H126.819V155.2V150.456ZM119.748 154.12L119.753 154.125L119.759 154.13L119.77 154.138C120.328 154.557 120.908 154.991 121.493 155.146C121.66 155.3 121.832 155.3 121.971 155.3H121.975H122.085L122.074 155.19C122.003 154.471 121.931 153.788 121.859 153.105L121.859 153.105C121.787 152.422 121.715 151.739 121.643 151.021L121.629 150.877L121.499 150.941C120.924 151.229 120.153 151.668 119.689 152.205C119.456 152.475 119.293 152.779 119.281 153.109C119.268 153.443 119.41 153.783 119.748 154.12ZM124.319 164.119L124.324 164.191L124.394 164.209L124.4 164.21C124.97 164.353 125.561 164.501 126.297 164.356C126.435 164.356 126.548 164.356 126.663 164.337C126.783 164.317 126.901 164.277 127.051 164.202L127.106 164.174V164.112C127.106 162.961 127.07 161.845 127.034 160.732L127.034 160.731C126.998 159.616 126.962 158.504 126.962 157.356V157.256H126.862C126.427 157.256 125.992 157.292 125.562 157.328L125.56 157.328C125.128 157.364 124.701 157.4 124.275 157.4H124.175V157.5V157.501C124.175 159.8 124.175 161.959 124.319 164.119ZM131.091 162.755L131.091 162.755L131.094 162.753C132.2 161.868 132.576 160.643 132.314 159.561C132.053 158.478 131.159 157.553 129.758 157.258L129.748 157.256H129.737H129.019H128.919V157.356V157.357C128.919 159.513 128.919 161.528 129.063 163.688L129.073 163.838L129.207 163.77C129.342 163.703 129.488 163.634 129.638 163.563C130.115 163.338 130.647 163.088 131.091 162.755Z" fill="#2C3FE1" stroke="black" stroke-width="0.2"/>
<path d="M128.875 179.062H125.569V184.812L138.938 192L169.125 182.656V177.625L158.056 171.156L128.875 179.062Z" fill="#2C3FE1"/>
<path d="M126 175.756C126 175.756 129.45 181.363 139.225 186.25C139.225 186.25 154.462 185.531 169.125 175.756C169.125 175.756 160.644 171.588 158.2 166.125C158.2 166.125 152.45 174.175 126 175.756Z" fill="#7666FF"/>
<path d="M119.531 178.919L122.694 178.775L123.125 184.094L110.619 192L80.575 185.532L80.1438 180.788L90.35 173.744L119.531 178.919Z" fill="#2C3FE1"/>
<path d="M121.975 175.612C121.975 175.612 118.956 181.219 109.9 186.538C109.9 186.538 95.0938 186.969 80 179.063C80 179.063 88.05 174.463 89.9187 169C89.9187 169 96.2438 176.187 121.975 175.612Z" fill="#7666FF"/>
<path d="M114.787 177.194C114.787 177.194 114.356 178.344 116.369 178.487L111.05 182.944C111.05 182.944 107.887 182.656 107.169 184.812C107.169 184.812 94.2312 183.375 85.8937 179.637C85.8937 179.637 87.6187 178.344 85.4624 177.481C85.4624 177.481 87.9062 175.756 88.4812 174.175C88.4812 174.175 90.7812 174.462 91.4999 172.737C91.7874 172.594 100.412 177.769 114.787 177.194Z" stroke="#2C3FE1" stroke-miterlimit="10"/>
<path d="M92.65 179.206C94.1584 179.206 95.3812 178.37 95.3812 177.337C95.3812 176.305 94.1584 175.469 92.65 175.469C91.1415 175.469 89.9187 176.305 89.9187 177.337C89.9187 178.37 91.1415 179.206 92.65 179.206Z" fill="#2C3FE1"/>
<path d="M107.312 175.038C107.312 175.038 104.006 179.35 96.8187 185.244L97.2499 189.125L92.2187 187.975L91.9312 183.806C91.9312 183.806 99.2624 177.05 100.844 173.744C100.7 173.744 103.287 174.606 107.312 175.038ZM140.519 174.031C140.519 174.031 141.812 177.481 151.587 183.806V187.975L157.194 186.25V181.938C157.194 181.938 150.437 177.194 146.412 172.45L140.519 174.031Z" fill="#F9F3D9"/>
<path d="M132.325 169.431L129.163 169.287L128.875 175.181L141.669 183.375L171.712 175.181L171.856 170.006L161.362 162.675L132.325 169.431Z" fill="#2C3FE1"/>
<path d="M129.738 165.837C129.738 165.837 132.9 171.875 142.244 177.337C142.244 177.337 157.194 177.338 172 168.138C172 168.138 163.806 163.394 161.794 157.5C161.794 157.5 155.613 165.55 129.738 165.837Z" fill="#7666FF"/>
<path d="M136.206 167.419C136.206 167.419 136.925 168.569 134.625 169L140.663 173.744C140.663 173.744 144.113 172.881 145.263 174.894C145.263 174.894 159.638 172.306 166.25 168.856C166.25 168.856 164.094 167.85 166.25 166.556C166.25 166.556 163.662 164.4 162.656 162.962C162.656 162.962 160.213 163.681 158.919 161.956C158.919 162.1 153.744 166.7 136.206 167.419Z" stroke="#2C3FE1" stroke-miterlimit="10"/>
<path d="M147.275 171.012C146.7 171.731 144.831 172.018 143.25 171.587C141.669 171.156 140.95 170.15 141.525 169.431C142.1 168.712 143.969 168.425 145.55 168.856C147.131 169.287 147.85 170.15 147.275 171.012Z" fill="#2C3FE1"/>
<path d="M144.4 164.688C144.4 164.688 147.85 169.288 155.181 175.469L155.037 179.781L160.069 178.344L160.212 173.744C160.212 173.744 152.737 166.556 150.869 163.106C151.012 163.106 148.569 164.113 144.4 164.688Z" fill="#F9F3D9"/>
<path d="M146.125 102.875C146.125 111.644 134.769 125.875 126 125.875C117.231 125.875 105.875 113.081 105.875 104.312C105.875 95.5438 107.169 104.312 115.938 104.312C117.231 104.312 123.269 100 126 100C127.869 100 133.188 104.312 136.062 104.312C143.681 104.312 146.125 96.2625 146.125 102.875Z" fill="#DBB471"/>
<path d="M123.412 119.119C122.55 119.694 118.381 119.262 117.087 120.269C115.362 121.562 117.806 124.581 116.081 126.45C112.631 129.9 109.9 133.781 110.762 135.937C112.2 139.675 114.931 129.037 117.375 133.062C119.819 137.087 119.387 130.331 123.125 133.781C126.862 137.231 123.7 127.6 127.294 131.769C130.887 135.937 131.031 140.681 133.619 140.681C136.637 140.681 130.456 129.325 134.481 132.056C138.506 134.787 142.962 133.781 138.937 129.612C137.644 128.319 135.919 126.019 133.906 124.006C133.187 123.287 133.762 119.55 133.044 118.975C132.181 118.256 130.025 120.556 129.162 120.125C127.437 119.262 128.012 120.844 125.425 121.275C123.7 121.85 125.137 117.969 123.412 119.119Z" fill="#89664C"/>
<path d="M106.881 127.6C112.487 122.282 122.694 125.3 128.731 127.888C134.625 130.475 138.219 122.282 134.481 118.113C132.325 115.669 128.875 118.544 127.581 120.269C126.144 121.994 124.994 123.863 123.412 125.588C121.112 128.175 115.506 126.019 117.231 122.425C119.1 118.688 127.006 123 129.594 123.719C134.625 125.157 139.944 125.732 144.975 123.863C146.7 123.288 145.981 120.413 144.256 121.132C138.65 123.144 133.044 121.85 127.725 120.125C124.994 119.263 120.681 116.963 117.806 118.257C109.612 122.138 117.231 133.207 124.131 128.894C125.712 127.888 126.719 126.307 127.869 124.869C128.587 124.007 132.181 118.544 133.044 121.275C133.475 122.713 133.044 125.3 131.462 125.732C130.456 126.163 128.444 124.725 127.437 124.438C125.569 123.719 123.7 123.144 121.687 122.713C116.369 121.563 109.181 121.85 105.012 125.732C103.575 126.882 105.587 128.894 106.881 127.6Z" fill="#E8E8E8"/>
<path d="M144.4 100.719C142.962 101.869 140.375 104.312 136.062 104.312C133.188 104.312 127.869 100 126 100C123.269 100 117.231 104.312 115.938 104.312C111.194 104.312 108.606 101.869 107.312 100.863C107.312 100.863 108.894 107.331 113.781 110.637C117.375 112.938 116.944 110.206 118.812 107.619C120.681 105.031 121.975 103.737 125.281 110.206C127.006 113.8 130.312 100.431 132.9 104.744C137.644 112.65 139.369 108.338 144.4 100.719Z" fill="#89664C"/>
<path d="M155.325 175.325L155.181 179.637L160.213 178.2L160.356 173.6C160.356 173.743 157.338 174.893 155.325 175.325ZM151.588 183.95V188.118L157.194 186.393V182.081C157.05 181.937 155.613 182.8 151.588 183.95ZM96.8188 185.1L97.2501 189.125L92.2188 187.975L91.9313 183.806C91.7876 183.806 93.8001 184.525 96.8188 185.1Z" fill="#DBB471"/>
</g>
<path d="M106.457 61.5297C104.55 55.3631 102.503 49.2114 99.3847 43.57C96.271 37.9419 91.9685 32.8176 86.3969 29.6016C78.4265 25.019 68.6995 24.806 59.6018 25.9054C56.1151 26.3321 52.4359 27.0225 49.822 29.353C47.5899 31.3312 46.4182 34.1961 45.4179 37.0072C41.9503 46.6758 39.5934 56.8378 39.726 67.1328C39.8502 77.4015 42.6033 87.8321 48.604 96.1979C49.9583 98.0666 51.4971 99.8773 53.5144 101.044C55.9429 102.46 58.8441 102.797 61.6389 102.704C72.8488 102.335 82.8361 95.3963 90.4108 87.1387C97.4064 79.5274 103.19 69.6253 101.847 59.3475C101.217 54.4349 98.9816 49.8521 96.4437 45.5966C91.6308 37.5548 85.4474 30.1755 77.6218 25.0393C75.6607 23.6184 73.4165 22.639 71.0433 22.1684C67.8384 21.6937 64.6028 22.782 61.6554 24.1428C56.0738 26.708 51.0086 30.2726 45.753 33.4613C41.6947 35.8967 37.3931 38.2488 34.5619 42.0557C31.1001 46.7138 30.4197 52.8507 30.2168 58.6635C29.9661 65.8752 30.2815 73.0964 31.16 80.2602C31.8824 86.16 33.1421 92.3411 37.1422 96.7328C40.6746 100.604 45.8487 102.507 50.9104 103.822C57.1376 105.478 63.5584 106.285 69.9988 106.221C78.3638 106.063 86.9221 104.029 93.5731 98.9652C98.8781 94.9189 102.678 89.1676 105.607 83.1376C108.436 77.386 110.556 71.1747 110.857 64.7506C111.027 58.6397 109.899 52.5606 107.546 46.9166C105.916 42.7828 103.758 38.7709 100.634 35.5996C97.8314 32.7628 94.343 30.693 90.8656 28.7504C83.2909 24.5517 75.1554 20.6888 66.5153 20.5701C57.8835 20.4779 48.6477 25.1049 45.9259 33.3199" stroke="#FDFDFD" stroke-width="0.8" stroke-miterlimit="10"/>
<path d="M53.5313 177.919L56.6938 177.775L57.125 183.094L44.6188 191L14.575 184.532L14.1438 179.788L24.35 172.744L53.5313 177.919Z" fill="#2C3FE1"/>
<path d="M55.975 174.612C55.975 174.612 52.9562 180.219 43.9 185.538C43.9 185.538 29.0938 185.969 14 178.063C14 178.063 22.05 173.463 23.9187 168C23.9187 168 30.2438 175.187 55.975 174.612Z" fill="#7666FF"/>
<path d="M48.7874 176.194C48.7874 176.194 48.3562 177.344 50.3687 177.487L45.0499 181.944C45.0499 181.944 41.8874 181.656 41.1687 183.812C41.1687 183.812 28.2312 182.375 19.8937 178.637C19.8937 178.637 21.6187 177.344 19.4624 176.481C19.4624 176.481 21.9062 174.756 22.4812 173.175C22.4812 173.175 24.7812 173.462 25.4999 171.737C25.7874 171.594 34.4124 176.769 48.7874 176.194Z" stroke="#2C3FE1" stroke-miterlimit="10"/>
<path d="M25.5313 152.919L28.6938 152.775L29.125 158.094L16.6188 166L-13.425 159.532L-13.8562 154.788L-3.64995 147.744L25.5313 152.919Z" fill="#2C3FE1"/>
<path d="M27.975 149.612C27.975 149.612 24.9562 155.219 15.9 160.538C15.9 160.538 1.09375 160.969 -14 153.063C-14 153.063 -5.95 148.463 -4.08125 143C-4.08125 143 2.24375 150.187 27.975 149.612Z" fill="#7666FF"/>
<path d="M20.7874 151.194C20.7874 151.194 20.3562 152.344 22.3687 152.487L17.0499 156.944C17.0499 156.944 13.8874 156.656 13.1687 158.812C13.1687 158.812 0.231153 157.375 -8.10635 153.637C-8.10635 153.637 -6.38135 152.344 -8.5376 151.481C-8.5376 151.481 -6.09385 149.756 -5.51885 148.175C-5.51885 148.175 -3.21885 148.462 -2.5001 146.737C-2.2126 146.594 6.41241 151.769 20.7874 151.194Z" stroke="#2C3FE1" stroke-miterlimit="10"/>
<path d="M55.9225 145.164L55.9654 145.248L56.052 145.21C57.2311 144.691 58.4493 144.352 59.5923 144.423C60.7304 144.494 61.8 144.971 62.6896 146.1C63.8028 147.511 64.0028 149.069 63.6415 150.58C63.2793 152.096 62.3522 153.566 61.2109 154.787L61.1587 154.843L61.1989 154.908C62.109 156.381 62.9539 157.725 63.7986 159.07L63.7991 159.07C63.9795 159.352 63.9986 159.61 63.9267 159.821C63.8539 160.036 63.683 160.216 63.4616 160.328C63.0185 160.553 62.4029 160.497 62.0456 159.94C61.2007 158.595 60.4209 157.379 59.6415 156.163L59.5926 156.087L59.5119 156.128C58.7419 156.519 57.9803 156.906 57.1555 157.166L57.0429 157.201L57.0964 157.306C57.6956 158.485 58.3478 159.501 59.0516 160.597C59.1162 160.697 59.1813 160.799 59.2468 160.901C59.4272 161.182 59.4464 161.44 59.3745 161.652C59.3016 161.866 59.1307 162.046 58.9093 162.159C58.4663 162.384 57.8506 162.328 57.4933 161.771C56.6483 160.426 55.8061 159.085 55.092 157.68L55.064 157.625L55.0022 157.626C53.4063 157.636 51.6819 157.393 49.8907 156.703C49.3392 156.474 49.1825 155.894 49.3292 155.406C49.4021 155.163 49.5482 154.954 49.748 154.829C49.9452 154.707 50.2033 154.663 50.5156 154.765L50.521 154.766C51.4843 155.08 52.6544 155.462 53.8254 155.519L53.9975 155.527L53.9194 155.374L53.9186 155.372C53.0723 153.707 52.224 152.039 51.247 150.435L51.2076 150.37L51.1346 150.39C49.7302 150.783 48.4107 150.978 46.9604 150.296L46.9597 150.296C45.4132 149.582 44.7372 148.399 44.6896 147.112C44.6418 145.817 45.2295 144.407 46.2379 143.257L46.2514 143.242L46.2578 143.222C46.2739 143.173 46.2847 143.14 46.2944 143.114C46.304 143.089 46.3101 143.079 46.3142 143.073C46.3212 143.064 46.3283 143.058 46.3992 143.022L46.5173 142.962L46.4271 142.865C46.0736 142.484 45.7516 142.087 45.4272 141.687L45.4261 141.686C45.1027 141.287 44.7768 140.885 44.4184 140.499L44.4184 140.499L44.4175 140.498C44.1771 140.246 44.0981 139.978 44.1197 139.734C44.1415 139.487 44.2669 139.258 44.4504 139.09C44.634 138.923 44.8704 138.822 45.1084 138.827C45.3434 138.832 45.5902 138.939 45.8 139.205L45.7998 139.205L45.8053 139.211C46.5185 139.979 47.2259 140.74 47.8054 141.566L47.8619 141.646L47.9433 141.591C48.8964 140.946 49.9141 140.429 50.9966 140.039L51.1032 140L51.0518 139.899L49.1627 136.183C49.0121 135.887 49.0127 135.616 49.1005 135.392C49.1893 135.165 49.3701 134.981 49.5913 134.868C49.8126 134.756 50.0685 134.718 50.3036 134.78C50.5362 134.841 50.756 135.001 50.9065 135.297L53.0562 139.525L53.0876 139.587L53.1565 139.58C54.3696 139.444 55.649 139.435 56.8023 139.491C57.1093 139.519 57.324 139.662 57.459 139.857C57.596 140.055 57.6543 140.312 57.6336 140.566C57.6128 140.821 57.5138 141.063 57.3471 141.234C57.1833 141.402 56.9498 141.505 56.6439 141.479C55.9242 141.354 54.9525 141.361 54.1787 141.431L54.0316 141.444L54.0985 141.576L55.9225 145.164ZM52.029 141.822L51.9897 141.744L51.9076 141.772L51.9042 141.773C50.9444 142.1 49.9766 142.43 49.0732 142.889L48.9764 142.939L49.0335 143.031L51.7631 147.449L51.8114 147.527L51.8934 147.485L52.5342 147.16C52.7816 147.034 53.0137 146.879 53.2525 146.72C53.2672 146.71 53.2819 146.701 53.2966 146.691C53.5525 146.52 53.8202 146.345 54.1349 146.185L54.224 146.139L54.1787 146.05L52.029 141.822ZM47.3866 148.292L47.3933 148.295L47.4003 148.296L47.4147 148.298C48.1016 148.418 48.815 148.543 49.4074 148.416C49.6256 148.477 49.7785 148.399 49.9023 148.336L49.9062 148.334L50.0047 148.284L49.945 148.191C49.5551 147.583 49.1815 147.007 48.808 146.431L48.808 146.431C48.4344 145.854 48.0611 145.279 47.6715 144.671L47.5932 144.548L47.5069 144.665C47.1243 145.182 46.6358 145.923 46.4663 146.612C46.3812 146.958 46.3734 147.303 46.5119 147.603C46.6518 147.906 46.9325 148.144 47.3866 148.292ZM55.9922 155.134L56.0295 155.196L56.1005 155.18L56.1059 155.179C56.6789 155.048 57.2726 154.911 57.8632 154.449C57.9857 154.386 58.087 154.335 58.1807 154.266C58.2786 154.193 58.3652 154.105 58.4651 153.97L58.5018 153.92L58.4738 153.865C57.952 152.838 57.4144 151.86 56.8778 150.884L56.8774 150.883C56.3404 149.906 55.8043 148.931 55.284 147.907L55.2387 147.818L55.1495 147.863C54.7614 148.061 54.3903 148.29 54.0233 148.517L54.0216 148.518C53.6528 148.746 53.2882 148.971 52.9081 149.164L52.8189 149.209L52.8643 149.299L52.8651 149.3C53.9068 151.349 54.8852 153.274 55.9922 155.134ZM61.411 150.849L61.411 150.849L61.4123 150.846C61.9974 149.556 61.7773 148.294 61.0539 147.447C60.3304 146.601 59.1137 146.181 57.7317 146.553L57.7216 146.556L57.7124 146.561L57.0716 146.886L56.9825 146.932L57.0278 147.021L57.0284 147.022C58.0052 148.943 58.9184 150.74 60.0255 152.6L60.1024 152.729L60.1918 152.608C60.2817 152.486 60.3801 152.36 60.4821 152.228C60.8056 151.812 61.1658 151.347 61.411 150.849Z" fill="#2C3FE1" stroke="black" stroke-width="0.2"/>
<path d="M77.6037 53.4645L77.6466 53.5488L77.7331 53.5107C78.9122 52.9915 80.1304 52.6524 81.2734 52.7236C82.4115 52.7945 83.4811 53.2722 84.3707 54.4004C85.4839 55.8121 85.684 57.3695 85.3226 58.8812C84.9604 60.3967 84.0334 61.8666 82.8921 63.0876L82.8399 63.1434L82.8801 63.2084C83.7901 64.6814 84.635 66.0261 85.4797 67.3705L85.4802 67.3712C85.6606 67.6527 85.6798 67.9103 85.6079 68.122C85.535 68.3365 85.3642 68.5163 85.1427 68.6289C84.6997 68.8541 84.084 68.7979 83.7267 68.2409C82.8818 66.8961 82.1021 65.6796 81.3226 64.4635L81.2738 64.3873L81.1931 64.4283C80.4231 64.8198 79.6615 65.2067 78.8367 65.4665L78.7241 65.502L78.7776 65.6072C79.3767 66.7858 80.029 67.8016 80.7327 68.8975C80.7974 68.9981 80.8624 69.0995 80.928 69.2017C81.1084 69.4831 81.1275 69.7408 81.0556 69.9524C80.9827 70.167 80.8119 70.3468 80.5904 70.4594C80.1474 70.6846 79.5318 70.6283 79.1745 70.0713C78.3294 68.7263 77.4873 67.3859 76.7731 65.9811L76.7451 65.926L76.6833 65.9264C75.0875 65.9371 73.363 65.6933 71.5718 65.0036C71.0204 64.775 70.8637 64.1951 71.0103 63.707C71.0832 63.4643 71.2294 63.2543 71.4291 63.1303C71.6264 63.0078 71.8845 62.9636 72.1967 63.0654L72.2022 63.0672C73.1654 63.3811 74.3356 63.7625 75.5065 63.8198L75.6787 63.8282L75.6006 63.6746L75.5997 63.6729C74.7534 62.0082 73.9051 60.3394 72.9281 58.7355L72.8887 58.6708L72.8158 58.6912C71.4114 59.0843 70.0919 59.2785 68.6416 58.5967L68.6409 58.5964C67.0944 57.883 66.4184 56.6994 66.3708 55.4123C66.3229 54.1181 66.9106 52.7077 67.919 51.5579L67.9326 51.5424L67.9389 51.5229C67.955 51.4736 67.9659 51.4403 67.9756 51.4151C67.9852 51.3902 67.9913 51.3797 67.9954 51.3741C68.0023 51.3648 68.0095 51.3587 68.0803 51.3226L68.1985 51.2626L68.1083 51.1654C67.7548 50.785 67.4327 50.3879 67.1083 49.9879L67.1073 49.9866C66.7839 49.5878 66.458 49.186 66.0995 48.8002L66.0996 48.8002L66.0986 48.7992C65.8582 48.5471 65.7793 48.2783 65.8008 48.0344C65.8227 47.788 65.948 47.5583 66.1315 47.3909C66.3152 47.2234 66.5515 47.1232 66.7895 47.1279C67.0246 47.1325 67.2713 47.2395 67.4812 47.5056L67.4809 47.5058L67.4864 47.5117C68.1996 48.2794 68.907 49.0411 69.4866 49.8664L69.543 49.9468L69.6244 49.8918C70.5776 49.2471 71.5953 48.7298 72.6777 48.3396L72.7843 48.3012L72.733 48.2002L70.8438 44.4841C70.6933 44.1879 70.6939 43.9163 70.7817 43.6924C70.8704 43.4662 71.0512 43.2814 71.2725 43.1689C71.4938 43.0564 71.7497 43.0192 71.9847 43.0808C72.2174 43.1418 72.4371 43.3014 72.5877 43.5976L74.7374 47.8262L74.7688 47.888L74.8377 47.8803C76.0508 47.7444 77.3301 47.7357 78.4835 47.792C78.7904 47.8197 79.0051 47.9628 79.1401 48.1581C79.2772 48.3562 79.3354 48.6132 79.3147 48.8673C79.294 49.1214 79.195 49.3641 79.0283 49.5349C78.8645 49.7027 78.6309 49.8059 78.325 49.78C77.6054 49.6548 76.6337 49.6619 75.8599 49.7316L75.7127 49.7449L75.7797 49.8765L77.6037 53.4645ZM73.7101 50.1223L73.6708 50.045L73.5887 50.073L73.5854 50.0741C72.6255 50.4012 71.6577 50.731 70.7544 51.1902L70.6575 51.2395L70.7146 51.3319L73.4442 55.7496L73.4926 55.8279L73.5746 55.7862L74.2153 55.4605C74.4627 55.3347 74.6948 55.18 74.9337 55.0208C74.9483 55.0111 74.963 55.0013 74.9777 54.9915C75.2336 54.8211 75.5014 54.6454 75.816 54.4855L75.9052 54.4402L75.8598 54.351L73.7101 50.1223ZM69.0677 56.5931L69.0745 56.5953L69.0815 56.5966L69.0958 56.5991C69.7828 56.7193 70.4962 56.8441 71.0885 56.7166C71.3067 56.7779 71.4597 56.7001 71.5834 56.6372L71.5873 56.6352L71.6858 56.5851L71.6262 56.4921C71.2362 55.8837 70.8626 55.3074 70.4891 54.7313L70.4891 54.7313C70.1156 54.1552 69.7422 53.5793 69.3526 52.9714L69.2743 52.8492L69.188 52.9659C68.8054 53.4831 68.3169 54.2236 68.1474 54.9128C68.0623 55.2588 68.0546 55.6038 68.1931 55.9036C68.3329 56.2064 68.6136 56.4451 69.0677 56.5931ZM77.6733 63.4346L77.7106 63.4972L77.7816 63.4809L77.7871 63.4797C78.36 63.3483 78.9537 63.2122 79.5444 62.7494C79.6668 62.6872 79.7682 62.6354 79.8618 62.5663C79.9597 62.4941 80.0463 62.4054 80.1462 62.2703L80.183 62.2207L80.155 62.1656C79.6331 61.139 79.0956 60.161 78.5589 59.1847L78.5585 59.1839C78.0215 58.2069 77.4854 57.2315 76.9651 56.208L76.9198 56.1189L76.8307 56.1642C76.4425 56.3615 76.0714 56.5908 75.7045 56.8175L75.7027 56.8186C75.334 57.0465 74.9693 57.2717 74.5892 57.4649L74.5001 57.5102L74.5454 57.5994L74.5462 57.601C75.5879 59.6501 76.5664 61.5747 77.6733 63.4346ZM83.0921 59.1496L83.0922 59.1496L83.0935 59.1467C83.6786 57.8565 83.4585 56.5946 82.735 55.748C82.0115 54.9014 80.7949 54.4821 79.4128 54.8539L79.4028 54.8566L79.3935 54.8613L78.7528 55.187L78.6637 55.2324L78.709 55.3215L78.7096 55.3227C79.6863 57.244 80.5996 59.0405 81.7066 60.9004L81.7835 61.0297L81.8729 60.9088C81.9629 60.7872 82.0612 60.6605 82.1632 60.5291C82.4867 60.1123 82.847 59.6482 83.0921 59.1496Z" fill="#2C3FE1" stroke="black" stroke-width="0.2"/>
<path d="M28.0223 90.2922L27.9752 90.3742L28.0545 90.4258C28.8623 90.9515 29.571 91.5741 29.9924 92.3154C30.4114 93.0524 30.5495 93.912 30.209 94.926C29.7827 96.1952 28.8941 96.9545 27.8036 97.3457C26.7096 97.7382 25.4118 97.7599 24.1804 97.5451L24.1051 97.532L24.0727 97.6012C23.522 98.7763 23.0249 99.858 22.5281 100.939L22.5279 100.94L22.5275 100.94C22.4277 101.163 22.2796 101.275 22.1255 101.315C21.9685 101.355 21.7922 101.323 21.6354 101.233C21.3215 101.053 21.1117 100.657 21.3083 100.218C21.8054 99.136 22.2488 98.1477 22.692 97.1598L22.729 97.0773L22.6506 97.0322C22.0888 96.7095 21.5355 96.3914 21.036 95.9821L20.9447 95.9072L20.8859 96.0096C20.3916 96.8701 20.0214 97.6971 19.6226 98.588C19.586 98.6699 19.5491 98.7523 19.5118 98.8354C19.412 99.0579 19.2639 99.1698 19.1098 99.2094C18.9527 99.2498 18.7765 99.2182 18.6196 99.1281C18.3058 98.9478 18.0959 98.5514 18.2926 98.1126C18.7898 97.0306 19.2849 95.9535 19.8725 94.9304L19.9033 94.8768L19.8691 94.8253C19.2094 93.8308 18.6563 92.652 18.355 91.2489C18.2754 90.8253 18.5631 90.4993 18.9207 90.3937C19.0981 90.3413 19.2834 90.3471 19.4366 90.4186C19.5872 90.4887 19.7162 90.6263 19.7786 90.8573L19.7801 90.8628C19.978 91.5951 20.2195 92.4884 20.6656 93.2494L20.7528 93.398L20.8386 93.2486L20.8395 93.247C21.5366 92.0335 22.2359 90.816 22.8419 89.5443L22.8745 89.4759L22.8174 89.426C21.9962 88.7075 21.3387 87.9643 21.1728 86.7838L21.1726 86.7831C20.9872 85.5294 21.4487 84.6291 22.2287 84.0769C23.0146 83.5206 24.1337 83.3112 25.264 83.4715L25.2843 83.4744L25.3041 83.469C25.3419 83.4588 25.3666 83.4522 25.3855 83.4481C25.4042 83.4441 25.4108 83.4441 25.4127 83.4442C25.4127 83.4442 25.4128 83.4442 25.4129 83.4442C25.4146 83.4442 25.4184 83.4442 25.4688 83.4731L25.5837 83.5391L25.6156 83.4105C25.7091 83.0336 25.8258 82.6695 25.9438 82.3017L25.9442 82.3002C26.0617 81.9339 26.1803 81.564 26.2756 81.18L26.2756 81.18L26.2759 81.1787C26.3338 80.931 26.4658 80.7774 26.6209 80.6946C26.7783 80.6105 26.9672 80.5951 27.1422 80.6402C27.3174 80.6854 27.4714 80.7891 27.5622 80.9342C27.6514 81.0767 27.6851 81.2675 27.6064 81.5018L27.6061 81.5017L27.6042 81.5095C27.415 82.2722 27.2277 83.0267 26.9484 83.727L26.912 83.8183L27.0027 83.8563C27.7961 84.189 28.5364 84.6142 29.2235 85.132L29.314 85.2002L29.3704 85.1019L30.9269 82.3924C31.0475 82.1823 31.2123 82.0759 31.3814 82.0407C31.553 82.005 31.7369 82.0411 31.8936 82.1311C32.0503 82.2211 32.1741 82.3618 32.2297 82.528C32.2845 82.6919 32.2756 82.8878 32.1549 83.0978L30.3838 86.1811L30.3493 86.2412L30.3934 86.2946C30.9751 86.9985 31.5045 87.7962 31.9418 88.5419C32.0466 88.7391 32.0444 88.9246 31.9802 89.0824C31.9146 89.2435 31.7817 89.3814 31.6181 89.4703C31.4545 89.5592 31.2675 89.5951 31.0985 89.5619C30.9337 89.5294 30.7797 89.4302 30.6741 89.2349C30.4561 88.7294 30.0518 88.1213 29.6902 87.6638L29.5987 87.548L29.5251 87.676L28.0223 90.2922ZM28.5654 86.5034L28.6086 86.4282L28.5402 86.3748L28.5374 86.3727C27.939 85.905 27.3339 85.4322 26.6737 85.053L26.5795 84.9988L26.5334 85.0972L24.8815 88.6218L24.8425 88.7052L24.9222 88.751L25.3894 89.0193C25.5712 89.1237 25.7647 89.2064 25.9622 89.2909C25.9744 89.2961 25.9867 89.3013 25.999 89.3066C26.2108 89.3972 26.4297 89.4927 26.6577 89.6236L26.7444 89.6734L26.7942 89.5867L28.5654 86.5034ZM22.5556 86.2394L22.5574 86.2462L22.5602 86.2528L22.5659 86.2658C22.7703 86.7416 22.9852 87.2418 23.3092 87.5648C23.3641 87.7318 23.4812 87.799 23.5708 87.8504L23.5744 87.8525L23.6702 87.9075L23.7155 87.8067C23.9372 87.3125 24.1456 86.8416 24.3538 86.371L24.3538 86.3709C24.562 85.9003 24.7701 85.4299 24.9916 84.9362L25.051 84.8038L24.9062 84.7954C24.4246 84.7675 23.7552 84.7644 23.2481 84.9426C22.9933 85.0321 22.7678 85.1715 22.6323 85.3879C22.4952 85.6073 22.4608 85.8889 22.5556 86.2394ZM21.7952 94.4271L21.7632 94.4926L21.8157 94.5431L21.8197 94.5469C22.1363 94.8517 22.4681 95.1712 23.0047 95.3538C23.0927 95.4044 23.1681 95.4474 23.2514 95.4784C23.3398 95.5113 23.4335 95.5296 23.561 95.5369L23.6227 95.5405L23.6535 95.4869C24.0837 94.738 24.4769 93.9993 24.8693 93.2622L24.8696 93.2616C25.2623 92.5239 25.6542 91.7877 26.0826 91.0419L26.1324 90.9552L26.0457 90.9054C25.7618 90.7423 25.4649 90.6032 25.1725 90.4661L25.1706 90.4652C24.8762 90.3273 24.5863 90.1913 24.3102 90.0327L24.2235 89.9829L24.1737 90.0696L24.1728 90.0712C23.3147 91.565 22.5083 92.9689 21.7952 94.4271ZM26.7318 96.1048L26.7318 96.1049L26.7349 96.1044C27.7933 95.9408 28.5031 95.2787 28.7404 94.4676C28.9776 93.6565 28.738 92.7113 27.9312 91.9909L27.9234 91.984L27.9144 91.9788L27.4472 91.7104L27.3605 91.6606L27.3107 91.7473L27.31 91.7486C26.5054 93.1492 25.7526 94.4597 25.0395 95.9179L24.9734 96.053L25.1236 96.0617C25.2355 96.0682 25.3546 96.0778 25.4783 96.0879C25.8729 96.1199 26.3157 96.1559 26.7318 96.1048Z" fill="#2C3FE1" stroke="black" stroke-width="0.2"/>
<path d="M181.098 137.502C187.936 132.986 196.78 132.874 203.73 137.216L217.949 146.096C228.815 152.883 242.269 142.513 238.472 130.277C235.743 121.484 241.607 112.356 250.739 111.183L252.445 110.964C266.008 109.221 269.602 91.2491 257.751 84.4257C250.036 79.9832 247.747 69.8986 252.77 62.5492C260.237 51.622 250.195 37.2483 237.384 40.5478L230.591 42.2973C221.78 44.5667 212.678 39.812 209.507 31.2831C204.521 17.8692 186.103 16.4664 179.143 28.9702L176.484 33.7454C172.375 41.1263 163.803 44.8049 155.623 42.6979L148.443 40.8487C135.224 37.444 124.845 52.2408 132.547 63.511C137.358 70.551 135.709 80.1391 128.823 85.1676L124.951 87.9949C114.203 95.843 119.644 112.862 132.958 113.071C142.419 113.22 149.34 122.075 147.173 131.288C144.309 143.467 157.807 152.883 168.247 145.988L181.098 137.502Z" fill="#C552A4" stroke="#2D2B2B"/>
<path d="M164.09 103.169C157.902 107.851 150.381 114.841 142.089 115.149C129.25 115.625 127.689 97.3051 124.445 88.7544C122.712 84.1846 115.363 86.3708 117.102 90.956C121.581 102.765 123.603 120.756 139.588 122.591C150.565 123.852 160.236 115.648 168.277 109.564C172.152 106.631 168.001 100.208 164.09 103.169Z" fill="#2D2B2B"/>
<path d="M123.734 76.3212C123.697 76.31 123.757 75.2392 123.317 74.1945C122.655 72.6224 120.992 70.7202 119.57 69.7095C118.33 68.8269 116.785 68.414 115.281 68.9339C113.62 69.5074 112.961 71.3297 113.417 72.9231C113.285 72.806 113.086 72.6481 112.818 72.4978C112.646 72.4001 112.519 72.348 112.483 72.3342C111.982 72.1498 111.452 72.0343 110.916 72.0132C109.665 71.9643 108.496 72.5547 107.73 73.5047C106.856 74.5856 106.702 75.9191 106.591 77.2505C106.553 77.2469 106.146 77.1799 106.108 77.1759C103.518 76.9193 101.529 78.8948 101.367 81.4357C100.978 87.5042 107.881 90.6672 107.881 90.6672C107.186 99.6002 115.279 98.375 115.279 98.375C116.153 103.693 121.523 102.848 128.868 96.9609C136.213 91.0734 128.426 88.8489 128.426 88.8489C136.007 79.9665 125.914 76.9805 123.734 76.3212Z" fill="white"/>
<path d="M123.734 76.3212C123.697 76.31 123.757 75.2392 123.317 74.1945C122.655 72.6224 120.992 70.7202 119.57 69.7095C118.33 68.8269 116.785 68.414 115.281 68.9339C113.62 69.5074 112.961 71.3297 113.417 72.9231C113.285 72.806 113.086 72.6481 112.818 72.4978C112.646 72.4001 112.519 72.348 112.483 72.3342C111.982 72.1498 111.452 72.0343 110.916 72.0132C109.665 71.9643 108.496 72.5547 107.73 73.5047C106.856 74.5856 106.702 75.9191 106.591 77.2505C106.553 77.2469 106.146 77.1799 106.108 77.1759C103.518 76.9193 101.529 78.8948 101.367 81.4357C100.978 87.5042 107.881 90.6672 107.881 90.6672C107.186 99.6002 115.279 98.375 115.279 98.375C116.153 103.693 121.523 102.848 128.868 96.9609C136.213 91.0734 128.426 88.8489 128.426 88.8489C136.007 79.9665 125.914 76.9805 123.734 76.3212Z" stroke="#2D2B2B" stroke-width="0.615385" stroke-miterlimit="10"/>
<path d="M104.38 84.81C104.38 84.81 112.536 91.0919 114.241 86.8659C115.972 82.5791 106.666 77.6373 106.666 77.6373" fill="white"/>
<path d="M104.38 84.81C104.38 84.81 112.536 91.0919 114.241 86.8659C115.972 82.5791 106.666 77.6373 106.666 77.6373" stroke="#2D2B2B" stroke-width="0.615385" stroke-miterlimit="10"/>
<path d="M108.519 78.7558C114.93 82.8877 114.36 86.8532 114.36 86.8532C126.132 84.561 113.296 73.0027 113.296 73.0027C117.567 76.8454 118.832 80.1561 118.832 80.1561C128.804 78.0514 121.814 70.2405 117.929 69.1013" fill="white"/>
<path d="M108.519 78.7558C114.93 82.8877 114.36 86.8532 114.36 86.8532C126.132 84.561 113.296 73.0027 113.296 73.0027C117.567 76.8454 118.832 80.1561 118.832 80.1561C128.804 78.0514 121.814 70.2405 117.929 69.1013" stroke="#2D2B2B" stroke-width="0.615385" stroke-miterlimit="10"/>
<path d="M129.058 89.283C130.684 86.9466 131.229 84.6854 131.325 83.5545C131.569 80.6697 129.315 78.7676 125.921 77.2017C121.482 75.1528 119.204 74.7265 116.785 74.5497C115.06 74.4246 113.375 75.3988 112.863 77.0182C111.392 81.6855 121.236 85.0508 121.236 85.0508C121.236 85.0508 113.367 89.3367 121.276 94.3722" fill="white"/>
<path d="M129.058 89.283C130.684 86.9466 131.229 84.6854 131.325 83.5545C131.569 80.6697 129.315 78.7676 125.921 77.2017C121.482 75.1528 119.204 74.7265 116.785 74.5497C115.06 74.4246 113.375 75.3988 112.863 77.0182C111.392 81.6855 121.236 85.0508 121.236 85.0508C121.236 85.0508 113.367 89.3367 121.276 94.3722" stroke="#2D2B2B" stroke-width="0.615385" stroke-miterlimit="10"/>
<path d="M115.405 98.3605C117.028 98.2283 118.91 97.416 120.883 96.1589" stroke="#2D2B2B" stroke-width="0.615385" stroke-miterlimit="10"/>
<path d="M124.134 94.4737C126.764 93.058 128.385 89.9517 129.151 88.4869" stroke="#2D2B2B" stroke-width="0.615385" stroke-miterlimit="10"/>
<path d="M215.895 95.7451C220.927 101.613 226.767 110.003 234.776 112.089C247.179 115.318 252.589 97.9125 257.563 90.3313C260.221 86.2793 266.915 89.9806 264.248 94.0468C257.379 104.516 251.588 121.503 235.632 119.835C224.674 118.689 216.998 108.659 210.459 101.036C207.308 97.3598 212.714 92.0348 215.895 95.7451Z" fill="#2D2B2B"/>
<path d="M261.276 78.3155C261.317 78.3124 261.485 77.2578 262.14 76.3375C263.125 74.9525 265.164 73.4652 266.775 72.7907C268.182 72.202 269.788 72.1363 271.153 72.9691C272.663 73.8881 272.922 75.8035 272.134 77.2545C272.288 77.1686 272.518 77.0589 272.813 76.9699C273.002 76.9141 273.139 76.8909 273.176 76.8856C273.708 76.8146 274.254 76.8173 274.785 76.9138C276.023 77.1391 277.045 77.9679 277.596 79.0564C278.223 80.2983 278.09 81.6299 277.915 82.9489C277.954 82.9521 278.369 82.9762 278.407 82.9815C281.005 83.2947 282.537 85.6483 282.155 88.155C281.244 94.142 273.79 95.7173 273.79 95.7173C272.57 104.556 264.881 101.604 264.881 101.604C262.89 106.587 257.796 104.597 251.837 97.273C245.877 89.9493 253.999 89.4793 253.999 89.4793C248.446 79.1913 258.995 78.4822 261.276 78.3155Z" fill="white"/>
<path d="M261.297 78.6193L261.298 78.6192C261.383 78.6127 261.443 78.5743 261.473 78.5504C261.504 78.5259 261.523 78.501 261.533 78.4871C261.553 78.4595 261.565 78.4339 261.57 78.423C261.581 78.3981 261.59 78.3723 261.595 78.3551C261.606 78.3213 261.619 78.2755 261.632 78.227L261.636 78.2124C261.668 78.0998 261.711 77.9456 261.773 77.7645C261.896 77.4005 262.091 76.9371 262.394 76.5103L261.297 78.6193ZM261.297 78.6193L261.273 78.621C260.099 78.7067 257.006 78.9327 254.873 80.3534C253.815 81.0584 253.007 82.0482 252.78 83.4629C252.55 84.8893 252.903 86.7943 254.274 89.335L254.501 89.7553L254.015 89.7834L254.015 89.7834L254.015 89.7834L254.015 89.7834L254.011 89.7836L253.997 89.7847C253.983 89.7857 253.962 89.7873 253.935 89.7897C253.881 89.7946 253.801 89.8028 253.7 89.8158C253.498 89.8419 253.215 89.8871 252.894 89.9632C252.245 90.1171 251.469 90.3908 250.879 90.8647C250.303 91.3274 249.902 91.9806 249.97 92.9416C250.041 93.9265 250.607 95.2709 252.08 97.0818L252.081 97.0818C255.053 100.735 257.771 103.006 259.954 103.766C261.036 104.144 261.955 104.139 262.709 103.785C263.464 103.43 264.112 102.696 264.591 101.496L264.706 101.209L264.996 101.321L264.996 101.321L264.996 101.321L264.996 101.321L264.999 101.322L265.013 101.327C265.026 101.332 265.046 101.339 265.072 101.348C265.125 101.366 265.204 101.392 265.306 101.423C265.51 101.483 265.805 101.561 266.162 101.628C266.88 101.763 267.838 101.85 268.825 101.676C269.808 101.502 270.816 101.069 271.654 100.163C272.493 99.2542 273.183 97.845 273.482 95.6791L273.512 95.4651L273.727 95.4196L273.727 95.4196L273.727 95.4195L273.728 95.4194L273.731 95.4188L273.745 95.4156C273.758 95.4128 273.777 95.4083 273.803 95.4021C273.856 95.3897 273.933 95.3706 274.033 95.344C274.233 95.2908 274.521 95.2079 274.87 95.0897C275.569 94.8533 276.509 94.4772 277.475 93.9192C279.411 92.8007 281.412 90.977 281.848 88.1127L281.848 88.1126C282.208 85.7477 280.765 83.5731 278.366 83.2838L278.366 83.2839L278.36 83.283C278.362 83.2834 278.359 83.2831 278.35 83.2824C278.34 83.2817 278.322 83.2803 278.295 83.2785C278.251 83.2755 278.195 83.272 278.139 83.2684C278.108 83.2665 278.076 83.2645 278.046 83.2626C277.969 83.2579 277.903 83.2538 277.886 83.2524L277.565 83.2257L277.607 82.9123C277.783 81.5869 277.898 80.3434 277.317 79.1937C276.805 78.1808 275.858 77.4195 274.726 77.2133C274.231 77.1235 273.719 77.1203 273.217 77.1872C273.191 77.1909 273.072 77.211 272.901 77.2613C272.631 77.3427 272.423 77.4424 272.286 77.5189L271.359 78.0363L271.86 77.1133C272.589 75.7705 272.329 74.0449 270.987 73.2283L270.987 73.2282M261.297 78.6193L270.987 73.2282M270.987 73.2282C269.728 72.4602 268.234 72.5106 266.895 73.0707C265.326 73.7272 263.339 75.1815 262.394 76.5102L270.987 73.2282Z" stroke="#2D2B2B" stroke-width="0.615385" stroke-miterlimit="10"/>
<path d="M278.585 90.8272C278.585 90.8272 269.059 95.3006 268.288 90.7144C267.506 86.061 277.882 83.1757 277.882 83.1757" fill="white"/>
<mask id="path-52-inside-1_1063_14064" fill="white">
<path d="M278.585 90.8272C278.585 90.8272 269.059 95.3006 268.288 90.7144C267.506 86.061 277.882 83.1757 277.882 83.1757"/>
</mask>
<path d="M268.288 90.7144L267.675 90.8187L267.675 90.8187L268.288 90.7144ZM278.585 90.8272C278.849 91.3762 278.849 91.3762 278.849 91.3763C278.849 91.3764 278.848 91.3765 278.848 91.3766C278.848 91.3768 278.847 91.3771 278.846 91.3774C278.845 91.3781 278.843 91.3791 278.84 91.3803C278.835 91.3827 278.827 91.3862 278.818 91.3907C278.798 91.3997 278.77 91.4126 278.734 91.4291C278.661 91.462 278.555 91.5093 278.42 91.5674C278.152 91.6837 277.768 91.8439 277.306 92.0214C276.386 92.3753 275.138 92.803 273.856 93.085C272.591 93.3634 271.217 93.5172 270.078 93.2606C269.499 93.1302 268.953 92.8875 268.518 92.4759C268.078 92.0593 267.79 91.505 267.675 90.8187L268.902 90.61C268.979 91.0703 269.157 91.3794 269.386 91.596C269.62 91.8176 269.945 91.9779 270.367 92.073C271.23 92.2675 272.382 92.1629 273.595 91.8962C274.791 91.6331 275.973 91.2292 276.862 90.8876C277.305 90.7174 277.672 90.5639 277.927 90.4535C278.055 90.3983 278.154 90.3539 278.221 90.3236C278.255 90.3084 278.28 90.2968 278.297 90.2891C278.305 90.2852 278.311 90.2824 278.315 90.2805C278.317 90.2796 278.319 90.279 278.319 90.2786C278.32 90.2784 278.32 90.2783 278.32 90.2782C278.32 90.2782 278.32 90.2782 278.32 90.2782C278.32 90.2782 278.32 90.2782 278.585 90.8272ZM267.675 90.8187C267.437 89.4033 268.064 88.1684 269 87.1644C269.933 86.1646 271.228 85.3285 272.504 84.6628C273.786 83.9934 275.088 83.4761 276.065 83.1271C276.555 82.9521 276.965 82.8185 277.254 82.7283C277.399 82.6832 277.513 82.649 277.592 82.6258C277.632 82.6142 277.662 82.6053 277.684 82.5993C277.694 82.5963 277.702 82.594 277.708 82.5924C277.711 82.5916 277.713 82.591 277.715 82.5905C277.715 82.5903 277.716 82.5901 277.717 82.59C277.717 82.5899 277.717 82.5898 277.717 82.5898C277.717 82.5897 277.718 82.5897 277.882 83.1757C278.047 83.7617 278.047 83.7616 278.047 83.7616C278.047 83.7616 278.047 83.7616 278.047 83.7616C278.047 83.7617 278.046 83.7618 278.046 83.7619C278.045 83.7622 278.043 83.7626 278.041 83.7632C278.037 83.7644 278.03 83.7663 278.021 83.7689C278.003 83.7741 277.976 83.782 277.939 83.7927C277.867 83.814 277.759 83.8463 277.621 83.8892C277.346 83.975 276.952 84.1031 276.481 84.2714C275.537 84.6087 274.294 85.1036 273.08 85.7372C271.859 86.3745 270.707 87.1322 269.914 87.9822C269.125 88.828 268.748 89.6988 268.902 90.61L267.675 90.8187Z" fill="#2D2B2B" mask="url(#path-52-inside-1_1063_14064)"/>
<path d="M275.482 83.5893C268.317 86.3928 267.939 90.4036 267.939 90.4036C257.095 85.8366 272.21 76.993 272.21 76.993C267.181 79.9332 265.184 82.9402 265.184 82.9402C256.035 78.9102 264.621 72.6032 268.643 72.2465" fill="white"/>
<mask id="path-55-inside-2_1063_14064" fill="white">
<path d="M275.482 83.5893C268.317 86.3928 267.939 90.4036 267.939 90.4036C257.095 85.8366 272.21 76.993 272.21 76.993C267.181 79.9332 265.184 82.9402 265.184 82.9402C256.035 78.9102 264.621 72.6032 268.643 72.2465"/>
</mask>
<path d="M267.939 90.4036L268.558 90.4541L268.479 91.2961L267.69 90.9637L267.939 90.4036ZM272.21 76.993L271.895 76.4705L272.525 77.5153L272.21 76.993ZM265.184 82.9402L265.704 83.2693L265.411 83.7104L264.925 83.4963L265.184 82.9402ZM275.708 84.1548C272.221 85.5191 270.438 87.1551 269.528 88.3999C269.071 89.0246 268.827 89.5595 268.698 89.9266C268.633 90.1105 268.597 90.2529 268.578 90.3441C268.569 90.3897 268.563 90.4225 268.56 90.4412C268.559 90.4506 268.558 90.4565 268.558 90.4587C268.558 90.4598 268.558 90.46 268.558 90.4592C268.558 90.4588 268.558 90.4582 268.558 90.4574C268.558 90.4569 268.558 90.4565 268.558 90.4559C268.558 90.4556 268.558 90.4552 268.558 90.4551C268.558 90.4546 268.558 90.4541 267.939 90.4036C267.321 90.3531 267.321 90.3526 267.321 90.3521C267.321 90.3519 267.321 90.3514 267.321 90.351C267.321 90.3502 267.321 90.3493 267.321 90.3484C267.321 90.3466 267.321 90.3445 267.322 90.3422C267.322 90.3376 267.323 90.332 267.324 90.3254C267.325 90.3122 267.327 90.2952 267.331 90.2746C267.337 90.2332 267.346 90.1771 267.361 90.1075C267.39 89.9684 267.44 89.7756 267.523 89.5396C267.689 89.0671 267.987 88.4241 268.52 87.6957C269.589 86.2342 271.578 84.463 275.256 83.0238L275.708 84.1548ZM267.69 90.9637C264.879 89.78 263.543 88.2256 263.412 86.4307C263.285 84.7079 264.3 83.0121 265.537 81.5925C266.794 80.1498 268.388 78.8694 269.652 77.9567C270.287 77.4983 270.846 77.1284 271.246 76.8725C271.446 76.7445 271.607 76.6449 271.718 76.5769C271.774 76.5429 271.818 76.5167 271.848 76.4989C271.862 76.49 271.874 76.4831 271.882 76.4784C271.886 76.476 271.889 76.4742 271.891 76.4729C271.893 76.4722 271.893 76.4717 271.894 76.4713C271.894 76.4711 271.895 76.4709 271.895 76.4708C271.895 76.4707 271.895 76.4706 272.21 76.993C272.525 77.5153 272.525 77.5153 272.525 77.5153C272.525 77.5153 272.525 77.5153 272.525 77.5154C272.525 77.5156 272.524 77.5159 272.524 77.5163C272.522 77.5171 272.52 77.5185 272.517 77.5204C272.51 77.5242 272.5 77.5301 272.487 77.538C272.46 77.5539 272.42 77.578 272.368 77.6099C272.263 77.6736 272.11 77.7685 271.918 77.8912C271.534 78.1369 270.996 78.4935 270.383 78.9356C269.153 79.8238 267.646 81.0397 266.479 82.3788C265.293 83.7409 264.562 85.1124 264.652 86.3323C264.736 87.4801 265.578 88.7437 268.189 89.8435L267.69 90.9637ZM272.525 77.5154C270.06 78.9564 268.345 80.4097 267.251 81.4953C266.704 82.0382 266.312 82.4892 266.06 82.8008C265.934 82.9566 265.842 83.0775 265.783 83.1576C265.754 83.1977 265.733 83.2275 265.72 83.2464C265.713 83.2558 265.709 83.2625 265.706 83.2664C265.705 83.2683 265.704 83.2695 265.704 83.27C265.703 83.2703 265.703 83.2703 265.703 83.2702C265.703 83.2702 265.703 83.2701 265.704 83.2699C265.704 83.2698 265.704 83.2697 265.704 83.2697C265.704 83.2695 265.704 83.2693 265.184 82.9402C264.664 82.6111 264.664 82.6109 264.664 82.6107C264.664 82.6106 264.665 82.6104 264.665 82.6103C264.665 82.6099 264.665 82.6096 264.665 82.6091C264.666 82.6083 264.667 82.6073 264.667 82.6061C264.669 82.6037 264.671 82.6005 264.674 82.5967C264.679 82.589 264.686 82.5784 264.696 82.5651C264.714 82.5385 264.741 82.5009 264.776 82.453C264.846 82.3571 264.95 82.2201 265.089 82.0481C265.368 81.704 265.79 81.2195 266.371 80.6431C267.533 79.4901 269.331 77.9698 271.895 76.4705L272.525 77.5154ZM264.925 83.4963C262.569 82.4585 261.212 81.2142 260.713 79.8266C260.205 78.4163 260.643 77.0321 261.465 75.8714C262.285 74.7144 263.528 73.711 264.809 72.9761C266.085 72.2437 267.466 71.7397 268.593 71.6398L268.694 72.8533C267.81 72.9317 266.608 73.3498 265.429 74.0262C264.255 74.7002 263.17 75.5922 262.484 76.5603C261.8 77.5247 261.555 78.4952 261.885 79.412C262.224 80.3515 263.225 81.407 265.443 82.3842L264.925 83.4963Z" fill="#2D2B2B" mask="url(#path-55-inside-2_1063_14064)"/>
<path d="M253.226 89.9327C252.127 87.3201 252.067 85.0173 252.209 83.9035C252.571 81.0649 255.164 79.7211 258.799 78.9514C263.553 77.946 265.862 78.0334 268.257 78.3933C269.965 78.6498 271.404 79.9608 271.566 81.637C272.028 86.4664 261.732 87.5598 261.732 87.5598C261.732 87.5598 268.51 93.4242 259.752 96.5541" fill="white"/>
<path d="M253.226 89.9327C252.127 87.3201 252.067 85.0173 252.209 83.9035C252.571 81.0649 255.164 79.7211 258.799 78.9514C263.553 77.946 265.862 78.0334 268.257 78.3933C269.965 78.6498 271.404 79.9608 271.566 81.637C272.028 86.4664 261.732 87.5598 261.732 87.5598C261.732 87.5598 268.51 93.4242 259.752 96.5541" stroke="#2D2B2B" stroke-width="0.615385" stroke-miterlimit="10"/>
<path d="M264.488 101.594C262.961 101.445 261.562 100.345 260.323 98.6216" stroke="#2D2B2B" stroke-width="0.820513" stroke-miterlimit="10"/>
<path d="M188.657 55.6274C188.384 57.9535 187.973 60.1905 187.461 62.3164L182.559 61.9037L164.582 60.3791L159.521 59.9453C159.407 57.0188 159.521 53.9372 159.897 50.7761C160.125 48.8063 160.456 46.8919 160.854 45.0676C161.926 40.1933 163.557 35.8649 165.54 32.4146V32.4031C168.948 26.506 173.359 23.1227 177.771 23.8687C185.705 25.2152 190.584 39.4368 188.657 55.6274Z" fill="white"/>
<path d="M188.657 55.6274C188.384 57.9535 187.973 60.1905 187.461 62.3164L182.559 61.9037L164.582 60.3791L159.521 59.9453C159.407 57.0188 159.521 53.9372 159.897 50.7761C160.125 48.8063 160.456 46.8919 160.854 45.0676C161.926 40.1933 163.557 35.8649 165.54 32.4146V32.4031C168.948 26.506 173.359 23.1227 177.771 23.8687C185.705 25.2152 190.584 39.4368 188.657 55.6274Z" stroke="#2D2B2B" stroke-width="0.820513" stroke-miterlimit="10"/>
<path d="M162.817 24.122C162.817 24.122 161.822 29.659 165.549 32.416" stroke="white" stroke-width="0.615385" stroke-miterlimit="10"/>
<path d="M158.076 29.6206C158.076 29.6206 158.317 35.8365 163.003 37.248" stroke="white" stroke-width="0.615385" stroke-miterlimit="10"/>
<path d="M155.691 38.0941C155.691 38.0941 156.182 43.5535 160.856 45.0742" stroke="white" stroke-width="0.615385" stroke-miterlimit="10"/>
<path d="M183.346 56.1318C183.163 58.2558 182.912 60.1366 182.559 61.9062L164.582 60.3817C164.446 57.7224 164.491 54.8849 164.742 51.9805C164.799 51.246 164.89 50.5115 164.981 49.7884L175.674 48.4191L166.19 43.1445C168.344 34.498 172.232 28.9237 176.152 29.7913C181.294 30.9376 184.508 42.7442 183.346 56.1318Z" fill="#2D2B2B"/>
<path d="M183.346 56.1318C183.163 58.2558 182.912 60.1366 182.559 61.9062L164.582 60.3817C164.446 57.7224 164.491 54.8849 164.742 51.9805C164.799 51.246 164.89 50.5115 164.981 49.7884L175.674 48.4191L166.19 43.1445C168.344 34.498 172.232 28.9237 176.152 29.7913C181.294 30.9376 184.508 42.7442 183.346 56.1318Z" stroke="#2D2B2B" stroke-width="0.820513" stroke-miterlimit="10"/>
<path d="M181.174 39.9206C176.963 39.9273 176.408 40.3649 175.121 44.6963C175.239 40.1878 174.847 39.6065 170.835 38.3549C175.046 38.3482 175.601 37.9106 176.888 33.5792C176.77 38.0877 177.164 38.669 181.174 39.9206Z" fill="white"/>
<path d="M225.077 28.9913C217.074 28.1007 208.286 40.409 205.459 56.4665C205.014 58.9707 204.741 61.4184 204.639 63.777L209.483 64.1898L227.813 65.7478L232.931 66.1816C233.546 64.1218 234.059 61.9643 234.447 59.7378C237.274 43.6583 233.09 29.9039 225.077 28.9913Z" fill="white"/>
<path d="M225.077 28.9913C217.074 28.1007 208.286 40.409 205.459 56.4665C205.014 58.9707 204.741 61.4184 204.639 63.777L209.483 64.1898L227.813 65.7478L232.931 66.1816C233.546 64.1218 234.059 61.9643 234.447 59.7378C237.274 43.6583 233.09 29.9039 225.077 28.9913Z" stroke="#2D2B2B" stroke-width="0.820513" stroke-miterlimit="10"/>
<path d="M239.346 33.3514C239.346 33.3514 238.701 38.9382 234.328 40.5557" stroke="white" stroke-width="0.615385" stroke-miterlimit="10"/>
<path d="M242.304 39.9323C242.304 39.9323 240.276 45.8294 235.374 45.8926" stroke="white" stroke-width="0.615385" stroke-miterlimit="10"/>
<path d="M242.143 48.7186C242.143 48.7186 240.095 53.8217 235.172 53.9932" stroke="white" stroke-width="0.615385" stroke-miterlimit="10"/>
<path d="M230.606 50.6663L219.993 53.1255L229.853 57.387C229.728 58.0995 229.602 58.8224 229.442 59.5464C228.998 61.6934 228.44 63.7743 227.813 65.7451L209.483 64.1871C209.665 62.3838 209.961 60.5146 210.407 58.4107C213.153 45.2462 219.65 34.809 224.905 35.1203C228.918 35.3654 231.05 41.7863 230.606 50.6663Z" fill="#2D2B2B"/>
<path d="M230.606 50.6663L219.993 53.1255L229.853 57.387C229.728 58.0995 229.602 58.8224 229.442 59.5464C228.998 61.6934 228.44 63.7743 227.813 65.7451L209.483 64.1871C209.665 62.3838 209.961 60.5146 210.407 58.4107C213.153 45.2462 219.65 34.809 224.905 35.1203C228.918 35.3654 231.05 41.7863 230.606 50.6663Z" stroke="#2D2B2B" stroke-width="0.820513" stroke-miterlimit="10"/>
<path d="M217.168 43.4517C221.206 44.6181 221.611 45.1917 221.595 49.7012C222.785 45.343 223.33 44.8939 227.539 44.7981C223.501 43.6327 223.096 43.0591 223.113 38.5487C221.923 42.9068 221.378 43.3569 217.168 43.4517Z" fill="white"/>
<path d="M220.951 71.8142C217.28 78.011 206.93 91.6064 187.859 88.677C171.753 86.2044 168.561 73.9679 168.013 67.6312L220.951 71.8142Z" fill="white"/>
<path d="M220.951 71.8142C217.28 78.011 206.93 91.6064 187.859 88.677C171.753 86.2044 168.561 73.9679 168.013 67.6312L220.951 71.8142Z" stroke="#2D2B2B" stroke-width="0.820513" stroke-miterlimit="10"/>
<path d="M193.518 69.4891L189.742 89.2383" stroke="#2D2B2B" stroke-width="0.820513" stroke-miterlimit="10"/>
<path d="M207.902 70.8425L204.27 87.0732" stroke="#2D2B2B" stroke-width="0.820513" stroke-miterlimit="10"/>
<path d="M180.007 68.5427L176.812 84.2324" stroke="#2D2B2B" stroke-width="0.820513" stroke-miterlimit="10"/>
<path d="M201.946 62.9696C201.946 66.1576 199.298 68.7441 196.032 68.7441C192.765 68.7441 190.118 66.1576 190.118 62.9696C190.118 59.7807 192.765 57.1961 196.032 57.1961C199.298 57.1961 201.946 59.7807 201.946 62.9696Z" fill="#2A2362"/>
<path d="M201.946 62.9696C201.946 66.1576 199.298 68.7441 196.032 68.7441C192.765 68.7441 190.118 66.1576 190.118 62.9696C190.118 59.7807 192.765 57.1961 196.032 57.1961C199.298 57.1961 201.946 59.7807 201.946 62.9696Z" stroke="#2D2B2B" stroke-width="1.23077" stroke-miterlimit="10"/>
</g>
<defs>
<clipPath id="clip0_1063_14064">
<rect width="290" height="200" fill="white"/>
</clipPath>
<clipPath id="clip1_1063_14064">
<rect width="92" height="92" fill="white" transform="translate(80 100)"/>
</clipPath>
</defs>
</svg>
