<svg width="290" height="200" viewBox="0 0 290 200" fill="none" xmlns="http://www.w3.org/2000/svg">
<g clip-path="url(#clip0_1063_14030)">
<mask id="mask0_1063_14030" style="mask-type:luminance" maskUnits="userSpaceOnUse" x="0" y="0" width="290" height="200">
<path d="M265 0H25C11.1929 0 0 11.1929 0 25V175C0 188.807 11.1929 200 25 200H265C278.807 200 290 188.807 290 175V25C290 11.1929 278.807 0 265 0Z" fill="white"/>
</mask>
<g mask="url(#mask0_1063_14030)">
<path d="M266 0H24C10.7452 0 0 10.7452 0 24V176C0 189.255 10.7452 200 24 200H266C279.255 200 290 189.255 290 176V24C290 10.7452 279.255 0 266 0Z" fill="#C552A4"/>
<path d="M308.37 183.42L324 141.02L145.1 99.55L145.07 99.48L300.59 113.12V85.86L145.14 99.46L321.31 47.9L303.26 6.45L145.06 99.46H145V99.44L145.03 99.39L289.93 -13.05L257.88 -45L145.18 99.14L214.13 -13.61L183.12 -26.37L145.02 99.35L144.99 99.4L144.96 99.3L158.62 -10.18H131.27L144.87 99L107.46 -27.54L77.14 -13.24L144.9 99.3L144.92 99.47V99.49V99.46L144.97 99.43L144.99 99.45L145 99.47H144.94H145.01L144.99 99.49H144.98L144.97 99.51L144.99 99.5V99.52L144.97 99.56V99.49L144.96 99.52H144.94L144.93 99.51H144.94H144.92L32.04 -45L0 -13.02L144.92 99.5H144.82L-18.38 15.69L-34 58.09L144.5 99.47L-10.7 85.87V113.12L144.75 99.52L144.9 99.56L144.86 99.6L-31.33 151.16L-13.28 192.6L144.63 99.77L-0.0299988 212.04L32.02 243.98L144.88 99.63L144.96 99.58V99.6L75.89 212.55L106.9 225.31L144.93 99.81L131.27 209.15H158.63L144.98 99.64L145.01 99.54H145.03L145.1 99.64L182.6 226.48L212.92 212.17L145.34 99.95L257.9 244L289.95 212.05L145.14 99.61L145.13 99.59L308.37 183.42ZM144.94 99.46V99.36L144.97 99.41L144.94 99.46ZM144.99 99.42H145.01L145 99.43L144.99 99.42ZM145.07 99.54H145.05L145.02 99.51V99.49H145.05L145.07 99.54ZM144.96 99.56H144.93L144.96 99.52V99.56ZM144.86 99.51H144.92L144.94 99.53L144.92 99.54L144.86 99.51ZM144.92 99.57H144.94H144.91H144.92Z" fill="#2A2362"/>
<path d="M232 21H81C77.6863 21 75 23.6863 75 27V138C75 141.314 77.6863 144 81 144H232C235.314 144 238 141.314 238 138V27C238 23.6863 235.314 21 232 21Z" fill="#F0CD4E" stroke="#24213A" stroke-width="2"/>
<mask id="mask1_1063_14030" style="mask-type:alpha" maskUnits="userSpaceOnUse" x="15" y="22" width="222" height="169">
<path d="M230 23H22C18.6863 23 16 25.6863 16 29V184C16 187.314 18.6863 190 22 190H230C233.314 190 236 187.314 236 184V29C236 25.6863 233.314 23 230 23Z" fill="#F0CD4E" stroke="#24213A" stroke-width="2"/>
</mask>
<g mask="url(#mask1_1063_14030)">
<path d="M117.11 130.3C109.38 125.12 103.08 119.14 100.33 109.87C97.8901 101.67 97.4301 86.7703 106.35 81.9603C118.2 75.5703 133.53 81.1403 144.42 86.7703C161.99 95.8603 178.56 112.47 173.62 134.06C169.54 151.86 148.12 166.46 130.49 167.52C121.54 168.06 112.01 163.92 104.11 160.31C90.6101 154.15 77.3601 145.77 69.4101 132.83C56.7401 112.2 59.9101 85.8203 77.3501 69.0103C97.8101 49.3103 128.63 44.8503 154.9 53.6903C173.68 60.0103 202.28 73.1103 200.32 97.3303C199.33 109.54 191.7 121.03 184.02 130C168.64 148 148.05 162.05 125.24 168.65C93.9101 177.72 60.9601 165.48 42.4401 138.58C35.7601 128.86 32.4401 117.65 33.5201 105.89C35.4301 85.0403 49.9601 68.2203 63.7201 53.6403C87.2001 28.7503 123.44 8.24026 158.87 18.0703C186.75 25.7903 209.15 52.9703 214.57 80.8403C221.61 117.03 201.28 160.93 169.87 180.21C146.64 194.48 117.27 186.84 96.6101 171.85C87.8801 165.52 79.6001 157.4 75.9701 146.9C70.7401 131.81 73.0401 115.47 77.9301 100.68C90.9401 61.2403 126.87 33.8103 161.25 13.4003C179.03 2.84026 207.8 -15.7997 228.6 -2.24974C242.64 6.89026 249.87 24.9503 249.25 41.3803C248.75 54.6403 243.47 67.1803 236.89 78.4803C227.85 94.0603 216.09 108.37 201.45 119.04C181.51 133.57 160.92 133.06 140.32 120.91C125.43 112.14 109.71 96.8903 108.99 78.3403C108.32 61.2603 124.2 43.7203 136.32 33.6403C143.858 27.4582 152.026 22.0885 160.69 17.6203C164.48 15.6503 168.56 13.5903 172.93 14.3203C176.92 14.9803 180.76 17.0803 184.24 19.0003C192.16 23.3603 199.97 28.3903 206.74 34.4203C216.68 43.2603 223.32 55.1203 227.73 67.5603C231.27 77.5603 235.91 89.4603 236.06 100.18C236.26 114.05 230.31 127.29 223.76 139.21C220.45 145.27 217.69 149.93 210.68 151.46C197.826 154.144 184.433 151.834 173.22 145" stroke="white" stroke-width="1.5" stroke-linecap="round"/>
</g>
<path d="M237.7 145.88C237.7 140.71 239 135.79 239 130.58C239 130.28 239.19 126.5 239.27 128.68C239.32 130.06 239.77 131.36 239.79 132.76C239.83 134.52 240.05 136.26 240.05 138.02C240.05 138.59 239.69 140.97 240.2 141.41C241.18 142.25 243.75 142.11 245.01 142.61C246.18 143.06 247.39 143.01 248.61 143.01C249.59 143.01 248.45 143.01 248.09 143.07C246.36 143.35 244.65 143.97 242.93 144.32C242.06 144.5 239.01 144.46 239.01 145.75V150.59C239.01 152.35 239.25 153.23 239.73 154.81C240.09 155.95 239.38 156.37 238.47 155.63C235.91 153.55 235.87 148.22 235.87 145.1C235.87 144.1 230.68 143.83 229.49 142.64C229.34 142.49 228.79 142.24 229.09 142.24C229.68 142.24 230.14 141.88 230.71 141.71C231.84 141.37 238.49 139.78 238.49 138.84M260.65 158.67C258.77 153.2 259.66 146.97 260.13 141.31C260.16 141.01 260.43 137.29 260.65 138.12C261.2 140.11 261.58 142.12 261.69 144.19C261.8 146.36 261.95 148.52 261.95 150.7C261.95 151.74 261.57 155.34 262.75 156C264.53 157 268.05 156.32 269.98 156.32C271.98 156.32 274.33 155.97 276.32 156.33C277.39 156.53 278.47 156.77 279.57 156.96C280.17 157.06 281.94 156.96 280.37 157.26C277.93 157.73 275.55 158.35 273.09 158.66C270.81 158.96 268.05 159 265.86 159.86C264.99 160.2 264.48 160.24 263.5 160.24C261.56 160.24 262.2 162.13 262.2 163.69V170.28C262.2 171.37 262.26 172.47 262.2 173.56C262.13 174.5 261.71 175.36 261.69 176.31C261.62 178.82 260.69 173.69 260.65 173.12C260.44 169.403 259.921 165.71 259.1 162.08C258.91 161.31 258.74 159.03 258 158.46C256.87 157.59 249.18 158.16 249 157.09C248.84 156.13 255.95 155.01 257.02 155.01M256.87 93.1597C255.788 90.2832 255.477 87.1734 255.97 84.1397C256.334 82.0182 256.535 79.8719 256.57 77.7197C256.57 76.6397 256.5 76.8597 256.63 77.7997C257.08 80.8797 258.38 83.6597 258.38 86.7997V90.1297C258.38 90.9597 258.26 93.2497 259.83 92.8397C261.11 92.5097 263.05 92.3897 264.3 92.8997C265.6 93.4197 267.15 93.5797 264.73 93.6997C263.96 93.7497 260.31 93.7997 259.74 94.3997C258.38 95.8597 258.38 99.0997 258.38 100.9C258.38 101.95 258.55 103.13 258.37 104.18C257.97 106.41 257.3 103.46 257.24 102.78C257.02 100.48 257.27 98.1797 257.17 95.8797C257.06 93.2297 254.1 93.9597 251.85 93.9597C249.61 93.9597 252.43 93.4197 253.1 93.1597C254.17 92.7597 255.41 92.8997 256.57 92.8997M243.79 117C243.76 115.03 243.57 113.12 243.75 111.13C243.75 111.07 243.79 109.53 244 110.15C244.17 110.68 244.28 111.27 244.33 111.83C244.48 113.46 244.37 115.13 244.37 116.78C244.37 117.06 244.35 117.09 244.64 117.09C245.3 117.09 245.96 117.06 246.61 117.09C247.08 117.12 247.47 117.38 247.91 117.52C248.23 117.64 249.28 117.7 248.93 117.7C247.08 117.7 245.23 117.8 243.39 117.8C243.03 117.8 242.33 117.79 243.08 118C243.24 118.05 243.84 118 243.94 118.19C244.08 118.44 243.88 119.07 243.88 119.33C243.85 120.07 243.84 120.83 243.88 121.56C243.91 122.26 243.95 122.96 243.95 123.66C243.95 123.71 243.99 124.06 243.87 123.99C243.59 123.79 243.66 122.84 243.64 122.55C243.56 121.31 243.54 120.08 243.54 118.85C243.54 118.19 243.4 118.05 242.82 118.05C241.79 118.05 240.77 117.9 239.76 117.7C239.52 117.66 238.81 117.62 239.05 117.62C239.24 117.62 239.39 117.58 239.57 117.55C240.27 117.42 241 117.38 241.7 117.31C241.96 117.28 242.37 117.35 242.6 117.16C242.77 117.01 243.15 117.09 243.37 117.09M262.39 125C262.39 125.77 261.87 128.57 262.97 128.57C263.74 128.57 264.71 128.74 265.47 128.51C266.75 128.11 265.39 128.19 264.75 128.31C263.69 128.57 262.684 129.017 261.78 129.63C261.48 129.81 262.38 130.03 262.5 130.37C262.74 130.96 262.65 133.35 262.65 132.96C262.65 132.15 262.61 130.76 262.18 130.16C261.87 129.69 262.28 129.39 261.54 129.39H259.9C258.94 129.39 258.54 129.12 259.77 129.12C260.818 129.046 261.82 128.664 262.65 128.02M246.59 167C246.59 168.88 246.6 174.48 246.34 172.63C246.07 170.77 245.81 170.45 244.3 170.45C242.99 170.45 246.4 170.66 246.86 169.98C247.14 169.56 248.56 169.82 249 169.82" stroke="#FDFDFD" stroke-width="1.5" stroke-linecap="round"/>
</g>
<path d="M200.445 74.2658L200.344 74.2945C197.789 75.0015 195.681 73.4403 194.857 71.5198C194.445 70.5597 194.355 69.5126 194.689 68.6173C195.022 67.7229 195.779 66.9764 197.068 66.6183C198.077 66.3445 199.103 66.0214 200.137 65.6722L200.137 65.6722C208.151 62.9468 216.538 58.0329 220.965 50.9738L220.965 50.9738C223.048 47.6472 224.875 42.4942 226.026 37.1286C227.174 31.7758 227.649 26.2077 227.03 22.0264L231.977 22.0257C232.664 26.9811 233.061 32.8244 232.71 38.4709C232.359 44.1264 231.259 49.582 228.951 53.7501C223.483 63.6081 212.681 70.5035 201.962 73.8111L201.962 73.8113C201.463 73.9761 200.95 74.1221 200.445 74.2658ZM220.942 50.9599C216.52 58.0118 208.14 62.923 200.129 65.6475L220.942 50.9599Z" fill="#2D2B2B" stroke="black" stroke-width="0.0521415"/>
<path d="M178.015 61.5746L177.502 61.0562C168.853 52.3108 154.451 50.6785 141.953 52.1394C135.723 52.8677 130.017 54.36 125.816 56.0832C123.713 56.9455 122.005 57.8588 120.798 58.7519C119.567 59.6631 118.952 60.485 118.853 61.1369C118.478 63.5992 119.676 65.5859 121.82 67.2267C123.979 68.8794 127.042 70.1288 130.209 71.057C133.366 71.9825 136.581 72.5758 139.01 72.9378C140.224 73.1186 141.239 73.2413 141.95 73.3187C142.306 73.3574 142.585 73.3848 142.775 73.4025C142.87 73.4113 142.943 73.4177 142.991 73.4219L143.046 73.4265L143.059 73.4276L143.062 73.4278L143.063 73.4279L143.041 73.9188L143.063 73.4279L143.227 74.3835L121.849 81.7797C117.34 83.3438 112.932 85.145 108.711 87.279C104.63 89.3425 101.947 91.2862 100.361 93.0227C98.7705 94.764 98.337 96.2324 98.5818 97.378C98.8257 98.5197 99.7816 99.5167 101.385 100.248C102.983 100.977 105.153 101.404 107.648 101.427L178.015 61.5746ZM178.015 61.5746L178.322 60.9472M178.015 61.5746L178.322 60.9472M152.827 108.796C152.577 108.358 152.577 108.358 152.577 108.359L152.575 108.359L152.57 108.362L152.548 108.373L152.459 108.418C152.38 108.458 152.263 108.517 152.11 108.594C151.804 108.747 151.355 108.97 150.781 109.25C149.632 109.81 147.986 110.597 145.998 111.504C142.021 113.32 136.679 115.615 131.212 117.539C125.735 119.465 120.17 121.005 115.736 121.334C113.516 121.498 111.626 121.354 110.186 120.837C108.768 120.329 107.797 119.466 107.338 118.152C106.642 116.161 107.716 113.89 109.412 112.191L109.413 112.191C110.265 111.337 112.041 110.046 114.486 108.49C116.919 106.942 119.98 105.151 123.376 103.295C130.168 99.5834 138.275 95.6245 145.329 92.8413L144.934 91.9203L144.962 91.9892C144.934 91.9204 144.934 91.9204 144.934 91.9204L144.933 91.9207L144.929 91.922L144.915 91.9271L144.856 91.9476L144.627 92.0278C144.425 92.098 144.128 92.2011 143.746 92.3324C142.981 92.595 141.877 92.9701 140.52 93.42C137.807 94.3199 134.083 95.5186 130.043 96.7142C126.002 97.9102 121.65 99.1015 117.676 99.9877C113.692 100.876 110.128 101.449 107.648 101.427L152.827 108.796ZM152.827 108.796L152.577 108.358L153.092 109.225C141.448 115.74 134.548 121.054 130.974 125.141C129.186 127.186 128.261 128.89 127.965 130.253C127.673 131.594 127.989 132.589 128.683 133.314L128.684 133.314C129.738 134.417 131.274 134.922 133.027 135.032C134.777 135.142 136.681 134.853 138.382 134.435L138.382 134.434C171.819 126.226 186.289 116.39 192.419 108.695C195.479 104.854 196.464 101.544 196.698 99.2185C196.815 98.0536 196.744 97.1302 196.646 96.5046C196.598 96.1918 196.542 95.9533 196.5 95.7964C196.479 95.718 196.461 95.6599 196.449 95.6232C196.443 95.6048 196.439 95.5918 196.436 95.5842L196.434 95.5769L196.434 95.5768L196.434 95.5767L196.063 94.5794L197.081 94.9691C201.55 96.6801 204.638 97.1531 206.587 96.6461C207.539 96.3987 208.216 95.9189 208.67 95.223C209.132 94.5166 209.387 93.551 209.413 92.3007C209.467 89.7888 208.596 86.2758 206.895 81.8282C205.199 77.3932 202.698 72.0785 199.536 65.9828C196.388 59.9136 193.478 56.6461 190.932 55.1023C188.426 53.5821 186.239 53.7122 184.406 54.5426C182.539 55.388 181.018 56.9721 179.951 58.3804C179.422 59.0797 179.013 59.7249 178.736 60.1946C178.598 60.4292 178.493 60.6195 178.424 60.7501C178.389 60.8154 178.363 60.8658 178.346 60.8992L178.327 60.9365L178.323 60.9452L178.322 60.947L178.322 60.947M152.827 108.796L178.322 60.947M178.322 60.9472L178.322 60.947M178.322 60.9472L178.322 60.947" fill="#2C3FE1" stroke="#2D2B2B"/>
<path d="M141.34 84.54L158.096 116.115" stroke="black" stroke-width="0.260708" stroke-miterlimit="10"/>
<path d="M146.798 73.6605C146.798 73.6605 155.804 93.0683 175.076 85.4486" stroke="#2D2B2B" stroke-miterlimit="10"/>
<path d="M185.523 74.0413C185.145 72.1617 184.383 69.5249 182.729 66.6671C181.348 64.2829 179.772 62.4875 178.489 61.2315" stroke="#2D2B2B" stroke-miterlimit="10"/>
<path d="M192.844 86.8262L196.916 95.4249" stroke="black" stroke-miterlimit="10"/>
<path d="M137.503 117.466L162.591 117.16C168.351 117.089 172.963 112.363 172.893 106.603C172.823 100.843 168.096 96.2307 162.336 96.3011L137.248 96.6076C131.488 96.678 126.876 101.404 126.947 107.164C127.017 112.924 131.743 117.536 137.503 117.466Z" fill="#FB4949" stroke="#1B192C"/>
<path d="M137.501 117.463L138.611 117.45C144.371 117.379 148.983 112.653 148.913 106.893C148.842 101.133 144.116 96.5208 138.356 96.5912L137.246 96.6047C131.486 96.6751 126.874 101.401 126.944 107.161C127.015 112.921 131.741 117.534 137.501 117.463Z" fill="#FDFDFD"/>
<path d="M137.501 117.463L138.611 117.45C144.371 117.379 148.983 112.653 148.913 106.893C148.842 101.133 144.116 96.5208 138.356 96.5912L137.246 96.6047C131.486 96.6751 126.874 101.401 126.944 107.161C127.015 112.921 131.741 117.534 137.501 117.463Z" stroke="#1B192C"/>
<path d="M132.547 78.3751L116.375 94.5467C112.302 98.6198 112.302 105.224 116.375 109.297C120.448 113.37 127.052 113.37 131.125 109.297L147.297 93.1254C151.37 89.0522 151.37 82.4483 147.297 78.3751C143.224 74.302 136.62 74.3019 132.547 78.3751Z" fill="#7666FF" stroke="#1B192C"/>
<path d="M147.295 78.3777C143.222 74.3045 136.618 74.3045 132.545 78.3777C128.472 82.4509 128.472 89.0548 132.545 93.128C136.618 97.2011 143.222 97.2011 147.295 93.128C151.368 89.0548 151.368 82.4509 147.295 78.3777Z" fill="#FDFDFD"/>
<path d="M147.295 78.3777C143.222 74.3045 136.618 74.3045 132.545 78.3777C128.472 82.4509 128.472 89.0548 132.545 93.128C136.618 97.2011 143.222 97.2011 147.295 93.128C151.368 89.0548 151.368 82.4509 147.295 78.3777Z" stroke="#1B192C"/>
</g>
<defs>
<clipPath id="clip0_1063_14030">
<rect width="290" height="200" fill="white"/>
</clipPath>
</defs>
</svg>
