<svg width="254" height="271" viewBox="0 0 254 271" fill="none" xmlns="http://www.w3.org/2000/svg">
<path d="M93.7251 213.944L93.3553 258.365C93.3553 258.365 78.7177 257.281 77.5649 269.739L112.161 269.308L113.083 214.921C113.083 214.921 93.7135 213.947 93.7251 213.944Z" fill="black"/>
<path d="M93.7251 213.944L93.3553 258.365C93.3553 258.365 78.7177 257.281 77.5649 269.739L112.161 269.308L113.083 214.921C113.083 214.921 93.7135 213.947 93.7251 213.944Z" stroke="black" stroke-width="0.666667" stroke-miterlimit="10"/>
<path d="M153.114 213.444L153.84 257.86C153.84 257.86 168.469 256.658 169.721 269.108L135.123 268.955L133.763 214.575C133.763 214.575 153.124 213.446 153.114 213.444Z" fill="black"/>
<path d="M153.114 213.444L153.84 257.86C153.84 257.86 168.469 256.658 169.721 269.108L135.123 268.955L133.763 214.575C133.763 214.575 153.124 213.446 153.114 213.444Z" stroke="black" stroke-width="0.666667" stroke-miterlimit="10"/>
<path d="M203.156 115.356C203.231 115.673 203.306 115.99 203.373 116.309C208.348 138.387 205.161 160.433 195.788 179.266C186.23 198.479 170.231 214.341 149.89 223.478C144.807 225.766 139.445 227.64 133.847 229.022C133.468 229.129 133.085 229.218 132.702 229.309C132.337 229.395 131.964 229.483 131.593 229.554C131.539 229.575 131.488 229.587 131.43 229.592C103.143 235.869 74.9178 228.763 53.4766 212.416C36.884 199.767 24.3541 181.592 18.9908 159.803C18.9 159.49 18.8249 159.173 18.7497 158.856C13.585 136.958 16.4774 115.044 25.4993 96.2159C37.1609 71.8694 59.0836 52.6941 87.1047 45.4319C87.434 45.3363 87.7655 45.251 88.101 45.18C88.325 45.109 88.5526 45.056 88.7821 45.0095L88.7988 45.0056C88.9349 44.9656 89.0651 44.9346 89.2034 44.9023C92.3999 44.1481 95.6024 43.5643 98.7939 43.1562C124.731 39.7595 150.063 47.3407 169.555 62.6711C185.828 75.4559 198.035 93.647 203.156 115.356Z" fill="#A545AD"/>
<path d="M203.156 115.356C203.231 115.673 203.306 115.99 203.373 116.309C208.348 138.387 205.161 160.433 195.788 179.266C186.23 198.479 170.231 214.341 149.89 223.478C144.807 225.766 139.445 227.64 133.847 229.022C133.468 229.129 133.085 229.218 132.702 229.309C132.337 229.395 131.964 229.483 131.593 229.554C131.539 229.575 131.488 229.587 131.43 229.592C103.143 235.869 74.9178 228.763 53.4766 212.416C36.884 199.767 24.3541 181.592 18.9908 159.803C18.9 159.49 18.8249 159.173 18.7497 158.856C13.585 136.958 16.4774 115.044 25.4993 96.2159C37.1609 71.8694 59.0836 52.6941 87.1047 45.4319C87.434 45.3363 87.7655 45.251 88.101 45.18C88.325 45.109 88.5526 45.056 88.7821 45.0095L88.7988 45.0056C88.9349 44.9656 89.0651 44.9346 89.2034 44.9023C92.3999 44.1481 95.6024 43.5643 98.7939 43.1562C124.731 39.7595 150.063 47.3407 169.555 62.6711C185.828 75.456 198.035 93.647 203.156 115.356Z" stroke="black" stroke-width="0.666667" stroke-miterlimit="10"/>
<path d="M169.577 62.6426C155.529 84.2925 132.619 101.1 104.431 107.749C75.8493 114.492 47.455 109.466 25.0667 95.9588" stroke="black" stroke-width="0.666667" stroke-miterlimit="10"/>
<path d="M53.477 212.415C60.1929 202.339 68.8567 193.35 79.0739 185.993C90.1114 178.041 102.972 171.993 117.202 168.544C117.443 168.478 117.68 168.421 117.924 168.364C132.377 164.954 146.784 164.553 160.396 166.742C173.094 168.779 185.087 173.067 195.789 179.266" stroke="black" stroke-width="0.666667" stroke-miterlimit="10"/>
<path d="M87.1075 45.4271C71.7267 59.7204 61.9853 82.0496 60.043 107.485C59.0764 120.24 60.0657 133.753 63.295 147.443C63.3429 147.646 63.3874 147.832 63.4413 148.026C66.7363 161.777 71.9951 174.352 78.6718 185.33L78.6737 185.337C92.0542 207.374 111.159 222.95 131.641 228.465C131.964 228.56 132.293 228.647 132.62 228.723C133.032 228.831 133.443 228.932 133.85 229.017" stroke="black" stroke-width="0.666667" stroke-miterlimit="10"/>
<path d="M131.43 229.591C131.482 229.554 131.532 229.515 131.574 229.471C131.832 229.256 132.083 229.042 132.328 228.814C132.377 228.766 132.421 228.731 132.47 228.685C148.246 214.754 158.302 192.377 160.395 166.742C161.447 154.13 160.559 140.723 157.475 127.136C157.391 126.743 157.298 126.353 157.207 125.963C154.121 112.884 149.281 100.846 143.129 90.2332C129.972 67.4752 110.841 51.2692 90.257 45.4005L90.2494 45.4031C89.7687 45.2571 89.2838 45.1319 88.799 45.0053L88.7903 45.0079L88.7823 45.0092" stroke="black" stroke-width="0.666667" stroke-miterlimit="10"/>
<path d="M18.9932 159.799L64.0538 149.171L110.074 138.314L157.476 127.132L203.376 116.305" stroke="black" stroke-width="0.666667" stroke-miterlimit="10"/>
<path d="M88.1015 45.1792L88.5083 46.9034L102.941 108.084L102.942 108.093L110.072 138.317L117.202 168.543L131.316 228.373L131.357 228.551L131.574 229.471L131.594 229.553" stroke="black" stroke-width="0.666667" stroke-miterlimit="10"/>
<path d="M133.834 135.613C131.538 140.049 127.108 144.32 119.566 147.152C111.951 150.024 105.141 149.253 100.058 146.763C91.5342 142.575 87.8428 133.535 93.2764 128.622C101.952 120.78 112.317 128.575 112.317 128.575C112.317 128.575 120.323 112.561 131.456 118.107C135.395 120.07 137.767 128.064 133.834 135.613Z" fill="#F0366E"/>
<path d="M133.834 135.613C131.538 140.049 127.108 144.32 119.566 147.152C111.951 150.024 105.141 149.253 100.058 146.763C91.5342 142.575 87.8428 133.535 93.2764 128.622C101.952 120.78 112.317 128.575 112.317 128.575C112.317 128.575 120.323 112.561 131.456 118.107C135.395 120.07 137.767 128.064 133.834 135.613Z" stroke="black" stroke-width="0.666667" stroke-miterlimit="10"/>
<path d="M100.547 133.968C103.044 135.514 109.659 139.131 116.268 136.769C123.029 134.351 125.763 127.114 126.653 124.334" stroke="black" stroke-width="0.666667" stroke-miterlimit="10"/>
<path d="M166.593 184.817L89.952 202.429L74.5364 155.431C73.8579 153.363 75.102 151.16 77.223 150.673L154.382 132.941C156.47 132.461 158.529 133.852 158.865 135.969L166.593 184.817Z" fill="#FBC833"/>
<path d="M166.593 184.817L89.952 202.429L74.5364 155.431C73.8579 153.363 75.102 151.16 77.223 150.673L154.382 132.941C156.47 132.461 158.529 133.852 158.865 135.969L166.593 184.817Z" stroke="black" stroke-width="0.666667" stroke-miterlimit="10"/>
<path d="M167.873 189.999L90.9258 207.584L89.7362 202.408L166.618 184.906L167.873 189.999Z" fill="#FBC425"/>
<path d="M167.873 189.999L90.9258 207.584L89.7362 202.408L166.618 184.906L167.873 189.999Z" stroke="black" stroke-width="0.666667" stroke-miterlimit="10"/>
<path d="M72.509 189.979C65.0177 194.694 54.6598 200.53 43.9017 204.043C31.7609 208.021 19.1302 209.067 9.57288 202.248C-0.9268 194.757 -1.87022 180.202 2.68893 169.108C5.85368 161.386 10.8901 154.462 16.9215 148.585C17.3347 151.995 19.4036 160.988 19.3239 161.114C16.7009 165.269 13.9121 168.785 12.2337 172.995C8.97904 181.209 9.58554 192.665 19.4273 195.687C24.6191 197.277 30.4694 196.58 36.0361 195.132C39.3425 194.267 42.5587 193.117 45.4511 192.032C53.1745 189.113 60.6265 185.279 67.6007 180.886C73.2451 177.322 78.1015 186.453 72.509 189.979Z" fill="black"/>
<path d="M70.8626 174.642C71.581 174.455 71.6542 172.632 71.7233 171.864C72.1719 166.893 76.4112 162.64 79.311 160.79C80.4835 160.041 84.3445 157.395 86.7822 158.196C92.0008 159.909 86.3009 167.629 84.5977 170.108C85.9351 169.782 86.2656 169.71 86.6137 169.622C87.2796 169.456 87.9441 169.283 88.6055 169.098C89.7835 168.769 90.9514 168.404 92.1067 168.001C94.8209 167.053 97.4262 165.816 100.151 164.902C101.98 164.29 104.781 163.33 106.494 164.724C107.639 165.653 107.5 167.385 107.313 168.689C107.308 168.722 107.303 168.757 107.299 168.789C107.299 168.789 112.911 170.437 108.873 176.031C109.449 176.325 110.154 176.572 110.456 177.188C111.544 179.403 108.932 182.757 107.633 184.315C104.338 188.263 99.6873 191.972 95.0207 194.2C91.1476 196.047 86.9032 196.504 82.731 195.476C81.9198 195.277 81.1212 195.028 80.3361 194.744C79.6712 194.501 78.4983 193.681 77.8242 193.686C77.8112 193.686 77.5064 194.63 77.4796 194.691C77.1512 195.448 76.6891 196.161 76.0761 196.719C74.6484 198.018 72.5043 198.454 70.8097 197.398C68.2594 195.808 67.5243 192.649 66.812 189.941C65.9583 186.689 64.8041 183.536 63.7733 180.332C60.6782 170.712 68.165 172.912 69.2194 173.59C70.7814 174.591 70.4757 174.744 70.8626 174.642Z" fill="white"/>
<path d="M70.8626 174.642C71.581 174.455 71.6542 172.632 71.7233 171.864C72.1719 166.893 76.4112 162.64 79.311 160.79C80.4835 160.041 84.3445 157.395 86.7822 158.196C92.0008 159.909 86.3009 167.629 84.5977 170.108C85.9351 169.782 86.2656 169.71 86.6137 169.622C87.2796 169.456 87.9441 169.283 88.6055 169.098C89.7835 168.769 90.9514 168.404 92.1067 168.001C94.8209 167.053 97.4262 165.816 100.151 164.902C101.98 164.29 104.781 163.33 106.494 164.724C107.639 165.653 107.5 167.385 107.313 168.689C107.308 168.722 107.303 168.757 107.299 168.789C107.299 168.789 112.911 170.437 108.873 176.031C109.449 176.325 110.154 176.572 110.456 177.188C111.544 179.403 108.932 182.757 107.633 184.315C104.338 188.263 99.6873 191.972 95.0207 194.2C91.1476 196.047 86.9032 196.504 82.731 195.476C81.9198 195.277 81.1212 195.028 80.3361 194.744C79.6712 194.501 78.4983 193.681 77.8242 193.686C77.8112 193.686 77.5064 194.63 77.4796 194.691C77.1512 195.448 76.6891 196.161 76.0761 196.719C74.6484 198.018 72.5043 198.454 70.8097 197.398C68.2594 195.808 67.5243 192.649 66.812 189.941C65.9583 186.689 64.8041 183.536 63.7733 180.332C60.6782 170.712 68.165 172.912 69.2194 173.59C70.7814 174.591 70.4757 174.744 70.8626 174.642Z" stroke="black" stroke-width="0.666667" stroke-miterlimit="10"/>
<path d="M90.2677 177.193C90.2677 177.193 101.554 174.046 107.299 168.789" stroke="black" stroke-width="0.666667" stroke-miterlimit="10"/>
<path d="M109.108 176.094C109.108 176.094 100.814 182.624 94.2083 184.769" stroke="black" stroke-width="0.666667" stroke-miterlimit="10"/>
<path d="M89.318 173.546C89.1576 173.88 88.7666 174.03 88.4443 173.875C88.1219 173.721 87.9907 173.325 88.1516 172.988C88.3115 172.652 88.7036 172.505 89.025 172.657C89.3473 172.811 89.4785 173.208 89.318 173.546Z" fill="black"/>
<path d="M89.318 173.546C89.1576 173.88 88.7666 174.03 88.4443 173.875C88.1219 173.721 87.9907 173.325 88.1516 172.988C88.3115 172.652 88.7036 172.505 89.025 172.657C89.3473 172.811 89.4785 173.208 89.318 173.546Z" stroke="black" stroke-width="0.666667" stroke-miterlimit="10"/>
<path d="M91.9562 181.795C91.7964 182.132 91.4049 182.279 91.0824 182.125C90.7606 181.972 90.6295 181.574 90.7899 181.238C90.9508 180.902 91.3417 180.755 91.6636 180.909C91.9861 181.062 92.1172 181.459 91.9562 181.795Z" fill="black"/>
<path d="M91.9562 181.795C91.7964 182.132 91.4049 182.279 91.0824 182.125C90.7606 181.972 90.6295 181.574 90.7899 181.238C90.9508 180.902 91.3417 180.755 91.6636 180.909C91.9861 181.062 92.1172 181.459 91.9562 181.795Z" stroke="black" stroke-width="0.666667" stroke-miterlimit="10"/>
<path d="M95.1574 189.124C94.9964 189.46 94.606 189.607 94.2837 189.454C93.9613 189.301 93.8301 188.903 93.991 188.566C94.1509 188.231 94.5429 188.082 94.8643 188.237C95.1867 188.39 95.3178 188.787 95.1574 189.124Z" fill="black"/>
<path d="M95.1574 189.124C94.9964 189.46 94.606 189.607 94.2837 189.454C93.9613 189.301 93.8301 188.903 93.991 188.566C94.1509 188.231 94.5429 188.082 94.8643 188.237C95.1867 188.39 95.3178 188.787 95.1574 189.124Z" stroke="black" stroke-width="0.666667" stroke-miterlimit="10"/>
<path d="M71.1335 174.509L72.3443 178.167" stroke="black" stroke-width="0.666667" stroke-miterlimit="10"/>
<path d="M76.8934 190.321L77.7511 193.687" stroke="black" stroke-width="0.666667" stroke-miterlimit="10"/>
<path d="M152.794 75.533C157.088 90.6413 153.414 105.176 144.62 109.755C143.851 110.168 143.025 110.488 142.177 110.731C131.642 113.725 119.31 102.829 114.635 86.378C109.965 69.9485 114.723 54.1957 125.258 51.202C126.106 50.9617 126.977 50.8003 127.851 50.7461C137.738 50.0151 148.5 60.426 152.794 75.533Z" fill="white"/>
<path d="M152.794 75.533C157.088 90.6413 153.414 105.176 144.62 109.755C143.851 110.168 143.025 110.488 142.177 110.731C131.642 113.725 119.31 102.829 114.635 86.378C109.965 69.9485 114.723 54.1957 125.258 51.202C126.106 50.9617 126.977 50.8003 127.851 50.7461C137.738 50.0151 148.5 60.426 152.794 75.533Z" stroke="black" stroke-width="0.666667" stroke-miterlimit="10"/>
<path d="M153.92 86.6519L153.925 86.6674C154.088 97.4697 150.695 106.313 144.59 109.653C143.828 110.078 143.008 110.417 142.158 110.657C135.496 112.53 127.918 108.211 121.908 100.107C121.861 99.9985 121.826 99.8849 121.792 99.7725C118.439 88.7829 123.169 77.5983 132.349 74.7983C140.657 72.2643 149.778 77.4859 153.92 86.6519Z" fill="black"/>
<path d="M153.92 86.6519L153.925 86.6674C154.088 97.4697 150.695 106.313 144.59 109.653C143.828 110.078 143.008 110.417 142.158 110.657C135.496 112.53 127.918 108.211 121.908 100.107C121.861 99.9985 121.826 99.8849 121.792 99.7725C118.439 88.7829 123.169 77.5983 132.349 74.7983C140.657 72.2643 149.778 77.4859 153.92 86.6519Z" stroke="black" stroke-width="0.666667" stroke-miterlimit="10"/>
<path d="M79.213 100.348C83.5068 115.455 79.8341 129.991 71.0396 134.568C70.2692 134.983 69.4438 135.303 68.5953 135.545C58.0603 138.538 45.7297 127.643 41.054 111.193C36.3849 94.7633 41.1418 79.0106 51.6768 76.0169C52.5253 75.7754 53.3962 75.6139 54.2694 75.561C64.1567 74.83 74.9192 85.2397 79.213 100.348Z" fill="white"/>
<path d="M79.213 100.348C83.5068 115.455 79.8341 129.991 71.0396 134.568C70.2692 134.983 69.4438 135.303 68.5953 135.545C58.0603 138.538 45.7297 127.643 41.054 111.193C36.3849 94.7633 41.1418 79.0106 51.6768 76.0169C52.5253 75.7754 53.3962 75.6139 54.2694 75.561C64.1567 74.83 74.9192 85.2397 79.213 100.348Z" stroke="black" stroke-width="0.666667" stroke-miterlimit="10"/>
<path d="M80.3387 111.466L80.3432 111.483C80.5062 122.285 77.1138 131.128 71.0095 134.468C70.2471 134.893 69.4263 135.231 68.5767 135.473C61.9153 137.346 54.3366 133.027 48.327 124.921C48.2786 124.814 48.2437 124.7 48.2099 124.588C44.8585 113.598 49.5877 102.411 58.7686 99.6123C67.0753 97.0797 76.1972 102.3 80.3387 111.466Z" fill="black"/>
<path d="M80.3387 111.466L80.3432 111.483C80.5062 122.285 77.1138 131.128 71.0095 134.468C70.2471 134.893 69.4263 135.231 68.5767 135.473C61.9153 137.346 54.3366 133.027 48.327 124.921C48.2786 124.814 48.2437 124.7 48.2099 124.588C44.8585 113.598 49.5877 102.411 58.7686 99.6123C67.0753 97.0797 76.1972 102.3 80.3387 111.466Z" stroke="black" stroke-width="0.666667" stroke-miterlimit="10"/>
<path d="M115.36 85.9308C119.654 101.038 115.982 115.573 107.187 120.151C106.416 120.564 105.591 120.886 104.743 121.127C94.2078 124.121 81.8767 113.225 77.2015 96.7745C72.5319 80.345 77.2894 64.5923 87.8243 61.5985C88.6729 61.357 89.5431 61.1956 90.4169 61.1426C100.304 60.4116 111.067 70.8213 115.36 85.9308Z" fill="white"/>
<path d="M115.36 85.9308C119.654 101.038 115.982 115.573 107.187 120.151C106.416 120.564 105.591 120.886 104.743 121.127C94.2078 124.121 81.8767 113.225 77.2015 96.7745C72.5319 80.345 77.2894 64.5923 87.8243 61.5985C88.6729 61.357 89.5431 61.1956 90.4169 61.1426C100.304 60.4116 111.067 70.8213 115.36 85.9308Z" stroke="black" stroke-width="0.666667" stroke-miterlimit="10"/>
<path d="M116.486 97.049L116.49 97.0645C116.654 107.867 113.261 116.711 107.156 120.05C106.394 120.476 105.574 120.813 104.724 121.055C98.0628 122.927 90.4842 118.608 84.4745 110.504C84.4261 110.396 84.3913 110.283 84.3575 110.17C81.0056 99.1787 85.7348 87.9941 94.9152 85.1941C103.223 82.6614 112.344 87.8817 116.486 97.049Z" fill="black"/>
<path d="M116.486 97.049L116.49 97.0645C116.654 107.867 113.261 116.711 107.156 120.05C106.394 120.476 105.574 120.813 104.724 121.055C98.0628 122.927 90.4842 118.608 84.4745 110.504C84.4261 110.396 84.3913 110.283 84.3575 110.17C81.0056 99.1787 85.7348 87.9941 94.9152 85.1941C103.223 82.6614 112.344 87.8817 116.486 97.049Z" stroke="black" stroke-width="0.666667" stroke-miterlimit="10"/>
<path d="M115.45 35.2656C115.224 33.3012 114.814 31.3355 114.217 29.3711C108.717 11.2368 89.5662 1.01306 71.4476 6.5085C53.3122 12.0078 43.084 31.143 48.5841 49.2773C49.1804 51.2417 49.9301 53.1042 50.8337 54.8645C45.9596 57.6917 43.3211 60.2127 43.8291 61.8878C44.4406 63.9039 49.471 64.3934 57.1021 63.5203C64.8957 62.6369 75.3973 60.3767 86.7421 56.9348C98.0873 53.4929 108.092 49.5344 115.042 45.9297C121.877 42.4323 125.771 39.2357 125.16 37.2209C124.651 35.5445 121.058 34.9156 115.45 35.2656Z" fill="black"/>
<path d="M115.45 35.2656C115.224 33.3012 114.814 31.3355 114.217 29.3711C108.717 11.2368 89.5662 1.01306 71.4476 6.5085C53.3122 12.0078 43.084 31.143 48.5841 49.2773C49.1804 51.2417 49.9301 53.1042 50.8337 54.8645C45.9596 57.6917 43.3211 60.2127 43.8291 61.8878C44.4406 63.9039 49.471 64.3934 57.1021 63.5203C64.8957 62.6369 75.3973 60.3767 86.7421 56.9348C98.0873 53.4929 108.092 49.5344 115.042 45.9297C121.877 42.4323 125.771 39.2357 125.16 37.2209C124.651 35.5445 121.058 34.9156 115.45 35.2656Z" stroke="black" stroke-width="0.666667" stroke-miterlimit="10"/>
<path d="M65.0846 51.3144C65.5694 51.2214 66.0543 51.1245 66.5381 51.0264C73.367 49.6393 80.0845 47.7485 86.7136 45.6097C90.0752 44.5236 93.3999 43.3199 96.6523 41.9418C103.02 39.2425 109.045 35.8497 114.965 32.2902C114.761 31.3177 114.512 30.3452 114.217 29.3726C113.874 28.2413 113.478 27.1409 113.032 26.0741C102.03 31.9996 90.392 36.724 78.4322 40.3338C68.7529 43.2553 58.3697 46.4944 48.0592 47.1712C48.2257 47.8737 48.3715 48.5776 48.5839 49.2776C48.9775 50.5756 49.4632 51.8103 49.9904 53.0179C50.3239 53.7644 55.488 52.7867 56.2267 52.6989C59.1951 52.3476 62.1489 51.8788 65.0846 51.3144Z" fill="#F0366E"/>
<path d="M65.0846 51.3144C65.5694 51.2214 66.0543 51.1245 66.5381 51.0264C73.367 49.6393 80.0845 47.7485 86.7136 45.6097C90.0752 44.5236 93.3999 43.3199 96.6523 41.9418C103.02 39.2425 109.045 35.8497 114.965 32.2902C114.761 31.3177 114.512 30.3452 114.217 29.3726C113.874 28.2413 113.478 27.1409 113.032 26.0741C102.03 31.9996 90.392 36.724 78.4322 40.3338C68.7529 43.2553 58.3697 46.4944 48.0592 47.1712C48.2257 47.8737 48.3715 48.5776 48.5839 49.2776C48.9775 50.5756 49.4632 51.8103 49.9904 53.0179C50.3239 53.7644 55.488 52.7867 56.2267 52.6989C59.1951 52.3476 62.1489 51.8788 65.0846 51.3144Z" stroke="black" stroke-width="0.666667" stroke-miterlimit="10"/>
<path d="M81.9648 10.3765C90.4066 9.27481 98.859 13.8701 103.206 21.0536C103.745 21.9434 105.004 20.9192 104.47 20.0358C99.8363 12.3771 90.6896 7.60103 81.7373 8.77115C80.7 8.90547 80.9301 10.5108 81.9648 10.3765Z" fill="white"/>
<path d="M76.6934 10.6464C77.651 10.2306 77.0063 8.74144 76.0477 9.1586C75.0896 9.57447 75.7349 11.0636 76.6934 10.6464Z" fill="white"/>
<path d="M61.7785 59.1695C57.4024 60.4274 52.3499 61.0667 48.0687 59.1359C47.3103 58.7937 46.7126 59.947 47.4769 60.2905C52.0815 62.3686 57.4429 61.7654 62.162 60.4093C62.9666 60.1769 62.5807 58.9383 61.7785 59.1695Z" fill="white"/>
<path d="M228.885 114.639C221.888 118.559 213.002 121.272 206.632 126.47C203.468 129.052 200.931 132.238 199.543 136.498C197.479 142.816 187.76 139.313 189.811 132.993C192.282 125.424 197.944 119.665 204.478 115.361C205.829 114.466 207.2 113.639 208.607 112.866C216.503 108.536 226.553 106.352 232.33 98.9313C241.28 87.429 224.7 80.9895 215.559 80.2649C206.855 79.5727 198.18 81.395 189.727 83.7004C187.538 80.6576 185.182 77.7568 182.66 75.0123C195.028 71.4903 207.969 68.2589 220.761 70.5203C230.909 72.322 243.167 78.183 245.138 89.4864C247.089 100.71 237.815 109.664 228.885 114.639Z" fill="black"/>
<path d="M177.882 144.286C175.221 150.733 182.577 151.02 182.577 151.02C182.577 151.02 183.011 152.214 183.078 152.384C183.311 152.96 183.689 153.461 184.162 153.862C185.11 154.671 186.366 155.087 187.587 155.246C189.783 155.53 191.839 154.848 193.747 153.799C197.463 151.759 200.152 148.327 202.463 144.791C205.551 140.061 205.556 136.125 205.699 133.429C207.04 133.086 208.879 131.611 209.164 130.714C209.605 129.33 209.127 127.815 208.073 126.814C205.791 124.642 200.647 119.917 197.697 118.522C193.825 116.69 193.589 123.014 193.589 123.014C189.549 119.398 184.182 118.706 180.675 121.001C177.726 122.929 176.924 126.421 176.817 126.926C176.088 130.321 177.33 133.159 177.296 133.159C177.296 133.159 160.771 144.746 164.771 149.333C168.155 153.214 178.015 144.23 178.015 144.23L182.089 140.323" fill="white"/>
<path d="M177.882 144.286C175.221 150.733 182.577 151.02 182.577 151.02C182.577 151.02 183.011 152.214 183.078 152.384C183.311 152.96 183.689 153.461 184.162 153.862C185.11 154.671 186.366 155.087 187.587 155.246C189.783 155.53 191.839 154.848 193.747 153.799C197.463 151.759 200.152 148.327 202.463 144.791C205.551 140.061 205.556 136.125 205.699 133.429C207.04 133.086 208.879 131.611 209.164 130.714C209.605 129.33 209.127 127.815 208.073 126.814C205.791 124.642 200.647 119.917 197.697 118.522C193.825 116.69 193.589 123.014 193.589 123.014C189.549 119.398 184.182 118.706 180.675 121.001C177.726 122.929 176.924 126.421 176.817 126.926C176.088 130.321 177.33 133.159 177.296 133.159C177.296 133.159 160.771 144.746 164.771 149.333C168.155 153.214 178.015 144.23 178.015 144.23L182.089 140.323" stroke="black" stroke-width="0.666667" stroke-miterlimit="10"/>
<path d="M182.577 151.02L186.98 147.145" stroke="black" stroke-width="0.666667" stroke-miterlimit="10"/>
<path d="M177.109 133.286L182.283 128.469" stroke="black" stroke-width="0.666667" stroke-miterlimit="10"/>
<path d="M193.589 123.014L197.616 126.389" stroke="black" stroke-width="0.666667" stroke-miterlimit="10"/>
<path d="M202.712 131.026L205.699 133.43" stroke="black" stroke-width="0.666667" stroke-miterlimit="10"/>
<path d="M180.336 137.521C181.231 138.554 182.837 137.166 181.94 136.131C181.046 135.098 179.439 136.486 180.336 137.521Z" fill="black"/>
<path d="M185.999 142.583C186.894 143.615 188.5 142.226 187.604 141.192C186.709 140.16 185.104 141.548 185.999 142.583Z" fill="black"/>
<path d="M191.028 149.363C191.923 150.395 193.528 149.007 192.632 147.972C191.737 146.94 190.131 148.329 191.028 149.363Z" fill="black"/>
<path d="M231.339 18.2035C231.339 18.2035 231.097 4.08709 213.916 1.2522C207.442 0.184105 200.847 2.52826 196.215 7.91263C193.603 10.949 191.472 15.0599 191.34 20.4391C191.34 20.4391 167.91 10.3781 166.772 36.4915L148.754 44.7586H167.058C167.061 44.7831 167.062 44.805 167.065 44.8296L172.289 44.7586H178.814L178.756 44.6694L253.597 43.6465C253.597 43.6465 254.214 8.32588 231.339 18.2035Z" fill="white"/>
<path d="M231.339 18.2035C231.339 18.2035 231.097 4.08709 213.916 1.2522C207.442 0.184106 200.847 2.52826 196.215 7.91263C193.603 10.949 191.472 15.0599 191.34 20.4391C191.34 20.4391 167.91 10.3781 166.772 36.4915L148.754 44.7586H167.058C167.061 44.7831 167.062 44.805 167.065 44.8296L172.289 44.7586H178.814L178.756 44.6694L253.597 43.6465C253.597 43.6465 254.214 8.32588 231.339 18.2035Z" stroke="black" stroke-width="0.666667" stroke-miterlimit="10"/>
<path d="M193.105 29.4838C193.105 31.2713 191.655 32.7217 189.867 32.7217C188.078 32.7217 186.628 31.2713 186.628 29.4838C186.628 27.6951 188.078 26.246 189.867 26.246C191.655 26.246 193.105 27.6951 193.105 29.4838Z" fill="black"/>
<path d="M193.105 29.4838C193.105 31.2713 191.655 32.7217 189.867 32.7217C188.078 32.7217 186.628 31.2713 186.628 29.4838C186.628 27.6951 188.078 26.246 189.867 26.246C191.655 26.246 193.105 27.6951 193.105 29.4838Z" stroke="black" stroke-width="0.666667" stroke-miterlimit="10"/>
<path d="M213.297 29.4838C213.297 31.2713 211.848 32.7217 210.059 32.7217C208.27 32.7217 206.821 31.2713 206.821 29.4838C206.821 27.6951 208.27 26.246 210.059 26.246C211.848 26.246 213.297 27.6951 213.297 29.4838Z" fill="black"/>
<path d="M213.297 29.4838C213.297 31.2713 211.848 32.7217 210.059 32.7217C208.27 32.7217 206.821 31.2713 206.821 29.4838C206.821 27.6951 208.27 26.246 210.059 26.246C211.848 26.246 213.297 27.6951 213.297 29.4838Z" stroke="black" stroke-width="0.666667" stroke-miterlimit="10"/>
<path d="M233.108 29.4838C233.108 31.2713 231.658 32.7217 229.869 32.7217C228.08 32.7217 226.631 31.2713 226.631 29.4838C226.631 27.6951 228.08 26.246 229.869 26.246C231.658 26.246 233.108 27.6951 233.108 29.4838Z" fill="black"/>
<path d="M233.108 29.4838C233.108 31.2713 231.658 32.7217 229.869 32.7217C228.08 32.7217 226.631 31.2713 226.631 29.4838C226.631 27.6951 228.08 26.246 229.869 26.246C231.658 26.246 233.108 27.6951 233.108 29.4838Z" stroke="black" stroke-width="0.666667" stroke-miterlimit="10"/>
<g style="mix-blend-mode:soft-light">
<path d="M133.041 169.037C132.713 169.11 132.409 169.066 132.126 168.904C131.857 168.724 131.684 168.465 131.608 168.128L128.324 153.475C128.248 153.138 128.296 152.838 128.466 152.574C128.649 152.292 128.904 152.114 129.232 152.041C129.575 151.964 129.881 152.016 130.151 152.197C130.418 152.362 130.589 152.613 130.664 152.95L133.949 167.603C134.024 167.94 133.979 168.248 133.812 168.527C133.641 168.79 133.384 168.96 133.041 169.037ZM137.953 155.2C138.249 155.133 138.534 155.198 138.807 155.394C139.081 155.59 139.245 155.811 139.3 156.056C139.369 156.362 139.284 156.679 139.046 157.005L133.162 165.078L132.476 162.458L137.169 155.761C137.364 155.461 137.625 155.273 137.953 155.2ZM140.947 167.241C140.619 167.314 140.309 167.247 140.017 167.039L134.249 163.242L135.668 161.236L141.318 165.059C141.626 165.264 141.816 165.526 141.888 165.848C141.964 166.185 141.885 166.492 141.652 166.769C141.431 167.028 141.196 167.185 140.947 167.241Z" fill="white"/>
<path d="M117.624 175.988C117.555 175.682 117.619 175.419 117.815 175.198C118.011 174.977 118.219 174.842 118.437 174.793C118.765 174.719 119.061 174.798 119.326 175.028C120.225 175.823 121.197 176.434 122.243 176.859C123.292 177.299 124.375 177.563 125.493 177.65C126.626 177.734 127.746 177.651 128.854 177.403C129.962 177.155 131.012 176.758 132.004 176.214C132.997 175.67 133.881 174.974 134.658 174.124C135.438 173.29 136.037 172.311 136.458 171.188C136.583 170.87 136.817 170.673 137.161 170.596C137.395 170.544 137.642 170.585 137.901 170.72C138.161 170.854 138.321 171.06 138.383 171.335C138.424 171.519 138.417 171.706 138.361 171.895C137.868 173.276 137.182 174.491 136.302 175.541C135.427 176.605 134.396 177.488 133.209 178.188C132.025 178.903 130.747 179.415 129.374 179.723C128.001 180.03 126.627 180.113 125.251 179.971C123.891 179.826 122.588 179.459 121.342 178.87C120.099 178.296 118.954 177.499 117.906 176.48C117.762 176.351 117.668 176.187 117.624 175.988Z" fill="white"/>
<path d="M115.678 156.26C116.864 155.994 118.014 155.937 119.13 156.089C120.23 156.245 121.241 156.589 122.163 157.122C123.082 157.64 123.867 158.324 124.516 159.176C125.15 160.031 125.594 161.025 125.848 162.158C126.099 163.275 126.12 164.356 125.912 165.4C125.687 166.447 125.272 167.409 124.665 168.284C124.055 169.145 123.286 169.88 122.358 170.49C121.41 171.089 120.344 171.521 119.158 171.786C117.972 172.052 116.831 172.115 115.734 171.975C114.619 171.823 113.601 171.488 112.682 170.97C111.76 170.437 110.982 169.743 110.348 168.889C109.698 168.037 109.248 167.053 108.997 165.935C108.743 164.802 108.728 163.711 108.952 162.664C109.161 161.62 109.57 160.668 110.18 159.808C110.787 158.932 111.562 158.188 112.506 157.574C113.435 156.964 114.492 156.526 115.678 156.26ZM116.234 158.741C115.079 158.999 114.093 159.462 113.275 160.127C112.454 160.778 111.868 161.561 111.516 162.476C111.164 163.391 111.104 164.369 111.338 165.41C111.568 166.436 112.037 167.288 112.746 167.965C113.455 168.642 114.32 169.1 115.34 169.337C116.344 169.579 117.432 169.568 118.602 169.306C119.756 169.047 120.744 168.592 121.565 167.942C122.386 167.292 122.973 166.509 123.325 165.594C123.677 164.679 123.738 163.708 123.508 162.682C123.275 161.641 122.803 160.782 122.095 160.105C121.386 159.427 120.521 158.97 119.501 158.732C118.477 158.479 117.388 158.482 116.234 158.741Z" fill="white"/>
</g>
</svg>
