<svg width="99" height="33" viewBox="0 0 99 33" fill="none" xmlns="http://www.w3.org/2000/svg">
<path d="M45.6933 9.38068H50.0609C50.2109 9.38068 50.3358 9.438 50.4358 9.55263C50.5358 9.65453 50.5858 9.7819 50.5858 9.93474C50.5858 10.0748 50.5358 10.1958 50.4358 10.2977C50.3358 10.3996 50.2109 10.4506 50.0609 10.4506H45.6933C45.5433 10.4506 45.4121 10.3996 45.2996 10.2977C45.1997 10.1831 45.1497 10.0557 45.1497 9.91563C45.1497 9.76279 45.1997 9.63542 45.2996 9.53353C45.4121 9.43163 45.5433 9.38068 45.6933 9.38068ZM47.624 6.68684C47.7865 6.68684 47.9177 6.74416 48.0177 6.85879C48.1301 6.97342 48.1864 7.10716 48.1864 7.26V16.8508C48.1864 17.2075 48.2301 17.4749 48.3176 17.6533C48.4176 17.8316 48.5425 17.9526 48.6925 18.0163C48.8425 18.0672 48.9924 18.0927 49.1424 18.0927C49.2424 18.0927 49.3298 18.0799 49.4048 18.0545C49.4923 18.0163 49.586 17.9972 49.686 17.9972C49.7985 17.9972 49.8922 18.0417 49.9672 18.1309C50.0546 18.2201 50.0984 18.3347 50.0984 18.4748C50.0984 18.6531 49.9984 18.8059 49.7985 18.9333C49.5985 19.0479 49.3611 19.1053 49.0861 19.1053C48.9737 19.1053 48.805 19.0989 48.58 19.0862C48.3551 19.0607 48.1239 18.9906 47.8865 18.876C47.649 18.7486 47.4491 18.5321 47.2866 18.2264C47.1367 17.9207 47.0617 17.4813 47.0617 16.9082V7.26C47.0617 7.10716 47.1117 6.97342 47.2116 6.85879C47.3241 6.74416 47.4616 6.68684 47.624 6.68684Z" fill="white"/>
<path d="M61.4951 14.2143C61.4951 15.1823 61.2889 16.0548 60.8765 16.8317C60.4641 17.5959 59.9018 18.2009 59.1895 18.6467C58.4772 19.0798 57.6649 19.2963 56.7526 19.2963C55.8653 19.2963 55.0593 19.0798 54.3345 18.6467C53.6222 18.2009 53.0536 17.5959 52.6287 16.8317C52.2163 16.0548 52.0101 15.1823 52.0101 14.2143C52.0101 13.2336 52.2163 12.3611 52.6287 11.5969C53.0536 10.8327 53.6222 10.2277 54.3345 9.78189C55.0593 9.33611 55.8653 9.11321 56.7526 9.11321C57.6649 9.11321 58.4772 9.33611 59.1895 9.78189C59.9018 10.2277 60.4641 10.8327 60.8765 11.5969C61.2889 12.3611 61.4951 13.2336 61.4951 14.2143ZM60.3704 14.2143C60.3704 13.4374 60.2142 12.7496 59.9018 12.1509C59.5894 11.5396 59.1582 11.0619 58.6084 10.7181C58.071 10.3614 57.4524 10.1831 56.7526 10.1831C56.0778 10.1831 55.4654 10.3614 54.9156 10.7181C54.3657 11.0619 53.9283 11.5396 53.6034 12.1509C53.291 12.7496 53.1348 13.4374 53.1348 14.2143C53.1348 14.9913 53.291 15.6791 53.6034 16.2777C53.9283 16.8763 54.3657 17.3539 54.9156 17.7106C55.4654 18.0545 56.0778 18.2264 56.7526 18.2264C57.4524 18.2264 58.071 18.0545 58.6084 17.7106C59.1582 17.3539 59.5894 16.8763 59.9018 16.2777C60.2142 15.6791 60.3704 14.9913 60.3704 14.2143Z" fill="white"/>
<path d="M70.2858 19.1053C70.1109 19.1053 69.9672 19.0479 69.8547 18.9333C69.7547 18.8187 69.7047 18.6849 69.7047 18.5321V6.36205H70.8669V18.5321C70.8669 18.6849 70.8107 18.8187 70.6982 18.9333C70.5858 19.0479 70.4483 19.1053 70.2858 19.1053ZM65.8245 6.82058C65.6745 6.82058 65.5433 6.76963 65.4308 6.66774C65.3184 6.56584 65.2621 6.4321 65.2621 6.26653C65.2621 6.11368 65.3184 5.98632 65.4308 5.88442C65.5433 5.78253 65.6745 5.73158 65.8245 5.73158H74.7472C74.8971 5.73158 75.0284 5.78253 75.1408 5.88442C75.2533 5.98632 75.3095 6.12005 75.3095 6.28563C75.3095 6.45121 75.2533 6.58495 75.1408 6.68684C75.0284 6.776 74.8971 6.82058 74.7472 6.82058H65.8245Z" fill="white"/>
<path d="M83.4057 9.34247C83.5681 9.34247 83.6993 9.39979 83.7993 9.51442C83.9118 9.62905 83.968 9.76916 83.968 9.93474V18.5321C83.968 18.6849 83.9118 18.8187 83.7993 18.9333C83.6868 19.0479 83.5556 19.1053 83.4057 19.1053C83.2432 19.1053 83.1057 19.0479 82.9933 18.9333C82.8933 18.8187 82.8433 18.6849 82.8433 18.5321V16.2586L83.162 16.1057C83.162 16.4624 83.062 16.8254 82.8621 17.1947C82.6746 17.5641 82.4122 17.908 82.0748 18.2264C81.7373 18.5448 81.3375 18.8059 80.8751 19.0097C80.4252 19.2008 79.9378 19.2963 79.413 19.2963C78.5632 19.2963 77.8009 19.0734 77.1261 18.6276C76.4637 18.1818 75.9389 17.5705 75.5515 16.7935C75.1766 16.0166 74.9891 15.1441 74.9891 14.1761C74.9891 13.1826 75.1828 12.3102 75.5702 11.5587C75.9576 10.7945 76.4825 10.1958 77.1448 9.76279C77.8071 9.32974 78.5569 9.11321 79.3942 9.11321C79.9316 9.11321 80.4314 9.20874 80.8938 9.39979C81.3687 9.59084 81.7811 9.85195 82.131 10.1831C82.4809 10.5143 82.7496 10.8964 82.937 11.3294C83.137 11.7497 83.237 12.1892 83.237 12.6477L82.8433 12.3611V9.93474C82.8433 9.76916 82.8933 9.62905 82.9933 9.51442C83.1057 9.39979 83.2432 9.34247 83.4057 9.34247ZM79.5067 18.2264C80.169 18.2264 80.7564 18.0545 81.2687 17.7106C81.7811 17.3539 82.181 16.8699 82.4684 16.2586C82.7683 15.6345 82.9183 14.9403 82.9183 14.1761C82.9183 13.4246 82.7683 12.7496 82.4684 12.1509C82.181 11.5523 81.7811 11.0747 81.2687 10.7181C80.7564 10.3614 80.169 10.1831 79.5067 10.1831C78.8568 10.1831 78.2695 10.3551 77.7446 10.6989C77.2323 11.0428 76.8261 11.5141 76.5262 12.1127C76.2388 12.7114 76.0951 13.3992 76.0951 14.1761C76.0951 14.9403 76.2388 15.6345 76.5262 16.2586C76.8261 16.8699 77.2323 17.3539 77.7446 17.7106C78.257 18.0545 78.8444 18.2264 79.5067 18.2264Z" fill="white"/>
<path d="M88.1565 18.5321C88.1565 18.6849 88.1003 18.8187 87.9878 18.9333C87.8754 19.0479 87.7441 19.1053 87.5942 19.1053C87.4317 19.1053 87.2943 19.0479 87.1818 18.9333C87.0818 18.8187 87.0318 18.6849 87.0318 18.5321V5.54053C87.0318 5.38768 87.0881 5.25395 87.2005 5.13932C87.313 5.02468 87.4442 4.96737 87.5942 4.96737C87.7566 4.96737 87.8878 5.02468 87.9878 5.13932C88.1003 5.25395 88.1565 5.38768 88.1565 5.54053V18.5321Z" fill="white"/>
<path d="M91.9143 19.1053C91.7519 19.1053 91.6144 19.0479 91.502 18.9333C91.402 18.8187 91.352 18.6849 91.352 18.5321V5.54053C91.352 5.38768 91.402 5.25395 91.502 5.13932C91.6144 5.02468 91.7519 4.96737 91.9143 4.96737C92.0768 4.96737 92.208 5.02468 92.308 5.13932C92.4205 5.25395 92.4767 5.38768 92.4767 5.54053V18.5321C92.4767 18.6849 92.4205 18.8187 92.308 18.9333C92.208 19.0479 92.0768 19.1053 91.9143 19.1053ZM98.2877 9.30426C98.4251 9.30426 98.5501 9.36795 98.6626 9.49532C98.7751 9.60995 98.8313 9.73732 98.8313 9.87742C98.8313 10.043 98.7626 10.1895 98.6251 10.3168L92.3267 15.7809L92.2705 14.4245L97.894 9.49532C98.0065 9.36795 98.1377 9.30426 98.2877 9.30426ZM98.4376 19.1053C98.2752 19.1053 98.1377 19.0352 98.0253 18.8951L93.7514 14.2716L94.5949 13.4883L98.8313 18.0927C98.9438 18.2201 99 18.3665 99 18.5321C99 18.7104 98.9313 18.8505 98.7938 18.9524C98.6563 19.0543 98.5376 19.1053 98.4376 19.1053Z" fill="white"/>
<path d="M26.8769 21.2548C26.4807 21.2548 26.1412 21.1208 25.8582 20.8527C25.5942 20.5655 25.4621 20.2112 25.4621 19.79V1.46486C25.4621 1.04359 25.5942 0.698919 25.8582 0.430841C26.1412 0.143614 26.4807 0 26.8769 0C27.2918 0 27.6314 0.143614 27.8955 0.430841C28.1595 0.698919 28.2916 1.04359 28.2916 1.46486V19.79C28.2916 20.2112 28.1595 20.5655 27.8955 20.8527C27.6314 21.1208 27.2918 21.2548 26.8769 21.2548ZM36.1009 6.08922C36.4593 6.08922 36.7706 6.24241 37.0347 6.54878C37.2987 6.85516 37.4308 7.16153 37.4308 7.46791C37.4308 7.85088 37.2516 8.20512 36.8932 8.53065L28.0369 16.573L27.9238 13.2699L35.054 6.54878C35.3558 6.24241 35.7048 6.08922 36.1009 6.08922ZM36.4405 21.2261C36.0443 21.2261 35.7048 21.0633 35.4219 20.7378L29.7629 14.6773L31.9133 12.6667L37.4308 18.7272C37.7326 19.0527 37.8835 19.4166 37.8835 19.8187C37.8835 20.2399 37.7137 20.5846 37.3742 20.8527C37.0535 21.1016 36.7423 21.2261 36.4405 21.2261Z" fill="white"/>
<path d="M7.33586 25.4172C7.33586 25.0342 7.47733 24.7374 7.76028 24.5268C8.04323 24.3162 8.31675 24.2108 8.58083 24.2108C8.97696 24.2108 9.29763 24.3832 9.54285 24.7279C10.3728 25.9151 11.3349 26.9012 12.4289 27.6863C13.523 28.4905 14.7019 29.0937 15.9658 29.4958C17.2485 29.8979 18.5594 30.099 19.8987 30.099C21.238 30.099 22.549 29.9075 23.8317 29.5246C25.1144 29.1416 26.3122 28.548 27.4251 27.7437C28.5381 26.9587 29.4812 25.9534 30.2546 24.7279C30.481 24.3832 30.8016 24.2108 31.2166 24.2108C31.4996 24.2108 31.7731 24.3257 32.0372 24.5555C32.3013 24.7853 32.4333 25.0725 32.4333 25.4172C32.4333 25.647 32.3767 25.8672 32.2635 26.0778C31.3392 27.5906 30.2357 28.8544 28.953 29.8692C27.6704 30.9032 26.2556 31.6788 24.7088 32.1958C23.1621 32.7319 21.5587 33 19.8987 33C18.2388 33 16.6354 32.7319 15.0886 32.1958C13.5607 31.6596 12.1554 30.8745 10.8727 29.8405C9.59001 28.8256 8.47708 27.5714 7.53392 26.0778C7.40188 25.8863 7.33586 25.6661 7.33586 25.4172Z" fill="white"/>
<path d="M10.1861 1.40661C11.6197 1.40661 12.959 1.64596 14.204 2.12468C15.4301 2.60339 16.5053 3.28316 17.4296 4.16399C18.3539 5.02567 19.0801 6.05012 19.6083 7.23732C20.1176 8.42453 20.3722 9.72663 20.3722 11.1436C20.3722 12.5415 20.1176 13.834 19.6083 15.0212C19.0801 16.2084 18.3539 17.2424 17.4296 18.1232C16.5053 18.9849 15.4301 19.6551 14.204 20.1338C12.959 20.5934 11.6197 20.8232 10.1861 20.8232C8.75251 20.8232 7.42266 20.5934 6.19655 20.1338C4.95158 19.6551 3.86695 18.9849 2.94266 18.1232C2.01836 17.2424 1.30156 16.2084 0.792253 15.0212C0.264084 13.834 6.01911e-08 12.5415 0 11.1436C-6.10156e-08 9.72663 0.264084 8.42453 0.792253 7.23732C1.30156 6.05012 2.01836 5.02567 2.94265 4.16399C3.86695 3.28316 4.95158 2.60339 6.19655 2.12468C7.42266 1.64596 8.75251 1.40661 10.1861 1.40661ZM10.1861 4.50866C8.79024 4.50866 7.53584 4.79589 6.42291 5.37035C5.30998 5.92565 4.43284 6.70117 3.7915 7.69689C3.15015 8.69261 2.82948 9.84152 2.82948 11.1436C2.82948 12.4266 3.15015 13.5659 3.7915 14.5616C4.43284 15.5573 5.30998 16.3329 6.42291 16.8882C7.51697 17.4435 8.77137 17.7211 10.1861 17.7211C11.582 17.7211 12.8364 17.4435 13.9493 16.8882C15.0622 16.3329 15.9394 15.5573 16.5807 14.5616C17.2221 13.5659 17.5427 12.4266 17.5427 11.1436C17.5427 9.84152 17.2221 8.69261 16.5807 7.69689C15.9394 6.70116 15.0622 5.92565 13.9493 5.37034C12.8364 4.79589 11.582 4.50866 10.1861 4.50866Z" fill="white"/>
</svg>
