<svg width="22" height="22" viewBox="0 0 22 22" fill="none" xmlns="http://www.w3.org/2000/svg">
<path d="M11.0001 8.77773C12.9331 8.77773 14.5001 7.03663 14.5001 4.88887C14.5001 2.74111 12.9331 1 11.0001 1C9.06706 1 7.50006 2.74111 7.50006 4.88887C7.50006 7.03663 9.06706 8.77773 11.0001 8.77773Z" fill="white" stroke="white" stroke-linecap="round" stroke-linejoin="round"/>
<path d="M5 1.69727C4.09325 2.40001 3.5 3.56754 3.5 4.88909C3.5 6.30369 4.1798 7.54191 5.1962 8.22241" stroke="white" stroke-linecap="round" stroke-linejoin="round"/>
<path d="M17.0001 1.69727C17.9069 2.40001 18.5001 3.56754 18.5001 4.88909C18.5001 6.21058 17.9069 7.37819 17.0001 8.08091" stroke="white" stroke-linecap="round" stroke-linejoin="round"/>
<path d="M5.00006 19.8888V20.9999H17.0001V19.8888C17.0001 17.818 17.0001 16.7825 16.6956 15.9658C16.2896 14.8768 15.5109 14.0116 14.5308 13.5605C13.7957 13.2222 12.8638 13.2222 11.0001 13.2222C9.13632 13.2222 8.20442 13.2222 7.46931 13.5605C6.48921 14.0116 5.71051 14.8768 5.30456 15.9658C5.00006 16.7825 5.00006 17.818 5.00006 19.8888Z" fill="white" stroke="white" stroke-linecap="round" stroke-linejoin="round"/>
<path d="M21 20.9998V20.3332C21 17.8441 21 16.5995 20.564 15.6488C20.1805 14.8125 19.5686 14.1327 18.8159 13.7065" stroke="white" stroke-linecap="round" stroke-linejoin="round"/>
<path d="M1 20.9998V20.3332C1 17.8441 1 16.5995 1.43598 15.6488C1.81947 14.8125 2.43139 14.1327 3.18404 13.7065" stroke="white" stroke-linecap="round" stroke-linejoin="round"/>
</svg>
