<svg width="23" height="20" viewBox="0 0 23 20" fill="none" xmlns="http://www.w3.org/2000/svg">
<path d="M11.5001 7.88887C13.5297 7.88887 15.1751 6.23482 15.1751 4.19443C15.1751 2.15406 13.5297 0.5 11.5001 0.5C9.4704 0.5 7.82504 2.15406 7.82504 4.19443C7.82504 6.23482 9.4704 7.88887 11.5001 7.88887Z" fill="#2C3FE1"/>
<path d="M5.20001 1.16211C4.24791 1.82972 3.625 2.93888 3.625 4.19435C3.625 5.53823 4.33879 6.71454 5.40602 7.36101" stroke="#2C3FE1" stroke-linecap="round" stroke-linejoin="round"/>
<path d="M17.8002 1.16211C18.7523 1.82972 19.3752 2.93888 19.3752 4.19435C19.3752 5.44977 18.7523 6.559 17.8002 7.22659" stroke="#2C3FE1" stroke-linecap="round" stroke-linejoin="round"/>
<path d="M5.20004 18.4442V19.4997H17.8001V18.4442C17.8001 16.4769 17.8001 15.4932 17.4804 14.7173C17.0541 13.6827 16.2365 12.8608 15.2074 12.4323C14.4355 12.1108 13.457 12.1108 11.5001 12.1108C9.54312 12.1108 8.56462 12.1108 7.79276 12.4323C6.76366 12.8608 5.94602 13.6827 5.51977 14.7173C5.20004 15.4932 5.20004 16.4769 5.20004 18.4442Z" fill="#2C3FE1"/>
<path d="M22 19.4999V18.8666C22 16.502 22 15.3196 21.5422 14.4164C21.1396 13.622 20.497 12.9761 19.7067 12.5713" stroke="#2C3FE1" stroke-linecap="round" stroke-linejoin="round"/>
<path d="M1 19.4999V18.8666C1 16.502 1 15.3196 1.45778 14.4164C1.86044 13.622 2.50297 12.9761 3.29325 12.5713" stroke="#2C3FE1" stroke-linecap="round" stroke-linejoin="round"/>
</svg>
