<svg width="23" height="20" viewBox="0 0 23 20" fill="none" xmlns="http://www.w3.org/2000/svg">
<path d="M11.5 7.88887C13.5296 7.88887 15.175 6.23482 15.175 4.19443C15.175 2.15406 13.5296 0.5 11.5 0.5C9.47031 0.5 7.82495 2.15406 7.82495 4.19443C7.82495 6.23482 9.47031 7.88887 11.5 7.88887Z" fill="#2C3FE1" stroke="black" stroke-linecap="round" stroke-linejoin="round"/>
<path d="M5.20001 1.16229C4.24791 1.8299 3.625 2.93906 3.625 4.19454C3.625 5.53841 4.33879 6.71472 5.40602 7.36119" stroke="#2C3FE1" stroke-linecap="round" stroke-linejoin="round"/>
<path d="M17.8 1.16229C18.7521 1.8299 19.3751 2.93906 19.3751 4.19454C19.3751 5.44996 18.7521 6.55919 17.8 7.22677" stroke="#2C3FE1" stroke-linecap="round" stroke-linejoin="round"/>
<path d="M5.19995 18.4444V19.5H17.8V18.4444C17.8 16.4771 17.8 15.4934 17.4803 14.7175C17.054 13.683 16.2364 12.861 15.2073 12.4325C14.4354 12.1111 13.4569 12.1111 11.5 12.1111C9.54303 12.1111 8.56453 12.1111 7.79267 12.4325C6.76356 12.861 5.94593 13.683 5.51968 14.7175C5.19995 15.4934 5.19995 16.4771 5.19995 18.4444Z" fill="#2C3FE1" stroke="black" stroke-linecap="round" stroke-linejoin="round"/>
<path d="M22 19.5V18.8667C22 16.502 22 15.3197 21.5423 14.4165C21.1396 13.622 20.4971 12.9762 19.7068 12.5714" stroke="#2C3FE1" stroke-linecap="round" stroke-linejoin="round"/>
<path d="M1 19.5V18.8667C1 16.502 1 15.3197 1.45778 14.4165C1.86044 13.622 2.50297 12.9762 3.29325 12.5714" stroke="#2C3FE1" stroke-linecap="round" stroke-linejoin="round"/>
</svg>
