<svg width="19" height="23" viewBox="0 0 19 23" fill="none" xmlns="http://www.w3.org/2000/svg">
<path d="M7.89995 2.29999C6.733 2.29999 5.61384 2.78463 4.78868 3.6473C3.96352 4.50996 3.49995 5.67999 3.49995 6.89999C3.49995 8.11998 3.96352 9.29001 4.78868 10.1527C5.61384 11.0153 6.733 11.5 7.89995 11.5C9.0669 11.5 10.1861 11.0153 11.0112 10.1527C11.8364 9.29001 12.3 8.11998 12.3 6.89999C12.3 5.67999 11.8364 4.50996 11.0112 3.6473C10.1861 2.78463 9.0669 2.29999 7.89995 2.29999ZM4.59995 6.89999C4.59995 5.98499 4.94763 5.10747 5.5665 4.46047C6.18537 3.81347 7.02474 3.44999 7.89995 3.44999C8.77517 3.44999 9.61453 3.81347 10.2334 4.46047C10.8523 5.10747 11.2 5.98499 11.2 6.89999C11.2 7.81499 10.8523 8.69251 10.2334 9.33951C9.61453 9.98651 8.77517 10.35 7.89995 10.35C7.02474 10.35 6.18537 9.98651 5.5665 9.33951C4.94763 8.69251 4.59995 7.81499 4.59995 6.89999ZM2.40985 12.65C2.12015 12.6488 1.83307 12.7074 1.56508 12.8224C1.29708 12.9374 1.05345 13.1066 0.848136 13.3203C0.642827 13.534 0.479884 13.7879 0.368654 14.0676C0.257424 14.3473 0.200094 14.6471 0.199951 14.95C0.199951 16.8946 1.11625 18.3609 2.54845 19.3165C3.95865 20.2561 5.85945 20.7 7.89995 20.7V19.55C5.99145 19.55 4.31725 19.1314 3.14025 18.3459C1.98525 17.5754 1.29995 16.4565 1.29995 14.95C1.29995 14.314 1.79275 13.8 2.40985 13.8H5.3023H8.19475C8.38746 13.451 8.66448 13.1611 8.99808 12.9593C9.33167 12.7575 9.71013 12.6508 10.0956 12.65H2.40985ZM13.9599 18.316L9.01425 15.2996C9.06655 14.8847 9.26129 14.5039 9.56221 14.228C9.86314 13.9522 10.2497 13.8 10.65 13.8H17.25C17.6876 13.8 18.1072 13.9817 18.4167 14.3052C18.7261 14.6287 18.9 15.0675 18.9 15.525V15.5353L13.961 18.316H13.9599ZM14.2107 19.481L18.9 16.8417V20.125C18.9 20.5825 18.7261 21.0212 18.4167 21.3447C18.1072 21.6682 17.6876 21.85 17.25 21.85H10.65C10.2123 21.85 9.79266 21.6682 9.48322 21.3447C9.17379 21.0212 8.99995 20.5825 8.99995 20.125V16.6221L13.6728 19.4718C13.7543 19.5216 13.8467 19.5485 13.9411 19.5502C14.0355 19.5518 14.1276 19.528 14.2107 19.481Z" fill="#2C3FE1"/>
</svg>
