<svg width="19" height="20" viewBox="0 0 19 20" fill="none" xmlns="http://www.w3.org/2000/svg">
<path d="M7.82353 0C6.63786 0 5.50074 0.495797 4.66235 1.37832C3.82395 2.26085 3.35294 3.4578 3.35294 4.70588C3.35294 5.95396 3.82395 7.15092 4.66235 8.03344C5.50074 8.91597 6.63786 9.41177 7.82353 9.41177C9.0092 9.41177 10.1463 8.91597 10.9847 8.03344C11.8231 7.15092 12.2941 5.95396 12.2941 4.70588C12.2941 3.4578 11.8231 2.26085 10.9847 1.37832C10.1463 0.495797 9.0092 0 7.82353 0ZM4.47059 4.70588C4.47059 3.76982 4.82384 2.8721 5.45264 2.21021C6.08144 1.54832 6.93427 1.17647 7.82353 1.17647C8.71278 1.17647 9.56562 1.54832 10.1944 2.21021C10.8232 2.8721 11.1765 3.76982 11.1765 4.70588C11.1765 5.64194 10.8232 6.53966 10.1944 7.20155C9.56562 7.86345 8.71278 8.23529 7.82353 8.23529C6.93427 8.23529 6.08144 7.86345 5.45264 7.20155C4.82384 6.53966 4.47059 5.64194 4.47059 4.70588ZM2.24535 10.5882C1.95101 10.587 1.65932 10.6469 1.38703 10.7646C1.11473 10.8823 0.867187 11.0554 0.658584 11.274C0.44998 11.4926 0.284424 11.7524 0.171409 12.0385C0.0583947 12.3246 0.000144749 12.6313 0 12.9412C0 14.9306 0.931 16.4306 2.38618 17.4082C3.819 18.3694 5.75029 18.8235 7.82353 18.8235V17.6471C5.88441 17.6471 4.18335 17.2188 2.98747 16.4153C1.81394 15.6271 1.11765 14.4824 1.11765 12.9412C1.11765 12.2906 1.61835 11.7647 2.24535 11.7647H8.12306C8.31886 11.4077 8.60033 11.1111 8.93927 10.9047C9.27822 10.6982 9.66275 10.5891 10.0544 10.5882H2.24535ZM13.9806 16.3847L8.95571 13.2988C9.00884 12.8744 9.20671 12.4848 9.51246 12.2026C9.81821 11.9204 10.211 11.7647 10.6176 11.7647H17.3235C17.7682 11.7647 18.1946 11.9506 18.509 12.2816C18.8234 12.6125 19 13.0614 19 13.5294V13.54L13.9818 16.3847H13.9806ZM14.2355 17.5765L19 14.8765V18.2353C19 18.7033 18.8234 19.1522 18.509 19.4831C18.1946 19.8141 17.7682 20 17.3235 20H10.6176C10.173 20 9.7466 19.8141 9.4322 19.4831C9.1178 19.1522 8.94118 18.7033 8.94118 18.2353V14.6518L13.6889 17.5671C13.7718 17.618 13.8657 17.6456 13.9616 17.6472C14.0575 17.6489 14.1511 17.6245 14.2355 17.5765Z" fill="white"/>
</svg>
