<svg width="1440" height="841" viewBox="0 0 1440 841" fill="none" xmlns="http://www.w3.org/2000/svg">
<g clip-path="url(#clip0_664_2365)">
<rect width="1440" height="784" fill="url(#paint0_radial_664_2365)"/>
<circle cx="794.991" cy="595.205" r="3.62757" fill="white" fill-opacity="0.25"/>
<circle cx="662.5" cy="329.5" r="3.5" fill="white" fill-opacity="0.25"/>
<circle cx="214.5" cy="503.5" r="2.5" fill="white" fill-opacity="0.25"/>
<circle cx="269.446" cy="101.402" r="2.26723" fill="white" fill-opacity="0.25"/>
<circle cx="1310.36" cy="193.36" r="1.36034" fill="white" fill-opacity="0.25"/>
<circle cx="101.36" cy="154.36" r="1.36034" fill="white" fill-opacity="0.25"/>
<circle cx="84.3603" cy="523.36" r="1.36034" fill="white" fill-opacity="0.25"/>
<circle cx="878.814" cy="424.814" r="1.81379" fill="white" fill-opacity="0.25"/>
<circle cx="306.814" cy="157.814" r="1.81379" fill="white" fill-opacity="0.25"/>
<circle cx="404.814" cy="691.814" r="1.81379" fill="white" fill-opacity="0.25"/>
<circle cx="438.814" cy="286.814" r="1.81379" fill="white" fill-opacity="0.25"/>
<circle cx="1268.81" cy="86.8138" r="1.81379" fill="white" fill-opacity="0.25"/>
<circle cx="788.814" cy="303.814" r="1.81379" fill="white" fill-opacity="0.25"/>
<circle cx="449.814" cy="716.814" r="1.81379" fill="white" fill-opacity="0.25"/>
<circle cx="657" cy="516" r="2" fill="white" fill-opacity="0.25"/>
<circle cx="719.628" cy="711.628" r="3.62757" fill="white" fill-opacity="0.25"/>
<circle cx="61.6276" cy="680.628" r="3.62757" fill="white" fill-opacity="0.25"/>
<circle cx="105.267" cy="394.267" r="2.26723" fill="white" fill-opacity="0.25"/>
<circle cx="451.732" cy="454.183" r="3.17413" fill="white" fill-opacity="0.25"/>
<circle cx="1073.17" cy="199.174" r="3.17413" fill="white" fill-opacity="0.25"/>
<circle cx="1305.5" cy="644.5" r="1.5" fill="white" fill-opacity="0.25"/>
<circle cx="1412.72" cy="389.721" r="2.72068" fill="white" fill-opacity="0.25"/>
<circle cx="617.721" cy="119.721" r="2.72068" fill="white" fill-opacity="0.25"/>
<circle cx="336.267" cy="626.267" r="2.26723" fill="white" fill-opacity="0.25"/>
<circle cx="192.814" cy="290.489" r="1.81379" fill="white" fill-opacity="0.25"/>
<circle cx="1299.5" cy="459.5" r="2.5" fill="white" fill-opacity="0.25"/>
<circle cx="1105" cy="147" r="3" fill="white" fill-opacity="0.25"/>
<circle cx="1141" cy="676" r="2" fill="white" fill-opacity="0.25"/>
<circle cx="1080.08" cy="425.081" r="4.08102" fill="white" fill-opacity="0.25"/>
<circle cx="1009" cy="707" r="3" fill="white" fill-opacity="0.25"/>
<circle cx="371.018" cy="45.1741" r="3.17413" fill="white" fill-opacity="0.25"/>
<circle cx="802.174" cy="26.1741" r="3.17413" fill="white" fill-opacity="0.25"/>
<circle cx="1407.72" cy="28.7207" r="2.72068" fill="white" fill-opacity="0.25"/>
<path d="M461.23 479.894C461.144 480.489 461.058 481.096 460.946 481.689C458.952 493.594 453.142 506.104 443.407 513.349C435.17 519.469 423.105 523.297 412.329 523.246V514.402C421.421 514.539 432.78 510.575 439.27 505.187C446.156 499.464 450.194 489.828 451.953 480.897C452.177 479.745 452.375 478.606 452.522 477.492C453.317 471.756 462.012 474.209 461.23 479.894Z" fill="black"/>
<path d="M447.382 472.147C447.382 472.147 439.593 479.485 453.138 481.065C466.683 482.646 472.78 481.629 466.796 474.856C466.796 474.856 479.073 474.856 476.767 442.675C476.65 441.015 476.154 439.025 474.618 438.388C472.466 437.493 469.177 440.842 466.492 453.25C466.492 453.25 470.349 431.332 464.058 431.449C462.864 431.471 461.881 432.415 461.315 433.467C460.149 435.627 458.026 445.395 457.508 452.544C457.508 452.544 457.963 438.95 456.38 434.483C454.795 430.016 450.788 428.709 449.318 437.305C448.938 439.525 448.747 441.773 448.684 444.023L448.397 454.65C448.397 454.65 443.418 443.392 438.528 445.883C435.458 447.447 436.205 467.294 447.382 472.147Z" fill="white"/>
<path d="M447.382 472.147C447.382 472.147 439.593 479.485 453.138 481.065C466.683 482.646 472.78 481.629 466.796 474.856C466.796 474.856 479.073 474.856 476.767 442.675C476.65 441.015 476.154 439.025 474.618 438.388C472.466 437.493 469.177 440.842 466.492 453.25C466.492 453.25 470.349 431.332 464.058 431.449C462.864 431.471 461.881 432.415 461.315 433.467C460.149 435.627 458.026 445.395 457.508 452.544C457.508 452.544 457.963 438.95 456.38 434.483C454.795 430.016 450.788 428.709 449.318 437.305C448.938 439.525 448.747 441.773 448.684 444.023L448.397 454.65C448.397 454.65 443.418 443.392 438.528 445.883C435.458 447.447 436.205 467.294 447.382 472.147Z" stroke="black" stroke-width="0.666667" stroke-miterlimit="10"/>
<path d="M453.199 452.161L470.776 454.372" stroke="black" stroke-width="0.666667" stroke-miterlimit="10"/>
<path d="M448.843 456.346C448.843 456.346 459.451 457.135 458.738 466.871" stroke="black" stroke-width="0.666667" stroke-miterlimit="10"/>
<path d="M454.886 473.341C453.933 473.482 452.561 473.578 450.95 473.317C449.605 473.099 448.511 472.699 447.719 472.34" stroke="black" stroke-width="0.666667" stroke-miterlimit="10"/>
<path d="M462.084 474.469L466.797 474.855" stroke="black" stroke-width="0.666667" stroke-miterlimit="10"/>
<path d="M156.826 479.894C156.913 480.489 156.999 481.096 157.111 481.689C159.105 493.594 164.914 506.104 174.65 513.349C182.887 519.469 194.951 523.297 205.727 523.246V514.402C196.635 514.539 185.277 510.575 178.787 505.187C171.9 499.464 167.863 489.828 166.103 480.897C165.88 479.745 165.681 478.606 165.533 477.492C164.74 471.756 156.045 474.209 156.826 479.894Z" fill="black"/>
<path d="M170.675 472.147C170.675 472.147 178.464 479.485 164.918 481.065C151.372 482.646 145.277 481.629 151.259 474.856C151.259 474.856 138.984 474.856 141.288 442.675C141.406 441.015 141.902 439.025 143.439 438.388C145.591 437.493 148.879 440.842 151.564 453.25C151.564 453.25 147.707 431.332 153.997 431.449C155.192 431.471 156.174 432.415 156.742 433.467C157.907 435.627 160.03 445.395 160.547 452.544C160.547 452.544 160.093 438.95 161.677 434.483C163.26 430.016 167.268 428.709 168.738 437.305C169.118 439.525 169.31 441.773 169.372 444.023L169.659 454.65C169.659 454.65 174.64 443.392 179.528 445.883C182.599 447.447 181.851 467.294 170.675 472.147Z" fill="white"/>
<path d="M170.675 472.147C170.675 472.147 178.464 479.485 164.918 481.065C151.372 482.646 145.277 481.629 151.259 474.856C151.259 474.856 138.984 474.856 141.288 442.675C141.406 441.015 141.902 439.025 143.439 438.388C145.591 437.493 148.879 440.842 151.564 453.25C151.564 453.25 147.707 431.332 153.997 431.449C155.192 431.471 156.174 432.415 156.742 433.467C157.907 435.627 160.03 445.395 160.547 452.544C160.547 452.544 160.093 438.95 161.677 434.483C163.26 430.016 167.268 428.709 168.738 437.305C169.118 439.525 169.31 441.773 169.372 444.023L169.659 454.65C169.659 454.65 174.64 443.392 179.528 445.883C182.599 447.447 181.851 467.294 170.675 472.147Z" stroke="black" stroke-width="0.666667" stroke-miterlimit="10"/>
<path d="M164.858 452.161L147.28 454.372" stroke="black" stroke-width="0.666667" stroke-miterlimit="10"/>
<path d="M169.215 456.346C169.215 456.346 158.605 457.135 159.319 466.871" stroke="black" stroke-width="0.666667" stroke-miterlimit="10"/>
<path d="M163.171 473.341C164.123 473.482 165.494 473.578 167.105 473.317C168.451 473.099 169.544 472.699 170.337 472.34" stroke="black" stroke-width="0.666667" stroke-miterlimit="10"/>
<path d="M155.974 474.469L151.26 474.855" stroke="black" stroke-width="0.666667" stroke-miterlimit="10"/>
<path d="M206.774 612.424L422.026 609.928L438.44 654.047L172.288 654.836L206.774 612.424Z" fill="#206DC2"/>
<path d="M206.774 612.424L422.026 609.928L438.44 654.047L172.288 654.836L206.774 612.424Z" stroke="black" stroke-width="0.666667" stroke-miterlimit="10"/>
<path d="M214.75 617.037L414.485 615.662L425.167 645.834L190.459 647.993L214.75 617.037Z" fill="white"/>
<path d="M214.75 617.037L414.485 615.662L425.167 645.834L190.459 647.993L214.75 617.037Z" stroke="black" stroke-width="0.666667" stroke-miterlimit="10"/>
<path d="M230.195 616.936L222.464 628.256L214.802 639.461L209.085 647.809" stroke="black" stroke-width="0.666667" stroke-miterlimit="10"/>
<path d="M246.148 616.83L238.751 628.07L231.389 639.271L225.867 647.654" stroke="black" stroke-width="0.666667" stroke-miterlimit="10"/>
<path d="M262.24 616.702L255.285 627.899H255.267L248.294 639.097L243.055 647.496" stroke="black" stroke-width="0.666667" stroke-miterlimit="10"/>
<path d="M277.732 616.599L271.076 627.718L264.367 638.912L259.324 647.365" stroke="black" stroke-width="0.666667" stroke-miterlimit="10"/>
<path d="M294.462 616.482L288.317 627.538H288.299L282.067 638.728L277.36 647.196" stroke="black" stroke-width="0.666667" stroke-miterlimit="10"/>
<path d="M297.629 638.587L297.646 638.568L303.614 627.362L309.475 616.385" stroke="black" stroke-width="0.666667" stroke-miterlimit="10"/>
<path d="M315.333 638.342L323.95 616.507" stroke="black" stroke-width="0.666667" stroke-miterlimit="10"/>
<path d="M330.589 638.134L334.897 627.023H334.914L339.118 616.178" stroke="black" stroke-width="0.666667" stroke-miterlimit="10"/>
<path d="M349.21 638.202L349.262 637.994L351.606 626.851L353.885 616.065" stroke="black" stroke-width="0.666667" stroke-miterlimit="10"/>
<path d="M367.947 615.98L366.992 626.673L366.006 637.821L365.258 646.394" stroke="black" stroke-width="0.666667" stroke-miterlimit="10"/>
<path d="M382.786 615.866L382.943 626.51L383.089 637.644L383.204 646.226" stroke="black" stroke-width="0.666667" stroke-miterlimit="10"/>
<path d="M399.797 615.746L401.614 626.295H401.631L403.543 637.408H403.562L405.055 646.031" stroke="black" stroke-width="0.666667" stroke-miterlimit="10"/>
<path d="M205.807 628.429L205.825 628.427L222.464 628.256L238.75 628.07L255.267 627.899H255.284L271.076 627.718L288.298 627.538H288.316L303.614 627.362L320.024 627.194L334.897 627.023H334.914L351.607 626.85L366.992 626.673L382.943 626.51L401.614 626.295H401.631L418.201 626.124" stroke="black" stroke-width="0.666667" stroke-miterlimit="10"/>
<path d="M197.015 639.648L214.802 639.461L231.389 639.271L248.294 639.097L264.368 638.912L282.067 638.728L297.647 638.568L314.199 638.378L349.263 637.994L366.006 637.821L383.089 637.644L403.543 637.409H403.562L422.126 637.216" stroke="black" stroke-width="0.666667" stroke-miterlimit="10"/>
<path d="M171.822 662.068L438.434 661.809L438.339 653.624L171.86 655.223L171.822 662.068Z" fill="#6757B0"/>
<path d="M171.822 662.068L438.434 661.809L438.339 653.624L171.86 655.223L171.822 662.068Z" stroke="black" stroke-width="0.666667" stroke-miterlimit="10"/>
<path d="M326.958 611.232H287.639V590.979H326.958V611.232Z" fill="#6757B0"/>
<path d="M326.958 611.232H287.639V590.979H326.958V611.232Z" stroke="black" stroke-width="0.666667" stroke-miterlimit="10"/>
<path d="M414.093 591.063H200.504C196.281 591.063 192.858 587.639 192.858 583.418V444.62C192.858 440.397 196.281 436.975 200.504 436.975H414.093C418.314 436.975 421.738 440.397 421.738 444.62V583.418C421.738 587.639 418.314 591.063 414.093 591.063Z" fill="#206DC2"/>
<path d="M414.093 591.063H200.504C196.281 591.063 192.858 587.639 192.858 583.418V444.62C192.858 440.397 196.281 436.975 200.504 436.975H414.093C418.314 436.975 421.738 440.397 421.738 444.62V583.418C421.738 587.639 418.314 591.063 414.093 591.063Z" stroke="black" stroke-width="0.666667" stroke-miterlimit="10"/>
<path d="M401.388 583.178H212.829C206.835 583.178 201.977 578.32 201.977 572.327V456.326C201.977 450.331 206.835 445.473 212.829 445.473H401.388C407.381 445.473 412.24 450.331 412.24 456.326V572.327C412.24 578.32 407.381 583.178 401.388 583.178Z" fill="#643A6F"/>
<path d="M401.388 583.178H212.829C206.835 583.178 201.977 578.32 201.977 572.327V456.326C201.977 450.331 206.835 445.473 212.829 445.473H401.388C407.381 445.473 412.24 450.331 412.24 456.326V572.327C412.24 578.32 407.381 583.178 401.388 583.178Z" stroke="black" stroke-width="0.666667" stroke-miterlimit="10"/>
<path d="M379.502 573.907H236.359V465.882H379.502V573.907Z" fill="white"/>
<path d="M379.502 573.907H236.359V465.882H379.502V573.907Z" stroke="black" stroke-width="0.666667" stroke-miterlimit="10"/>
<path d="M236.175 520.444H379.667" stroke="black" stroke-width="0.666667" stroke-miterlimit="10"/>
<path d="M307.92 465.605V573.651" stroke="black" stroke-width="0.666667" stroke-miterlimit="10"/>
<path d="M379.555 465.846H236.503V471.058H379.555V465.846Z" fill="#FE7354"/>
<path d="M379.555 465.846H236.503V471.058H379.555V465.846Z" stroke="black" stroke-width="0.666667" stroke-miterlimit="10"/>
<path d="M349.759 542.905C349.789 536.494 351.606 530.925 354.211 528.275C355.228 527.242 356.36 526.657 357.56 526.635C361.825 526.555 365.25 533.712 365.207 542.619C365.163 551.526 361.672 558.811 357.406 558.889C356.27 558.91 355.197 558.422 354.235 557.527C351.569 555.045 349.728 549.449 349.759 542.905Z" fill="white"/>
<path d="M349.759 542.905C349.789 536.494 351.606 530.925 354.211 528.275C355.228 527.242 356.36 526.657 357.56 526.635C361.825 526.555 365.25 533.712 365.207 542.619C365.163 551.526 361.672 558.811 357.406 558.889C356.27 558.91 355.197 558.422 354.235 557.527C351.569 555.045 349.728 549.449 349.759 542.905Z" stroke="black" stroke-width="0.666667" stroke-miterlimit="10"/>
<path d="M354.235 557.527C358.263 556.948 361.477 550.536 361.515 542.778C361.515 542.523 361.513 542.269 361.507 542.018L355.045 541.747L361.163 538.283C360.222 532.612 357.493 528.491 354.211 528.275C351.606 530.925 349.789 536.494 349.759 542.905C349.728 549.448 351.569 555.044 354.235 557.527Z" fill="black"/>
<path d="M354.235 557.527C358.263 556.948 361.477 550.536 361.515 542.778C361.515 542.523 361.513 542.269 361.507 542.018L355.045 541.747L361.163 538.283C360.222 532.612 357.493 528.491 354.211 528.275C351.606 530.925 349.789 536.494 349.759 542.905C349.728 549.448 351.569 555.044 354.235 557.527Z" stroke="black" stroke-width="0.666667" stroke-miterlimit="10"/>
<path d="M367.157 531.443L363.612 532.121" stroke="black" stroke-width="0.666667" stroke-miterlimit="10"/>
<path d="M365.987 528.41L362.974 530.362L365.987 528.41Z" fill="white"/>
<path d="M365.987 528.41L362.974 530.362" stroke="black" stroke-width="0.666667" stroke-miterlimit="10"/>
<path d="M321.882 542.197C321.987 535.773 323.864 530.172 326.494 527.487C327.52 526.443 328.656 525.844 329.854 525.809C334.113 525.685 337.446 532.822 337.3 541.748C337.156 550.674 333.587 558.012 329.328 558.134C328.195 558.167 327.13 557.689 326.18 556.802C323.547 554.345 321.775 548.755 321.882 542.197Z" fill="white"/>
<path d="M321.882 542.197C321.987 535.773 323.864 530.172 326.494 527.487C327.52 526.443 328.656 525.844 329.854 525.809C334.113 525.685 337.446 532.822 337.3 541.748C337.156 550.674 333.587 558.012 329.328 558.134C328.195 558.167 327.13 557.689 326.18 556.802C323.547 554.345 321.775 548.755 321.882 542.197Z" stroke="black" stroke-width="0.666667" stroke-miterlimit="10"/>
<path d="M326.18 556.802C330.207 556.18 333.488 549.72 333.614 541.944C333.618 541.69 333.618 541.436 333.615 541.183L327.17 540.981L333.314 537.445C332.442 531.771 329.766 527.67 326.494 527.487C323.864 530.172 321.987 535.772 321.882 542.197C321.775 548.755 323.547 554.344 326.18 556.802Z" fill="black"/>
<path d="M326.18 556.802C330.207 556.18 333.488 549.72 333.614 541.944C333.618 541.69 333.618 541.436 333.615 541.183L327.17 540.981L333.314 537.445C332.442 531.771 329.766 527.67 326.494 527.487C323.864 530.172 321.987 535.772 321.882 542.197C321.775 548.755 323.547 554.344 326.18 556.802Z" stroke="black" stroke-width="0.666667" stroke-miterlimit="10"/>
<path d="M320.117 530.983L323.497 532.003" stroke="black" stroke-width="0.666667" stroke-miterlimit="10"/>
<path d="M321.813 528.078L324.441 530.316" stroke="black" stroke-width="0.666667" stroke-miterlimit="10"/>
<path d="M336.22 559.088C337.937 561.979 341.085 563.706 344.393 563.564C349.168 563.358 351.616 559.38 351.789 559.088" stroke="black" stroke-width="0.666667" stroke-miterlimit="10"/>
<path d="M265.844 496.034C265.868 502.545 264.148 508.176 261.638 510.829C260.658 511.862 259.563 512.441 258.397 512.446C254.251 512.46 250.863 505.136 250.831 496.089C250.797 487.041 254.132 479.692 258.277 479.678C259.38 479.673 260.428 480.187 261.371 481.111C263.984 483.672 265.819 489.385 265.844 496.034Z" fill="white"/>
<path d="M265.844 496.034C265.868 502.545 264.148 508.176 261.638 510.829C260.658 511.862 259.563 512.441 258.397 512.446C254.251 512.46 250.863 505.136 250.831 496.089C250.797 487.041 254.132 479.692 258.277 479.678C259.38 479.673 260.428 480.187 261.371 481.111C263.984 483.672 265.819 489.385 265.844 496.034Z" stroke="black" stroke-width="0.666667" stroke-miterlimit="10"/>
<path d="M261.371 481.11C257.46 481.636 254.389 488.101 254.418 495.984C254.419 496.243 254.423 496.5 254.431 496.756L260.715 497.129L254.797 500.555C255.759 506.331 258.445 510.559 261.638 510.829C264.147 508.175 265.867 502.545 265.844 496.034C265.819 489.385 263.984 483.671 261.371 481.11Z" fill="black"/>
<path d="M261.371 481.11C257.46 481.636 254.389 488.101 254.418 495.984C254.419 496.243 254.423 496.5 254.431 496.756L260.715 497.129L254.797 500.555C255.759 506.331 258.445 510.559 261.638 510.829C264.147 508.175 265.867 502.545 265.844 496.034C265.819 489.385 263.984 483.671 261.371 481.11Z" stroke="black" stroke-width="0.666667" stroke-miterlimit="10"/>
<path d="M293.154 495.934C293.178 502.444 291.458 508.075 288.949 510.73C287.969 511.763 286.873 512.342 285.707 512.345C281.562 512.361 278.173 505.037 278.14 495.988C278.107 486.94 281.441 479.591 285.588 479.577C286.691 479.572 287.739 480.086 288.681 481.01C291.295 483.571 293.13 489.286 293.154 495.934Z" fill="white"/>
<path d="M293.154 495.934C293.178 502.444 291.458 508.075 288.949 510.73C287.969 511.763 286.873 512.342 285.707 512.345C281.562 512.361 278.173 505.037 278.14 495.988C278.107 486.94 281.441 479.591 285.588 479.577C286.691 479.572 287.739 480.086 288.681 481.01C291.295 483.571 293.13 489.286 293.154 495.934Z" stroke="black" stroke-width="0.666667" stroke-miterlimit="10"/>
<path d="M288.681 481.01C284.77 481.536 281.7 488.003 281.729 495.885C281.73 496.142 281.735 496.4 281.742 496.655L288.026 497.029L282.108 500.455C283.07 506.231 285.757 510.459 288.95 510.73C291.459 508.075 293.178 502.444 293.155 495.934C293.13 489.286 291.295 483.571 288.681 481.01Z" fill="black"/>
<path d="M288.681 481.01C284.77 481.536 281.7 488.003 281.729 495.885C281.73 496.142 281.735 496.4 281.742 496.655L288.026 497.029L282.108 500.455C283.07 506.231 285.757 510.459 288.95 510.73C291.459 508.075 293.178 502.444 293.155 495.934C293.13 489.286 291.295 483.571 288.681 481.01Z" stroke="black" stroke-width="0.666667" stroke-miterlimit="10"/>
<path d="M266.944 513.554H272.393" stroke="black" stroke-width="0.666667" stroke-miterlimit="10"/>
<path d="M329.339 481.751C325.458 481.625 322.022 487.873 321.237 494.796L324.959 496.408L320.997 499.007C321.645 505.428 324.87 510.778 328.543 510.895C332.848 511.035 336.515 504.624 336.735 496.576C336.955 488.529 333.643 481.891 329.339 481.751Z" fill="black"/>
<path d="M329.339 481.751C325.458 481.625 322.022 487.873 321.237 494.796L324.959 496.408L320.997 499.007C321.645 505.428 324.87 510.778 328.543 510.895C332.848 511.035 336.515 504.624 336.735 496.576C336.955 488.529 333.643 481.891 329.339 481.751Z" stroke="black" stroke-width="0.666667" stroke-miterlimit="10"/>
<path d="M321.146 480.272C321.441 481.013 321.924 482.02 322.701 483.018C323.316 483.806 323.931 484.354 324.427 484.726" stroke="black" stroke-width="0.666667" stroke-miterlimit="10"/>
<path d="M325.705 477.307C325.783 478 325.926 478.844 326.189 479.773C326.48 480.795 326.834 481.624 327.15 482.256" stroke="black" stroke-width="0.666667" stroke-miterlimit="10"/>
<path d="M330.972 476.982C330.834 477.627 330.709 478.418 330.655 479.329C330.594 480.385 330.646 481.307 330.729 482.035" stroke="black" stroke-width="0.666667" stroke-miterlimit="10"/>
<path d="M333.947 496.562C328.816 497.203 330.443 498.114 329.541 503.714C328.99 498.066 330.176 497.399 325.095 496.439C330.227 495.799 329.081 495.17 329.983 489.567C330.534 495.215 328.866 495.603 333.947 496.562Z" fill="white"/>
<path d="M358.868 481.647C362.747 481.809 365.749 488.293 366.06 495.256L362.237 496.59L366.011 499.474C364.925 505.833 361.344 510.93 357.672 510.777C353.369 510.6 350.147 503.935 350.478 495.89C350.808 487.846 354.563 481.47 358.868 481.647Z" fill="black"/>
<path d="M358.868 481.647C362.747 481.809 365.749 488.293 366.06 495.256L362.237 496.59L366.011 499.474C364.925 505.833 361.344 510.93 357.672 510.777C353.369 510.6 350.147 503.935 350.478 495.89C350.808 487.846 354.563 481.47 358.868 481.647Z" stroke="black" stroke-width="0.666667" stroke-miterlimit="10"/>
<path d="M367.141 480.774C366.796 481.493 366.245 482.463 365.402 483.4C364.735 484.141 364.082 484.643 363.563 484.977" stroke="black" stroke-width="0.666667" stroke-miterlimit="10"/>
<path d="M362.797 477.483C362.67 478.168 362.47 479 362.144 479.906C361.785 480.904 361.375 481.705 361.016 482.311" stroke="black" stroke-width="0.666667" stroke-miterlimit="10"/>
<path d="M357.563 476.77C357.656 477.421 357.728 478.222 357.719 479.135C357.708 480.193 357.593 481.108 357.461 481.828" stroke="black" stroke-width="0.666667" stroke-miterlimit="10"/>
<path d="M361.819 497.526C356.688 498.166 358.317 499.075 357.413 504.677C356.863 499.031 358.05 498.363 352.967 497.404C358.099 496.762 356.953 496.133 357.857 490.532C358.406 496.178 356.738 496.566 361.819 497.526Z" fill="white"/>
<path d="M344.967 509.91C344.967 512.046 344.413 513.775 343.73 513.775C343.048 513.775 342.494 512.046 342.494 509.91C342.494 507.774 343.048 506.043 343.73 506.043C344.413 506.043 344.967 507.774 344.967 509.91Z" fill="black"/>
<path d="M344.967 509.91C344.967 512.046 344.413 513.775 343.73 513.775C343.048 513.775 342.494 512.046 342.494 509.91C342.494 507.774 343.048 506.043 343.73 506.043C344.413 506.043 344.967 507.774 344.967 509.91Z" stroke="black" stroke-width="0.666667" stroke-miterlimit="10"/>
<path d="M265.32 545.155C265.88 547.88 265.048 550.048 264.183 552.605C263.438 554.81 264.243 557.448 264.201 559.469C260.71 558.606 256.928 558.057 253.876 559.986C253.48 557.812 254.134 555.782 253.914 553.385C253.577 549.706 250.489 547.312 251.926 543.246C252.488 541.655 253.256 540.351 253.526 538.616C253.947 535.923 252.589 533.443 252.74 530.697C252.9 527.778 254.381 524.343 258.811 525.089C262.185 525.657 263.569 528.499 263.895 531.449C264.185 534.066 262.959 535.887 262.68 538.321C262.398 540.789 264.833 542.783 265.32 545.155Z" fill="black"/>
<path d="M265.32 545.155C265.88 547.88 265.048 550.048 264.183 552.605C263.438 554.81 264.243 557.448 264.201 559.469C260.71 558.606 256.928 558.057 253.876 559.986C253.48 557.812 254.134 555.782 253.914 553.385C253.577 549.706 250.489 547.312 251.926 543.246C252.488 541.655 253.256 540.351 253.526 538.616C253.947 535.923 252.589 533.443 252.74 530.697C252.9 527.778 254.381 524.343 258.811 525.089C262.185 525.657 263.569 528.499 263.895 531.449C264.185 534.066 262.959 535.887 262.68 538.321C262.398 540.789 264.833 542.783 265.32 545.155Z" stroke="black" stroke-width="0.666667" stroke-miterlimit="10"/>
<path d="M254.664 530.793C254.511 533.539 255.871 536.022 255.449 538.713C255.181 540.447 254.416 541.753 253.851 543.341C252.413 547.407 255.5 549.803 255.836 553.48C256.021 555.492 255.525 557.141 255.614 559.019C254.989 559.299 254.468 559.526 253.887 559.893C253.49 557.718 254.132 555.78 253.912 553.384C253.575 549.707 250.488 547.311 251.926 543.245C252.492 541.657 253.257 540.351 253.525 538.617C253.947 535.926 252.587 533.444 252.739 530.697C252.901 527.779 254.383 524.342 258.813 525.089C258.854 525.098 258.904 525.101 258.945 525.12C255.894 525.454 254.804 528.311 254.664 530.793Z" fill="white"/>
<path d="M254.664 530.793C254.511 533.539 255.871 536.022 255.449 538.713C255.181 540.447 254.416 541.753 253.851 543.341C252.413 547.407 255.5 549.803 255.836 553.48C256.021 555.492 255.525 557.141 255.614 559.019C254.989 559.299 254.468 559.526 253.887 559.893C253.49 557.718 254.132 555.78 253.912 553.384C253.575 549.707 250.488 547.311 251.926 543.245C252.492 541.657 253.257 540.351 253.525 538.617C253.947 535.926 252.587 533.444 252.739 530.697C252.901 527.779 254.383 524.342 258.813 525.089C258.854 525.098 258.904 525.101 258.945 525.12C255.894 525.454 254.804 528.311 254.664 530.793Z" stroke="black" stroke-width="0.666667" stroke-miterlimit="10"/>
<path d="M293.118 547.262C293.679 549.987 292.846 552.155 291.982 554.713C291.338 556.615 291.579 557.632 291.693 559.311C288.69 557.836 285.078 558.214 281.61 559.247C281.693 557.849 281.846 556.942 281.713 555.493C281.375 551.812 278.288 549.42 279.724 545.354C280.286 543.763 281.055 542.457 281.325 540.723C281.745 538.031 280.388 535.551 280.538 532.803C280.699 529.884 282.18 526.449 286.61 527.196C289.984 527.764 291.368 530.606 291.694 533.557C291.983 536.174 290.758 537.994 290.479 540.428C290.196 542.895 292.631 544.89 293.118 547.262Z" fill="black"/>
<path d="M293.118 547.262C293.679 549.987 292.846 552.155 291.982 554.713C291.338 556.615 291.579 557.632 291.693 559.311C288.69 557.836 285.078 558.214 281.61 559.247C281.693 557.849 281.846 556.942 281.713 555.493C281.375 551.812 278.288 549.42 279.724 545.354C280.286 543.763 281.055 542.457 281.325 540.723C281.745 538.031 280.388 535.551 280.538 532.803C280.699 529.884 282.18 526.449 286.61 527.196C289.984 527.764 291.368 530.606 291.694 533.557C291.983 536.174 290.758 537.994 290.479 540.428C290.196 542.895 292.631 544.89 293.118 547.262Z" stroke="black" stroke-width="0.666667" stroke-miterlimit="10"/>
<path d="M282.462 532.901C282.308 535.645 283.669 538.13 283.247 540.821C282.979 542.555 282.213 543.86 281.648 545.447C280.209 549.515 283.298 551.909 283.634 555.587C283.748 556.832 283.583 557.5 283.493 558.714C282.829 558.855 282.277 558.877 281.634 559.068C281.717 557.668 281.843 556.942 281.71 555.492C281.373 551.813 278.286 549.419 279.724 545.351C280.289 543.765 281.055 542.459 281.322 540.725C281.745 538.034 280.384 535.55 280.537 532.805C280.699 529.886 282.18 526.448 286.612 527.195C286.652 527.206 286.701 527.209 286.742 527.226C283.691 527.562 282.602 530.418 282.462 532.901Z" fill="white"/>
<path d="M282.462 532.901C282.308 535.645 283.669 538.13 283.247 540.821C282.979 542.555 282.213 543.86 281.648 545.447C280.209 549.515 283.298 551.909 283.634 555.587C283.748 556.832 283.583 557.5 283.493 558.714C282.829 558.855 282.277 558.877 281.634 559.068C281.717 557.668 281.843 556.942 281.71 555.492C281.373 551.813 278.286 549.419 279.724 545.351C280.289 543.765 281.055 542.459 281.322 540.725C281.745 538.034 280.384 535.55 280.537 532.805C280.699 529.886 282.18 526.448 286.612 527.195C286.652 527.206 286.701 527.209 286.742 527.226C283.691 527.562 282.602 530.418 282.462 532.901Z" stroke="black" stroke-width="0.666667" stroke-miterlimit="10"/>
<path d="M278.475 563.412C278.475 564.352 276.053 565.113 273.064 565.113C270.074 565.113 267.652 564.352 267.652 563.412C267.652 562.472 270.074 561.713 273.064 561.713C276.053 561.713 278.475 562.472 278.475 563.412Z" fill="black"/>
<path d="M278.475 563.412C278.475 564.352 276.053 565.113 273.064 565.113C270.074 565.113 267.652 564.352 267.652 563.412C267.652 562.472 270.074 561.713 273.064 561.713C276.053 561.713 278.475 562.472 278.475 563.412Z" stroke="black" stroke-width="0.666667" stroke-miterlimit="10"/>
<path d="M401.752 546.172L395.059 545.471L395.411 552.173L397.625 550.064L402.256 554.863L403.958 553.242L399.378 548.399C399.378 548.399 401.722 546.2 401.752 546.172Z" fill="white"/>
<path d="M286.002 427.53C286.025 430.824 285.799 434.024 285.356 437.07H244.058C243.605 434.096 243.354 430.992 243.342 427.78C243.331 425.25 243.461 422.766 243.712 420.377C244.405 414.003 245.992 408.2 248.261 403.412C252.129 395.21 257.944 389.992 264.462 389.945C276.247 389.885 285.894 406.719 286.002 427.53Z" fill="white"/>
<path d="M286.002 427.53C286.025 430.824 285.799 434.024 285.356 437.07H244.058C243.605 434.096 243.354 430.992 243.342 427.78C243.331 425.25 243.461 422.766 243.712 420.377C244.405 414.003 245.992 408.2 248.261 403.412C252.129 395.21 257.944 389.992 264.462 389.945C276.247 389.885 285.894 406.719 286.002 427.53Z" stroke="black" stroke-width="0.666667" stroke-miterlimit="10"/>
<path d="M242.793 393.568C242.793 393.568 242.342 400.761 248.255 403.409" stroke="black" stroke-width="0.666667" stroke-miterlimit="10"/>
<path d="M236.895 401.538C236.895 401.538 238.361 409.313 245.425 410.053" stroke="black" stroke-width="0.666667" stroke-miterlimit="10"/>
<path d="M234.952 412.734C234.952 412.734 236.647 419.5 243.712 420.384" stroke="black" stroke-width="0.666667" stroke-miterlimit="10"/>
<path d="M278.385 437.07H251.58C251.114 434.359 250.804 431.505 250.685 428.567C250.648 427.613 250.637 426.683 250.637 425.751L265.932 421.667L251.211 417.118C252.774 405.765 257.431 397.884 263.281 398.111C270.958 398.422 277.763 412.57 278.468 429.678C278.587 432.378 278.551 434.777 278.385 437.07Z" fill="black"/>
<path d="M278.385 437.07H251.58C251.114 434.359 250.804 431.505 250.685 428.567C250.648 427.613 250.637 426.683 250.637 425.751L265.932 421.667L251.211 417.118C252.774 405.765 257.431 397.884 263.281 398.111C270.958 398.422 277.763 412.57 278.468 429.678C278.587 432.378 278.551 434.777 278.385 437.07Z" stroke="black" stroke-width="0.666667" stroke-miterlimit="10"/>
<path d="M364.096 428.15C364.085 431.23 363.858 434.215 363.44 437.07H322.01C321.617 434.144 321.413 431.075 321.438 427.911C321.533 407.102 331.18 390.256 342.965 390.326C349.494 390.362 355.31 395.593 359.178 403.783C361.446 408.57 363.046 414.384 363.715 420.76C363.977 423.147 364.109 425.619 364.096 428.15Z" fill="white"/>
<path d="M364.096 428.15C364.085 431.23 363.858 434.215 363.44 437.07H322.01C321.617 434.144 321.413 431.075 321.438 427.911C321.533 407.102 331.18 390.256 342.965 390.326C349.494 390.362 355.31 395.593 359.178 403.783C361.446 408.57 363.046 414.384 363.715 420.76C363.977 423.147 364.109 425.619 364.096 428.15Z" stroke="black" stroke-width="0.666667" stroke-miterlimit="10"/>
<path d="M364.638 393.943C364.638 393.943 365.09 401.135 359.177 403.782" stroke="black" stroke-width="0.666667" stroke-miterlimit="10"/>
<path d="M370.538 401.911C370.538 401.911 369.071 409.687 362.008 410.428" stroke="black" stroke-width="0.666667" stroke-miterlimit="10"/>
<path d="M372.479 413.109C372.479 413.109 370.785 419.875 363.72 420.757" stroke="black" stroke-width="0.666667" stroke-miterlimit="10"/>
<path d="M356.79 426.133C356.79 427.053 356.779 427.996 356.743 428.939C356.622 431.744 356.349 434.477 355.919 437.07H329.019C328.876 434.896 328.852 432.616 328.959 430.061C329.664 412.939 336.47 398.792 344.146 398.48C349.997 398.254 354.653 406.133 356.228 417.488L341.496 422.038L356.79 426.133Z" fill="black"/>
<path d="M356.79 426.133C356.79 427.053 356.779 427.996 356.743 428.939C356.622 431.744 356.349 434.477 355.919 437.07H329.019C328.876 434.896 328.852 432.616 328.959 430.061C329.664 412.939 336.47 398.792 344.146 398.48C349.997 398.254 354.653 406.133 356.228 417.488L341.496 422.038L356.79 426.133Z" stroke="black" stroke-width="0.666667" stroke-miterlimit="10"/>
<path d="M269.915 437.058C269.915 437.058 272.951 462.985 304.827 463.288C333.726 463.563 336.958 437.309 336.958 437.309L269.915 437.058Z" fill="white"/>
<path d="M269.915 437.058C269.915 437.058 272.951 462.985 304.827 463.288C333.726 463.563 336.958 437.309 336.958 437.309L269.915 437.058Z" stroke="black" stroke-width="0.666667" stroke-miterlimit="10"/>
<path d="M286.02 459.112V437.122" stroke="black" stroke-width="0.666667" stroke-miterlimit="10"/>
<path d="M304.574 463.289V437.19" stroke="black" stroke-width="0.666667" stroke-miterlimit="10"/>
<path d="M323.302 458.579V437.256" stroke="black" stroke-width="0.666667" stroke-miterlimit="10"/>
<path d="M313.646 431.312C313.646 436.81 309.188 441.269 303.689 441.269C298.19 441.269 293.732 436.81 293.732 431.312C293.732 425.811 298.19 421.355 303.689 421.355C309.188 421.355 313.646 425.811 313.646 431.312Z" fill="#BA4D65"/>
<path d="M313.646 431.312C313.646 436.81 309.188 441.269 303.689 441.269C298.19 441.269 293.732 436.81 293.732 431.312C293.732 425.811 298.19 421.355 303.689 421.355C309.188 421.355 313.646 425.811 313.646 431.312Z" stroke="black" stroke-width="0.666667" stroke-miterlimit="10"/>
<path d="M318.869 377.27C310.525 377.877 309.489 378.844 307.564 387.82C307.146 378.649 306.283 377.524 298.153 375.55C306.497 374.943 307.534 373.976 309.458 365C309.877 374.171 310.74 375.296 318.869 377.27Z" fill="#FE7354"/>
<path d="M318.869 377.27C310.525 377.877 309.489 378.844 307.564 387.82C307.146 378.649 306.283 377.524 298.153 375.55C306.497 374.943 307.534 373.976 309.458 365C309.877 374.171 310.74 375.296 318.869 377.27Z" stroke="black" stroke-miterlimit="10"/>
<path d="M433.969 418.629C423.154 416.986 421.551 417.92 416.497 428.807C418.62 416.993 417.846 415.309 408.051 410.436C418.866 412.079 420.469 411.146 425.523 400.258C423.4 412.073 424.175 413.757 433.969 418.629Z" fill="#FE7354"/>
<path d="M433.969 418.629C423.154 416.986 421.551 417.92 416.497 428.807C418.62 416.993 417.846 415.309 408.051 410.436C418.866 412.079 420.469 411.146 425.523 400.258C423.4 412.073 424.175 413.757 433.969 418.629Z" stroke="black" stroke-miterlimit="10"/>
<path d="M209.551 412.531C199.967 417.625 199.245 419.315 201.663 430.976C196.361 420.313 194.748 419.431 184.065 421.347C193.649 416.255 194.372 414.563 191.952 402.902C197.255 413.565 198.869 414.449 209.551 412.531Z" fill="#FE7354"/>
<path d="M209.551 412.531C199.967 417.625 199.245 419.315 201.663 430.976C196.361 420.313 194.748 419.431 184.065 421.347C193.649 416.255 194.372 414.563 191.952 402.902C197.255 413.565 198.869 414.449 209.551 412.531Z" stroke="black" stroke-miterlimit="10"/>
<path d="M289.868 581.748L213.035 611.898C212.336 612.172 212.177 613.09 212.744 613.583L269.156 662.701C269.375 662.891 269.665 662.977 269.951 662.937L353.592 651.266C354.394 651.154 354.737 650.185 354.184 649.593L290.964 581.996C290.684 581.696 290.25 581.598 289.868 581.748Z" fill="#D897A9"/>
<path d="M561.962 596.145L463.444 657.413C462.982 657.7 462.752 657.843 462.626 658.07C462.5 658.297 462.5 658.568 462.5 659.111V711.476C462.5 712.429 462.5 712.906 462.797 713.199C463.094 713.493 463.571 713.487 464.524 713.475H464.524L1365.64 702.504C1365.82 702.502 1365.91 702.501 1366 702.484C1366.08 702.467 1366.17 702.434 1366.34 702.369L1438.22 674.495C1438.84 674.255 1439.15 674.136 1439.33 673.88C1439.5 673.625 1439.5 673.293 1439.5 672.63V500.613C1439.5 497.212 1439.5 495.512 1438.73 495.332C1437.95 495.153 1437.2 496.679 1435.7 499.731L1399.82 572.822C1399.43 573.617 1399.24 574.015 1398.87 574.155C1398.5 574.295 1398.09 574.127 1397.27 573.791L1369.8 562.531C1369.17 562.274 1368.86 562.146 1368.55 562.215C1368.24 562.285 1368.01 562.535 1367.56 563.036L1284.05 654.896L1284.05 654.896C1283.78 655.194 1283.64 655.343 1283.47 655.428C1283.29 655.512 1283.09 655.524 1282.68 655.547L1049.96 668.973C1049.73 668.987 1049.62 668.993 1049.5 668.974C1049.39 668.955 1049.29 668.91 1049.07 668.821L910.78 610.827C910.395 610.666 910.203 610.585 910 610.586C909.798 610.586 909.606 610.668 909.222 610.831L799.426 657.606C798.972 657.799 798.744 657.896 798.508 657.881C798.271 657.866 798.058 657.741 797.632 657.492L737.468 622.274C737.235 622.138 737.119 622.07 736.991 622.035C736.862 622 736.727 622 736.458 622H709.672C709.339 622 709.172 622 709.017 621.948C708.863 621.896 708.73 621.796 708.465 621.595L638.3 568.484C637.678 568.013 637.366 567.777 637.01 567.79C636.655 567.803 636.361 568.061 635.774 568.576L589.097 609.537C588.568 610.002 588.303 610.234 587.979 610.263C587.654 610.292 587.352 610.111 586.749 609.749L564.048 596.129C563.538 595.823 563.283 595.67 563.001 595.672C562.72 595.674 562.468 595.831 561.963 596.145L561.962 596.145Z" fill="url(#paint1_linear_664_2365)"/>
<path d="M144.691 553.22L66.7919 625.83L66.7919 625.83C65.9632 626.602 65.5488 626.988 65.5799 627.462C65.611 627.935 66.0723 628.264 66.995 628.922L231.332 746.024L231.332 746.024C231.662 746.259 231.826 746.376 232.018 746.421C232.21 746.466 232.41 746.434 232.81 746.37L358.941 726.09C359.219 726.045 359.357 726.023 359.495 726.039C359.633 726.055 359.763 726.109 360.023 726.217L570.945 813.563C571.46 813.776 571.718 813.883 571.981 813.85C572.244 813.816 572.467 813.648 572.913 813.313L617.83 779.504C618.161 779.255 618.326 779.131 618.521 779.082C618.716 779.032 618.92 779.063 619.329 779.124L711.764 792.965C711.882 792.982 711.941 792.991 712 792.993C712.06 792.995 712.119 792.989 712.238 792.979L996.786 767.519C996.893 767.51 996.946 767.505 997 767.506C997.053 767.507 997.107 767.513 997.213 767.527L1140 785.437C1140.25 785.468 1140.37 785.484 1140.5 785.469C1140.62 785.454 1140.74 785.408 1140.97 785.318L1363.91 699.001C1365.09 698.544 1365.68 698.316 1365.81 697.821C1365.94 697.326 1365.54 696.838 1364.74 695.863L1364.73 695.862L1275.46 587.764C1274.78 586.942 1274.44 586.532 1273.99 586.519C1273.53 586.506 1273.17 586.897 1272.45 587.679L1212.54 652.417C1212.27 652.705 1212.14 652.849 1211.97 652.931C1211.79 653.014 1211.6 653.027 1211.21 653.054L924.754 672.449C924.381 672.474 924.195 672.487 924.02 672.434C923.845 672.381 923.697 672.268 923.401 672.04L882.516 640.663C881.799 640.113 881.44 639.838 881.041 639.881C880.643 639.924 880.351 640.27 879.769 640.961L836.277 692.578C835.898 693.027 835.709 693.252 835.446 693.341C835.183 693.431 834.896 693.368 834.322 693.243L673.124 658.136C672.815 658.069 672.66 658.035 672.505 658.05C672.35 658.064 672.204 658.127 671.912 658.251L590.173 693.212C589.84 693.355 589.674 693.426 589.497 693.435C589.32 693.445 589.146 693.391 588.8 693.285L413.913 639.627C413.707 639.564 413.604 639.532 413.498 639.523C413.392 639.514 413.285 639.528 413.072 639.555L270.382 657.887C269.948 657.942 269.731 657.97 269.527 657.91C269.324 657.849 269.157 657.706 268.825 657.421L147.358 553.165C146.712 552.611 146.389 552.334 146.007 552.342C145.625 552.349 145.314 552.64 144.691 553.22Z" fill="url(#paint2_linear_664_2365)"/>
<path d="M618.025 730.639L386.849 806.45C382.19 807.978 379.86 808.742 380 809.589C380.14 810.435 382.592 810.407 387.496 810.35H387.496L1458.3 798.025C1459.33 798.013 1459.84 798.008 1460.14 797.678C1460.43 797.348 1460.38 796.837 1460.27 795.816L1440.29 605.751C1440.16 604.495 1440.09 603.867 1439.65 603.613C1439.2 603.359 1438.63 603.618 1437.48 604.137L1437.48 604.137L1141.03 737.81C1140.77 737.929 1140.64 737.989 1140.49 738.009C1140.35 738.029 1140.21 738.008 1139.92 737.966L997.247 717.13C997.124 717.112 997.062 717.103 997 717.102C996.938 717.101 996.875 717.107 996.751 717.12L712.277 746.753L712.276 746.753C712.138 746.768 712.069 746.775 712 746.772C711.931 746.77 711.863 746.758 711.726 746.734L711.726 746.734L618.992 730.569L618.992 730.569C618.747 730.526 618.625 730.505 618.502 730.514C618.38 730.522 618.261 730.561 618.025 730.639Z" fill="url(#paint3_linear_664_2365)"/>
<path d="M212.831 669.523L-15.8379 506.258C-17.2228 505.269 -17.9153 504.774 -18.4577 505.054C-19 505.333 -19 506.184 -19 507.885V808C-19 808.943 -19 809.414 -18.7071 809.707C-18.4142 810 -17.9428 810 -17 810H551.5C552.443 810 552.914 810 553.207 809.707C553.5 809.414 553.5 808.943 553.5 808V738.339C553.5 737.69 553.5 737.366 553.331 737.113C553.162 736.861 552.862 736.737 552.261 736.49L341.522 649.715C341.263 649.608 341.133 649.555 340.995 649.539C340.858 649.523 340.72 649.545 340.443 649.59L214.311 669.87H214.311C213.911 669.934 213.711 669.966 213.519 669.921C213.326 669.876 213.161 669.758 212.831 669.523Z" fill="url(#paint4_linear_664_2365)"/>
<path d="M-2 810.118V2203C-2 2203.94 -2 2204.41 -1.70711 2204.71C-1.41421 2205 -0.942795 2205 4.14848e-05 2205H1437C1437.94 2205 1438.41 2205 1438.71 2204.71C1439 2204.41 1439 2203.94 1439 2203V707.351C1439 706.259 1439 705.713 1438.65 705.414C1438.3 705.114 1437.76 705.202 1436.68 705.377L1015.35 773.764C1015.21 773.787 1015.14 773.799 1015.07 773.8C1015 773.802 1014.93 773.793 1014.79 773.775L1014.79 773.775L633.753 726.032C633.627 726.016 633.563 726.008 633.5 726.008C633.437 726.008 633.373 726.016 633.247 726.033L-0.257048 808.134C-1.08725 808.242 -1.50235 808.296 -1.75117 808.579C-2 808.862 -2 809.281 -2 810.118Z" fill="url(#paint5_linear_664_2365)"/>
</g>
<defs>
<radialGradient id="paint0_radial_664_2365" cx="0" cy="0" r="1" gradientUnits="userSpaceOnUse" gradientTransform="translate(720 50.8702) rotate(90) scale(795.63 6132.77)">
<stop stop-color="#0A6CB4"/>
<stop offset="0.156454" stop-color="#0575C6"/>
<stop offset="0.652253" stop-color="#A545AD"/>
<stop offset="1" stop-color="#F5F95A"/>
</radialGradient>
<linearGradient id="paint1_linear_664_2365" x1="1402.5" y1="435.5" x2="582" y2="730.5" gradientUnits="userSpaceOnUse">
<stop stop-color="#C97FE2"/>
<stop offset="0.491021" stop-color="#FF594F"/>
<stop offset="0.732053" stop-color="#38368F"/>
<stop offset="1" stop-color="#E2857F"/>
</linearGradient>
<linearGradient id="paint2_linear_664_2365" x1="903.5" y1="280" x2="715.75" y2="814" gradientUnits="userSpaceOnUse">
<stop stop-color="#CA7E5D"/>
<stop offset="1" stop-color="#553072"/>
</linearGradient>
<linearGradient id="paint3_linear_664_2365" x1="997.5" y1="727.572" x2="254.106" y2="951.765" gradientUnits="userSpaceOnUse">
<stop stop-color="#341B55"/>
<stop offset="1" stop-color="#4E2B7B"/>
</linearGradient>
<linearGradient id="paint4_linear_664_2365" x1="416.5" y1="488" x2="14.4999" y2="954" gradientUnits="userSpaceOnUse">
<stop stop-color="#3E2361"/>
<stop offset="1" stop-color="#040615"/>
</linearGradient>
<linearGradient id="paint5_linear_664_2365" x1="648.577" y1="836.834" x2="1609.02" y2="1591.65" gradientUnits="userSpaceOnUse">
<stop stop-color="#1D1236"/>
<stop offset="1" stop-color="#4F3A71"/>
</linearGradient>
<clipPath id="clip0_664_2365">
<rect width="1440" height="841" fill="white"/>
</clipPath>
</defs>
</svg>
