<svg width="14" height="14" viewBox="0 0 14 14" fill="none" xmlns="http://www.w3.org/2000/svg">
<path d="M5.39578 12.8333L5.16245 10.9667C5.03606 10.9181 4.91687 10.8597 4.80487 10.7917C4.69287 10.7236 4.58359 10.6507 4.47704 10.5729L2.74162 11.3021L1.13745 8.53126L2.63953 7.39376C2.62981 7.3257 2.62495 7.25998 2.62495 7.19659V6.80342C2.62495 6.74003 2.62981 6.67431 2.63953 6.60626L1.13745 5.46876L2.74162 2.69792L4.47704 3.42709C4.58398 3.34931 4.69578 3.27639 4.81245 3.20834C4.92912 3.14028 5.04579 3.08195 5.16245 3.03334L5.39578 1.16667H8.60412L8.83745 3.03334C8.96384 3.08195 9.08303 3.14028 9.19503 3.20834C9.30703 3.27639 9.41631 3.34931 9.52287 3.42709L11.2583 2.69792L12.8625 5.46876L11.3604 6.60626C11.3701 6.67431 11.375 6.74003 11.375 6.80342V7.19659C11.375 7.25998 11.3652 7.3257 11.3458 7.39376L12.8479 8.53126L11.2437 11.3021L9.52287 10.5729C9.41592 10.6507 9.30412 10.7236 9.18745 10.7917C9.07079 10.8597 8.95412 10.9181 8.83745 10.9667L8.60412 12.8333H5.39578ZM7.02912 9.04167C7.59301 9.04167 8.07426 8.84237 8.47287 8.44376C8.87148 8.04514 9.07079 7.56389 9.07079 7.00001C9.07079 6.43612 8.87148 5.95487 8.47287 5.55626C8.07426 5.15764 7.59301 4.95834 7.02912 4.95834C6.45551 4.95834 5.97173 5.15764 5.57779 5.55626C5.18384 5.95487 4.98706 6.43612 4.98745 7.00001C4.98745 7.56389 5.18423 8.04514 5.57779 8.44376C5.97134 8.84237 6.45512 9.04167 7.02912 9.04167Z" fill="#2C3FE1"/>
</svg>
