<svg width="21" height="22" viewBox="0 0 21 22" fill="none" xmlns="http://www.w3.org/2000/svg">
<g id="material-symbols:settings">
<path id="Vector" d="M8.09375 20.1668L7.74375 17.2335C7.55417 17.1571 7.37538 17.0654 7.20738 16.9585C7.03938 16.8516 6.87546 16.737 6.71563 16.6147L4.1125 17.7606L1.70625 13.4064L3.95938 11.6189C3.94479 11.512 3.9375 11.4087 3.9375 11.3091V10.6912C3.9375 10.5916 3.94479 10.4884 3.95938 10.3814L1.70625 8.59391L4.1125 4.23975L6.71563 5.38558C6.87605 5.26336 7.04375 5.14877 7.21875 5.04183C7.39375 4.93489 7.56875 4.84322 7.74375 4.76683L8.09375 1.8335H12.9063L13.2563 4.76683C13.4458 4.84322 13.6246 4.93489 13.7926 5.04183C13.9606 5.14877 14.1245 5.26336 14.2844 5.38558L16.8875 4.23975L19.2938 8.59391L17.0406 10.3814C17.0552 10.4884 17.0625 10.5916 17.0625 10.6912V11.3091C17.0625 11.4087 17.0479 11.512 17.0188 11.6189L19.2719 13.4064L16.8656 17.7606L14.2844 16.6147C14.124 16.737 13.9563 16.8516 13.7813 16.9585C13.6063 17.0654 13.4313 17.1571 13.2563 17.2335L12.9063 20.1668H8.09375ZM10.5438 14.2085C11.3896 14.2085 12.1115 13.8953 12.7094 13.2689C13.3073 12.6425 13.6063 11.8863 13.6063 11.0002C13.6063 10.1141 13.3073 9.3578 12.7094 8.73141C12.1115 8.10502 11.3896 7.79183 10.5438 7.79183C9.68334 7.79183 8.95767 8.10502 8.36675 8.73141C7.77584 9.3578 7.48067 10.1141 7.48125 11.0002C7.48125 11.8863 7.77642 12.6425 8.36675 13.2689C8.95709 13.8953 9.68275 14.2085 10.5438 14.2085Z" fill="white"/>
</g>
</svg>
