<svg width="38" height="33" viewBox="0 0 38 33" fill="none" xmlns="http://www.w3.org/2000/svg">
<path d="M26.9595 21.2548C26.5622 21.2548 26.2216 21.1208 25.9378 20.8527C25.6729 20.5655 25.5404 20.2112 25.5404 19.79V1.46486C25.5404 1.04359 25.6729 0.698919 25.9378 0.43084C26.2216 0.143614 26.5622 0 26.9595 0C27.3758 0 27.7163 0.143614 27.9812 0.43084C28.2461 0.698919 28.3786 1.04359 28.3786 1.46486V19.79C28.3786 20.2112 28.2461 20.5655 27.9812 20.8527C27.7163 21.1208 27.3758 21.2548 26.9595 21.2548ZM36.2119 6.08922C36.5714 6.08922 36.8836 6.24241 37.1485 6.54878C37.4134 6.85516 37.5459 7.16153 37.5459 7.46791C37.5459 7.85088 37.3661 8.20512 37.0066 8.53065L28.1231 16.573L28.0096 13.2699L35.1618 6.54878C35.4646 6.24241 35.8146 6.08922 36.2119 6.08922ZM36.5525 21.2261C36.1552 21.2261 35.8146 21.0633 35.5308 20.7378L29.8544 14.6773L32.0114 12.6667L37.5459 18.7272C37.8486 19.0527 38 19.4166 38 19.8187C38 20.2399 37.8297 20.5846 37.4891 20.8527C37.1675 21.1016 36.8553 21.2261 36.5525 21.2261Z" fill="white"/>
<path d="M7.35842 25.4172C7.35842 25.0342 7.50033 24.7374 7.78415 24.5268C8.06796 24.3162 8.34232 24.2108 8.60722 24.2108C9.00456 24.2108 9.32622 24.3832 9.5722 24.7279C10.4047 25.9151 11.3697 26.9012 12.4671 27.6863C13.5646 28.4905 14.7471 29.0937 16.0149 29.4958C17.3015 29.8979 18.6165 30.099 19.9599 30.099C21.3033 30.099 22.6183 29.9075 23.905 29.5246C25.1916 29.1416 26.3931 28.548 27.5095 27.7437C28.6258 26.9587 29.5719 25.9534 30.3476 24.7279C30.5747 24.3832 30.8964 24.2108 31.3126 24.2108C31.5964 24.2108 31.8708 24.3257 32.1357 24.5555C32.4006 24.7853 32.533 25.0725 32.533 25.4172C32.533 25.647 32.4763 25.8672 32.3627 26.0778C31.4356 27.5906 30.3287 28.8544 29.0421 29.8692C27.7554 30.9032 26.3364 31.6788 24.7848 32.1958C23.2333 32.7319 21.625 33 19.9599 33C18.2949 33 16.6866 32.7319 15.135 32.1958C13.6024 31.6596 12.1928 30.8745 10.9061 29.8405C9.6195 28.8256 8.50315 27.5714 7.55709 26.0778C7.42464 25.8863 7.35842 25.6661 7.35842 25.4172Z" fill="white"/>
<path d="M10.2174 1.40661C11.6554 1.40661 12.9988 1.64596 14.2476 2.12468C15.4775 2.60339 16.556 3.28316 17.4832 4.16399C18.4103 5.02567 19.1388 6.05012 19.6686 7.23732C20.1794 8.42453 20.4349 9.72662 20.4349 11.1436C20.4349 12.5415 20.1794 13.834 19.6686 15.0212C19.1388 16.2084 18.4103 17.2424 17.4832 18.1232C16.556 18.9849 15.4775 19.6551 14.2476 20.1338C12.9988 20.5934 11.6554 20.8232 10.2174 20.8232C8.77942 20.8232 7.44548 20.5934 6.21561 20.1338C4.96681 19.6551 3.87884 18.9849 2.9517 18.1232C2.02457 17.2424 1.30556 16.2084 0.794689 15.0212C0.264897 13.834 6.03763e-08 12.5415 0 11.1436C-6.12031e-08 9.72663 0.264896 8.42453 0.794689 7.23732C1.30556 6.05012 2.02457 5.02567 2.9517 4.16399C3.87884 3.28316 4.96681 2.60339 6.2156 2.12468C7.44548 1.64596 8.77942 1.40661 10.2174 1.40661ZM10.2174 4.50866C8.81727 4.50866 7.55901 4.79589 6.44266 5.37035C5.32631 5.92565 4.44648 6.70116 3.80316 7.69689C3.15984 8.69261 2.83818 9.84152 2.83818 11.1436C2.83818 12.4266 3.15984 13.5659 3.80316 14.5616C4.44648 15.5573 5.32631 16.3329 6.44266 16.8882C7.54009 17.4435 8.79835 17.7211 10.2174 17.7211C11.6176 17.7211 12.8759 17.4435 13.9922 16.8882C15.1086 16.3329 15.9884 15.5573 16.6317 14.5616C17.275 13.5659 17.5967 12.4266 17.5967 11.1436C17.5967 9.84152 17.275 8.69261 16.6317 7.69689C15.9884 6.70116 15.1086 5.92565 13.9922 5.37034C12.8759 4.79589 11.6176 4.50866 10.2174 4.50866Z" fill="white"/>
</svg>
