<svg width="18" height="18" viewBox="0 0 18 18" fill="none" xmlns="http://www.w3.org/2000/svg">
<g clip-path="url(#clip0_623_1689)">
<rect width="18" height="18" rx="9" fill="white"/>
<path d="M12.6652 8.33822L6.77913 3.26557C6.68245 3.18142 6.56743 3.11463 6.44071 3.06905C6.31398 3.02347 6.17805 3 6.04077 3C5.90348 3 5.76756 3.02347 5.64083 3.06905C5.5141 3.11463 5.39908 3.18142 5.30241 3.26557C5.10872 3.43379 5 3.66134 5 3.89853C5 4.13572 5.10872 4.36327 5.30241 4.53149L10.4501 9.02056L5.30241 13.4647C5.10872 13.633 5 13.8605 5 14.0977C5 14.3349 5.10872 14.5624 5.30241 14.7307C5.39872 14.8155 5.51358 14.883 5.64032 14.9292C5.76707 14.9754 5.90318 14.9995 6.04077 15C6.17836 14.9995 6.31447 14.9754 6.44122 14.9292C6.56796 14.883 6.68282 14.8155 6.77913 14.7307L12.6652 9.65801C12.7708 9.57393 12.855 9.4719 12.9126 9.35832C12.9703 9.24475 13 9.1221 13 8.99811C13 8.87412 12.9703 8.75148 12.9126 8.6379C12.855 8.52433 12.7708 8.42229 12.6652 8.33822Z" fill="#313338"/>
</g>
<defs>
<clipPath id="clip0_623_1689">
<rect width="18" height="18" fill="white"/>
</clipPath>
</defs>
</svg>
