<svg width="208" height="439" viewBox="0 0 208 439" fill="none" xmlns="http://www.w3.org/2000/svg">
<g clip-path="url(#clip0_605_1817)">
<rect width="311" height="573" fill="url(#paint0_linear_605_1817)"/>
<circle cx="192.814" cy="1.81379" r="1.81379" fill="white" fill-opacity="0.25"/>
<circle cx="29" cy="62" r="3" fill="white" fill-opacity="0.25"/>
<circle cx="174" cy="41" r="3" fill="white" fill-opacity="0.25"/>
<circle cx="168" cy="340" r="3" fill="white" fill-opacity="0.25"/>
<circle cx="94.5" cy="173.5" r="5.5" fill="white" fill-opacity="0.25"/>
<circle cx="7.5" cy="256.5" r="10.5" fill="white" fill-opacity="0.25"/>
<circle cx="4.08102" cy="340.081" r="4.08102" fill="white" fill-opacity="0.25"/>
<path d="M60.9922 1.90065C60.9922 1.90065 57.9158 -2.61847 54.5873 -1.93795C51.796 -1.36658 52.9951 1.4188 52.9951 1.4188C48.197 1.0679 49.7642 5.67325 49.7642 5.67325L49.6882 5.69017C47.9537 6.07872 46.8632 7.7688 47.3364 9.38414C48.4687 13.2435 53.6565 13.7499 53.6565 13.7499C55.2423 19.456 60.2013 16.9801 60.2013 16.9801C61.9788 20.1043 65.2607 18.442 68.6716 13.2228C72.0825 8.00292 66.4987 8.31453 66.4987 8.31453C68.8638 1.46081 61.6942 0.336611 60.9922 1.90065Z" fill="#2C3FE1"/>
<path d="M60.992 1.9008L61.1813 1.78676C61.1755 1.77912 60.5042 0.791922 59.4392 -0.203476C58.3731 -1.19451 56.9133 -2.21338 55.2822 -2.21884C55.0366 -2.21884 54.7886 -2.19536 54.5395 -2.14407C53.7457 -1.98362 53.2219 -1.63818 52.9142 -1.21306C52.6058 -0.789036 52.5135 -0.304989 52.5135 0.127768C52.5153 0.872133 52.7812 1.48388 52.7864 1.49807L52.9949 1.41895L53.0123 1.20775C52.8311 1.19466 52.6575 1.18812 52.4926 1.18812C51.2134 1.18484 50.383 1.58265 49.9028 2.16549C49.4232 2.74668 49.2948 3.47087 49.2943 4.10664C49.2948 4.99234 49.5457 5.72632 49.5492 5.73778L49.764 5.6734L49.7129 5.46766L49.6368 5.48402L49.6363 5.48458H49.6357C48.0719 5.83603 47.0012 7.16649 47 8.61484C47 8.88824 47.0383 9.16546 47.119 9.44051C47.7102 11.4531 49.3581 12.5861 50.8284 13.2076C52.3022 13.8308 53.6185 13.9585 53.6331 13.9607L53.6563 13.7501L53.4385 13.8036C53.8711 15.3621 54.5598 16.3499 55.3548 16.9436C56.1491 17.5379 57.0364 17.7268 57.825 17.7262C59.1954 17.724 60.2894 17.1739 60.3068 17.1668L60.2011 16.9802L60.0025 17.0801C60.3178 17.6334 60.6848 18.0547 61.104 18.3391C61.5227 18.6239 61.996 18.7675 62.4924 18.7669C63.4529 18.7642 64.4766 18.2545 65.5445 17.3338C66.6135 16.4105 67.7319 15.0636 68.863 13.3331C69.6731 12.0927 69.9988 11.1426 70 10.3928C70.0012 9.86509 69.8316 9.43778 69.5627 9.11635C69.158 8.63175 68.5582 8.38508 68.006 8.25192C67.4526 8.11877 66.9369 8.09968 66.671 8.09968C66.5566 8.09968 66.4886 8.10294 66.4852 8.10349L66.4985 8.31469L66.7128 8.37963C67.0513 7.39842 67.2 6.52635 67.2 5.7547C67.2023 4.09461 66.502 2.90604 65.5648 2.15349C64.627 1.39931 63.4686 1.0686 62.5192 1.06751C62.1196 1.06806 61.755 1.12588 61.4524 1.24594C61.1522 1.36545 60.9043 1.55265 60.7841 1.81841L60.992 1.9008L61.1993 1.98322C61.2573 1.85116 61.3973 1.72782 61.6284 1.63559C61.8566 1.54391 62.1667 1.49043 62.5192 1.49098C63.3588 1.48934 64.4284 1.79277 65.2716 2.47437C66.1147 3.15707 66.7476 4.20594 66.75 5.7547C66.75 6.47451 66.6112 7.30292 66.2842 8.24921L66.1826 8.54444L66.5119 8.52588L66.5508 8.52424L66.671 8.52261C66.9927 8.52152 67.7464 8.55808 68.3886 8.81675C68.7097 8.94554 69.0001 9.12672 69.208 9.37666C69.4153 9.62715 69.5488 9.94695 69.55 10.3928C69.5511 11.0237 69.266 11.9104 68.4798 13.1121C67.3643 14.8197 66.2639 16.1387 65.2402 17.0222C64.2159 17.9085 63.2729 18.3467 62.4924 18.344C62.086 18.3429 61.7172 18.2321 61.3677 17.9963C61.0187 17.76 60.6912 17.3928 60.3997 16.8803L60.294 16.6943L60.0954 16.7936L60.0536 16.8132C59.8486 16.9082 58.9102 17.3044 57.825 17.3033C57.1096 17.3022 56.3367 17.1363 55.6352 16.6124C54.9338 16.088 54.2904 15.1935 53.874 13.6966L53.8346 13.5553L53.6795 13.54L53.6267 13.534C53.3543 13.5012 52.0745 13.3179 50.7488 12.7045C49.4208 12.0894 48.0615 11.0597 47.5534 9.3281C47.4837 9.09017 47.4506 8.85059 47.4506 8.61484C47.4494 7.3635 48.3861 6.19784 49.7402 5.89606L49.7385 5.89659L49.8145 5.87967L50.0526 5.82784L49.9783 5.609L49.969 5.58118C49.9254 5.44366 49.7437 4.81607 49.7443 4.10664C49.7437 3.52271 49.868 2.89348 50.2582 2.4258C50.6478 1.96029 51.304 1.61487 52.4926 1.61105C52.6453 1.61105 52.8068 1.61704 52.9775 1.6296L53.3398 1.65632L53.2034 1.33928L53.1946 1.31799C53.1505 1.2083 52.963 0.694773 52.9641 0.127768C52.9635 -0.250418 53.0454 -0.644972 53.2858 -0.974041C53.5268 -1.30257 53.9269 -1.58417 54.6353 -1.73096C54.8519 -1.77517 55.0679 -1.7959 55.2822 -1.7959C56.7002 -1.80136 58.095 -0.866528 59.1216 0.0966721C59.6349 0.576361 60.0571 1.05767 60.3492 1.4184C60.4955 1.59848 60.6093 1.74857 60.6865 1.85335C60.7632 1.95758 60.8021 2.01488 60.8021 2.01488L61.0326 2.35377L61.1993 1.98322L60.992 1.9008Z" fill="black"/>
<path d="M60.4259 17.3268C61.4642 16.9022 62.4682 16.017 63.4239 14.8563L63.068 14.5976C62.1401 15.7284 61.1715 16.5639 60.2471 16.9382L60.4259 17.3268Z" fill="black"/>
<path d="M64.6997 12.2096C66.0509 10.8044 66.4319 9.62997 66.8523 8.29349L66.4208 8.17289C65.9958 9.51428 65.6572 10.5763 64.3652 11.9264L64.6997 12.2096Z" fill="black"/>
<path d="M57.9042 18.8188L49.9448 15.8217L52.2919 9.32104L53.2715 6.60826L53.9561 4.71297L59.3349 -10.1841L63.1215 -13.3641L65.7706 -15.5917C65.997 -14.4653 66.2235 -13.3406 66.4488 -12.2121L66.4505 -12.2115L67.3941 -7.49974L61.9323 7.65169L61.2488 9.54806L60.2692 12.2603L57.9042 18.8188Z" fill="#FBBD0C"/>
<path d="M57.9041 18.8188L57.9877 18.6223L50.2263 15.7L52.5049 9.38927L53.4845 6.67649L54.1691 4.7812L59.5288 -10.0635L63.2863 -13.2189L65.9203 -15.434L65.7705 -15.5917L65.5492 -15.5524C65.7757 -14.426 66.0022 -13.3013 66.2275 -12.1727L66.2518 -12.0505L66.2536 -12.05L67.1618 -7.515L61.7191 7.58402L61.0356 9.47986L60.056 12.1927L57.6909 18.7511L57.9041 18.8188L58.1172 18.8865L60.4828 12.3285L61.4618 9.61574L62.1453 7.71936L67.6263 -7.4839L66.6473 -12.373L66.5201 -12.4129L66.4487 -12.212L66.6699 -12.2508C66.4446 -13.3799 66.2182 -14.5046 65.9917 -15.631L65.9174 -15.9993L62.971 -13.5218L59.1409 -10.3047L53.7429 4.64477L53.0583 6.54059L52.0787 9.25284L49.6631 15.9434L58.0411 19.0982L58.1172 18.8865L57.9041 18.8188Z" fill="black"/>
<path d="M59.7583 -7.78671L51.1475 16.23L51.5743 16.3653L60.1851 -7.65137" fill="black"/>
<path d="M62.4048 -6.59174L53.6436 17.1575L54.0692 17.2961L62.8304 -6.45312" fill="black"/>
<path d="M65.2077 -6.10494L56.1904 18.1966L56.6155 18.3358L65.6328 -5.96523" fill="black"/>
<path d="M49.5447 16.9841C49.5447 16.9841 47.5808 21.3685 51.7582 23.004C55.9379 24.6401 57.504 19.9812 57.504 19.9812L49.5447 16.9841Z" fill="#2C3FE1"/>
<path d="M49.5447 16.9841L49.3369 16.9017C49.3316 16.9164 48.8596 17.9647 48.8584 19.2608C48.8584 19.9495 48.9937 20.7124 49.4176 21.4181C49.8403 22.1237 50.5551 22.7633 51.6718 23.1993C52.3198 23.4531 52.9162 23.5638 53.4603 23.5638C55.0165 23.5633 56.0907 22.6601 56.7562 21.7902C57.4257 20.9171 57.7137 20.057 57.7183 20.045L57.7816 19.8579L49.4228 16.7101L49.3369 16.9017L49.5447 16.9841L49.4611 17.18L57.4205 20.1776L57.5041 19.9812L57.2892 19.9173L57.2776 19.9501C57.2155 20.1225 56.8955 20.9378 56.2701 21.6947C55.6407 22.4544 54.7308 23.1409 53.4603 23.1409C52.9812 23.1409 52.4458 23.0438 51.8448 22.8086C50.8083 22.4015 50.1852 21.8334 49.8095 21.2096C49.4344 20.5864 49.3084 19.8988 49.3084 19.2608C49.3084 18.6616 49.4199 18.1088 49.532 17.7082C49.5877 17.508 49.6435 17.3453 49.6847 17.234C49.7056 17.1784 49.723 17.1358 49.7346 17.1069L49.7521 17.0659L49.5447 16.9841Z" fill="black"/>
<path d="M51.1418 20.9416C50.3004 20.4887 49.8046 19.2963 50.207 18.1361C50.2923 17.891 49.9782 17.8086 49.8934 18.0526C49.4358 19.371 49.984 20.7719 50.9467 21.2903C51.1297 21.3891 51.3259 21.0409 51.1418 20.9416Z" fill="#2C3FE1"/>
<path d="M51.656 21.1555C51.4545 21.102 51.3384 21.4862 51.5405 21.5396C51.7426 21.5931 51.8587 21.2089 51.656 21.1555Z" fill="#2C3FE1"/>
<path d="M49.9445 15.8217L57.9218 18.7964L57.5084 19.967L49.5537 16.9933L49.9445 15.8217Z" fill="black"/>
<path d="M49.9446 15.8216L49.8616 16.0181L57.6415 18.9192L57.3697 19.6875L49.8314 16.8694L50.1595 15.8849L49.9446 15.8216L49.7298 15.7583L49.2769 17.1172L57.6467 20.2463L58.203 18.6736L49.8024 15.5406L49.7298 15.7583L49.9446 15.8216Z" fill="black"/>
<path d="M50.6834 10.8911C50.6834 10.8911 57.3193 12.9583 57.0302 9.88423C56.741 6.81018 49.7642 5.67344 49.7642 5.67344" fill="#2C3FE1"/>
<path d="M50.6124 11.0919C50.6234 11.0935 52.8114 11.7806 54.6736 11.7828C55.3327 11.7817 55.9569 11.6987 56.4458 11.4406C56.6897 11.3118 56.8988 11.1345 57.0434 10.9036C57.188 10.6733 57.2646 10.3939 57.2646 10.0736C57.2646 10.0064 57.2611 9.93714 57.2541 9.86565C57.174 9.01978 56.6369 8.32454 55.9163 7.76627C54.8316 6.92695 53.3096 6.36048 52.0536 5.99321C50.7976 5.62757 49.8087 5.46603 49.8023 5.46494L49.7251 5.88188C49.7257 5.88188 49.8302 5.89935 50.0189 5.93592C50.6786 6.06362 52.3451 6.42815 53.8601 7.08684C54.6173 7.41591 55.3356 7.81865 55.8692 8.2907C56.404 8.76439 56.749 9.297 56.8059 9.90275C56.8117 9.96224 56.814 10.0195 56.814 10.0736C56.814 10.3328 56.7548 10.5298 56.6555 10.6886C56.5068 10.9254 56.2565 11.0913 55.911 11.2021C55.5673 11.3124 55.1364 11.3598 54.6736 11.3593C53.7991 11.3598 52.8137 11.1934 52.0519 11.0248C51.6709 10.9407 51.3452 10.8567 51.1152 10.7939C50.8853 10.7312 50.7541 10.6902 50.7541 10.6902L50.6124 11.0919Z" fill="black"/>
<path d="M55.6485 -2.03386C55.6485 -2.03386 63.5085 1.23282 58.1767 4.73253C58.1767 4.73253 55.4992 2.14801 52.9948 1.41892C52.9948 1.41892 64.0299 6.05592 57.0299 9.88416C57.0299 9.88416 56.4794 7.32036 51.4258 6.08375" fill="#2C3FE1"/>
<path d="M55.5576 -1.84063C55.5576 -1.84008 55.6215 -1.8139 55.7388 -1.76042C56.1488 -1.57433 57.1859 -1.07008 58.1062 -0.365556C58.5667 -0.0135651 58.9976 0.388096 59.3071 0.817579C59.6177 1.24815 59.8059 1.70163 59.8059 2.16768C59.8047 2.88476 59.3657 3.6908 58.0476 4.55958L58.1765 4.73257L58.3379 4.58525C58.3333 4.58088 57.6585 3.92982 56.665 3.18382C55.6703 2.43837 54.362 1.59687 53.0613 1.21651L52.9028 1.61159C52.9028 1.61214 52.9986 1.65197 53.1699 1.73001C53.7709 2.00178 55.2824 2.7287 56.6313 3.69954C57.3055 4.18469 57.9384 4.73094 58.3954 5.3034C58.8536 5.87695 59.1311 6.47016 59.13 7.05408C59.1294 7.4781 58.9889 7.90595 58.6428 8.35071C58.2973 8.79439 57.741 9.25061 56.9164 9.70138L57.0297 9.8842L57.2503 9.84218C57.2445 9.8138 57.0906 9.13383 56.2893 8.30543C55.4885 7.47648 54.0432 6.50509 51.4825 5.87915L51.3687 6.28844C53.8615 6.89856 55.2185 7.82792 55.956 8.58975C56.3253 8.97121 56.5396 9.31228 56.6615 9.55458C56.7225 9.67573 56.7602 9.77232 56.7823 9.83671L56.8044 9.90821L56.809 9.92403V9.92622L56.8711 10.2155L57.1429 10.067C58.0046 9.5955 58.6108 9.10654 59.0063 8.60066C59.4017 8.09587 59.5812 7.56924 59.58 7.05408C59.5788 6.23931 59.148 5.47586 58.5336 4.78771C56.6865 2.72979 53.0991 1.23451 53.0863 1.22578L52.9945 1.41897L52.9278 1.62087C54.1315 1.96958 55.4142 2.7849 56.3839 3.51453C56.87 3.87908 57.2788 4.22178 57.5656 4.47226C57.7091 4.59778 57.8217 4.70037 57.8989 4.77132C57.9756 4.84226 58.0151 4.88046 58.0151 4.88046L58.1486 5.00927L58.3054 4.90612C59.688 4.00186 60.2571 3.06485 60.2559 2.16768C60.2553 1.50954 59.9545 0.906529 59.5248 0.378817C58.2334 -1.2005 55.7528 -2.21774 55.7394 -2.22756L55.5576 -1.8401" fill="black"/>
<path d="M62.1353 6.68571C62.1353 6.68571 53.4048 7.36624 53.9396 4.03952C54.1022 3.0272 54.9453 2.23261 55.9946 1.95866C57.6025 1.53845 60.8305 1.0866 64.1624 1.40039C65.7053 1.54555 66.9944 2.68231 67.1337 4.13393C67.2034 4.86301 67.1332 5.98282 66.8051 7.1452" fill="#2C3FE1"/>
<path d="M62.1165 6.47498C62.116 6.47498 61.9371 6.48861 61.6276 6.5028C61.3175 6.51754 60.8791 6.53118 60.3681 6.53118C59.1714 6.53173 57.571 6.45205 56.2964 6.11861C55.6588 5.95326 55.106 5.72407 54.728 5.42775C54.3506 5.12815 54.1439 4.78488 54.141 4.32538C54.141 4.24461 54.1479 4.16003 54.1619 4.07053C54.3082 3.15263 55.0817 2.41644 56.0549 2.16213C57.2627 1.84616 59.4356 1.50672 61.8663 1.50726C62.6066 1.50726 63.3708 1.53839 64.1396 1.61097C65.5803 1.74631 66.7829 2.81099 66.9094 4.15292C66.9245 4.31118 66.9327 4.49128 66.9327 4.68774C66.9327 5.35516 66.8351 6.21248 66.5878 7.09055L67.0227 7.19916C67.2811 6.28125 67.3827 5.39282 67.3827 4.68774C67.3827 4.47982 67.374 4.28772 67.3577 4.11527C67.2056 2.55396 65.8294 1.34574 64.1843 1.18966C63.3987 1.11544 62.62 1.0838 61.8663 1.0838C59.3897 1.08434 57.1918 1.42651 55.9341 1.75449C54.8093 2.04863 53.8965 2.90213 53.7171 4.00722C53.6996 4.11636 53.6909 4.22224 53.6909 4.32538C53.688 4.91749 53.9859 5.40155 54.4406 5.75299C55.1229 6.28234 56.1455 6.56993 57.2278 6.74129C58.3102 6.90992 59.4542 6.95468 60.3681 6.95468C61.4081 6.95468 62.1496 6.89681 62.1537 6.89627L62.1165 6.47498Z" fill="black"/>
<path d="M197.96 114.123C197.96 114.123 190.768 111.852 187.742 115.43C185.204 118.432 188.881 120.427 188.881 120.427C183.382 124.142 189.011 127.795 189.011 127.795L188.943 127.879C187.395 129.78 187.656 132.543 189.547 133.889C194.068 137.106 200.123 133.227 200.123 133.227C206.712 138.057 209.973 131.141 209.973 131.141C214.566 133.01 216.704 128.407 215.946 119.839C215.187 111.271 209.402 116.375 209.402 116.375C206.115 106.928 197.385 111.829 197.96 114.123Z" fill="#2C3FE1"/>
<path d="M197.959 114.124L198.067 113.839C198.054 113.835 196.484 113.338 194.48 113.168C192.479 113.004 190.027 113.146 188.255 114.532C187.989 114.742 187.74 114.979 187.514 115.247C186.791 116.099 186.518 116.92 186.547 117.644C186.575 118.366 186.888 118.97 187.257 119.439C187.894 120.244 188.705 120.68 188.723 120.691L188.881 120.427L188.72 120.183C188.512 120.324 188.318 120.465 188.14 120.606C186.75 121.694 186.19 122.834 186.167 123.875C186.143 124.915 186.622 125.809 187.164 126.499C187.921 127.458 188.819 128.039 188.833 128.049L189.011 127.796L188.78 127.616L188.711 127.699L188.711 127.7L188.711 127.701C187.316 129.416 187.291 131.772 188.526 133.343C188.759 133.639 189.037 133.907 189.36 134.136C191.718 135.813 194.471 135.634 196.595 135.053C198.724 134.47 200.26 133.485 200.277 133.475L200.123 133.227L199.932 133.471C201.732 134.79 203.321 135.273 204.689 135.238C206.057 135.204 207.18 134.652 208.034 133.978C209.518 132.806 210.234 131.276 210.247 131.253L209.973 131.141L209.843 131.419C210.657 131.75 211.414 131.893 212.111 131.843C212.808 131.795 213.443 131.546 213.981 131.122C215.02 130.299 215.694 128.873 216.066 126.964C216.436 125.051 216.499 122.636 216.247 119.796C216.067 117.76 215.609 116.452 214.97 115.638C214.521 115.066 213.972 114.747 213.407 114.628C212.554 114.449 211.694 114.693 210.982 115.02C210.268 115.348 209.693 115.768 209.405 115.995C209.281 116.092 209.21 116.154 209.207 116.157L209.401 116.375L209.689 116.262C209.219 114.91 208.635 113.838 207.977 113.002C206.562 111.201 204.789 110.51 203.131 110.495C201.471 110.478 199.933 111.108 198.903 111.917C198.471 112.259 198.125 112.633 197.899 113.021C197.676 113.407 197.567 113.821 197.664 114.212L197.959 114.124L198.254 114.036C198.204 113.843 198.251 113.59 198.423 113.293C198.592 112.999 198.882 112.676 199.265 112.376C200.173 111.658 201.591 111.074 203.087 111.093C204.583 111.113 206.165 111.709 207.489 113.386C208.103 114.166 208.66 115.182 209.113 116.487L209.255 116.893L209.596 116.592L209.637 116.557L209.766 116.453C210.114 116.177 210.962 115.574 211.878 115.306C212.336 115.171 212.806 115.12 213.244 115.213C213.683 115.308 214.1 115.54 214.482 116.023C215.022 116.705 215.47 117.91 215.643 119.883C215.892 122.686 215.825 125.055 215.47 126.886C215.116 128.721 214.468 130 213.62 130.664C213.179 131.009 212.684 131.204 212.104 131.247C211.524 131.289 210.856 131.17 210.103 130.864L209.829 130.752L209.699 131.029L209.67 131.086C209.529 131.364 208.851 132.594 207.673 133.52C206.897 134.129 205.918 134.609 204.711 134.64C203.503 134.67 202.042 134.25 200.313 132.983L200.15 132.863L199.969 132.979L199.906 133.018C199.583 133.215 198.04 134.108 196.079 134.575C194.115 135.042 191.763 135.086 189.734 133.643C189.456 133.445 189.215 133.214 189.014 132.958C187.945 131.603 187.965 129.54 189.175 128.057L189.174 128.059L189.242 127.976L189.455 127.717L189.188 127.543L189.154 127.521C188.99 127.409 188.257 126.884 187.652 126.115C187.153 125.482 186.751 124.694 186.774 123.854C186.799 123.017 187.216 122.083 188.501 121.064C188.666 120.934 188.846 120.802 189.042 120.67L189.457 120.39L189.039 120.163L189.011 120.147C188.87 120.066 188.228 119.67 187.746 119.054C187.422 118.645 187.174 118.147 187.154 117.585C187.135 117.024 187.328 116.377 187.97 115.613C188.167 115.381 188.384 115.174 188.616 114.991C190.148 113.775 192.458 113.597 194.392 113.765C195.358 113.847 196.226 114.008 196.851 114.15C197.163 114.22 197.415 114.285 197.588 114.333C197.76 114.381 197.851 114.409 197.851 114.409L198.39 114.58L198.254 114.036L197.959 114.124Z" fill="black"/>
<path d="M210.513 131.325C211.276 129.979 211.608 128.162 211.653 126.089L211.047 126.112C211.006 128.13 210.67 129.862 209.987 131.057L210.513 131.325Z" fill="black"/>
<path d="M210.777 122.132C211.042 119.455 210.452 117.857 209.767 116.05L209.196 116.288C209.881 118.104 210.42 119.544 210.172 122.11L210.777 122.132Z" fill="black"/>
<path d="M209.053 135.094L197.869 138.64L194.864 129.591L193.61 125.815L192.734 123.177L185.849 102.441L187.238 95.7626L188.208 91.0873C189.415 92.1147 190.62 93.1404 191.828 94.1712L191.83 94.1703L196.874 98.4713L203.887 119.554L204.765 122.192L206.018 125.968L209.053 135.094Z" fill="#FBBD0C"/>
<path d="M209.053 135.094L208.976 134.81L198.07 138.268L195.153 129.483L193.9 125.707L193.024 123.069L186.162 102.406L187.541 95.7792L188.505 91.1304L188.208 91.0873L188.002 91.3187C189.209 92.3462 190.414 93.3718 191.622 94.4026L191.752 94.5143L191.755 94.5134L196.61 98.6531L203.599 119.662L204.476 122.3L205.73 126.076L208.764 135.203L209.053 135.094L209.342 134.986L206.308 125.859L205.054 122.084L204.176 119.445L197.14 98.2903L191.906 93.8272L191.734 93.8926L191.828 94.1712L192.035 93.9404C190.827 92.909 189.621 91.8833 188.414 90.8559L188.019 90.5201L186.941 95.72L185.536 102.476L192.446 123.285L193.322 125.924L194.575 129.699L197.668 139.012L209.44 135.28L209.342 134.986L209.053 135.094Z" fill="black"/>
<path d="M185.849 102.443L188.647 104.644L189.651 100.914L192.607 103.76L193.328 99.6792L195.997 101.843L196.874 98.4707L188.208 91.0862L185.849 102.443Z" fill="#2C3FE1"/>
<path d="M185.849 102.443L185.652 102.681L188.814 105.17L189.805 101.492L192.803 104.379L193.533 100.244L196.166 102.38L197.213 98.353L188.02 90.5187L185.516 102.575L185.652 102.681L185.849 102.443L186.146 102.486L188.396 91.654L196.534 98.5888L195.828 101.308L193.122 99.1141L192.411 103.141L189.498 100.336L188.48 104.118L186.047 102.205L185.849 102.443Z" fill="black"/>
<path d="M187.237 95.7626C187.395 95.8904 188.497 96.7518 189.823 96.3798C191.326 95.9574 191.79 94.3216 191.829 94.172C190.622 93.1439 189.415 92.1148 188.208 91.0863L187.237 95.7626Z" fill="black"/>
<path d="M187.237 95.7624L187.036 95.9982C187.126 96.0711 187.463 96.3357 187.963 96.5358C188.462 96.737 189.139 96.8766 189.889 96.6674C190.276 96.5581 190.605 96.3765 190.877 96.1624C191.795 95.4316 192.08 94.3739 192.122 94.2311L192.169 94.0546L192.035 93.9404C190.828 92.9124 189.621 91.8833 188.414 90.8548L188.02 90.5185L186.904 95.8919L187.036 95.9982L187.237 95.7624L187.534 95.8055L188.505 91.1293L188.208 91.0862L188.002 91.3176C189.208 92.3461 190.415 93.3746 191.623 94.4033L191.829 94.1718L191.536 94.1126C191.516 94.2006 191.236 95.1448 190.516 95.7041C190.304 95.8705 190.055 96.0079 189.756 96.0919C189.18 96.254 188.643 96.1498 188.22 95.9807C187.799 95.8116 187.506 95.5816 187.437 95.5266L187.237 95.7624Z" fill="black"/>
<path d="M188.353 104.678L199.52 138.056L200.098 137.838L188.932 104.46" fill="black"/>
<path d="M192.242 103.714L203.017 136.931L203.597 136.717L192.822 103.501" fill="black"/>
<path d="M195.695 101.849L206.664 135.883L207.244 135.671L196.275 101.638" fill="black"/>
<path d="M198.427 140.241C198.427 140.241 200.041 146.669 205.964 144.876C211.891 143.082 209.611 136.696 209.611 136.696L198.427 140.241Z" fill="#2C3FE1"/>
<path d="M198.427 140.241L198.132 140.329C198.138 140.35 198.522 141.889 199.627 143.294C200.214 144.041 201.012 144.752 202.074 145.155C203.134 145.559 204.455 145.642 206.037 145.162C206.956 144.883 207.697 144.494 208.287 144.03C209.973 142.701 210.366 140.805 210.345 139.295C210.325 137.777 209.903 136.599 209.898 136.582L209.807 136.325L198.061 140.048L198.132 140.329L198.427 140.241L198.504 140.525L209.688 136.98L209.611 136.696L209.324 136.81L209.339 136.855C209.419 137.095 209.768 138.252 209.737 139.606C209.703 140.967 209.303 142.487 207.926 143.572C207.406 143.981 206.743 144.332 205.891 144.59C204.42 145.034 203.26 144.95 202.321 144.595C201.382 144.239 200.659 143.602 200.114 142.91C199.603 142.261 199.252 141.567 199.031 141.037C198.921 140.772 198.842 140.548 198.792 140.393C198.767 140.314 198.75 140.253 198.738 140.212L198.722 140.153L198.427 140.241Z" fill="black"/>
<path d="M203.536 143.167C202.238 143.394 200.682 142.525 200.128 140.924C200.012 140.586 199.601 140.765 199.717 141.101C200.347 142.921 202.136 143.971 203.622 143.711C203.905 143.662 203.82 143.117 203.536 143.167Z" fill="#2C3FE1"/>
<path d="M204.276 142.96C204.012 143.074 204.214 143.589 204.479 143.475C204.743 143.36 204.541 142.845 204.276 142.96Z" fill="#2C3FE1"/>
<path d="M197.868 138.64L209.053 135.055L209.604 136.676L198.445 140.243L197.868 138.64Z" fill="black"/>
<path d="M197.868 138.64L197.946 138.923L208.854 135.427L209.215 136.492L198.64 139.872L198.155 138.525L197.868 138.64L197.582 138.754L198.251 140.614L209.992 136.861L209.253 134.682L197.474 138.457L197.582 138.754L197.868 138.64Z" fill="black"/>
<path d="M194.461 132.666C194.461 132.666 203.417 129.242 200.48 126.157C197.543 123.073 189.011 127.796 189.011 127.796" fill="#2C3FE1"/>
<path d="M194.555 132.944C194.569 132.936 197.527 131.813 199.547 130.226C200.26 129.663 200.866 129.04 201.175 128.343C201.33 127.995 201.405 127.624 201.364 127.251C201.325 126.878 201.169 126.51 200.896 126.162C200.839 126.09 200.776 126.018 200.707 125.946C199.898 125.098 198.723 124.803 197.465 124.813C195.573 124.829 193.44 125.514 191.766 126.188C190.092 126.864 188.883 127.533 188.875 127.537L189.147 128.055C189.148 128.054 189.276 127.984 189.512 127.863C190.335 127.438 192.453 126.411 194.657 125.831C195.758 125.542 196.881 125.365 197.862 125.421C198.846 125.478 199.674 125.761 200.253 126.369C200.31 126.428 200.361 126.488 200.407 126.547C200.629 126.828 200.733 127.092 200.761 127.349C200.802 127.732 200.672 128.126 200.392 128.541C200.114 128.954 199.687 129.373 199.185 129.767C198.238 130.514 197.028 131.175 196.058 131.642C195.574 131.877 195.149 132.063 194.846 132.192C194.543 132.32 194.366 132.388 194.366 132.388L194.555 132.944Z" fill="black"/>
<path d="M188.81 114.42C188.81 114.42 200.117 111.252 197.326 119.595C197.326 119.595 192.218 119.08 188.881 120.427C188.881 120.427 204.799 116.034 200.48 126.157C200.48 126.157 197.695 123.849 191.163 126.822" fill="#2C3FE1"/>
<path d="M188.877 114.707C188.877 114.708 188.969 114.682 189.141 114.639C189.745 114.491 191.299 114.152 192.898 114.13C193.697 114.119 194.507 114.186 195.209 114.388C195.913 114.589 196.504 114.92 196.902 115.425C197.513 116.203 197.725 117.452 197.038 119.518L197.325 119.596L197.374 119.298C197.366 119.297 196.079 119.168 194.365 119.207C192.651 119.248 190.515 119.453 188.781 120.151L188.946 120.715C188.946 120.715 189.084 120.676 189.337 120.615C190.22 120.396 192.478 119.894 194.769 119.795C195.914 119.745 197.066 119.797 198.05 120.027C199.036 120.258 199.843 120.664 200.34 121.298C200.701 121.758 200.914 122.341 200.919 123.119C200.923 123.895 200.71 124.864 200.201 126.056L200.479 126.158L200.683 125.924C200.652 125.898 199.905 125.292 198.33 125.079C196.754 124.864 194.359 125.045 191.049 126.552L191.275 127.093C194.498 125.626 196.761 125.475 198.211 125.671C198.937 125.769 199.46 125.956 199.799 126.115C199.969 126.194 200.092 126.266 200.171 126.317L200.256 126.376L200.274 126.389L200.276 126.392L200.59 126.652L200.758 126.259C201.29 125.013 201.529 123.965 201.526 123.08C201.524 122.195 201.269 121.471 200.828 120.914C200.131 120.032 199.013 119.572 197.759 119.351C194.001 118.697 188.837 120.138 188.816 120.14L188.881 120.427L188.981 120.703C190.583 120.054 192.669 119.843 194.343 119.806C195.181 119.786 195.916 119.808 196.441 119.835C196.704 119.849 196.913 119.864 197.058 119.875C197.201 119.886 197.277 119.894 197.277 119.894L197.531 119.919L197.613 119.674C198.34 117.514 198.157 116.012 197.39 115.041C196.827 114.328 195.987 113.932 195.07 113.726C192.323 113.117 188.766 114.132 188.743 114.133L188.877 114.708" fill="black"/>
<path d="M203.283 118.333C203.283 118.333 194.402 126.523 192.142 122.461C191.454 121.225 191.69 119.644 192.593 118.452C193.977 116.624 197.09 113.379 200.968 110.875C202.764 109.716 205.132 109.847 206.522 111.302C207.22 112.032 208.099 113.306 208.736 114.846" fill="#2C3FE1"/>
<path d="M203.083 118.121C203.082 118.122 202.9 118.289 202.577 118.569C202.253 118.849 201.79 119.238 201.236 119.674C199.939 120.696 198.137 121.976 196.471 122.702C195.639 123.067 194.844 123.291 194.181 123.292C193.517 123.29 193 123.094 192.604 122.599C192.535 122.511 192.471 122.414 192.409 122.305C191.784 121.185 191.994 119.727 192.832 118.621C193.871 117.247 195.937 115.025 198.571 112.951C199.374 112.319 200.228 111.7 201.124 111.123C202.8 110.04 205.013 110.167 206.295 111.514C206.447 111.672 206.609 111.86 206.777 112.073C207.346 112.797 207.972 113.809 208.454 114.972L209.018 114.718C208.514 113.503 207.866 112.453 207.264 111.689C207.087 111.464 206.914 111.263 206.749 111.09C205.251 109.528 202.729 109.393 200.812 110.628C199.898 111.218 199.027 111.849 198.21 112.492C195.526 114.606 193.436 116.853 192.353 118.282C191.385 119.561 191.125 121.265 191.873 122.616C191.948 122.749 192.028 122.871 192.117 122.983C192.619 123.627 193.355 123.897 194.147 123.89C195.339 123.882 196.692 123.32 198.012 122.582C199.329 121.841 200.607 120.913 201.597 120.133C202.724 119.246 203.479 118.55 203.482 118.546L203.083 118.121Z" fill="black"/>
<path d="M118.4 316.162C118.45 316.49 118.502 316.824 118.539 317.155C119.396 323.756 118.338 331.289 114.363 336.674C110.999 341.225 105.247 345.18 99.5531 346.882L98.1342 342.216C102.954 340.829 108.311 336.915 110.871 333.031C113.586 328.907 114.171 323.174 113.666 318.18C113.6 317.536 113.521 316.903 113.42 316.292C112.919 313.138 117.901 313.037 118.4 316.162Z" fill="black"/>
<path d="M109.851 314.296C109.851 314.296 106.918 319.418 114.319 318.078C121.719 316.739 124.773 315.224 120.529 312.611C120.529 312.611 127.007 310.641 120.628 294.031C120.299 293.174 119.718 292.204 118.805 292.114C117.527 291.987 116.328 294.282 116.902 301.26C116.902 301.26 115.421 289.076 112.12 290.146C111.494 290.35 111.127 291.006 110.997 291.651C110.728 292.979 111.175 298.473 112.049 302.328C112.049 302.328 110.108 295.082 108.556 292.98C107.003 290.877 104.679 290.83 105.283 295.601C105.438 296.834 105.698 298.05 106.026 299.248L107.579 304.901C107.579 304.901 103.146 299.76 100.965 301.858C99.5967 303.176 103.175 313.528 109.851 314.296Z" fill="white"/>
<path d="M109.851 314.296C109.851 314.296 106.918 319.418 114.319 318.078C121.719 316.739 124.773 315.224 120.529 312.611C120.529 312.611 127.007 310.641 120.628 294.031C120.299 293.174 119.718 292.204 118.805 292.114C117.527 291.987 116.328 294.282 116.902 301.26C116.902 301.26 115.421 289.076 112.12 290.146C111.494 290.35 111.127 291.006 110.997 291.651C110.728 292.979 111.175 298.473 112.049 302.328C112.049 302.328 110.108 295.082 108.556 292.98C107.003 290.877 104.679 290.83 105.283 295.601C105.438 296.834 105.698 298.05 106.026 299.248L107.579 304.901C107.579 304.901 103.146 299.76 100.965 301.858C99.5967 303.176 103.175 313.528 109.851 314.296Z" stroke="black" stroke-width="0.666667" stroke-miterlimit="10"/>
<path d="M109.714 302.817L119.343 301.164" stroke="black" stroke-width="0.666667" stroke-miterlimit="10"/>
<path d="M108.086 305.725C108.086 305.725 113.81 304.439 114.996 309.69" stroke="black" stroke-width="0.666667" stroke-miterlimit="10"/>
<path d="M114.001 313.722C113.521 313.95 112.813 314.22 111.921 314.341C111.176 314.442 110.535 314.406 110.059 314.344" stroke="black" stroke-width="0.666667" stroke-miterlimit="10"/>
<path d="M117.981 313.163L120.529 312.61" stroke="black" stroke-width="0.666667" stroke-miterlimit="10"/>
<path d="M5.40059 426.914L118.576 391.063L134.316 411.709L-5.99121 454.826L5.40059 426.914Z" fill="#FBC425"/>
<path d="M5.40059 426.914L118.576 391.063L134.316 411.709L-5.99121 454.826L5.40059 426.914Z" stroke="black" stroke-width="0.666667" stroke-miterlimit="10"/>
<path d="M10.349 428.068L115.518 395.299L125.994 409.505L2.49854 448.3L10.349 428.068Z" fill="white"/>
<path d="M10.349 428.068L115.518 395.299L125.994 409.505L2.49854 448.3L10.349 428.068Z" stroke="black" stroke-width="0.666667" stroke-miterlimit="10"/>
<path d="M18.4824 425.537L16.2194 432.751L13.9739 439.892L12.2969 445.214" stroke="black" stroke-width="0.666667" stroke-miterlimit="10"/>
<path d="M26.8828 422.922L24.7831 430.04L22.6957 437.131L21.1274 442.44" stroke="black" stroke-width="0.666667" stroke-miterlimit="10"/>
<path d="M35.3528 420.273L33.4793 427.297L33.47 427.299L31.5871 434.327L30.1704 439.599" stroke="black" stroke-width="0.666667" stroke-miterlimit="10"/>
<path d="M43.511 417.733L41.7828 424.668L40.0389 431.65L38.7339 436.92" stroke="black" stroke-width="0.666667" stroke-miterlimit="10"/>
<path d="M52.3194 414.987L50.8509 421.807L50.8415 421.809L49.3487 428.714L48.2231 433.937" stroke="black" stroke-width="0.666667" stroke-miterlimit="10"/>
<path d="M57.5366 426.143L57.5427 426.13L58.8938 419.26L60.2253 412.528" stroke="black" stroke-width="0.666667" stroke-miterlimit="10"/>
<path d="M66.8394 423.173L67.8829 410.27" stroke="black" stroke-width="0.666667" stroke-miterlimit="10"/>
<path d="M74.8555 420.616L75.3459 414.062L75.355 414.059L75.8333 407.663" stroke="black" stroke-width="0.666667" stroke-miterlimit="10"/>
<path d="M84.6919 417.664L84.6857 417.546L84.135 411.29L83.6069 405.234" stroke="black" stroke-width="0.666667" stroke-miterlimit="10"/>
<path d="M91.013 402.933L92.2242 408.728L93.4927 414.769L94.4731 419.412" stroke="black" stroke-width="0.666667" stroke-miterlimit="10"/>
<path d="M98.8245 400.492L100.615 406.083L102.478 411.934L103.916 416.444" stroke="black" stroke-width="0.666667" stroke-miterlimit="10"/>
<path d="M107.781 397.7L110.432 402.974L110.441 402.971L113.233 408.529L113.243 408.526L115.414 412.836" stroke="black" stroke-width="0.666667" stroke-miterlimit="10"/>
<path d="M7.45801 435.514L7.4672 435.511L16.2195 432.751L24.7827 430.039L33.4701 427.299L33.4795 427.296L41.7827 424.668L50.8411 421.809L50.8506 421.807L58.8941 419.26L67.5257 416.538L75.3461 414.062L75.3552 414.059L84.135 411.29L92.2244 408.728L100.615 406.083L110.432 402.974L110.441 402.971L119.157 400.223" stroke="black" stroke-width="0.666667" stroke-miterlimit="10"/>
<path d="M4.61865 442.844L13.9743 439.892L22.6955 437.131L31.5875 434.327L40.039 431.65L49.3485 428.714L57.5432 426.13L66.2466 423.374L84.686 417.546L93.4931 414.769L102.478 411.934L113.233 408.529L113.243 408.526L123.007 405.446" stroke="black" stroke-width="0.666667" stroke-miterlimit="10"/>
<path d="M-5.07715 458.716L135.557 415.806L134.194 411.502L-6.15562 455.098L-5.07715 458.716Z" fill="#6757B0"/>
<path d="M-5.07715 458.716L135.557 415.806L134.194 411.502L-6.15562 455.098L-5.07715 458.716Z" stroke="black" stroke-width="0.666667" stroke-miterlimit="10"/>
<path d="M68.6236 407.003L47.877 413.312L44.6277 402.625L65.3744 396.317L68.6236 407.003Z" fill="#6757B0"/>
<path d="M68.6236 407.003L47.877 413.312L44.6277 402.625L65.3744 396.317L68.6236 407.003Z" stroke="black" stroke-width="0.666667" stroke-miterlimit="10"/>
<path d="M111.364 382.382L-1.33483 416.649C-3.56309 417.327 -5.91849 416.069 -6.59573 413.842L-28.8636 340.606C-29.5411 338.378 -28.2841 336.023 -26.0558 335.345L86.643 301.078C88.8703 300.401 91.2261 301.658 91.9036 303.886L114.171 377.122C114.849 379.349 113.591 381.705 111.364 382.382Z" fill="#FBC425"/>
<path d="M111.364 382.382L-1.33483 416.649C-3.56309 417.327 -5.91849 416.069 -6.59573 413.842L-28.8636 340.606C-29.5411 338.378 -28.2841 336.023 -26.0558 335.345L86.643 301.078C88.8703 300.401 91.2261 301.658 91.9036 303.886L114.171 377.122C114.849 379.349 113.591 381.705 111.364 382.382Z" stroke="black" stroke-width="0.666667" stroke-miterlimit="10"/>
<path d="M103.396 380.26L3.90351 410.511C0.740843 411.473 -2.60221 409.689 -3.56369 406.527L-22.1742 345.319C-23.1359 342.156 -21.3518 338.814 -18.1891 337.852L81.303 307.601C84.4652 306.639 87.8082 308.423 88.7699 311.586L107.38 372.793C108.342 375.956 106.558 379.299 103.396 380.26Z" fill="url(#paint1_linear_605_1817)"/>
<path d="M103.396 380.26L3.90351 410.511C0.740843 411.473 -2.60221 409.689 -3.56369 406.527L-22.1742 345.319C-23.1359 342.156 -21.3518 338.814 -18.1891 337.852L81.303 307.601C84.4652 306.639 87.8082 308.423 88.7699 311.586L107.38 372.793C108.342 375.956 106.558 379.299 103.396 380.26Z" stroke="black" stroke-width="0.666667" stroke-miterlimit="10"/>
<path d="M90.3597 378.879L14.8311 401.844L-2.49974 344.846L73.0289 321.881L90.3597 378.879Z" fill="white"/>
<path d="M90.3597 378.879L14.8311 401.844L-2.49974 344.846L73.0289 321.881L90.3597 378.879Z" stroke="black" stroke-width="0.666667" stroke-miterlimit="10"/>
<path d="M6.15674 373.664L81.8694 350.643" stroke="black" stroke-width="0.666667" stroke-miterlimit="10"/>
<path d="M35.215 333.219L52.5493 390.229" stroke="black" stroke-width="0.666667" stroke-miterlimit="10"/>
<path d="M73.0511 321.853L-2.42936 344.804L-1.59326 347.553L73.8872 324.603L73.0511 321.853Z" fill="#FE7354"/>
<path d="M73.0511 321.853L-2.42936 344.804L-1.59326 347.553L73.8872 324.603L73.0511 321.853Z" stroke="black" stroke-width="0.666667" stroke-miterlimit="10"/>
<path d="M69.6925 367.293C68.6798 363.906 68.7451 360.676 69.6944 358.859C70.0653 358.151 70.5684 357.661 71.1983 357.457C73.4359 356.73 76.391 359.958 77.7976 364.664C79.2034 369.371 78.5298 373.775 76.2918 374.5C75.6956 374.693 75.051 374.608 74.3999 374.291C72.5948 373.408 70.7258 370.751 69.6925 367.293Z" fill="white"/>
<path d="M69.6925 367.293C68.6798 363.906 68.7451 360.676 69.6944 358.859C70.0653 358.151 70.5684 357.661 71.1983 357.457C73.4359 356.73 76.391 359.958 77.7976 364.664C79.2034 369.371 78.5298 373.775 76.2918 374.5C75.6956 374.693 75.051 374.608 74.3999 374.291C72.5948 373.408 70.7258 370.751 69.6925 367.293Z" stroke="black" stroke-width="0.666667" stroke-miterlimit="10"/>
<path d="M74.3998 374.29C76.4324 373.339 77.0994 369.44 75.8746 365.34C75.8338 365.206 75.7922 365.072 75.7486 364.941L72.2953 365.834L74.9681 363.025C73.5614 360.184 71.4604 358.447 69.6943 358.859C68.745 360.676 68.6797 363.906 69.6924 367.293C70.7257 370.751 72.5947 373.408 74.3998 374.29Z" fill="black"/>
<path d="M74.3998 374.29C76.4324 373.339 77.0994 369.44 75.8746 365.34C75.8338 365.206 75.7922 365.072 75.7486 364.941L72.2953 365.834L74.9681 363.025C73.5614 360.184 71.4604 358.447 69.6943 358.859C68.745 360.676 68.6797 363.906 69.6924 367.293C70.7257 370.751 72.5947 373.408 74.3998 374.29Z" stroke="black" stroke-width="0.666667" stroke-miterlimit="10"/>
<path d="M77.0332 358.454L75.2715 359.381" stroke="black" stroke-width="0.666667" stroke-miterlimit="10"/>
<path d="M75.9299 357.041L74.6533 358.555L75.9299 357.041Z" fill="white"/>
<path d="M75.9299 357.041L74.6533 358.555" stroke="black" stroke-width="0.666667" stroke-miterlimit="10"/>
<path d="M54.8696 371.392C53.8944 367.985 53.9861 364.729 54.9431 362.891C55.3172 362.175 55.8205 361.677 56.4467 361.466C58.674 360.718 61.5777 363.949 62.9328 368.682C64.2886 373.415 63.5829 377.859 61.3554 378.607C60.7628 378.806 60.1238 378.724 59.4807 378.409C57.697 377.535 55.8654 374.87 54.8696 371.392Z" fill="white"/>
<path d="M54.8696 371.392C53.8944 367.985 53.9861 364.729 54.9431 362.891C55.3172 362.175 55.8205 361.677 56.4467 361.466C58.674 360.718 61.5777 363.949 62.9328 368.682C64.2886 373.415 63.5829 377.859 61.3554 378.607C60.7628 378.806 60.1238 378.724 59.4807 378.409C57.697 377.535 55.8654 374.87 54.8696 371.392Z" stroke="black" stroke-width="0.666667" stroke-miterlimit="10"/>
<path d="M59.4808 378.409C61.5058 377.435 62.2006 373.5 61.0194 369.377C60.9811 369.242 60.9403 369.108 60.8981 368.975L57.465 369.902L60.1394 367.051C58.7687 364.197 56.6991 362.462 54.9432 362.89C53.9862 364.729 53.8945 367.985 54.8697 371.392C55.8655 374.869 57.6971 377.535 59.4808 378.409Z" fill="black"/>
<path d="M59.4808 378.409C61.5058 377.435 62.2006 373.5 61.0194 369.377C60.9811 369.242 60.9403 369.108 60.8981 368.975L57.465 369.902L60.1394 367.051C58.7687 364.197 56.6991 362.462 54.9432 362.89C53.9862 364.729 53.8945 367.985 54.8697 371.392C55.8655 374.869 57.6971 377.535 59.4808 378.409Z" stroke="black" stroke-width="0.666667" stroke-miterlimit="10"/>
<path d="M52.1396 365.758L54.0867 365.754" stroke="black" stroke-width="0.666667" stroke-miterlimit="10"/>
<path d="M52.5682 363.954L54.3142 364.713" stroke="black" stroke-width="0.666667" stroke-miterlimit="10"/>
<path d="M65.1449 378.004C66.5145 379.254 68.4527 379.661 70.1752 379.055C72.6619 378.18 73.3153 375.688 73.3596 375.507" stroke="black" stroke-width="0.666667" stroke-miterlimit="10"/>
<path d="M17.8954 356.025C18.9525 359.457 18.9483 362.704 18.0498 364.506C17.6983 365.208 17.2135 365.69 16.5987 365.879C14.4136 366.552 11.451 363.231 9.98246 358.463C8.51333 353.694 9.09351 349.281 11.2783 348.609C11.8598 348.429 12.4952 348.532 13.141 348.868C14.9306 349.8 16.8157 352.521 17.8954 356.025Z" fill="white"/>
<path d="M17.8954 356.025C18.9525 359.457 18.9483 362.704 18.0498 364.506C17.6983 365.208 17.2135 365.69 16.5987 365.879C14.4136 366.552 11.451 363.231 9.98246 358.463C8.51333 353.694 9.09351 349.281 11.2783 348.609C11.8598 348.429 12.4952 348.532 13.141 348.868C14.9306 349.8 16.8157 352.521 17.8954 356.025Z" stroke="black" stroke-width="0.666667" stroke-miterlimit="10"/>
<path d="M13.141 348.868C11.1617 349.773 10.5788 353.677 11.8587 357.831C11.9009 357.968 11.9444 358.103 11.9897 358.237L15.3652 357.426L12.7923 360.183C14.2262 363.076 16.322 364.876 18.0498 364.506C18.9483 362.703 18.9525 359.456 17.8954 356.025C16.8157 352.521 14.9306 349.8 13.141 348.868Z" fill="black"/>
<path d="M13.141 348.868C11.1617 349.773 10.5788 353.677 11.8587 357.831C11.9009 357.968 11.9444 358.103 11.9897 358.237L15.3652 357.426L12.7923 360.183C14.2262 363.076 16.322 364.876 18.0498 364.506C18.9483 362.703 18.9525 359.456 17.8954 356.025C16.8157 352.521 14.9306 349.8 13.141 348.868Z" stroke="black" stroke-width="0.666667" stroke-miterlimit="10"/>
<path d="M32.2897 351.59C33.3466 355.022 33.3426 358.269 32.4448 360.072C32.0933 360.774 31.6078 361.256 30.9932 361.444C28.8083 362.118 25.8456 358.797 24.3765 354.028C22.9074 349.259 23.4876 344.847 25.6731 344.174C26.2545 343.995 26.8899 344.097 27.535 344.434C29.325 345.366 31.2103 348.087 32.2897 351.59Z" fill="white"/>
<path d="M32.2897 351.59C33.3466 355.022 33.3426 358.269 32.4448 360.072C32.0933 360.774 31.6078 361.256 30.9932 361.444C28.8083 362.118 25.8456 358.797 24.3765 354.028C22.9074 349.259 23.4876 344.847 25.6731 344.174C26.2545 343.995 26.8899 344.097 27.535 344.434C29.325 345.366 31.2103 348.087 32.2897 351.59Z" stroke="black" stroke-width="0.666667" stroke-miterlimit="10"/>
<path d="M27.5349 344.434C25.5557 345.339 24.9731 349.243 26.2532 353.398C26.2948 353.533 26.3387 353.668 26.3836 353.802L29.7591 352.991L27.1862 355.748C28.6204 358.642 30.7167 360.441 32.4447 360.072C33.3426 358.269 33.3465 355.022 32.2897 351.59C31.2102 348.087 29.3249 345.366 27.5349 344.434Z" fill="black"/>
<path d="M27.5349 344.434C25.5557 345.339 24.9731 349.243 26.2532 353.398C26.2948 353.533 26.3387 353.668 26.3836 353.802L29.7591 352.991L27.1862 355.748C28.6204 358.642 30.7167 360.441 32.4447 360.072C33.3426 358.269 33.3465 355.022 32.2897 351.59C31.2102 348.087 29.3249 345.366 27.5349 344.434Z" stroke="black" stroke-width="0.666667" stroke-miterlimit="10"/>
<path d="M21.2866 365.092L24.1617 364.218" stroke="black" stroke-width="0.666667" stroke-miterlimit="10"/>
<path d="M49.107 338.302C47.0391 338.858 46.2281 342.706 46.9249 346.485L49.1474 346.738L47.4736 348.745C48.8458 352.029 51.4056 354.335 53.3629 353.807C55.6565 353.19 56.5631 349.22 55.3878 344.937C54.2126 340.656 51.4006 337.685 49.107 338.302Z" fill="black"/>
<path d="M49.107 338.302C47.0391 338.858 46.2281 342.706 46.9249 346.485L49.1474 346.738L47.4736 348.745C48.8458 352.029 51.4056 354.335 53.3629 353.807C55.6565 353.19 56.5631 349.22 55.3878 344.937C54.2126 340.656 51.4006 337.685 49.107 338.302Z" stroke="black" stroke-width="0.666667" stroke-miterlimit="10"/>
<path d="M44.5462 338.836C44.8207 339.179 45.2374 339.634 45.8074 340.036C46.2583 340.352 46.6708 340.543 46.9921 340.659" stroke="black" stroke-width="0.666667" stroke-miterlimit="10"/>
<path d="M46.476 336.54C46.6286 336.893 46.8394 337.316 47.1276 337.764C47.4447 338.256 47.7647 338.636 48.0326 338.919" stroke="black" stroke-width="0.666667" stroke-miterlimit="10"/>
<path d="M49.2032 335.523C49.2339 335.886 49.2945 336.323 49.4126 336.813C49.5498 337.38 49.7249 337.858 49.8856 338.228" stroke="black" stroke-width="0.666667" stroke-miterlimit="10"/>
<path d="M53.9144 345.377C51.3098 346.539 52.3144 346.758 52.7369 349.858C51.5401 346.967 52.0591 346.424 49.2239 346.733C51.8288 345.572 51.1234 345.423 50.7007 342.323C51.8974 345.214 51.0795 345.686 53.9144 345.377Z" fill="white"/>
<path d="M64.6707 333.51C66.7434 332.973 69.3677 335.912 70.6487 339.536L68.8457 340.853L71.2998 341.77C71.7469 345.299 70.6751 348.563 68.7132 349.072C66.4143 349.669 63.6452 346.669 62.5291 342.371C61.4125 338.073 62.371 334.107 64.6707 333.51Z" fill="black"/>
<path d="M64.6707 333.51C66.7434 332.973 69.3677 335.912 70.6487 339.536L68.8457 340.853L71.2998 341.77C71.7469 345.299 70.6751 348.563 68.7132 349.072C66.4143 349.669 63.6452 346.669 62.5291 342.371C61.4125 338.073 62.371 334.107 64.6707 333.51Z" stroke="black" stroke-width="0.666667" stroke-miterlimit="10"/>
<path d="M68.8963 331.722C68.8294 332.157 68.6944 332.757 68.4 333.386C68.167 333.884 67.9031 334.254 67.6826 334.513" stroke="black" stroke-width="0.666667" stroke-miterlimit="10"/>
<path d="M66.0758 330.682C66.1187 331.064 66.147 331.535 66.12 332.065C66.0905 332.649 66.0031 333.138 65.9106 333.515" stroke="black" stroke-width="0.666667" stroke-miterlimit="10"/>
<path d="M63.1999 331.146C63.3532 331.474 63.5197 331.885 63.6613 332.368C63.8252 332.928 63.9115 333.429 63.9575 333.831" stroke="black" stroke-width="0.666667" stroke-miterlimit="10"/>
<path d="M68.7755 341.415C66.1706 342.576 67.1758 342.794 67.5977 345.895C66.4021 343.004 66.9208 342.461 64.085 342.77C66.6897 341.608 65.9843 341.46 65.5627 338.36C66.7583 341.251 65.9403 341.723 68.7755 341.415Z" fill="white"/>
<path d="M61.8704 350.652C62.2131 351.779 62.1982 352.781 61.838 352.89C61.4778 353 60.9081 352.176 60.5655 351.049C60.2228 349.922 60.2374 348.92 60.5976 348.811C60.9578 348.701 61.5278 349.525 61.8704 350.652Z" fill="black"/>
<path d="M61.8704 350.652C62.2131 351.779 62.1982 352.781 61.838 352.89C61.4778 353 60.9081 352.176 60.5655 351.049C60.2228 349.922 60.2374 348.92 60.5976 348.811C60.9578 348.701 61.5278 349.525 61.8704 350.652Z" stroke="black" stroke-width="0.666667" stroke-miterlimit="10"/>
<path d="M25.4998 382.027C26.2327 383.376 26.1411 384.653 26.0952 386.141C26.0558 387.424 26.9037 388.687 27.2061 389.76C25.2253 389.865 23.1418 390.181 21.8405 391.689C21.2832 390.605 21.3022 389.429 20.802 388.2C20.0337 386.312 18.0206 385.545 18.1261 383.169C18.1674 382.239 18.3635 381.428 18.2276 380.469C18.0175 378.981 16.9033 377.89 16.5426 376.417C16.1587 374.851 16.3891 372.801 18.8462 372.484C20.7175 372.242 21.9035 373.52 22.5489 375.024C23.1218 376.359 22.767 377.516 23.0106 378.845C23.2575 380.192 24.8622 380.854 25.4998 382.027Z" fill="black"/>
<path d="M25.4998 382.027C26.2327 383.376 26.1411 384.653 26.0952 386.141C26.0558 387.424 26.9037 388.687 27.2061 389.76C25.2253 389.865 23.1418 390.181 21.8405 391.689C21.2832 390.605 21.3022 389.429 20.802 388.2C20.0337 386.312 18.0206 385.545 18.1261 383.169C18.1674 382.239 18.3635 381.428 18.2276 380.469C18.0175 378.981 16.9033 377.89 16.5426 376.417C16.1587 374.851 16.3891 372.801 18.8462 372.484C20.7175 372.242 21.9035 373.52 22.5489 375.024C23.1218 376.359 22.767 377.516 23.0106 378.845C23.2575 380.192 24.8622 380.854 25.4998 382.027Z" stroke="black" stroke-width="0.666667" stroke-miterlimit="10"/>
<path d="M17.5729 376.159C17.9327 377.633 19.0487 378.724 19.2575 380.212C19.3947 381.17 19.2002 381.982 19.1568 382.91C19.0503 385.286 21.0636 386.055 21.8311 387.942C22.2512 388.973 22.2541 389.923 22.6024 390.9C22.3176 391.148 22.0792 391.351 21.8315 391.638C21.2733 390.554 21.301 389.429 20.8004 388.2C20.033 386.314 18.0193 385.545 18.1262 383.168C18.17 382.24 18.3641 381.428 18.2273 380.47C18.018 378.983 16.902 377.891 16.542 376.417C16.1591 374.851 16.3898 372.8 18.8472 372.484C18.87 372.482 18.897 372.476 18.9214 372.479C17.3655 373.145 17.2484 374.827 17.5729 376.159Z" fill="white"/>
<path d="M17.5729 376.159C17.9327 377.633 19.0487 378.724 19.2575 380.212C19.3947 381.17 19.2002 381.982 19.1568 382.91C19.0503 385.286 21.0636 386.055 21.8311 387.942C22.2512 388.973 22.2541 389.923 22.6024 390.9C22.3176 391.148 22.0792 391.351 21.8315 391.638C21.2733 390.554 21.301 389.429 20.8004 388.2C20.033 386.314 18.0193 385.545 18.1262 383.168C18.17 382.24 18.3641 381.428 18.2273 380.47C18.018 378.983 16.902 377.891 16.542 376.417C16.1591 374.851 16.3898 372.8 18.8472 372.484C18.87 372.482 18.897 372.476 18.9214 372.479C17.3655 373.145 17.2484 374.827 17.5729 376.159Z" stroke="black" stroke-width="0.666667" stroke-miterlimit="10"/>
<path d="M40.5056 378.68C41.2383 380.027 41.147 381.305 41.1013 382.793C41.0668 383.9 41.3571 384.398 41.6863 385.266C39.8654 384.969 38.0204 385.748 36.356 386.849C36.1754 386.098 36.1104 385.595 35.8082 384.852C35.039 382.964 33.0267 382.197 33.132 379.822C33.1733 378.892 33.3694 378.08 33.2338 377.121C33.0234 375.633 31.9095 374.543 31.5479 373.069C31.1647 371.503 31.3947 369.453 33.852 369.136C35.7234 368.894 36.9097 370.172 37.555 371.676C38.1273 373.011 37.7731 374.168 38.0165 375.497C38.2628 376.844 39.8678 377.506 40.5056 378.68Z" fill="black"/>
<path d="M40.5056 378.68C41.2383 380.027 41.147 381.305 41.1013 382.793C41.0668 383.9 41.3571 384.398 41.6863 385.266C39.8654 384.969 38.0204 385.748 36.356 386.849C36.1754 386.098 36.1104 385.595 35.8082 384.852C35.039 382.964 33.0267 382.197 33.132 379.822C33.1733 378.892 33.3694 378.08 33.2338 377.121C33.0234 375.633 31.9095 374.543 31.5479 373.069C31.1647 371.503 31.3947 369.453 33.852 369.136C35.7234 368.894 36.9097 370.172 37.555 371.676C38.1273 373.011 37.7731 374.168 38.0165 375.497C38.2628 376.844 39.8678 377.506 40.5056 378.68Z" stroke="black" stroke-width="0.666667" stroke-miterlimit="10"/>
<path d="M32.5785 372.811C32.9379 374.284 34.0545 375.377 34.2635 376.864C34.4003 377.822 34.2058 378.634 34.1621 379.562C34.0555 381.939 36.0692 382.707 36.837 384.594C37.0964 385.232 37.1166 385.611 37.264 386.266C36.9361 386.447 36.6485 386.547 36.3397 386.751C36.1591 385.999 36.1088 385.596 35.8063 384.852C35.0382 382.965 33.0253 382.197 33.1315 379.82C33.1751 378.892 33.3696 378.08 33.2325 377.123C33.0236 375.635 31.9073 374.542 31.5478 373.07C31.1649 371.504 31.3948 369.452 33.8527 369.135C33.8759 369.134 33.9023 369.128 33.9267 369.131C32.3708 369.797 32.2542 371.479 32.5785 372.811Z" fill="white"/>
<path d="M32.5785 372.811C32.9379 374.284 34.0545 375.377 34.2635 376.864C34.4003 377.822 34.2058 378.634 34.1621 379.562C34.0555 381.939 36.0692 382.707 36.837 384.594C37.0964 385.232 37.1166 385.611 37.264 386.266C36.9361 386.447 36.6485 386.547 36.3397 386.751C36.1591 385.999 36.1088 385.596 35.8063 384.852C35.0382 382.965 33.0253 382.197 33.1315 379.82C33.1751 378.892 33.3696 378.08 33.2325 377.123C33.0236 375.635 31.9073 374.542 31.5478 373.07C31.1649 371.504 31.3948 369.452 33.8527 369.135C33.8759 369.134 33.9023 369.128 33.9267 369.131C32.3708 369.797 32.2542 371.479 32.5785 372.811Z" stroke="black" stroke-width="0.666667" stroke-miterlimit="10"/>
<path d="M35.3703 389.55C35.5211 390.046 34.3649 390.836 32.7878 391.316C31.2104 391.795 29.81 391.783 29.6592 391.287C29.5084 390.791 30.6648 390.001 32.2422 389.522C33.8193 389.042 35.2194 389.054 35.3703 389.55Z" fill="black"/>
<path d="M35.3703 389.55C35.5211 390.046 34.3649 390.836 32.7878 391.316C31.2104 391.795 29.81 391.783 29.6592 391.287C29.5084 390.791 30.6648 390.001 32.2422 389.522C33.8193 389.042 35.2194 389.054 35.3703 389.55Z" stroke="black" stroke-width="0.666667" stroke-miterlimit="10"/>
<path d="M97.6504 360.676L94.0064 361.379L95.2671 364.859L96.0971 363.391L99.3104 365.18L99.9487 364.052L96.7549 362.232C96.7549 362.232 97.6392 360.695 97.6504 360.676Z" fill="white"/>
<path d="M17.5411 316.645C18.0822 318.379 18.4759 320.104 18.731 321.782L-3.05958 328.408C-3.77597 326.912 -4.40626 325.314 -4.92807 323.621C-5.33971 322.288 -5.66936 320.956 -5.92031 319.656C-6.57748 316.181 -6.67073 312.865 -6.2418 309.974C-5.51689 305.026 -3.28547 301.34 0.146111 300.269C6.35464 298.347 14.1456 305.681 17.5411 316.645Z" fill="white"/>
<path d="M17.5411 316.645C18.0822 318.379 18.4759 320.104 18.731 321.782L-3.05958 328.408C-3.77597 326.912 -4.40626 325.314 -4.92807 323.621C-5.33971 322.288 -5.66936 320.956 -5.92031 319.656C-6.57748 316.181 -6.67073 312.865 -6.2418 309.974C-5.51689 305.026 -3.28547 301.34 0.146111 300.269C6.35464 298.347 14.1456 305.681 17.5411 316.645Z" stroke="black" stroke-width="0.666667" stroke-miterlimit="10"/>
<path d="M15.0527 322.901L0.909582 327.201C0.228953 325.846 -0.392612 324.389 -0.927004 322.859C-1.0992 322.361 -1.2543 321.872 -1.40385 321.38L6.01093 316.772L-2.48631 316.733C-3.48278 310.492 -2.29027 305.586 0.83314 304.768C4.93377 303.7 10.7942 310.074 13.9109 318.988C14.407 320.393 14.7728 321.664 15.0527 322.901Z" fill="black"/>
<path d="M15.0527 322.901L0.909582 327.201C0.228953 325.846 -0.392611 324.389 -0.927004 322.859C-1.0992 322.361 -1.2543 321.872 -1.40385 321.38L6.01093 316.772L-2.48631 316.733C-3.48278 310.492 -2.29027 305.586 0.83314 304.768C4.93377 303.7 10.7942 310.074 13.9109 318.988C14.407 320.393 14.7728 321.664 15.0527 322.901Z" stroke="black" stroke-width="0.666667" stroke-miterlimit="10"/>
<path d="M58.8467 304.443C59.3352 306.07 59.6939 307.682 59.9316 309.255L38.0714 315.902C37.3943 314.422 36.7942 312.835 36.2999 311.161C33.0118 300.166 35.3989 289.73 41.6286 287.876C45.0797 286.848 48.9874 288.674 52.3424 292.375C54.307 294.538 56.0844 297.348 57.46 300.605C57.9812 301.823 58.4473 303.106 58.8467 304.443Z" fill="white"/>
<path d="M58.8467 304.443C59.3352 306.07 59.6939 307.682 59.9316 309.255L38.0714 315.902C37.3943 314.422 36.7942 312.835 36.2999 311.161C33.0118 300.166 35.3989 289.73 41.6286 287.876C45.0797 286.848 48.9874 288.674 52.3424 292.375C54.307 294.538 56.0844 297.348 57.46 300.605C57.9812 301.823 58.4473 303.106 58.8467 304.443Z" stroke="black" stroke-width="0.666667" stroke-miterlimit="10"/>
<path d="M53.6447 286.307C53.6447 286.307 55.037 290.03 52.3418 292.375" stroke="black" stroke-width="0.666667" stroke-miterlimit="10"/>
<path d="M58.0361 289.565C58.0361 289.565 58.5094 293.903 54.9014 295.427" stroke="black" stroke-width="0.666667" stroke-miterlimit="10"/>
<path d="M60.8572 295.162C60.8572 295.162 61.0486 299.004 57.4624 300.603" stroke="black" stroke-width="0.666667" stroke-miterlimit="10"/>
<path d="M54.6683 304.551C54.8159 305.037 54.9614 305.536 55.0937 306.04C55.4798 307.539 55.7743 309.025 55.9633 310.462L41.7696 314.777C41.3456 313.653 40.9673 312.454 40.6138 311.089C38.2386 301.942 39.56 293.385 43.5605 291.989C46.6111 290.931 50.3319 294.341 52.985 300.08L45.9415 304.844L54.6683 304.551Z" fill="black"/>
<path d="M54.6683 304.551C54.8159 305.037 54.9614 305.536 55.0937 306.04C55.4798 307.539 55.7743 309.025 55.9633 310.462L41.7696 314.777C41.3456 313.653 40.9673 312.454 40.6138 311.089C38.2386 301.942 39.56 293.385 43.5605 291.989C46.6111 290.931 50.3319 294.341 52.985 300.08L45.9415 304.844L54.6683 304.551Z" stroke="black" stroke-width="0.666667" stroke-miterlimit="10"/>
<path d="M10.582 324.254C10.582 324.254 16.3436 337.447 33.2114 332.493C48.5041 328.001 45.997 313.63 45.997 313.63L10.582 324.254Z" fill="white"/>
<path d="M10.582 324.254C10.582 324.254 16.3436 337.447 33.2114 332.493C48.5041 328.001 45.997 313.63 45.997 313.63L10.582 324.254Z" stroke="black" stroke-width="0.666667" stroke-miterlimit="10"/>
<path d="M22.6177 333.307L19.0897 321.704" stroke="black" stroke-width="0.666667" stroke-miterlimit="10"/>
<path d="M33.0781 332.533L28.8911 318.763" stroke="black" stroke-width="0.666667" stroke-miterlimit="10"/>
<path d="M42.2041 327.044L38.7832 315.793" stroke="black" stroke-width="0.666667" stroke-miterlimit="10"/>
<path d="M32.7345 314.205C33.6166 317.107 31.9795 320.174 29.0782 321.057C26.1768 321.939 23.109 320.302 22.2268 317.4C21.3444 314.498 22.982 311.431 25.8833 310.549C28.7847 309.667 31.852 311.303 32.7345 314.205Z" fill="#F0366E"/>
<path d="M32.7345 314.205C33.6166 317.107 31.9795 320.174 29.0782 321.057C26.1768 321.939 23.109 320.302 22.2268 317.4C21.3444 314.498 22.982 311.431 25.8833 310.549C28.7847 309.667 31.852 311.303 32.7345 314.205Z" stroke="black" stroke-width="0.666667" stroke-miterlimit="10"/>
<path d="M26.82 284.853C22.5149 286.512 22.1235 287.188 22.5476 292.233C20.8561 287.461 20.2201 287.006 15.6135 287.269C19.9186 285.61 20.3108 284.933 19.8859 279.888C21.5783 284.66 22.2142 285.115 26.82 284.853Z" fill="#FE7354"/>
<path d="M26.82 284.853C22.5149 286.512 22.1235 287.188 22.5476 292.233C20.8561 287.461 20.2201 287.006 15.6135 287.269C19.9186 285.61 20.3108 284.933 19.8859 279.888C21.5783 284.66 22.2142 285.115 26.82 284.853Z" stroke="black" stroke-miterlimit="10"/>
<path d="M94.1875 288.21C88.2173 289.078 87.5217 289.828 86.6014 296.383C85.8261 289.809 85.1478 289.044 79.1976 288.045C85.1679 287.177 85.8635 286.427 86.7838 279.871C87.559 286.446 88.2382 287.21 94.1875 288.21Z" fill="#FE7354"/>
<path d="M94.1875 288.21C88.2173 289.078 87.5217 289.828 86.6014 296.383C85.8261 289.809 85.1478 289.044 79.1976 288.045C85.1679 287.177 85.8635 286.427 86.7838 279.871C87.559 286.446 88.2382 287.21 94.1875 288.21Z" stroke="black" stroke-miterlimit="10"/>
</g>
<defs>
<linearGradient id="paint0_linear_605_1817" x1="155.5" y1="-544.32" x2="155.5" y2="618.679" gradientUnits="userSpaceOnUse">
<stop stop-color="#5F11FB"/>
<stop offset="0.0001" stop-color="#271940"/>
<stop offset="0.0002" stop-color="#341B55"/>
<stop offset="1" stop-color="#341B55"/>
</linearGradient>
<linearGradient id="paint1_linear_605_1817" x1="-12.8691" y1="375.923" x2="98.075" y2="342.189" gradientUnits="userSpaceOnUse">
<stop stop-color="#FF1E56"/>
<stop offset="0.0001" stop-color="#66166D"/>
<stop offset="1" stop-color="#2C3FE1"/>
</linearGradient>
<clipPath id="clip0_605_1817">
<path d="M0 4.00001C0 1.79087 1.79086 0 4 0H208V439H4C1.79086 439 0 437.209 0 435V4.00001Z" fill="white"/>
</clipPath>
</defs>
</svg>
