<svg width="28" height="28" viewBox="0 0 28 28" fill="none" xmlns="http://www.w3.org/2000/svg">
<rect x="0.5" y="0.5" width="27" height="27" rx="5.5" fill="#FCBC34"/>
<rect x="0.5" y="0.5" width="27" height="27" rx="5.5" stroke="white"/>
<g style="mix-blend-mode:soft-light" opacity="0.4">
<path d="M14.0663 10.9145L13.3027 14.9282L14.0663 15.5378V10.9145Z" fill="#292B31"/>
</g>
<path d="M13.8686 17.625H13.7039C11.5812 17.6727 9.15495 18.7823 8.51849 21.1572C8.5039 21.1967 8.49783 21.2387 8.50069 21.2807C8.50354 21.3226 8.51525 21.3635 8.53507 21.4007C8.55489 21.4379 8.58237 21.4706 8.61577 21.4968C8.64918 21.5229 8.68776 21.542 8.72905 21.5526C8.77035 21.5633 8.81345 21.5653 8.8556 21.5587C8.89775 21.552 8.93803 21.5368 8.97385 21.5139C9.00968 21.4911 9.04026 21.4611 9.06366 21.426C9.08705 21.3908 9.10274 21.3513 9.10972 21.3098C9.66864 19.2401 11.8268 18.2704 13.7168 18.2291C15.5195 18.1941 17.8812 19.0693 18.6308 21.4156C18.6701 21.471 18.7263 21.5127 18.7913 21.5345C18.8563 21.5563 18.9267 21.5572 18.9922 21.537C19.0578 21.5168 19.1151 21.4766 19.1558 21.4222C19.1965 21.3677 19.2186 21.302 19.2187 21.2344C18.5306 19.0883 16.4403 17.625 13.8686 17.625Z" fill="#292B31"/>
<g clip-path="url(#clip0_2992_1622)">
<path d="M23.4062 11.1649C23.4062 9.58957 22.1331 8.3125 20.5625 8.3125C18.9919 8.3125 17.7188 9.58957 17.7188 11.1649V12.0226C17.7188 13.5979 18.9919 14.875 20.5625 14.875C22.1331 14.875 23.4062 13.5979 23.4062 12.0226V11.1649Z" fill="#292B31"/>
<path d="M19.6402 10.398C19.9166 10.398 20.1407 10.1739 20.1407 9.89749C20.1407 9.62106 19.9166 9.39697 19.6402 9.39697C19.3637 9.39697 19.1396 9.62106 19.1396 9.89749C19.1396 10.1739 19.3637 10.398 19.6402 10.398Z" fill="white"/>
<path opacity="0.1" d="M20.568 12.3263C21.2112 12.3263 21.7326 11.8048 21.7326 11.1616C21.7326 10.5184 21.2112 9.99695 20.568 9.99695C19.9248 9.99695 19.4033 10.5184 19.4033 11.1616C19.4033 11.8048 19.9248 12.3263 20.568 12.3263Z" fill="white"/>
<path d="M10.0625 11.1649C10.0625 9.58957 8.78931 8.3125 7.21875 8.3125C5.64819 8.3125 4.375 9.58957 4.375 11.1649V12.0226C4.375 13.5979 5.64819 14.875 7.21875 14.875C8.78931 14.875 10.0625 13.5979 10.0625 12.0226V11.1649Z" fill="#292B31"/>
<path d="M6.29641 10.398C6.57284 10.398 6.79693 10.1739 6.79693 9.89749C6.79693 9.62106 6.57284 9.39697 6.29641 9.39697C6.01999 9.39697 5.7959 9.62106 5.7959 9.89749C5.7959 10.1739 6.01999 10.398 6.29641 10.398Z" fill="white"/>
<path opacity="0.1" d="M7.22423 12.3263C7.86746 12.3263 8.38889 11.8048 8.38889 11.1616C8.38889 10.5184 7.86746 9.99695 7.22423 9.99695C6.58101 9.99695 6.05957 10.5184 6.05957 11.1616C6.05957 11.8048 6.58101 12.3263 7.22423 12.3263Z" fill="white"/>
</g>
<defs>
<clipPath id="clip0_2992_1622">
<rect width="19.1319" height="6.55483" fill="white" transform="translate(4.375 8.3125)"/>
</clipPath>
</defs>
</svg>
