<svg width="40" height="36" viewBox="0 0 40 36" fill="none" xmlns="http://www.w3.org/2000/svg">
<g filter="url(#filter0_dd_2115_3885)">
<g filter="url(#filter1_i_2115_3885)">
<path d="M34 6.61579V21.3746C34.0008 22.2443 33.8303 23.1057 33.498 23.9095C33.1657 24.7133 32.6783 25.4438 32.0636 26.0591C31.4489 26.6744 30.7189 27.1625 29.9155 27.4955C29.112 27.8286 28.2508 28 27.381 28H12.6222C10.8667 27.9992 9.1833 27.3016 7.94167 26.0606C6.70005 24.8196 6.0017 23.1365 6 21.381V6.62221C5.99916 5.7526 6.16977 4.89136 6.50206 4.08774C6.83436 3.28413 7.32183 2.55391 7.93659 1.93885C8.55134 1.3238 9.28133 0.835976 10.0848 0.503289C10.8882 0.170602 11.7494 -0.00042136 12.619 7.79573e-07H27.3778C28.247 -0.00042066 29.1078 0.170367 29.911 0.502614C30.7142 0.834861 31.4441 1.32206 32.0591 1.93639C32.674 2.55072 33.1619 3.28016 33.4949 4.08305C33.828 4.88595 33.9996 5.74657 34 6.61579Z" fill="#FCBC34"/>
</g>
<path d="M34 21.3746V6.61579C33.9996 5.74657 33.828 4.88595 33.4949 4.08305C33.1619 3.28016 32.674 2.55072 32.0591 1.93639C31.4441 1.32206 30.7142 0.834861 29.911 0.502614C29.1078 0.170367 28.247 -0.00042066 27.3778 0L34 21.3746ZM34 21.3746C34.0008 22.2443 33.8303 23.1057 33.498 23.9095C33.1657 24.7133 32.6783 25.4438 32.0636 26.0591C31.4489 26.6744 30.7189 27.1625 29.9155 27.4955C29.112 27.8286 28.2508 28 27.381 28H12.6222L34 21.3746ZM33.0331 4.27462C33.3409 5.01686 33.4996 5.81247 33.5 6.61603V21.3746V21.3751C33.5008 22.1791 33.3431 22.9755 33.0359 23.7185C32.7288 24.4616 32.2782 25.1369 31.7099 25.7057C31.1416 26.2745 30.4668 26.7258 29.724 27.0337C28.9812 27.3415 28.1851 27.5 27.381 27.5H12.6224C10.9994 27.4992 9.44307 26.8543 8.29514 25.707C7.14727 24.5596 6.50164 23.0037 6.5 21.3808L6.5 6.62221L6.5 6.62172C6.49922 5.81784 6.65694 5.02168 6.96412 4.2788C7.2713 3.53592 7.72193 2.86089 8.29023 2.29232C8.85852 1.72375 9.53333 1.2728 10.2761 0.965252C11.0188 0.657709 11.8149 0.49961 12.6188 0.500001H12.619L27.3778 0.500001L27.378 0.500001C28.1816 0.499611 28.9774 0.657498 29.7199 0.964646C30.4624 1.2718 31.1372 1.72219 31.7057 2.29012C32.2742 2.85804 32.7252 3.53238 33.0331 4.27462Z" stroke="white"/>
<g style="mix-blend-mode:soft-light" opacity="0.4">
<path d="M20.0663 10.9145L19.3027 14.9282L20.0663 15.5378V10.9145Z" fill="#292B31"/>
</g>
<g style="mix-blend-mode:soft-light" filter="url(#filter2_f_2115_3885)">
<path d="M14.2881 14.4375H11.9306C10.9507 14.4375 10.1562 15.221 10.1562 16.1875C10.1562 17.154 10.9507 17.9375 11.9306 17.9375H14.2881C15.2681 17.9375 16.0625 17.154 16.0625 16.1875C16.0625 15.221 15.2681 14.4375 14.2881 14.4375Z" fill="#C140A3"/>
</g>
<g style="mix-blend-mode:soft-light" filter="url(#filter3_f_2115_3885)">
<path d="M27.8541 14.4375H25.4897C24.5116 14.4375 23.7188 15.2203 23.7188 16.1859V16.1891C23.7188 17.1547 24.5116 17.9375 25.4897 17.9375H27.8541C28.8321 17.9375 29.625 17.1547 29.625 16.1891V16.1859C29.625 15.2203 28.8321 14.4375 27.8541 14.4375Z" fill="#C140A3"/>
</g>
<path d="M20.1186 18.1562H19.9539C17.8312 18.2039 15.4049 19.3135 14.7685 21.6885C14.7539 21.728 14.7478 21.77 14.7507 21.8119C14.7535 21.8538 14.7653 21.8947 14.7851 21.9319C14.8049 21.9691 14.8324 22.0019 14.8658 22.028C14.8992 22.0542 14.9378 22.0732 14.9791 22.0839C15.0203 22.0945 15.0634 22.0966 15.1056 22.0899C15.1478 22.0833 15.188 22.068 15.2239 22.0452C15.2597 22.0223 15.2903 21.9924 15.3137 21.9572C15.3371 21.9221 15.3527 21.8825 15.3597 21.8411C15.9186 19.7713 18.0768 18.8017 19.9668 18.7603C21.7695 18.7253 24.1312 19.6005 24.8808 21.9468C24.9201 22.0023 24.9763 22.0439 25.0413 22.0658C25.1063 22.0876 25.1767 22.0885 25.2422 22.0683C25.3078 22.0481 25.3651 22.0078 25.4058 21.9534C25.4465 21.899 25.4686 21.8332 25.4687 21.7656C24.7806 19.6196 22.6903 18.1562 20.1186 18.1562Z" fill="#292B31"/>
<g clip-path="url(#clip0_2115_3885)">
<path d="M29.4062 11.1649C29.4062 9.58957 28.1331 8.3125 26.5625 8.3125C24.9919 8.3125 23.7188 9.58957 23.7188 11.1649V12.0226C23.7188 13.5979 24.9919 14.875 26.5625 14.875C28.1331 14.875 29.4062 13.5979 29.4062 12.0226V11.1649Z" fill="#292B31"/>
<path d="M25.6402 10.398C25.9166 10.398 26.1407 10.1739 26.1407 9.89749C26.1407 9.62106 25.9166 9.39697 25.6402 9.39697C25.3637 9.39697 25.1396 9.62106 25.1396 9.89749C25.1396 10.1739 25.3637 10.398 25.6402 10.398Z" fill="white"/>
<path opacity="0.1" d="M26.568 12.3263C27.2112 12.3263 27.7326 11.8048 27.7326 11.1616C27.7326 10.5184 27.2112 9.99695 26.568 9.99695C25.9248 9.99695 25.4033 10.5184 25.4033 11.1616C25.4033 11.8048 25.9248 12.3263 26.568 12.3263Z" fill="white"/>
<path d="M16.0625 11.1649C16.0625 9.58957 14.7893 8.3125 13.2187 8.3125C11.6482 8.3125 10.375 9.58957 10.375 11.1649V12.0226C10.375 13.5979 11.6482 14.875 13.2187 14.875C14.7893 14.875 16.0625 13.5979 16.0625 12.0226V11.1649Z" fill="#292B31"/>
<path d="M12.2964 10.398C12.5728 10.398 12.7969 10.1739 12.7969 9.89749C12.7969 9.62106 12.5728 9.39697 12.2964 9.39697C12.02 9.39697 11.7959 9.62106 11.7959 9.89749C11.7959 10.1739 12.02 10.398 12.2964 10.398Z" fill="white"/>
<path opacity="0.1" d="M13.2242 12.3263C13.8675 12.3263 14.3889 11.8048 14.3889 11.1616C14.3889 10.5184 13.8675 9.99695 13.2242 9.99695C12.581 9.99695 12.0596 10.5184 12.0596 11.1616C12.0596 11.8048 12.581 12.3263 13.2242 12.3263Z" fill="white"/>
</g>
</g>
<defs>
<filter id="filter0_dd_2115_3885" x="2" y="0" width="36" height="36" filterUnits="userSpaceOnUse" color-interpolation-filters="sRGB">
<feFlood flood-opacity="0" result="BackgroundImageFix"/>
<feColorMatrix in="SourceAlpha" type="matrix" values="0 0 0 0 0 0 0 0 0 0 0 0 0 0 0 0 0 0 127 0" result="hardAlpha"/>
<feOffset dy="4"/>
<feGaussianBlur stdDeviation="2"/>
<feComposite in2="hardAlpha" operator="out"/>
<feColorMatrix type="matrix" values="0 0 0 0 0 0 0 0 0 0 0 0 0 0 0 0 0 0 0.25 0"/>
<feBlend mode="normal" in2="BackgroundImageFix" result="effect1_dropShadow_2115_3885"/>
<feColorMatrix in="SourceAlpha" type="matrix" values="0 0 0 0 0 0 0 0 0 0 0 0 0 0 0 0 0 0 127 0" result="hardAlpha"/>
<feOffset dy="4"/>
<feGaussianBlur stdDeviation="2"/>
<feComposite in2="hardAlpha" operator="out"/>
<feColorMatrix type="matrix" values="0 0 0 0 0 0 0 0 0 0 0 0 0 0 0 0 0 0 0.25 0"/>
<feBlend mode="normal" in2="effect1_dropShadow_2115_3885" result="effect2_dropShadow_2115_3885"/>
<feBlend mode="normal" in="SourceGraphic" in2="effect2_dropShadow_2115_3885" result="shape"/>
</filter>
<filter id="filter1_i_2115_3885" x="6" y="0" width="28" height="28" filterUnits="userSpaceOnUse" color-interpolation-filters="sRGB">
<feFlood flood-opacity="0" result="BackgroundImageFix"/>
<feBlend mode="normal" in="SourceGraphic" in2="BackgroundImageFix" result="shape"/>
<feColorMatrix in="SourceAlpha" type="matrix" values="0 0 0 0 0 0 0 0 0 0 0 0 0 0 0 0 0 0 127 0" result="hardAlpha"/>
<feOffset dx="-6" dy="-6"/>
<feComposite in2="hardAlpha" operator="arithmetic" k2="-1" k3="1"/>
<feColorMatrix type="matrix" values="0 0 0 0 0 0 0 0 0 0 0 0 0 0 0 0 0 0 0.04 0"/>
<feBlend mode="normal" in2="shape" result="effect1_innerShadow_2115_3885"/>
</filter>
<filter id="filter2_f_2115_3885" x="0.15625" y="4.4375" width="25.9062" height="23.5" filterUnits="userSpaceOnUse" color-interpolation-filters="sRGB">
<feFlood flood-opacity="0" result="BackgroundImageFix"/>
<feBlend mode="normal" in="SourceGraphic" in2="BackgroundImageFix" result="shape"/>
<feGaussianBlur stdDeviation="5" result="effect1_foregroundBlur_2115_3885"/>
</filter>
<filter id="filter3_f_2115_3885" x="13.7188" y="4.4375" width="25.9062" height="23.5" filterUnits="userSpaceOnUse" color-interpolation-filters="sRGB">
<feFlood flood-opacity="0" result="BackgroundImageFix"/>
<feBlend mode="normal" in="SourceGraphic" in2="BackgroundImageFix" result="shape"/>
<feGaussianBlur stdDeviation="5" result="effect1_foregroundBlur_2115_3885"/>
</filter>
<clipPath id="clip0_2115_3885">
<rect width="19.1319" height="6.55483" fill="white" transform="translate(10.375 8.3125)"/>
</clipPath>
</defs>
</svg>
